<svg width="61" height="125" viewBox="0 0 61 125" fill="none" xmlns="http://www.w3.org/2000/svg">
<path  d="M58.3198 123.515C57.4618 123.515 55.7457 122.657 55.7457 120.941V4.28871H35.1533L5.12261 18.0126L8.55469 34.3096L29.1471 24.8745H30.0052C30.8632 24.8745 32.5792 25.7322 32.5792 27.4477V121.799C32.5792 122.657 31.7212 124.372 30.0052 124.372C29.1471 124.372 27.4311 123.515 27.4311 121.799V30.0209L7.69666 39.4561C6.83865 39.4561 6.83866 39.4561 5.98064 39.4561C5.12262 39.4561 5.12261 38.5983 5.12261 37.7406L0.83252 17.1548C0.83252 16.2971 0.832523 15.4393 1.69054 14.5816L33.4372 0H34.2953H57.4618C58.3198 0 60.0358 0.857735 60.0358 2.57322V121.799C60.0358 122.657 59.1778 123.515 58.3198 123.515Z" fill="#86C8EA"/>
</svg>
