<svg width="91" height="127" viewBox="0 0 91 127" fill="none" xmlns="http://www.w3.org/2000/svg">
<path d="M87.5179 126.088H2.57406C1.71604 126.088 0 125.23 0 123.515V106.36C0 105.502 3.2603e-06 105.502 0.858022 104.644L16.3024 90.9206C42.9009 67.7615 54.0552 54.8955 54.9132 42.0293C54.9132 32.5942 48.9071 26.59 37.7528 26.59C30.0307 26.59 21.4505 30.021 13.7283 36.0251C12.8703 36.0251 12.8703 36.8829 12.0123 36.0251C11.1542 36.0251 11.1542 35.1674 10.2962 35.1674L2.57406 15.4393C2.57406 14.5816 2.57405 13.7239 3.43207 12.8661C14.5863 5.14645 29.1726 0 43.759 0C70.3575 0 87.5179 15.4393 87.5179 39.4561C87.5179 60.8996 72.0736 77.1967 54.9132 92.636L48.0491 98.6402H87.5179C88.3759 98.6402 90.092 99.498 90.092 101.213C90.092 102.071 89.234 103.787 87.5179 103.787H42.9009C42.0429 103.787 40.3269 102.929 40.3269 101.213C40.3269 100.356 40.3269 100.356 41.1849 99.498L52.3391 90.0628C71.2156 73.7657 83.2278 58.3264 83.2278 40.3138C83.2278 18.8703 67.7835 5.14643 43.759 5.14643C30.0307 5.14643 17.1604 9.43517 6.86415 16.2971L12.8703 32.5942C21.4505 26.59 29.1726 24.0167 37.7528 24.0167C51.4811 24.0167 59.2033 31.7364 59.2033 43.7448C59.2033 58.3264 46.333 72.0503 19.7344 96.067L5.14812 107.218V120.942H87.5179C88.3759 120.942 90.092 121.799 90.092 123.515C90.092 124.372 89.234 126.088 87.5179 126.088Z" fill="#86C8EA"/>
</svg>
