<svg width="90" height="131" viewBox="0 0 90 131" fill="none" xmlns="http://www.w3.org/2000/svg">
<path d="M38.5853 130.377C21.425 130.377 8.55469 126.088 1.69054 121.799C0.832523 120.941 0.83252 120.084 0.83252 119.226L6.83864 98.6402C6.83864 97.7825 7.69666 97.7825 7.69666 96.9247C8.55468 96.9247 8.55469 96.9247 9.41271 96.9247C11.9868 97.7825 23.999 103.787 36.0113 103.787C48.0236 103.787 55.7457 98.6402 55.7457 90.0628C55.7457 78.9122 43.7335 75.4812 33.4372 75.4812H22.283C21.425 75.4812 19.7089 74.6235 19.7089 72.908V52.3222C19.7089 51.4645 20.567 49.7489 22.283 49.7489H33.4372C35.1533 49.7489 52.3136 48.8913 52.3136 37.7406C52.3136 30.8787 46.3075 27.4477 36.8693 27.4477C27.4311 27.4477 17.1349 31.7364 12.8448 34.3096C11.9868 34.3096 11.9868 34.3096 11.1287 34.3096C10.2707 34.3096 10.2707 33.4519 10.2707 32.5941L4.26459 12.0084C4.26459 11.1506 4.26459 10.2929 5.12261 9.43514C11.9868 5.14643 26.5731 0 42.8754 0C72.0481 0 84.9184 16.2971 84.9184 31.7364C84.9184 43.7448 78.9122 53.18 66.9 59.1842C80.6283 63.4729 89.2085 75.4812 89.2085 89.2051C89.2085 91.7783 89.2084 94.3515 88.3504 96.9247C88.3504 97.7825 86.6344 98.6402 85.7764 98.6402C84.9184 98.6402 84.0603 96.9247 84.0603 96.067C84.9184 93.4938 84.9184 91.7783 84.9184 89.2051C84.9184 73.7658 72.9061 64.3306 60.8938 62.6151C60.0358 62.6151 59.1778 61.7574 59.1778 60.8996C59.1778 60.0419 60.0358 59.1842 60.8938 59.1842C74.6221 54.8954 81.4863 45.4603 81.4863 33.4519C81.4863 17.1548 66.0419 6.00416 43.7335 6.00416C29.1471 6.00416 16.2769 10.2929 9.41271 13.7238L13.7028 30.0209C18.8509 27.4477 28.2891 24.0167 37.7273 24.0167C52.3136 24.0167 57.4618 31.7364 57.4618 38.5984C57.4618 49.749 44.5915 54.0377 34.2952 54.8954H25.7151V70.3347H35.1533C48.0236 70.3347 61.7519 76.339 61.7519 89.2051C61.7519 100.356 52.3136 107.218 37.7273 107.218C26.5731 107.218 16.2768 102.929 11.1287 100.356L6.83864 117.511C12.8448 120.941 24.857 125.23 39.4434 125.23C40.3014 125.23 42.0174 126.088 42.0174 127.803C41.1594 129.519 40.3014 130.377 38.5853 130.377Z" fill="#86C8EA"/>
</svg>
