<svg width="100" height="125" viewBox="0 0 100 125" fill="none" xmlns="http://www.w3.org/2000/svg">
<path d="M83.1491 124.372H56.5505C55.6925 124.372 53.9765 123.515 53.9765 121.799V95.2093H3.35338C2.49536 95.2093 0.779297 94.3515 0.779297 92.636V74.6235V73.7657L46.2543 0.857744C46.2543 3.25924e-06 47.1123 0 47.9703 0H82.2911C83.1491 0 84.8652 0.857735 84.8652 2.57322V70.3348H96.8774C97.7354 70.3348 99.4515 71.1925 99.4515 72.908V93.4938C99.4515 94.3515 98.5934 96.067 96.8774 96.067H82.2911C81.4331 96.067 79.717 95.2093 79.717 93.4938C79.717 92.636 80.5751 90.9206 82.2911 90.9206H94.3034V74.6235H82.2911C81.4331 74.6235 79.717 73.7657 79.717 72.0502V4.28871H48.8284L4.21139 75.4812V90.9206H54.8345C55.6925 90.9206 57.4085 91.7783 57.4085 93.4938V120.084H81.4331C82.2911 120.084 84.0071 120.941 84.0071 122.657C84.0071 124.372 84.0071 124.372 83.1491 124.372ZM56.5505 74.6235H29.952C29.0939 74.6235 27.3779 73.7657 27.3779 72.0502V71.1925L43.6803 45.4603C46.2543 41.1716 47.9704 36.0251 50.5444 31.7364C52.2605 29.1632 53.1185 26.59 54.8345 23.159C54.8345 22.3013 55.6925 22.3013 56.5505 22.3013H57.4085C58.2666 22.3013 58.2666 22.3013 59.1246 23.159C59.9826 24.0168 59.9826 24.0167 59.9826 24.8745C59.1246 33.4519 59.1246 40.3138 59.1246 47.1758V73.7657C58.2666 73.7657 57.4086 74.6235 56.5505 74.6235ZM33.384 70.3348H54.8345V46.318C54.8345 42.0293 54.8345 37.7406 54.8345 32.5942C52.2605 37.7406 50.5444 42.0293 47.9703 46.318L33.384 70.3348Z" fill="#86C8EA"/>
</svg>
