<svg width="89" height="127" viewBox="0 0 89 127" fill="none" xmlns="http://www.w3.org/2000/svg">
<path d="M36.3223 126.088C20.8779 126.088 8.86565 122.657 2.0015 119.226C1.14348 118.368 0.285473 117.511 1.14349 116.653L6.29159 96.067C6.29159 95.2093 7.1496 95.2093 7.1496 94.3515C8.00762 94.3515 8.00766 94.3515 8.86567 94.3515C14.8718 96.9248 25.168 100.356 34.6062 100.356C45.7605 100.356 56.0567 95.2093 56.0567 84.0586C56.0567 72.0503 45.7604 66.0461 24.31 66.0461C18.3038 66.0461 14.0138 66.0461 8.86567 66.9038C8.00766 66.9038 7.1496 66.9038 7.1496 66.0461C6.29158 65.1883 6.29159 65.1883 6.29159 64.3306L14.0138 1.71549C14.0138 0.857748 14.8718 0 15.7298 0H81.7973C82.6553 0 84.3713 0.857735 84.3713 2.57322V25.7322C84.3713 26.59 83.5133 27.4477 81.7973 27.4477H37.1803L35.4642 41.1716C37.1803 41.1716 38.8963 41.1716 40.6124 41.1716C53.4826 41.1716 65.4949 44.6026 73.2171 50.6067C83.5133 57.4687 88.6614 68.6193 88.6614 82.3431C88.6614 90.0628 86.9454 96.9248 82.6553 102.929C81.7973 103.787 80.9392 104.644 80.0812 103.787C79.2232 102.929 78.3652 102.071 79.2232 101.213C82.6553 95.2093 84.3713 89.2051 84.3713 82.3431C84.3713 69.477 80.0812 60.0419 70.643 54.0377C62.9208 48.8912 52.6246 45.4603 40.6124 45.4603C38.0383 45.4603 35.4642 45.4603 32.8902 45.4603C32.0321 45.4603 31.1742 45.4603 31.1742 44.6026C30.3161 43.7448 30.3161 43.7448 30.3161 42.8871L32.8902 24.8745C32.8902 24.0168 33.7482 23.159 34.6062 23.159H79.2232V4.28871H19.1619L11.4397 62.6151C15.7298 61.7574 20.0199 61.7574 25.168 61.7574C49.1925 61.7574 61.2048 69.477 61.2048 84.0586C61.2048 97.7825 47.4765 104.644 35.4642 104.644C25.168 104.644 15.7298 102.071 9.72368 99.498L5.43359 116.653C11.4397 119.226 22.594 122.657 36.3223 122.657C37.1803 122.657 38.8963 123.515 38.8963 125.23C38.8963 124.372 38.0383 126.088 36.3223 126.088Z" fill="#86C8EA"/>
</svg>
