<svg width="96" height="127" viewBox="0 0 96 127" fill="none" xmlns="http://www.w3.org/2000/svg">
<path d="M50.4028 126.946C20.3721 126.946 0.637695 105.502 0.637695 72.908C0.637695 50.6067 8.35986 30.8787 22.0882 18.0126C34.1004 6.86198 50.4028 0.857741 69.2792 0C74.4273 0 77.8594 0 80.4334 0C81.2915 0 82.1494 0.85778 82.1494 1.71552V23.159C82.1494 24.0168 82.1495 24.0168 81.2914 24.8745C80.4334 24.8745 80.4334 25.7322 79.5754 25.7322C76.1434 25.7322 73.5693 25.7322 69.2792 25.7322C47.8287 27.4477 38.3905 36.8829 34.1004 46.318C40.1066 42.0293 46.9707 40.3139 55.5509 40.3139C78.7174 40.3139 95.0197 57.4686 95.0197 81.4854C95.0197 86.6318 94.1617 90.9206 93.3037 95.2093C93.3037 96.067 91.5876 96.9248 90.7296 96.9248C89.8716 96.9248 89.0136 95.2093 89.0136 94.3515C89.8716 90.0628 90.7296 85.7741 90.7296 81.4854C90.7296 60.0419 76.1433 44.6026 55.5509 44.6026C45.2547 44.6026 37.5325 47.1758 31.5263 53.18C31.5263 53.18 30.6684 54.0377 29.8103 54.0377H28.9523C28.0943 54.0377 28.0943 54.0377 27.2363 53.18C27.2363 52.3222 26.3782 52.3222 27.2363 51.4645C29.8103 41.1716 37.5325 23.159 68.4212 21.4435C71.8532 21.4435 74.4273 20.5858 77.0013 20.5858V3.43098C74.4273 3.43098 71.8532 3.43098 68.4212 3.43098C50.4028 4.28872 34.9585 10.2929 23.8042 20.5858C10.934 32.5942 3.21178 51.4645 3.21178 72.0503C3.21178 96.067 15.224 121.799 48.6867 121.799C49.5447 121.799 51.2608 122.657 51.2608 124.372C51.2608 126.088 51.2608 126.946 50.4028 126.946ZM49.5448 106.36C37.5325 106.36 28.9523 96.067 28.0943 80.6277C28.0943 77.1967 28.0943 74.6235 29.8103 72.908C33.2424 66.0461 40.1065 60.8997 48.6867 60.8997C60.699 60.8997 68.4212 70.3348 68.4212 84.0586C67.5631 96.9248 60.699 106.36 49.5448 106.36ZM32.3844 80.6277C33.2424 90.9206 37.5325 102.929 49.5448 102.929C58.125 102.929 63.2731 95.2093 63.2731 84.0586C63.2731 75.4812 58.9829 65.1884 47.8287 65.1884C41.8226 65.1884 35.8165 68.6193 33.2424 74.6235C32.3844 75.4812 32.3844 77.1967 32.3844 80.6277Z" fill="#86C8EA"/>
</svg>
