<svg width="42" height="42" viewBox="0 0 42 42" fill="none" xmlns="http://www.w3.org/2000/svg">
<path d="M0.5 23V33.5L3.5 35V39H7.5L8 34.5H34V39H38.5V34.5H41V22.5L38.5 20V9L37 5L33 3H8.5L5.5 5L3.5 8.5V19.5L0.5 23Z" fill="#E0F1F9"/>
<path fill-rule="evenodd" clip-rule="evenodd" d="M39.5391 9.59814V19.1574C41.031 20.2644 42 22.0383 42 24.0347V34.5347C42 34.9878 41.6327 35.3551 41.1797 35.3551H39.5391V38.9644C39.5391 39.4175 39.1718 39.7847 38.7188 39.7847H34.2881C33.835 39.7847 33.4678 39.4175 33.4678 38.9644V35.3551H8.53223V38.9644C8.53223 39.4175 8.16498 39.7847 7.71192 39.7847H3.28125C2.82819 39.7847 2.46094 39.4175 2.46094 38.9644V35.3551H0.820312C0.367254 35.3551 0 34.9878 0 34.5347V24.0347C0 22.0384 0.968953 20.2645 2.46094 19.1575V9.59814C2.46094 5.52726 5.77287 2.21533 9.84375 2.21533H17.7598H24.4043H32.1562C36.2271 2.21533 39.5391 5.52726 39.5391 9.59814ZM24.4043 3.85596H32.1562C35.3225 3.85596 37.8984 6.4319 37.8984 9.59814V18.2939C37.2806 18.0814 36.6188 17.9643 35.9297 17.9643H35.7656V13.2612C35.7656 11.5123 34.3427 10.0893 32.5937 10.0893H23.3516C22.4199 10.0893 21.5809 10.4933 21 11.135C20.4191 10.4933 19.5801 10.0893 18.6484 10.0893H9.40628C7.65729 10.0893 6.23438 11.5123 6.23438 13.2612V17.9643H6.07031C5.38125 17.9643 4.71942 18.0813 4.10156 18.2938V9.59814C4.10156 6.4319 6.67751 3.85596 9.84375 3.85596H17.7598H24.4043ZM21.8203 13.2612C21.8203 12.4168 22.5072 11.7299 23.3516 11.7299H32.5938C33.4382 11.7299 34.1251 12.4168 34.1251 13.2612V17.9643H21.8203V13.2612ZM7.875 13.2612C7.875 12.4168 8.56193 11.7299 9.40628 11.7299H18.6485C19.4928 11.7299 20.1798 12.4168 20.1798 13.2612V17.9643H7.875V13.2612ZM6.89161 38.144H4.10156V35.355H6.89161V38.144ZM37.8984 38.144H35.1084V35.355H37.8984V38.144ZM7.54039 29.7768H40.3594V24.0347C40.3594 21.5921 38.3722 19.605 35.9297 19.605H34.9453H21H7.05469H6.07031C3.62775 19.605 1.64062 21.5921 1.64062 24.0347V33.7143H3.2614C3.26434 33.7143 3.26725 33.7141 3.27017 33.7139C3.27176 33.7138 3.27335 33.7136 3.27495 33.7136C3.27703 33.7134 3.27913 33.7134 3.28125 33.7134H7.71192C7.71865 33.7134 7.72513 33.7142 7.73177 33.7143H34.2682C34.2749 33.7142 34.2814 33.7134 34.2881 33.7134H38.7188C38.7225 33.7134 38.7262 33.7136 38.7298 33.7139L38.7324 33.714L38.7347 33.7142C38.736 33.7143 38.7373 33.7143 38.7386 33.7143H40.3594V31.4175H7.54039V29.7768Z" fill="#86C8EA"/>
</svg>
