<svg width="100" height="100" viewBox="0 0 100 100" fill="none" xmlns="http://www.w3.org/2000/svg">
<path d="M44 84.5L45.5 98H54L55 90L57 84.5L62 78L73 74.5L81.5 68L88 61L91 52.5L92 41.5L85.5 30L92 23.5L97 11.5L99 1.5L91.5 2L92 8.5L87 19L81.5 25.5L78 23.5L62 16L45.5 14.5L28 19L17.5 25.5L9.5 11.5L7.5 1.5H1.5L4 16L13.5 30L10.5 36L7.5 46.5L9.5 56L16.5 68L28 74.5L38 78L44 84.5Z" fill="#77E14B" fill-opacity="0.15"/>
<path fill-rule="evenodd" clip-rule="evenodd" d="M100 1.6129V0H90.3226V1.6129C90.3226 9.70026 87.018 17.4852 81.2658 23.2319C73.3438 16.8693 62.2598 12.9032 50 12.9032C37.7402 12.9032 26.6562 16.8693 18.7342 23.2319C12.982 17.4852 9.67742 9.70026 9.67742 1.6129V0H0V1.6129C0 12.348 4.36145 22.7035 11.9983 30.2616C8.47247 35.1499 6.45161 40.7809 6.45161 46.7742C6.45161 60.6304 17.1048 72.95 33.5953 78.1565C39.5484 80.0372 43.5484 85.5729 43.5484 91.9308V100H56.4516V91.9308C56.4516 85.5729 60.4516 80.0372 66.4047 78.1565C82.8952 72.95 93.5484 60.6304 93.5484 46.7742C93.5484 40.7809 91.5275 35.1499 88.0017 30.2616C95.6385 22.7035 100 12.348 100 1.6129ZM3.26125 3.22581H6.4902C6.89185 11.5132 10.4193 19.4045 16.2936 25.3536C15.4998 26.1065 14.7485 26.8885 14.0389 27.695C7.54867 21.1465 3.66605 12.4031 3.26125 3.22581ZM65.4336 75.0803C58.1322 77.3871 53.2258 84.1584 53.2258 91.9308V96.7742H46.7742V91.9308C46.7742 84.16 41.8678 77.3871 34.5664 75.0803C19.447 70.3062 9.67742 59.1954 9.67742 46.7742C9.67742 29.8757 27.7659 16.129 50 16.129C72.2341 16.129 90.3226 29.8757 90.3226 46.7742C90.3226 59.1954 80.553 70.3062 65.4336 75.0803ZM83.7048 25.3536C89.5807 19.4045 93.1066 11.5132 93.5098 3.22581H96.7388C96.3355 12.4031 92.4513 21.1465 85.9595 27.695C85.25 26.8885 84.4986 26.1081 83.7048 25.3536ZM50 25.8064V29.0322C63.1741 29.0322 74.8031 35.45 77.05 43.9594L80.1695 43.1357C77.5611 33.2566 64.5917 25.8064 50 25.8064ZM12.9033 46.7741C12.9033 31.6547 29.5435 19.3547 50.0001 19.3547C70.4567 19.3547 87.0969 31.6547 87.0969 46.7741C87.0969 61.8935 70.4567 74.1935 50.0001 74.1935C29.5435 74.1935 12.9033 61.8935 12.9033 46.7741ZM16.1291 46.7741C16.1291 60.1144 31.3241 70.9676 50.0001 70.9676C66.3969 70.9676 80.1034 62.5999 83.2048 51.5293C78.3456 51.1678 75.5711 49.6581 72.8808 48.1901C70.0243 46.6323 67.3262 45.1612 61.8228 45.1612C56.3203 45.1612 53.6222 46.6318 50.7647 48.1893L50.7632 48.1901L50.7578 48.1931C47.6738 49.8744 44.4851 51.6128 38.1616 51.6128C31.8429 51.6128 28.6542 49.8744 25.5702 48.1931L25.5648 48.1901C23.0273 46.8064 20.6048 45.4967 16.2386 45.221C16.2281 45.3414 16.2166 45.4615 16.205 45.5817C16.1671 45.9767 16.1291 46.3719 16.1291 46.7741ZM74.426 45.3597C76.9642 46.7434 79.3923 48.0531 83.7616 48.3287C83.7721 48.2073 83.7837 48.0862 83.7953 47.9652C83.8332 47.5701 83.8711 47.1756 83.8711 46.7741C83.8711 33.4338 68.6761 22.5805 50.0001 22.5805C33.6033 22.5805 19.8968 30.9483 16.7938 42.0189C21.6499 42.3819 24.4228 43.8917 27.1115 45.3581L27.1133 45.359C29.9675 46.9164 32.6625 48.387 38.1616 48.387C43.6641 48.387 46.363 46.9159 49.221 45.3582L49.2212 45.3581L49.2267 45.3551C52.3106 43.6738 55.4993 41.9354 61.8228 41.9354C68.1476 41.9354 71.3364 43.6746 74.4225 45.3578L74.426 45.3597Z" fill="url(#paint0_linear)"/>
<defs>
<linearGradient id="paint0_linear" x1="50.9129" y1="-10.735" x2="50.9135" y2="118.642" gradientUnits="userSpaceOnUse">
<stop stop-color="#F0F83C"/>
<stop offset="1" stop-color="#3BB339"/>
</linearGradient>
</defs>
</svg>
