<svg width="25" height="24" viewBox="0 0 25 24" fill="none" xmlns="http://www.w3.org/2000/svg">
<path d="M2.74805 3H8.74805C9.80891 3 10.8263 3.42143 11.5765 4.17157C12.3266 4.92172 12.748 5.93913 12.748 7V21C12.748 20.2044 12.432 19.4413 11.8694 18.8787C11.3068 18.3161 10.5437 18 9.74805 18H2.74805V3Z" stroke="#0088EC" stroke-width="2" stroke-linecap="round" stroke-linejoin="round"/>
<path d="M22.748 3H16.748C15.6872 3 14.6698 3.42143 13.9196 4.17157C13.1695 4.92172 12.748 5.93913 12.748 7V21C12.748 20.2044 13.0641 19.4413 13.6267 18.8787C14.1893 18.3161 14.9524 18 15.748 18H22.748V3Z" stroke="#0088EC" stroke-width="2" stroke-linecap="round" stroke-linejoin="round"/>
</svg>
