<svg width="88" height="98" viewBox="0 0 88 98" fill="none" xmlns="http://www.w3.org/2000/svg">
<g filter="url(#filter0_d)">
<path d="M44 4L79.507 24.5V65.5L44 86L8.49296 65.5V24.5L44 4Z" fill="white"/>
<path d="M8.74296 24.6443L44 4.28868L79.257 24.6443V65.3557L44 85.7113L8.74296 65.3557V24.6443Z" stroke="#25A3E5" stroke-width="0.5"/>
</g>
<path fill-rule="evenodd" clip-rule="evenodd" d="M34.3666 29.9834C34.6341 29.6267 35.054 29.4167 35.4999 29.4167H52.4999C52.9458 29.4167 53.3657 29.6267 53.6333 29.9834L57.8746 35.6386C58.0577 35.8773 58.1666 36.176 58.1666 36.5001V56.3334C58.1666 57.4606 57.7188 58.5416 56.9218 59.3386C56.1248 60.1356 55.0438 60.5834 53.9166 60.5834H34.0833C32.9561 60.5834 31.8751 60.1356 31.078 59.3386C30.281 58.5416 29.8333 57.4606 29.8333 56.3334V36.5001C29.8333 36.176 29.9421 35.8773 30.1252 35.6386L34.3666 29.9834ZM51.7916 32.2501L53.9166 35.0834H34.0833L36.2083 32.2501H51.7916ZM38.3333 40.7501C39.1157 40.7501 39.7499 41.3843 39.7499 42.1667C39.7499 43.2939 40.1977 44.3749 40.9947 45.172C41.7917 45.969 42.8727 46.4167 43.9999 46.4167C45.1271 46.4167 46.2081 45.969 47.0051 45.172C47.8022 44.3749 48.2499 43.2939 48.2499 42.1667C48.2499 41.3843 48.8842 40.7501 49.6666 40.7501C50.449 40.7501 51.0833 41.3843 51.0833 42.1667C51.0833 44.0454 50.337 45.847 49.0086 47.1754C47.6802 48.5038 45.8785 49.2501 43.9999 49.2501C42.1213 49.2501 40.3196 48.5038 38.9912 47.1754C37.6629 45.847 36.9166 44.0454 36.9166 42.1667C36.9166 41.3843 37.5508 40.7501 38.3333 40.7501Z" fill="#0088EC"/>
<defs>
<filter id="filter0_d" x="0.49292" y="0" width="87.0141" height="98" filterUnits="userSpaceOnUse" color-interpolation-filters="sRGB">
<feFlood flood-opacity="0" result="BackgroundImageFix"/>
<feColorMatrix in="SourceAlpha" type="matrix" values="0 0 0 0 0 0 0 0 0 0 0 0 0 0 0 0 0 0 127 0" result="hardAlpha"/>
<feOffset dy="4"/>
<feGaussianBlur stdDeviation="4"/>
<feColorMatrix type="matrix" values="0 0 0 0 1 0 0 0 0 1 0 0 0 0 1 0 0 0 0.37 0"/>
<feBlend mode="normal" in2="BackgroundImageFix" result="effect1_dropShadow"/>
<feBlend mode="normal" in="SourceGraphic" in2="effect1_dropShadow" result="shape"/>
</filter>
</defs>
</svg>
