<svg width="24" height="24" viewBox="0 0 24 24" fill="none" xmlns="http://www.w3.org/2000/svg">
<path fill-rule="evenodd" clip-rule="evenodd" d="M4.17871 4.26518C6.17263 2.24911 8.94044 1 12 1C16.2747 1 19.9799 3.43832 21.8006 7H12C9.96134 7 8.20766 8.22009 7.42931 9.96992L4.37257 4.5114C4.31978 4.41713 4.25399 4.33473 4.17871 4.26518ZM2.852 5.8894C1.6822 7.6372 1 9.73893 1 12C1 17.0641 4.42205 21.3289 9.07985 22.6082C9.0983 22.565 9.12 22.5226 9.14506 22.4813L12.4845 16.9768C12.325 16.9922 12.1634 17 12 17C10.0461 17 8.35404 15.8793 7.53145 14.2456L2.852 5.8894ZM11.1876 22.9705C11.4558 22.99 11.7268 23 12 23C18.0751 23 23 18.0751 23 12C23 10.9587 22.8553 9.95116 22.5849 8.99644C22.5569 8.9988 22.5286 9 22.5 9H16.0004C16.6281 9.83566 17 10.8744 17 12C17 13.0292 16.689 13.9858 16.1559 14.781L11.1876 22.9705ZM14.6051 13.4813C14.615 13.4649 14.6254 13.4488 14.6362 13.4331C14.8682 13.0073 15 12.5191 15 12C15 10.3431 13.6569 9 12 9C10.3431 9 9 10.3431 9 12C9 12.4732 9.10955 12.9208 9.30468 13.3188L9.41252 13.5114C9.42303 13.5302 9.43287 13.5491 9.44204 13.5683C9.96977 14.4272 10.918 15 12 15C13.0269 15 13.9333 14.484 14.4741 13.6972L14.6051 13.4813Z" fill="#24243F"/>
</svg>
