<svg width="42" height="42" viewBox="0 0 42 42" fill="none" xmlns="http://www.w3.org/2000/svg">
<path d="M6.5 26L9.5 40.5L11 41.5H30.5L31.5 40.5L35 25.5H34L35.5 22V19.5L33 16.5V14L31.5 11.5L27.5 10L25.5 8.5V6L23 4.5H21L19.5 7L17.5 4.5L13.5 8.5L13 12.5L11.5 14L10 16.5L9.5 19.5L7.5 21L6.5 23L7.5 25.5L6.5 26Z" fill="#E0F1F9"/>
<path fill-rule="evenodd" clip-rule="evenodd" d="M35.2788 24.6738H35.2488C35.8889 23.8345 36.4511 22.708 36.4288 21.3531C36.3988 19.5218 35.3041 17.7301 33.1752 16.0278C33.4413 15.2286 33.4978 14.4405 33.3416 13.6685C32.765 10.8195 29.8457 9.56439 26.9868 8.85695L26.525 10.1473C27.5119 10.3884 28.356 10.659 29.0661 10.9643C29.2361 11.2217 29.2128 11.4066 29.1658 11.5544C28.9968 12.0839 27.9428 13.5399 21.8207 15.6175L22.258 16.906C24.4523 16.1613 26.2325 15.4177 27.549 14.6957C29.2151 13.782 30.168 12.8897 30.4621 11.9681C30.4838 11.9001 30.5011 11.8323 30.5156 11.7643C31.3521 12.3718 31.836 13.0881 32.0081 13.9386C32.2584 15.175 31.6964 16.5402 30.3378 17.9961L31.3326 18.9245C31.8408 18.3799 32.2564 17.8378 32.5802 17.2996C34.2094 18.6672 35.0466 20.0374 35.0685 21.3756C35.0927 22.8604 34.1123 24.0291 33.4099 24.6738H22.978C24.5077 23.8745 26.4891 22.7545 28.3562 21.4446L27.5747 20.3308C24.334 22.6045 20.6232 24.3402 19.8924 24.6738H8.44856C7.77248 23.9438 7.49707 22.9361 7.7469 22.0415C8.02974 21.0287 8.94321 20.3195 10.3191 20.0443C11.6113 19.7859 15.0284 19.0664 18.84 17.9704L18.4639 16.6627C15.0664 17.6397 11.9871 18.3134 10.4821 18.6228C10.2741 17.503 10.1366 15.0787 12.5174 14.0584C13.4362 13.6646 15.2983 13.3255 17.2696 12.9665L17.9282 12.8463L17.6826 11.5081L17.0259 11.628C15.7529 11.8598 14.5241 12.0836 13.5215 12.3288C13.614 10.7434 14.2855 7.94352 17.5611 5.8525C17.8069 6.21971 17.9156 6.39523 18.097 6.66737L18.7774 5.30668C18.5877 4.94383 18.5517 4.89848 18.4199 4.62126C18.3389 4.45117 18.1911 4.32227 18.0116 4.26521C17.832 4.20825 17.6368 4.22811 17.4726 4.32028C15.4387 5.46126 13.9536 6.98133 13.0586 8.8383C12.2931 10.4264 12.1516 11.8895 12.149 12.7403C12.0915 12.7626 12.0345 12.7849 11.9813 12.8078C10.2203 13.5625 9.20483 14.9993 9.04445 16.9628C8.98041 17.7476 9.06903 18.4638 9.16364 18.9553C7.76223 19.4575 6.78761 20.4175 6.43619 21.6756C6.15879 22.6687 6.30194 23.7462 6.79351 24.6739H6.25068C6.04377 24.6739 5.8481 24.7681 5.71893 24.9298C5.58984 25.0915 5.5414 25.3032 5.58721 25.505L8.95891 40.3407C9.18097 41.3177 10.0358 42 11.0377 42H30.4916C31.4934 42 32.3483 41.3177 32.5704 40.3407L35.9421 25.505C35.9879 25.3032 35.9394 25.0915 35.8104 24.9298C35.6815 24.768 35.4858 24.6738 35.2788 24.6738ZM10.2859 40.0391C10.3663 40.3924 10.6755 40.6392 11.0379 40.6392H11.8188C11.785 40.5318 11.7571 40.4202 11.7373 40.3041L9.30507 26.0345H7.10311L10.2859 40.0391ZM13.0788 40.0755C13.1415 40.4433 13.346 40.6392 13.4696 40.6392H14.5819C14.5541 40.5208 14.5325 40.3964 14.5177 40.2667L12.9004 26.0345H10.6854L13.0788 40.0755ZM15.8698 40.113C15.9017 40.3942 15.977 40.5622 16.0243 40.6392H17.3378C17.321 40.5111 17.3083 40.3743 17.3 40.2284L16.4935 26.0345H14.2699L15.8698 40.113ZM18.7167 40.6392H20.0844V26.0345H20.0429C20.0423 26.0345 20.0417 26.0345 20.0412 26.0346C20.0406 26.0346 20.04 26.0347 20.0394 26.0347C20.0386 26.0347 20.0378 26.0345 20.037 26.0345H17.8564L18.6584 40.1513C18.6704 40.3617 18.6934 40.5227 18.7167 40.6392ZM22.8129 40.6392C22.8362 40.5227 22.8591 40.3617 22.8711 40.1513L23.6732 26.0345H21.4451V40.6392H22.8129ZM24.1917 40.6392H25.5053C25.5528 40.5622 25.628 40.3942 25.6599 40.113L27.2598 26.0345H25.0361L24.2295 40.2284C24.2213 40.3743 24.2087 40.5112 24.1917 40.6392ZM26.9477 40.6392H28.0601C28.1836 40.6392 28.3882 40.4433 28.4508 40.0755L30.8441 26.0345H28.6292L27.012 40.2667C26.9972 40.3964 26.9756 40.5208 26.9477 40.6392ZM30.4917 40.6392C30.8541 40.6392 31.1633 40.3925 31.2436 40.0391L34.4265 26.0345H33.6703C33.6695 26.0345 33.6689 26.0346 33.6682 26.0346C33.6679 26.0346 33.6675 26.0346 33.6673 26.0345C33.667 26.0345 33.6667 26.0345 33.6665 26.0345H32.2245L29.7921 40.3041C29.7724 40.4202 29.7445 40.5318 29.7107 40.6392H30.4917Z" fill="#86C8EA"/>
<path fill-rule="evenodd" clip-rule="evenodd" d="M26.3579 8.70931C26.4662 8.34973 26.525 7.96892 26.525 7.5745C26.525 6.08191 25.6918 4.78037 24.4663 4.11C25.6856 1.63437 27.3113 1.36069 27.9653 1.36069C28.7985 1.36069 29.3223 1.53903 29.6254 1.69986C29.8612 1.82496 30.1469 1.80482 30.3594 1.64335C30.7549 1.34264 30.704 0.734772 30.2653 0.501368C29.7772 0.241568 29.0356 0 27.9653 0C26.6609 0 25.4376 0.600154 24.4275 1.73551C24.0874 2.11778 23.5959 2.76211 23.1667 3.6725C22.9749 3.64374 22.7787 3.6285 22.579 3.6285C21.0992 3.6285 19.8078 4.44773 19.1325 5.65611C18.9851 5.95117 18.6846 6.65367 18.6622 7.10325C18.6436 7.258 18.633 7.41502 18.633 7.57468C18.633 9.75051 20.4032 11.5207 22.579 11.5207C23.8576 11.5207 24.9957 10.9089 25.7172 9.96323C25.827 9.8177 26.1088 9.36317 26.3579 8.70931ZM25.1643 7.5745C25.1643 6.14895 24.0046 4.98919 22.579 4.98919C21.1536 4.98919 19.9937 6.14895 19.9937 7.5745C19.9937 9.00005 21.1535 10.1598 22.579 10.1598C24.0046 10.1598 25.1643 9.00005 25.1643 7.5745Z" fill="#86C8EA"/>
</svg>
