<svg width="89" height="62" viewBox="0 0 89 62" fill="none" xmlns="http://www.w3.org/2000/svg">
<path d="M53.2744 34.5895C53.7975 35.1127 54.4951 35.3743 55.1054 35.3743C55.803 35.3743 56.4133 35.1127 56.9365 34.5895C57.9828 33.5432 57.9828 31.8866 56.9365 30.9275L33.569 7.47279C33.0458 6.94964 32.4355 6.68806 31.7379 6.68806H17.0897C15.869 3.28757 12.6429 0.846191 8.8064 0.846191C3.92365 0.846191 0 4.76984 0 9.6526C0 14.5354 3.92365 18.459 8.8064 18.459C12.8172 18.459 16.2177 15.756 17.264 12.0068H30.6916L53.2744 34.5895ZM8.8064 13.1403C6.88818 13.1403 5.23153 11.5708 5.23153 9.5654C5.23153 7.55998 6.80099 6.07772 8.8064 6.07772C10.7246 6.07772 12.3813 7.64718 12.3813 9.6526C12.3813 11.658 10.7246 13.1403 8.8064 13.1403Z" fill="white"/>
<path d="M79.6934 43.8319C75.7697 43.8319 72.4564 46.4477 71.3229 50.0226H57.721L35.1382 27.3526C34.0919 26.3063 32.4352 26.3063 31.4761 27.3526C30.4298 28.3989 30.4298 30.0556 31.4761 31.0147L54.8436 54.3822C55.3668 54.9053 55.9771 55.1669 56.6747 55.1669H71.3229C72.4564 58.7418 75.7697 61.3575 79.6934 61.3575C84.4889 61.3575 88.4998 57.4339 88.4998 52.5511C88.4998 47.6684 84.4889 43.8319 79.6934 43.8319ZM79.6934 56.126C77.7752 56.126 76.1185 54.5565 76.1185 52.5511C76.1185 50.6329 77.688 48.9762 79.6934 48.9762C81.6116 48.9762 83.2683 50.5457 83.2683 52.5511C83.1811 54.5565 81.6116 56.126 79.6934 56.126Z" fill="white"/>
<path d="M69.4926 18.7207H62.0813C60.6862 18.7207 59.5527 17.5872 59.5527 16.1921V8.78077C59.5527 7.3857 60.6862 6.2522 62.0813 6.2522H69.4926C70.8877 6.2522 72.0212 7.3857 72.0212 8.78077V16.1921C71.934 17.5872 70.8877 18.7207 69.4926 18.7207Z" fill="white"/>
<path d="M29.4712 58.6545H22.0598C20.6647 58.6545 19.5312 57.521 19.5312 56.1259V48.7146C19.5312 47.3195 20.6647 46.186 22.0598 46.186H29.4712C30.8662 46.186 31.9997 47.3195 31.9997 48.7146V56.1259C31.9997 57.521 30.8662 58.6545 29.4712 58.6545Z" fill="white"/>
</svg>
