<svg width="15" height="89" viewBox="0 0 15 89" fill="none" xmlns="http://www.w3.org/2000/svg">
<path d="M7.53652 83.9003C6.47072 83.9003 5.40491 83.1019 5.40491 81.7712V7.78594C5.40491 6.7214 6.20427 5.65686 7.53652 5.65686C8.86877 5.65686 9.66811 6.45527 9.66811 7.78594V81.7712C9.66811 83.1019 8.60232 83.9003 7.53652 83.9003Z" fill="#0088EC"/>
<path d="M7.53658 15.7702C11.657 15.7702 14.9972 12.4339 14.9972 8.31843C14.9972 4.20293 11.657 0.866699 7.53658 0.866699C3.41618 0.866699 0.0759277 4.20293 0.0759277 8.31843C0.0759277 12.4339 3.41618 15.7702 7.53658 15.7702Z" fill="#0088EC"/>
<path d="M7.53658 88.9571C11.657 88.9571 14.9972 85.6208 14.9972 81.5053C14.9972 77.3898 11.657 74.0536 7.53658 74.0536C3.41618 74.0536 0.0759277 77.3898 0.0759277 81.5053C0.0759277 85.6208 3.41618 88.9571 7.53658 88.9571Z" fill="#0088EC"/>
</svg>
