<svg width="1533" preserveAspectRatio="none" height="111" viewBox="0 0 1533 111" fill="none" xmlns="http://www.w3.org/2000/svg">
<path d="M25.7982 78.9276C25.7982 79.4627 25.7982 79.864 25.7982 80.2654C25.7982 80.6667 25.7982 81.068 25.6982 81.3356C25.6982 81.6031 25.5981 81.8707 25.5981 82.1382C25.4981 82.4058 25.3982 82.8071 25.2982 83.2084C25.0982 83.6098 24.7982 84.2786 24.1982 85.2151C23.5982 86.1515 22.8982 87.0879 21.9982 88.0243C21.0982 88.9608 20.0982 89.7634 18.9982 90.4323C17.8982 91.1012 16.5982 91.3687 15.2982 91.3687C13.0982 91.3687 11.0982 90.4323 9.39819 88.5595C7.59819 86.6866 6.09819 83.8773 4.89819 80.2654C3.69819 76.6534 2.69817 72.2388 1.99817 66.8878C1.29817 61.5368 0.998167 55.5169 0.998167 48.8281C0.998168 41.8718 1.39814 35.5843 2.09814 30.0995C2.79814 24.6147 3.79814 19.9326 5.09814 16.0531C6.39814 12.1736 7.99816 9.23051 9.79816 7.22387C11.5982 5.21724 13.5982 4.14703 15.7982 4.14703C16.7982 4.14703 17.7982 4.41458 18.7982 4.81591C19.7982 5.35101 20.6982 5.88612 21.4982 6.68877C22.2982 7.49143 23.0982 8.29408 23.6982 9.23051C24.3982 10.1669 24.7982 10.9696 24.9982 11.6385C25.1982 12.1736 25.3982 12.7087 25.4982 12.9762C25.5982 13.2438 25.5981 13.5113 25.5981 13.9127C25.5981 14.1802 25.6982 14.5815 25.6982 14.9829C25.6982 15.3842 25.6982 15.9193 25.6982 16.4544C25.6982 17.1233 25.6982 17.6584 25.6982 18.0597C25.6982 18.461 25.5981 18.8624 25.5981 19.2637C25.5981 19.665 25.4982 19.7988 25.3982 20.0663C25.2982 20.2001 25.1981 20.3339 25.0981 20.3339C24.7981 20.3339 24.4982 19.9326 23.9982 18.9961C23.4982 18.0597 22.8982 17.1233 22.1982 16.0531C21.4982 14.9829 20.4982 13.9127 19.4982 13.11C18.3982 12.1736 17.0982 11.7722 15.6982 11.7722C14.0982 11.7722 12.5982 12.5749 11.1982 14.1802C9.79818 15.7855 8.69818 18.1935 7.69818 21.2703C6.69818 24.3472 5.99819 28.2266 5.39819 32.775C4.89819 37.3234 4.59814 42.6744 4.59814 48.5605C4.59814 54.3129 4.89819 59.2626 5.39819 63.6772C5.89819 68.0918 6.59814 71.8375 7.59814 74.7806C8.49814 77.8574 9.69814 80.1316 11.0981 81.7369C12.4981 83.3422 14.0982 84.1449 15.8982 84.1449C17.2982 84.1449 18.5982 83.7435 19.6982 82.8071C20.7982 81.8707 21.6982 80.9342 22.4982 79.864C23.2982 78.7938 23.8982 77.7236 24.3982 76.921C24.8982 75.9846 25.2982 75.5832 25.4982 75.5832C25.5982 75.5832 25.6982 75.5832 25.7982 75.717C25.8982 75.8508 25.8982 75.9846 25.9982 76.2521C25.9982 76.5197 26.0981 76.921 26.0981 77.4561C25.6981 77.7236 25.7982 78.2587 25.7982 78.9276Z" fill="#25A3E5"/>
<path d="M57.0983 87.8906C57.1983 88.5594 57.2983 89.0946 57.1983 89.4959C57.1983 89.8972 57.0983 90.2985 56.9983 90.4323C56.8983 90.6999 56.6983 90.8336 56.4983 90.8336C56.2983 90.8336 55.8983 90.9674 55.5983 90.9674C55.1983 90.9674 54.8983 90.9674 54.6983 90.8336C54.4983 90.8336 54.2983 90.6999 54.1983 90.5661C54.0983 90.4323 53.9983 90.2985 53.8983 90.031C53.7983 89.7634 53.7983 89.4959 53.6983 89.2283L50.3983 66.3527L35.0983 66.3527L31.8983 89.0946C31.8983 89.3621 31.7983 89.6297 31.6983 89.8972C31.5983 90.1648 31.4983 90.2985 31.3983 90.4323C31.2983 90.5661 31.0983 90.6999 30.8983 90.8336C30.6983 90.9674 30.3983 90.9674 30.0983 90.9674C29.6983 90.9674 29.3983 90.9674 29.1983 90.8336C28.8983 90.6999 28.7983 90.5661 28.5983 90.4323C28.4983 90.1648 28.3983 89.8972 28.3983 89.4959C28.3983 89.0946 28.3983 88.5594 28.4983 87.8906L40.6983 6.55499C40.7983 6.15366 40.7983 5.88611 40.8983 5.61856C40.9983 5.35101 41.0983 5.21724 41.2983 5.08346C41.4983 4.94969 41.6983 4.81591 41.8983 4.81591C42.0983 4.81591 42.3983 4.68214 42.6983 4.68214C42.9983 4.68214 43.2983 4.68213 43.4983 4.81591C43.6983 4.94968 43.8983 4.94969 44.0983 5.08346C44.2983 5.21724 44.3983 5.35101 44.4983 5.61856C44.5983 5.88611 44.6983 6.15366 44.6983 6.55499L57.0983 87.8906ZM42.6983 13.7789L36.0983 59.7977L49.3983 59.7977L42.6983 13.7789Z" fill="#25A3E5"/>
<path d="M99.6987 89.2283C99.6987 89.4959 99.6987 89.7634 99.5987 89.8972C99.4987 90.1648 99.4987 90.2985 99.2987 90.4323C99.1987 90.5661 98.9987 90.6999 98.7987 90.6999C98.5987 90.8336 98.2987 90.8336 97.9987 90.8336C97.6987 90.8336 97.4987 90.8336 97.1987 90.6999C96.9987 90.5661 96.7987 90.5661 96.6987 90.4323C96.5987 90.2985 96.4987 90.1648 96.3987 89.8972C96.2987 89.6297 96.2987 89.4959 96.2987 89.2283L96.2987 12.1736L96.1987 12.1736L82.4987 89.7634C82.4987 89.8972 82.3987 90.1648 82.2987 90.2985C82.1987 90.4323 82.0987 90.5661 81.9987 90.6999C81.8987 90.8336 81.6987 90.8336 81.5987 90.9674C81.3987 90.9674 81.1987 91.1012 80.9987 91.1012C80.6987 91.1012 80.4987 91.1012 80.3987 90.9674C80.1987 90.9674 80.0987 90.8336 79.9987 90.6999C79.8987 90.5661 79.7987 90.4323 79.6987 90.2985C79.5987 90.1648 79.5987 90.031 79.5987 89.7634L66.5987 12.1736L66.5987 89.3621C66.5987 89.6297 66.5987 89.8972 66.4987 90.031C66.3987 90.2985 66.3987 90.4323 66.1987 90.5661C66.0987 90.6999 65.8987 90.8336 65.6987 90.8336C65.4987 90.9674 65.1987 90.9674 64.8987 90.9674C64.5987 90.9674 64.2987 90.9674 64.0987 90.8336C63.8987 90.6999 63.6987 90.6999 63.5987 90.5661C63.4987 90.4323 63.3987 90.2985 63.2987 90.031C63.2987 89.7634 63.1987 89.6297 63.1987 89.3621L63.1987 9.23051C63.1987 7.6252 63.3987 6.555 63.6987 6.01989C63.9987 5.48479 64.3987 5.08346 64.6987 5.08346L66.4987 5.08346C66.8987 5.08346 67.2987 5.21724 67.6987 5.48479C67.9987 5.75234 68.2987 6.01989 68.5987 6.55499C68.8987 6.95632 69.0987 7.6252 69.2987 8.29408C69.4987 8.96295 69.5987 9.76561 69.7987 10.5683L81.3987 78.3925L81.4987 78.3925L93.4987 10.702C93.6987 9.63184 93.8987 8.69541 94.0987 8.02653C94.2987 7.35765 94.4987 6.68877 94.6987 6.28744C94.8987 5.88612 95.1987 5.48479 95.3987 5.35102C95.6987 5.21724 95.8987 5.08347 96.1987 5.08347L98.1987 5.08347C98.3987 5.08347 98.4987 5.08346 98.6987 5.21724C98.8987 5.35101 98.9987 5.61857 99.1987 5.88612C99.2987 6.15367 99.4987 6.68877 99.5987 7.22387C99.6987 7.75898 99.6987 8.42785 99.6987 9.23051L99.6987 89.2283Z" fill="#25A3E5"/>
<path d="M137.798 46.8215C137.798 53.644 137.498 59.7977 136.798 65.4163C136.198 70.9011 135.198 75.717 133.898 79.5965C132.598 83.476 130.998 86.5528 129.098 88.5595C127.198 90.6999 124.898 91.7701 122.298 91.7701C119.698 91.7701 117.498 90.6999 115.698 88.827C113.898 86.9542 112.298 84.0111 111.098 80.2654C109.898 76.5197 108.998 71.9713 108.498 66.6202C107.898 61.2692 107.698 55.1155 107.698 48.4268C107.698 41.738 107.998 35.5843 108.598 30.2333C109.198 24.7485 110.198 20.0663 111.498 16.1868C112.798 12.3074 114.398 9.36429 116.298 7.22388C118.198 5.08347 120.498 4.01327 123.098 4.01327C125.598 4.01327 127.798 4.94969 129.698 6.95633C131.598 8.96296 133.098 11.7723 134.298 15.518C135.498 19.2637 136.398 23.6783 136.998 29.0293C137.598 34.2466 137.798 40.1327 137.798 46.8215ZM134.398 47.6241C134.398 42.5406 134.198 37.8585 133.798 33.3101C133.398 28.8955 132.798 25.016 131.898 21.8054C130.998 18.461 129.798 15.9193 128.398 14.0464C126.898 12.1736 125.098 11.2371 122.898 11.2371C120.798 11.2371 118.898 12.1736 117.498 14.1802C115.998 16.1868 114.798 18.7286 113.898 22.073C112.998 25.4174 112.298 29.2969 111.898 33.5777C111.498 37.9923 111.298 42.6744 111.298 47.4903C111.298 52.7076 111.498 57.5235 111.898 61.9381C112.298 66.3527 112.898 70.366 113.798 73.5766C114.698 76.921 115.798 79.4627 117.298 81.3356C118.798 83.2084 120.598 84.1449 122.798 84.1449C124.998 84.1449 126.798 83.2084 128.298 81.2018C129.798 79.1952 130.998 76.5196 131.898 73.1753C132.798 69.8309 133.498 65.9514 133.898 61.5368C134.198 57.1222 134.398 52.44 134.398 47.6241Z" fill="#25A3E5"/>
<path d="M167.398 89.2283C167.398 89.4959 167.398 89.7634 167.298 89.8972C167.198 90.1648 167.198 90.2985 166.998 90.4323C166.898 90.5661 166.698 90.6999 166.498 90.6999C166.298 90.8336 165.998 90.8337 165.698 90.8337C165.398 90.8337 165.098 90.8336 164.898 90.6999C164.698 90.5661 164.498 90.5661 164.398 90.4323C164.298 90.2985 164.198 90.1648 164.098 89.8972C163.998 89.6297 163.998 89.4959 163.998 89.2283L163.998 12.4411L152.898 12.4411C152.398 22.6081 151.998 31.7048 151.498 39.5976C150.998 47.4903 150.598 54.3129 149.998 60.199C149.498 66.0852 148.898 71.0349 148.298 75.0481C147.698 79.0614 146.998 82.272 146.198 84.68C145.398 87.0879 144.498 88.9608 143.498 90.031C142.498 91.1012 141.398 91.6363 140.098 91.6363C139.998 91.6363 139.798 91.5025 139.698 91.3687C139.598 91.235 139.498 90.9674 139.398 90.5661C139.298 90.2985 139.298 89.7634 139.198 89.3621C139.198 88.827 139.098 88.2919 139.098 87.7568C139.098 87.0879 139.098 86.5528 139.198 86.0177C139.198 85.6164 139.298 85.2151 139.398 84.8138C139.498 84.5462 139.598 84.2787 139.698 84.1449C139.798 84.0111 139.898 83.8773 139.998 83.8773C140.698 83.8773 141.398 83.476 141.998 82.8071C142.598 82.1382 143.198 80.8005 143.798 78.7938C144.398 76.921 144.898 74.1117 145.398 70.6335C145.898 67.1554 146.398 62.7408 146.898 57.1222C147.398 51.6374 147.898 44.9486 148.298 37.1896C148.798 29.4306 149.198 20.2001 149.698 9.49807C149.798 7.89276 149.898 6.68878 150.198 6.0199C150.398 5.35103 150.798 4.94969 151.298 4.94969L165.798 4.9497C166.198 4.9497 166.598 5.35103 166.798 6.0199C167.098 6.68878 167.198 7.75899 167.198 9.09674L167.198 89.2283L167.398 89.2283Z" fill="#25A3E5"/>
<path d="M180.898 89.2283C180.898 89.4959 180.898 89.7634 180.798 89.8972C180.698 90.1648 180.698 90.2985 180.498 90.4323C180.398 90.5661 180.198 90.6999 179.998 90.6999C179.798 90.8336 179.498 90.8337 179.198 90.8337C178.898 90.8337 178.598 90.8336 178.398 90.6999C178.198 90.5661 177.998 90.5661 177.898 90.4323C177.798 90.2985 177.698 90.1648 177.598 89.8972C177.498 89.6297 177.498 89.4959 177.498 89.2283L177.498 6.28745C177.498 6.0199 177.498 5.75235 177.598 5.61857C177.698 5.35102 177.798 5.21725 177.898 5.08347C177.998 4.9497 178.198 4.81592 178.398 4.81592C178.598 4.68215 178.898 4.68215 179.098 4.68215C179.398 4.68215 179.698 4.68215 179.898 4.81592C180.098 4.9497 180.298 4.9497 180.398 5.08347C180.498 5.21725 180.598 5.35102 180.698 5.61857C180.798 5.88612 180.798 6.0199 180.798 6.28745L180.798 89.2283L180.898 89.2283Z" fill="#25A3E5"/>
<path d="M212.699 89.0946C212.699 89.3621 212.699 89.6297 212.599 89.8972C212.499 90.1648 212.499 90.2985 212.299 90.4323C212.099 90.5661 211.999 90.6999 211.799 90.8337C211.599 90.9674 211.299 90.9674 210.999 90.9674C210.599 90.9674 210.299 90.9674 210.099 90.8337C209.899 90.6999 209.699 90.5661 209.599 90.4323C209.499 90.2985 209.399 90.031 209.299 89.7634C209.199 89.4959 209.199 89.0946 209.099 88.6932L205.699 66.754C205.299 63.9448 204.799 61.5368 204.199 59.3964C203.599 57.3897 202.999 55.6507 202.199 54.1791C201.399 52.8414 200.599 51.7712 199.599 51.1023C198.599 50.4334 197.499 50.1659 196.399 50.1659L194.299 50.1659L194.299 89.3621C194.299 89.6297 194.299 89.8972 194.199 90.031C194.099 90.2985 194.099 90.4323 193.899 90.5661C193.799 90.6999 193.599 90.8337 193.399 90.8337C193.199 90.9674 192.899 90.9674 192.599 90.9674C192.299 90.9674 191.999 90.9674 191.799 90.8337C191.599 90.6999 191.399 90.6999 191.299 90.5661C191.199 90.4323 191.099 90.2985 190.999 90.031C190.899 89.7634 190.899 89.6297 190.899 89.3621L190.899 6.42123C190.899 6.15368 190.899 5.88613 190.999 5.75235C191.099 5.4848 191.099 5.35102 191.299 5.21725C191.499 5.08347 191.599 4.94969 191.799 4.94969C191.999 4.81592 192.299 4.81592 192.599 4.81592C192.899 4.81592 193.199 4.81592 193.399 4.94969C193.599 5.08347 193.799 5.08347 193.899 5.21725C193.999 5.35102 194.099 5.4848 194.199 5.75235C194.299 6.0199 194.299 6.15368 194.299 6.42123L194.299 42.942L196.399 42.942C197.599 42.942 198.699 42.5406 199.599 41.8718C200.499 41.2029 201.299 40.1327 201.999 38.7949C202.699 37.4572 203.299 35.7181 203.799 33.7115C204.299 31.7048 204.799 29.2969 205.199 26.6213L207.999 7.09011C208.099 6.68878 208.099 6.28746 208.199 6.0199C208.299 5.75235 208.399 5.4848 208.499 5.21725C208.599 5.08347 208.799 4.81592 208.999 4.81592C209.199 4.68215 209.499 4.68215 209.899 4.68215C210.199 4.68215 210.499 4.68215 210.699 4.81592C210.899 4.9497 211.099 5.08347 211.199 5.21725C211.299 5.35102 211.399 5.61858 211.399 5.75235C211.399 6.0199 211.499 6.28745 211.499 6.555C211.499 6.95633 211.499 7.49143 211.399 7.89276C211.399 8.29409 211.299 8.82919 211.199 9.23052L208.199 28.4942C207.799 31.0359 207.399 33.3101 206.999 35.3168C206.599 37.1896 206.099 38.9287 205.599 40.2665C205.099 41.6042 204.499 42.8082 203.899 43.7446C203.299 44.6811 202.599 45.3499 201.799 45.885L201.799 46.0188C202.699 46.6877 203.499 47.6241 204.199 48.5605C204.899 49.6308 205.499 50.8347 206.099 52.3063C206.699 53.7778 207.199 55.5169 207.699 57.5235C208.199 59.5302 208.599 61.9381 209.099 64.6136L212.499 86.4191C212.599 87.2217 212.699 87.7568 212.699 88.1581C212.699 88.5595 212.699 88.827 212.699 89.0946Z" fill="#25A3E5"/>
<path d="M232.898 66.6203C231.998 71.8375 231.298 76.1183 230.598 79.3289C229.898 82.5396 229.198 85.0813 228.498 86.8204C227.798 88.5595 227.098 89.7634 226.298 90.4323C225.498 91.1012 224.598 91.3687 223.498 91.3687C223.098 91.3687 222.798 91.3687 222.398 91.235C221.998 91.1012 221.698 90.9674 221.398 90.6999C221.098 90.4323 220.798 90.1648 220.498 89.8972C220.198 89.6297 220.098 89.3621 219.898 89.0946C219.798 88.827 219.698 88.6932 219.698 88.4257C219.598 88.1581 219.598 87.8906 219.598 87.623C219.598 87.3555 219.498 86.8204 219.498 86.4191C219.498 85.884 219.498 85.3488 219.498 84.68C219.498 83.476 219.598 82.5396 219.698 82.0045C219.798 81.4693 219.998 81.2018 220.198 81.2018C220.298 81.2018 220.498 81.3356 220.698 81.6031C220.898 81.8707 221.098 82.1382 221.398 82.5396C221.698 82.8071 221.998 83.2084 222.398 83.476C222.798 83.7435 223.198 83.8773 223.798 83.8773C224.298 83.8773 224.798 83.7435 225.198 83.476C225.598 83.2084 225.998 82.6733 226.398 81.7369C226.798 80.8005 227.198 79.5965 227.598 77.8574C227.998 76.1183 228.498 73.9779 228.998 71.0349L216.098 7.89276C215.998 7.22388 215.898 6.68878 215.898 6.28745C215.898 5.88612 215.898 5.61858 216.098 5.35102C216.198 5.08347 216.398 4.94969 216.698 4.94969C216.998 4.81592 217.298 4.81592 217.698 4.81592C217.998 4.81592 218.298 4.81592 218.498 4.94969C218.698 5.08347 218.898 5.21725 218.998 5.35102C219.098 5.4848 219.298 5.75235 219.298 5.88612C219.398 6.15368 219.498 6.42123 219.498 6.68878L226.398 40.8016C227.198 44.6811 227.898 48.293 228.598 51.7712C229.298 55.2493 229.998 58.7275 230.598 62.2057L230.698 62.2057C231.198 58.7275 231.798 55.1156 232.398 51.5036C232.998 47.8917 233.598 43.8784 234.398 39.4638L239.498 6.42123C239.598 6.15368 239.598 5.88612 239.698 5.61857C239.798 5.35102 239.898 5.21725 239.998 5.08347C240.098 4.9497 240.298 4.81592 240.598 4.81592C240.798 4.81592 241.098 4.68215 241.498 4.68215C241.898 4.68215 242.198 4.68215 242.398 4.81592C242.598 4.9497 242.798 5.08347 242.898 5.35103C242.998 5.61858 243.098 5.88613 243.098 6.15368C243.098 6.42123 243.098 6.82255 242.998 7.22388L232.898 66.6203Z" fill="#25A3E5"/>
<path d="M270.398 66.6203C270.398 69.162 270.298 71.4362 269.998 73.5766C269.798 75.717 269.398 77.7236 268.998 79.4627C268.598 81.2018 267.998 82.8071 267.398 84.1449C266.798 85.4826 265.998 86.6866 265.198 87.623C264.398 88.5595 263.498 89.2283 262.598 89.7634C261.698 90.2985 260.498 90.4323 259.298 90.4323L250.298 90.4323C249.998 90.4323 249.598 90.1648 249.298 89.4959C248.998 88.9608 248.798 87.7568 248.798 86.2853L248.798 9.23052C248.798 7.62521 248.998 6.55501 249.298 6.01991C249.598 5.4848 249.998 5.08348 250.298 5.08348L257.798 5.08348C259.798 5.08348 261.498 5.61858 262.698 6.55501C263.998 7.62521 264.998 8.96297 265.798 10.8358C266.598 12.7087 267.198 14.9829 267.598 17.6584C267.998 20.3339 268.198 23.277 268.198 26.4876C268.198 28.4942 268.098 30.5008 267.898 32.2399C267.698 34.1128 267.398 35.8519 267.098 37.4572C266.698 39.0625 266.298 40.534 265.698 41.738C265.098 43.0758 264.498 44.146 263.698 44.9486C264.598 45.3499 265.498 46.1526 266.298 47.4904C267.098 48.6943 267.798 50.2996 268.498 52.0387C269.098 53.9116 269.598 56.052 269.998 58.4599C270.198 61.1355 270.398 63.811 270.398 66.6203ZM264.598 27.1565C264.598 24.8823 264.498 22.8756 264.198 21.0028C263.898 19.1299 263.598 17.6584 262.998 16.3206C262.498 14.9829 261.698 14.0464 260.898 13.3776C259.998 12.7087 258.798 12.3074 257.398 12.3074L251.998 12.3074L251.998 42.942L257.998 42.942C259.298 42.942 260.398 42.5407 261.198 41.6042C261.998 40.8016 262.698 39.5976 263.198 38.1261C263.698 36.6545 264.098 35.0492 264.398 33.0426C264.498 31.1697 264.598 29.1631 264.598 27.1565ZM266.898 67.2891C266.898 64.4799 266.698 61.9381 266.298 59.7977C265.898 57.6573 265.398 55.7844 264.698 54.3129C263.998 52.8414 263.098 51.7712 262.098 50.9685C261.098 50.1659 259.798 49.8983 258.198 49.8983L251.898 49.8983L251.898 83.3422L259.498 83.3422C260.598 83.3422 261.598 82.9409 262.398 82.272C263.198 81.6031 263.998 80.5329 264.698 79.1952C265.398 77.8574 265.898 76.1183 266.298 74.1117C266.698 72.3726 266.898 69.9646 266.898 67.2891Z" fill="#25A3E5"/>
<path d="M302.299 87.8906C302.399 88.5595 302.499 89.0946 302.399 89.4959C302.399 89.8972 302.299 90.2986 302.199 90.4323C302.099 90.6999 301.899 90.8337 301.699 90.8337C301.499 90.8337 301.099 90.9674 300.799 90.9674C300.399 90.9674 300.099 90.9674 299.899 90.8337C299.699 90.8337 299.499 90.6999 299.399 90.5661C299.299 90.4323 299.199 90.2985 299.099 90.031C298.999 89.7634 298.999 89.4959 298.899 89.2284L295.499 66.4865L280.199 66.4865L276.999 89.2284C276.999 89.4959 276.899 89.7634 276.799 90.031C276.699 90.2985 276.599 90.4323 276.499 90.5661C276.399 90.6999 276.199 90.8337 275.999 90.9674C275.799 91.1012 275.499 91.1012 275.199 91.1012C274.799 91.1012 274.499 91.1012 274.299 90.9674C273.999 90.8337 273.899 90.6999 273.699 90.5661C273.599 90.2985 273.499 90.031 273.499 89.6297C273.499 89.2283 273.499 88.6932 273.599 88.0244L285.799 6.68879C285.899 6.28746 285.899 6.01991 285.999 5.75236C286.099 5.48481 286.199 5.35103 286.399 5.21725C286.599 5.08348 286.799 4.9497 286.999 4.9497C287.199 4.9497 287.499 4.81593 287.799 4.81593C288.099 4.81593 288.399 4.81593 288.599 4.9497C288.799 4.9497 288.999 5.08348 289.199 5.21725C289.399 5.35103 289.499 5.48481 289.599 5.75236C289.699 6.01991 289.799 6.28746 289.799 6.68879L302.299 87.8906ZM287.799 13.7789L281.199 59.7977L294.499 59.7977L287.799 13.7789Z" fill="#25A3E5"/>
<path d="M332.499 89.2284C332.499 89.4959 332.499 89.7635 332.399 89.8972C332.299 90.1648 332.299 90.2986 332.099 90.4323C331.999 90.5661 331.799 90.6999 331.599 90.6999C331.399 90.8337 331.099 90.8337 330.799 90.8337C330.499 90.8337 330.199 90.8337 329.999 90.6999C329.799 90.5661 329.599 90.5661 329.499 90.4323C329.399 90.2986 329.299 90.1648 329.199 89.8972C329.099 89.6297 329.099 89.4959 329.099 89.2284L329.099 49.3632L311.799 49.3632L311.799 89.2284C311.799 89.4959 311.799 89.7635 311.699 89.8972C311.599 90.1648 311.599 90.2986 311.399 90.4323C311.299 90.5661 311.099 90.6999 310.899 90.6999C310.699 90.8337 310.399 90.8337 310.099 90.8337C309.799 90.8337 309.499 90.8337 309.299 90.6999C309.099 90.5661 308.899 90.5661 308.799 90.4323C308.699 90.2986 308.599 90.1648 308.499 89.8972C308.399 89.6297 308.399 89.4959 308.399 89.2284L308.399 6.28746C308.399 6.01991 308.399 5.75236 308.499 5.61858C308.599 5.35103 308.599 5.21726 308.799 5.08348C308.899 4.9497 309.099 4.81593 309.299 4.81593C309.499 4.68215 309.799 4.68215 310.099 4.68215C310.399 4.68215 310.699 4.68215 310.899 4.81593C311.099 4.9497 311.299 4.9497 311.399 5.08348C311.499 5.21726 311.599 5.35103 311.699 5.61858C311.799 5.88613 311.799 6.01991 311.799 6.28746L311.799 42.2731L329.099 42.2731L329.099 6.42124C329.099 6.15369 329.099 5.88614 329.199 5.75236C329.299 5.48481 329.299 5.35103 329.499 5.21725C329.599 5.08348 329.799 4.9497 329.999 4.9497C330.199 4.81593 330.499 4.81593 330.799 4.81593C331.099 4.81593 331.399 4.81593 331.599 4.9497C331.799 5.08348 331.999 5.08348 332.099 5.21726C332.199 5.35103 332.299 5.48481 332.399 5.75236C332.499 6.01991 332.499 6.15369 332.499 6.42124L332.499 89.2284Z" fill="#25A3E5"/>
<path d="M366.499 89.2284C366.499 89.4959 366.499 89.7635 366.399 89.8972C366.299 90.1648 366.299 90.2986 366.099 90.4323C365.999 90.5661 365.799 90.6999 365.599 90.6999C365.399 90.8337 365.099 90.8337 364.799 90.8337C364.499 90.8337 364.199 90.8337 363.999 90.6999C363.799 90.5661 363.599 90.5661 363.499 90.4323C363.399 90.2986 363.299 90.1648 363.199 89.8972C363.099 89.6297 363.099 89.4959 363.099 89.2284L363.099 49.3632L345.799 49.3632L345.799 89.2284C345.799 89.4959 345.799 89.7635 345.699 89.8972C345.599 90.1648 345.599 90.2986 345.399 90.4323C345.299 90.5661 345.099 90.6999 344.899 90.6999C344.699 90.8337 344.399 90.8337 344.099 90.8337C343.799 90.8337 343.499 90.8337 343.299 90.6999C343.099 90.5661 342.899 90.5661 342.799 90.4323C342.699 90.2986 342.599 90.1648 342.499 89.8972C342.399 89.6297 342.399 89.4959 342.399 89.2284L342.399 6.28746C342.399 6.01991 342.399 5.75236 342.499 5.61858C342.599 5.35103 342.599 5.21726 342.799 5.08348C342.899 4.9497 343.099 4.81593 343.299 4.81593C343.499 4.68215 343.799 4.68215 344.099 4.68215C344.399 4.68215 344.699 4.68215 344.899 4.81593C345.099 4.9497 345.299 4.9497 345.399 5.08348C345.499 5.21726 345.599 5.35103 345.699 5.61858C345.799 5.88613 345.799 6.01991 345.799 6.28746L345.799 42.2731L363.099 42.2731L363.099 6.42124C363.099 6.15369 363.099 5.88614 363.199 5.75236C363.299 5.48481 363.299 5.35103 363.499 5.21725C363.599 5.08348 363.799 4.9497 363.999 4.9497C364.199 4.81593 364.499 4.81593 364.799 4.81593C365.099 4.81593 365.399 4.81593 365.599 4.9497C365.799 5.08348 365.999 5.08348 366.099 5.21726C366.199 5.35103 366.299 5.48481 366.399 5.75236C366.499 6.01991 366.499 6.15369 366.499 6.42124L366.499 89.2284Z" fill="#25A3E5"/>
<path d="M396.499 89.2284C396.499 89.4959 396.499 89.7635 396.399 89.8972C396.299 90.1648 396.299 90.2986 396.099 90.4323C395.999 90.5661 395.799 90.6999 395.599 90.6999C395.399 90.8337 395.099 90.8337 394.799 90.8337C394.499 90.8337 394.199 90.8337 393.999 90.6999C393.799 90.5661 393.599 90.5661 393.499 90.4323C393.399 90.2986 393.299 90.1648 393.199 89.8972C393.099 89.6297 393.099 89.4959 393.099 89.2284L393.099 51.5036L389.199 51.5036C387.599 51.5036 386.399 51.905 385.599 52.7076C384.799 53.5103 383.999 54.7142 383.399 56.1858C382.799 57.6573 382.299 59.3964 381.899 61.403C381.499 63.4097 381.099 65.6838 380.699 67.958L377.599 88.2919C377.499 88.827 377.399 89.2284 377.299 89.6297C377.199 89.8972 377.099 90.1648 376.999 90.4323C376.899 90.5661 376.699 90.6999 376.499 90.8337C376.299 90.8337 376.099 90.9674 375.699 90.9674C375.299 90.9674 375.099 90.9674 374.799 90.8337C374.599 90.6999 374.399 90.5661 374.299 90.4323C374.199 90.2986 374.099 90.031 373.999 89.8972C373.999 89.6297 373.899 89.3621 373.899 89.0946C373.899 88.6933 373.899 88.1582 373.999 87.6231C374.099 87.088 374.199 86.0177 374.399 84.68L377.399 65.8176C377.799 63.5434 378.099 61.5368 378.499 59.7977C378.899 57.9249 379.299 56.4533 379.699 54.9818C380.099 53.644 380.599 52.4401 381.099 51.5036C381.599 50.5672 382.199 49.7645 382.799 49.0957C381.699 48.5606 380.799 47.6241 379.899 46.4202C378.999 45.2162 378.299 43.7446 377.699 42.1393C377.099 40.4003 376.599 38.3936 376.299 36.2532C375.999 33.979 375.799 31.5711 375.799 28.8955C375.799 25.5512 375.999 22.4743 376.499 19.5313C376.899 16.5882 377.599 14.1802 378.599 12.0398C379.499 9.89941 380.699 8.2941 382.099 7.09012C383.499 5.88614 385.599 5.21726 388.299 5.21726L394.799 5.21726C395.099 5.21726 395.499 5.48481 395.799 6.15369C396.099 6.6888 396.299 7.89278 396.299 9.36431L396.299 89.2284L396.499 89.2284ZM393.199 12.3074L388.399 12.3074C386.399 12.3074 384.899 12.7087 383.899 13.5114C382.899 14.314 381.999 15.3842 381.399 16.8557C380.799 18.3273 380.299 19.9326 379.999 21.9392C379.699 23.9458 379.599 25.9525 379.599 28.2267C379.599 30.3671 379.799 32.5075 380.099 34.5141C380.399 36.5208 380.899 38.2598 381.499 39.7314C382.199 41.2029 382.999 42.4069 383.999 43.2095C384.999 44.0122 386.499 44.5473 388.299 44.5473L393.299 44.5473L393.299 12.3074L393.199 12.3074Z" fill="#25A3E5"/>
<path d="M455.398 89.2284C455.398 89.4959 455.398 89.7635 455.298 89.8972C455.198 90.1648 455.198 90.2986 454.998 90.4323C454.898 90.5661 454.698 90.6999 454.498 90.6999C454.298 90.8337 453.998 90.8337 453.698 90.8337C453.398 90.8337 453.198 90.8337 452.898 90.6999C452.698 90.5661 452.498 90.5661 452.398 90.4323C452.298 90.2986 452.198 90.1648 452.098 89.8972C451.998 89.6297 451.998 89.4959 451.998 89.2284L451.998 12.1736L451.898 12.1736L438.198 89.7635C438.198 89.8972 438.098 90.1648 437.998 90.2986C437.898 90.4323 437.798 90.5661 437.698 90.6999C437.598 90.8337 437.398 90.8337 437.298 90.9674C437.098 90.9674 436.898 91.1012 436.698 91.1012C436.398 91.1012 436.198 91.1012 436.098 90.9674C435.898 90.9674 435.798 90.8337 435.698 90.6999C435.598 90.5661 435.498 90.4323 435.398 90.2986C435.298 90.1648 435.298 90.031 435.298 89.7635L422.298 12.1736L422.298 89.3621C422.298 89.6297 422.298 89.8972 422.198 90.031C422.098 90.2986 422.098 90.4323 421.898 90.5661C421.798 90.6999 421.598 90.8337 421.398 90.8337C421.198 90.9675 420.898 90.9674 420.598 90.9674C420.298 90.9674 419.998 90.9675 419.798 90.8337C419.598 90.6999 419.398 90.6999 419.298 90.5661C419.198 90.4323 419.098 90.2986 418.998 90.031C418.998 89.7635 418.898 89.6297 418.898 89.3621L418.898 9.23053C418.898 7.62522 419.098 6.55502 419.398 6.01992C419.698 5.48481 420.098 5.08349 420.398 5.08349L422.198 5.08349C422.598 5.08349 422.998 5.21726 423.398 5.48481C423.698 5.75236 423.998 6.01991 424.298 6.55502C424.598 6.95634 424.798 7.62522 424.998 8.2941C425.198 8.96298 425.298 9.76563 425.498 10.5683L436.998 78.3925L437.098 78.3925L449.098 10.7021C449.298 9.63186 449.498 8.69543 449.698 8.02655C449.898 7.35767 450.098 6.68879 450.298 6.28747C450.498 5.88614 450.798 5.48482 450.998 5.35104C451.298 5.21726 451.498 5.08349 451.798 5.08349L453.798 5.08349C453.998 5.08349 454.098 5.08349 454.298 5.21726C454.498 5.35104 454.598 5.61859 454.798 5.88614C454.998 6.15369 455.098 6.68879 455.198 7.2239C455.298 7.759 455.298 8.42788 455.298 9.23053L455.298 89.2284L455.398 89.2284Z" fill="#25A3E5"/>
<path d="M493.5 46.8215C493.5 53.644 493.2 59.7977 492.5 65.4163C491.9 70.9011 490.9 75.717 489.6 79.5965C488.3 83.476 486.7 86.5528 484.8 88.5595C482.9 90.6999 480.6 91.7701 478 91.7701C475.4 91.7701 473.2 90.6999 471.4 88.827C469.6 86.9542 468 84.0111 466.8 80.2654C465.6 76.5197 464.7 71.9713 464.2 66.6203C463.6 61.2692 463.4 55.1156 463.4 48.4268C463.4 41.738 463.699 35.5843 464.299 30.2333C464.899 24.7485 465.9 20.0664 467.2 16.1869C468.5 12.3074 470.1 9.36431 472 7.2239C473.9 5.08349 476.2 4.01329 478.8 4.01329C481.3 4.01329 483.5 4.94971 485.4 6.95635C487.3 8.96298 488.8 11.7723 490 15.518C491.2 19.2637 492.1 23.6783 492.7 29.0293C493.2 34.2466 493.5 40.1327 493.5 46.8215ZM490 47.6241C490 42.5407 489.8 37.8585 489.4 33.3101C489 28.8955 488.4 25.0161 487.5 21.8054C486.6 18.4611 485.4 15.9193 484 14.0465C482.5 12.1736 480.7 11.2372 478.5 11.2372C476.4 11.2372 474.5 12.1736 473.1 14.1802C471.6 16.1869 470.4 18.7286 469.5 22.073C468.6 25.4174 467.9 29.2969 467.5 33.5777C467.1 37.9923 466.9 42.6744 466.9 47.4904C466.9 52.7076 467.1 57.5235 467.5 61.9381C467.9 66.3527 468.5 70.366 469.4 73.5766C470.3 76.921 471.5 79.4627 472.9 81.3356C474.4 83.2084 476.2 84.1449 478.4 84.1449C480.6 84.1449 482.4 83.2084 483.9 81.2018C485.4 79.1952 486.6 76.5197 487.5 73.1753C488.4 69.8309 489.1 65.9514 489.5 61.5368C489.8 57.1222 490 52.4401 490 47.6241Z" fill="#25A3E5"/>
<path d="M535.499 89.0946C535.499 89.3621 535.499 89.6297 535.399 89.8972C535.299 90.1648 535.299 90.2986 535.099 90.4324C534.999 90.5661 534.799 90.6999 534.599 90.8337C534.399 90.9675 534.099 90.9674 533.799 90.9674C533.399 90.9674 533.099 90.9675 532.899 90.8337C532.699 90.6999 532.499 90.5661 532.399 90.4323C532.299 90.2986 532.199 90.031 532.099 89.7635C531.999 89.4959 531.999 89.0946 531.899 88.6933L528.799 65.8176C528.399 63.1421 527.999 60.8679 527.499 58.8613C526.999 56.8547 526.299 55.2494 525.599 53.9116C524.899 52.5738 523.999 51.6374 523.099 50.9685C522.099 50.2997 521.099 50.0321 519.899 50.0321L518.199 50.0321L518.199 89.2284C518.199 89.4959 518.199 89.7635 518.099 89.8972C517.999 90.1648 517.999 90.2986 517.799 90.4323C517.699 90.5661 517.499 90.6999 517.299 90.6999C517.099 90.8337 516.799 90.8337 516.499 90.8337C516.199 90.8337 515.899 90.8337 515.699 90.6999C515.499 90.5661 515.299 90.5661 515.199 90.4323C515.099 90.2986 514.999 90.1648 514.899 89.8972C514.899 89.6297 514.799 89.4959 514.799 89.2284L514.799 50.1659L513.099 50.1659C511.799 50.1659 510.599 50.5672 509.599 51.2361C508.599 52.0387 507.799 53.1089 506.999 54.4467C506.299 55.7845 505.699 57.5235 505.199 59.3964C504.699 61.403 504.299 63.4097 503.999 65.8176L500.999 88.6933C500.899 89.0946 500.899 89.4959 500.799 89.7635C500.699 90.031 500.599 90.2986 500.499 90.4323C500.399 90.5661 500.199 90.8337 499.999 90.8337C499.799 90.9675 499.499 90.9674 499.099 90.9674C498.799 90.9674 498.499 90.9675 498.299 90.8337C498.099 90.6999 497.899 90.5661 497.799 90.4323C497.699 90.2986 497.599 90.031 497.499 89.8972C497.399 89.6297 497.399 89.3621 497.399 89.0946C497.399 88.9608 497.399 88.827 497.399 88.6933C497.399 88.5595 497.399 88.2919 497.399 88.0244C497.399 87.7568 497.399 87.4893 497.499 87.2217C497.499 86.9542 497.599 86.6866 497.599 86.4191L500.399 65.6839C500.799 62.8746 501.199 60.3328 501.699 58.1924C502.199 56.052 502.699 54.3129 503.199 52.7076C503.799 51.2361 504.399 49.8983 505.099 48.9619C505.799 48.0255 506.699 47.089 507.599 46.4202C506.799 46.0188 506.099 45.35 505.499 44.5473C504.899 43.7446 504.299 42.5407 503.799 41.0691C503.299 39.5976 502.899 37.8585 502.399 35.7181C501.999 33.5777 501.599 31.1697 501.199 28.2267L498.599 8.96299C498.499 8.56166 498.499 8.02656 498.399 7.62523C498.399 7.2239 498.299 6.6888 498.299 6.28747C498.299 6.01992 498.299 5.75237 498.399 5.48482C498.399 5.21727 498.499 5.08349 498.599 4.94972C498.699 4.81594 498.899 4.68217 499.099 4.54839C499.299 4.41462 499.599 4.41462 499.899 4.41462C500.299 4.41462 500.599 4.41462 500.799 4.54839C500.999 4.68217 501.199 4.81594 501.299 4.94972C501.399 5.08349 501.499 5.35105 501.599 5.75237C501.699 6.01993 501.699 6.42125 501.799 6.82258L504.499 28.2267C504.799 30.6346 505.199 32.6413 505.599 34.5141C505.999 36.2532 506.599 37.8585 507.199 39.0625C507.799 40.2665 508.599 41.2029 509.499 41.8718C510.399 42.5407 511.499 42.8082 512.799 42.8082L514.499 42.8082L514.499 6.42125C514.499 6.1537 514.499 5.88615 514.599 5.75237C514.599 5.48482 514.699 5.35105 514.899 5.21727C515.099 5.08349 515.199 4.94972 515.399 4.94972C515.599 4.81594 515.899 4.81594 516.199 4.81594C516.499 4.81594 516.799 4.81594 516.999 4.94972C517.199 5.08349 517.399 5.08349 517.499 5.21727C517.599 5.35105 517.699 5.48482 517.799 5.75237C517.899 6.01993 517.899 6.1537 517.899 6.42125L517.899 42.942L519.599 42.942C520.799 42.942 521.899 42.5407 522.799 41.8718C523.699 41.2029 524.499 40.1327 525.199 38.9287C525.899 37.591 526.399 36.1194 526.899 34.2466C527.299 32.5075 527.699 30.5009 527.999 28.3605L530.699 7.09013C530.799 6.6888 530.799 6.28748 530.899 6.01993C530.999 5.75238 530.999 5.48482 531.199 5.21727C531.399 4.94972 531.499 4.81595 531.699 4.81595C531.899 4.68217 532.199 4.68217 532.599 4.68217C532.899 4.68217 533.199 4.68217 533.399 4.81595C533.599 4.94972 533.799 5.0835 533.899 5.21727C533.999 5.35105 534.099 5.6186 534.099 5.75238C534.099 6.01993 534.199 6.28748 534.199 6.55503C534.199 6.95635 534.199 7.49146 534.099 7.89278C533.999 8.29411 533.999 8.82921 533.999 9.23054L531.399 27.9591C530.999 30.5009 530.699 32.7751 530.299 34.7817C529.899 36.7883 529.499 38.3936 528.999 39.8652C528.499 41.3367 527.999 42.4069 527.299 43.4771C526.699 44.4135 525.899 45.2162 525.099 45.8851L525.099 46.0188C526.099 46.8215 526.899 47.6241 527.699 48.8281C528.399 49.8983 529.099 51.2361 529.599 52.8414C530.199 54.4467 530.699 56.3196 531.099 58.46C531.499 60.6004 531.899 63.1421 532.299 65.9514L535.099 86.6866C535.099 86.9542 535.199 87.2217 535.199 87.4893C535.199 87.7568 535.299 88.0244 535.299 88.2919C535.299 88.5595 535.299 88.6933 535.399 88.9608C535.499 88.827 535.499 88.9608 535.499 89.0946Z" fill="#25A3E5"/>
<path d="M561.898 87.088C561.898 87.6231 561.898 88.1582 561.798 88.5595C561.798 88.9608 561.698 89.3621 561.598 89.6297C561.498 89.8973 561.398 90.1648 561.298 90.2986C561.198 90.4324 561.098 90.5661 560.998 90.5661L544.698 90.5661C544.398 90.5661 543.998 90.2986 543.698 89.6297C543.398 89.0946 543.198 87.8906 543.198 86.4191L543.198 9.23054C543.198 7.62523 543.398 6.55503 543.698 6.01993C543.998 5.48483 544.398 5.0835 544.698 5.0835L560.698 5.0835C560.798 5.0835 560.898 5.21728 560.998 5.35105C561.098 5.48483 561.198 5.75238 561.298 6.01993C561.398 6.28748 561.398 6.68881 561.498 7.22391C561.498 7.62523 561.598 8.29411 561.598 8.82922C561.598 9.36432 561.598 9.89942 561.498 10.3007C561.498 10.7021 561.398 11.1034 561.298 11.371C561.198 11.6385 561.098 11.9061 560.998 12.0398C560.898 12.1736 560.798 12.3074 560.698 12.3074L546.498 12.3074L546.498 42.4069L558.798 42.4069C558.898 42.4069 559.098 42.5407 559.198 42.6745C559.298 42.8082 559.398 43.0758 559.498 43.3433C559.598 43.6109 559.598 44.0122 559.698 44.4135C559.698 44.8149 559.798 45.4837 559.798 46.0188C559.798 46.5539 559.798 47.089 559.698 47.4904C559.698 47.8917 559.598 48.293 559.498 48.5606C559.398 48.8281 559.298 48.9619 559.198 49.0957C559.098 49.2295 558.998 49.2295 558.798 49.2295L546.498 49.2294L546.498 83.3422L560.998 83.3422C561.098 83.3422 561.198 83.476 561.298 83.6098C561.398 83.7436 561.498 84.0111 561.598 84.2787C561.698 84.5462 561.698 84.9475 561.798 85.3489C561.898 85.884 561.898 86.4191 561.898 87.088Z" fill="#25A3E5"/>
<path d="M604.298 65.8176C604.298 68.7607 604.098 71.8375 603.698 74.7806C603.298 77.7237 602.698 80.3992 601.898 82.8071C600.998 85.2151 599.898 87.088 598.398 88.5595C596.898 90.031 594.798 90.8337 592.098 90.8337L584.198 90.8337C583.898 90.8337 583.498 90.5661 583.198 89.8972C582.898 89.3621 582.698 88.1582 582.698 86.6866L582.698 9.23054C582.698 7.62523 582.898 6.55503 583.198 6.01993C583.498 5.48483 583.898 5.0835 584.198 5.0835L601.298 5.0835C601.398 5.0835 601.598 5.21728 601.698 5.35105C601.798 5.48483 601.898 5.75238 601.998 6.01993C602.098 6.28748 602.098 6.68881 602.198 7.22391C602.198 7.62523 602.298 8.29411 602.298 8.82922C602.298 9.36432 602.298 9.89942 602.198 10.4345C602.198 10.8359 602.098 11.2372 601.998 11.6385C601.898 11.9061 601.798 12.1736 601.698 12.3074C601.598 12.4412 601.498 12.5749 601.298 12.5749L585.898 12.5749L585.898 42.2731L592.498 42.2731C594.598 42.2731 596.398 42.8082 597.798 43.8784C599.198 44.9486 600.398 46.5539 601.298 48.6944C602.198 50.8348 602.998 53.2427 603.398 56.1858C603.998 58.9951 604.298 62.2057 604.298 65.8176ZM600.798 66.3527C600.798 63.6772 600.598 61.403 600.298 59.2626C599.998 57.1222 599.398 55.3831 598.798 53.9116C598.098 52.4401 597.298 51.2361 596.298 50.5672C595.298 49.7646 593.998 49.3632 592.398 49.3632L585.898 49.3632L585.898 83.476L592.498 83.476C594.098 83.476 595.398 83.0747 596.398 82.272C597.398 81.4694 598.198 80.3992 598.798 78.7939C599.398 77.3223 599.898 75.4495 600.298 73.4429C600.598 71.3024 600.798 68.8945 600.798 66.3527Z" fill="#25A3E5"/>
<path d="M622.599 66.6203C621.699 71.8375 620.999 76.1184 620.299 79.329C619.599 82.5396 618.899 85.0813 618.199 86.8204C617.499 88.5595 616.799 89.7635 615.999 90.4324C615.199 91.1012 614.299 91.3688 613.199 91.3688C612.799 91.3688 612.499 91.3688 612.099 91.235C611.699 91.1012 611.399 90.9674 611.099 90.6999C610.799 90.4323 610.499 90.1648 610.199 89.8972C609.899 89.6297 609.799 89.3621 609.599 89.0946C609.499 88.827 609.399 88.6933 609.399 88.4257C609.299 88.1582 609.299 87.8906 609.299 87.6231C609.299 87.3555 609.199 86.8204 609.199 86.4191C609.199 85.884 609.199 85.3489 609.199 84.68C609.199 83.476 609.299 82.5396 609.399 82.0045C609.499 81.4694 609.699 81.2018 609.899 81.2018C609.999 81.2018 610.199 81.3356 610.399 81.6032C610.599 81.8707 610.799 82.1383 611.099 82.5396C611.399 82.8071 611.699 83.2085 612.099 83.476C612.499 83.7436 612.899 83.8773 613.499 83.8773C613.999 83.8773 614.499 83.7436 614.899 83.476C615.299 83.2085 615.699 82.6734 616.099 81.7369C616.499 80.8005 616.899 79.5965 617.299 77.8574C617.699 76.1184 618.199 73.978 618.699 71.0349L605.799 7.89279C605.699 7.22391 605.599 6.68881 605.599 6.28748C605.599 5.88615 605.599 5.61861 605.799 5.35106C605.899 5.0835 606.099 4.94972 606.399 4.94972C606.699 4.81595 606.999 4.81595 607.399 4.81595C607.699 4.81595 607.999 4.81595 608.199 4.94972C608.399 5.0835 608.599 5.21728 608.699 5.35106C608.799 5.48483 608.999 5.75238 608.999 5.88615C609.099 6.15371 609.199 6.42126 609.199 6.68881L616.099 40.8016C616.899 44.6811 617.599 48.293 618.299 51.7712C618.999 55.2494 619.699 58.7275 620.299 62.2057L620.399 62.2057C620.899 58.7275 621.499 55.1156 622.099 51.5036C622.699 47.8917 623.299 43.8784 624.099 39.4638L629.399 6.55503C629.499 6.28748 629.499 6.01993 629.599 5.75238C629.699 5.48483 629.799 5.35105 629.899 5.21728C629.999 5.0835 630.199 4.94973 630.499 4.94973C630.699 4.94973 630.999 4.81595 631.399 4.81595C631.799 4.81595 632.099 4.81595 632.299 4.94973C632.499 5.0835 632.699 5.21728 632.799 5.48483C632.899 5.75238 632.999 6.01993 632.999 6.28748C632.999 6.55503 632.999 6.95636 632.899 7.35769L622.599 66.6203Z" fill="#25A3E5"/>
<path d="M659.398 8.69544C659.398 9.23055 659.398 9.76565 659.298 10.167C659.298 10.5683 659.198 10.9696 659.098 11.2372C658.998 11.5047 658.898 11.7723 658.798 11.9061C658.698 12.0398 658.598 12.1736 658.498 12.1736L648.098 12.1736L648.098 89.2284C648.098 89.4959 648.098 89.7635 647.998 89.8972C647.898 90.1648 647.898 90.2986 647.698 90.4323C647.598 90.5661 647.398 90.6999 647.198 90.6999C646.998 90.8337 646.698 90.8337 646.398 90.8337C646.098 90.8337 645.798 90.8337 645.598 90.6999C645.398 90.5661 645.198 90.5661 645.098 90.4323C644.998 90.2986 644.898 90.1648 644.798 89.8972C644.698 89.6297 644.698 89.4959 644.698 89.2284L644.698 12.3074L634.298 12.3074C634.198 12.3074 633.998 12.1736 633.898 12.0398C633.798 11.9061 633.698 11.6385 633.598 11.371C633.498 11.1034 633.498 10.7021 633.398 10.3007C633.398 9.89942 633.298 9.36432 633.298 8.82921C633.298 8.16034 633.298 7.62523 633.398 7.22391C633.398 6.82258 633.498 6.42126 633.598 6.01993C633.698 5.75238 633.798 5.48483 633.898 5.35105C633.998 5.21728 634.098 5.0835 634.298 5.0835L658.298 5.0835C658.398 5.0835 658.498 5.21728 658.598 5.35105C658.698 5.48483 658.798 5.75238 658.898 6.01993C658.998 6.28748 658.998 6.68881 659.098 7.22391C659.398 7.62523 659.398 8.16034 659.398 8.69544Z" fill="#25A3E5"/>
<path d="M689.798 89.2284C689.798 89.4959 689.798 89.7635 689.698 89.8973C689.598 90.1648 689.598 90.2986 689.398 90.4324C689.298 90.5661 689.098 90.6999 688.898 90.6999C688.698 90.8337 688.398 90.8337 688.098 90.8337C687.798 90.8337 687.498 90.8337 687.298 90.6999C687.098 90.5661 686.898 90.5661 686.798 90.4324C686.698 90.2986 686.598 90.1648 686.498 89.8973C686.398 89.6297 686.398 89.4959 686.398 89.2284L686.398 27.1565C686.398 25.9525 686.398 24.7485 686.398 23.277C686.398 21.9392 686.398 20.6015 686.498 19.5313L686.398 19.5313C686.298 20.0664 686.098 20.7353 685.998 21.4041C685.798 22.073 685.698 22.7419 685.498 23.4108C685.298 24.0796 685.098 24.7485 684.998 25.4174C684.798 26.0863 684.698 26.7552 684.498 27.424L667.798 89.3621C667.698 89.6297 667.598 89.8972 667.598 90.031C667.498 90.2986 667.398 90.4324 667.298 90.5661C667.198 90.6999 666.998 90.8337 666.898 90.8337C666.698 90.8337 666.498 90.9675 666.298 90.9675C665.998 90.9675 665.798 90.9675 665.598 90.8337C665.398 90.6999 665.298 90.5661 665.198 90.4324C665.098 90.2986 664.998 90.031 664.998 89.8972C664.998 89.6297 664.898 89.3621 664.898 88.9608L664.898 6.42126C664.898 6.15371 664.898 5.88616 664.998 5.75238C665.098 5.48483 665.198 5.35105 665.298 5.21728C665.498 4.94973 665.698 4.81595 665.898 4.81595C666.098 4.68218 666.398 4.68218 666.598 4.68218C666.898 4.68218 667.198 4.68218 667.398 4.81595C667.598 4.94973 667.798 4.94973 667.898 5.0835C667.998 5.21728 668.098 5.35105 668.198 5.6186C668.298 5.88615 668.298 6.01993 668.298 6.28748L668.298 68.8945C668.298 69.9647 668.298 71.1687 668.298 72.3726C668.298 73.5766 668.298 74.7806 668.198 75.9846L668.298 75.9846C668.598 75.0482 668.898 73.8442 669.198 72.3726C669.498 70.9011 669.898 69.5634 670.298 68.0918L686.798 6.28748C686.898 6.01993 686.998 5.75238 686.998 5.6186C687.098 5.48483 687.198 5.21728 687.298 5.0835C687.498 4.94973 687.698 4.81595 687.798 4.81595C687.998 4.81595 688.198 4.68218 688.398 4.68218C688.698 4.68218 688.898 4.68218 689.098 4.81595C689.298 4.94973 689.398 5.0835 689.498 5.21728C689.598 5.35105 689.698 5.61861 689.698 5.75238C689.698 6.01993 689.798 6.28748 689.798 6.55503L689.798 89.2284Z" fill="#25A3E5"/>
<path d="M739.373 84.8248C739.373 86.1125 739.253 87.2392 739.012 87.883C738.771 88.5269 738.41 88.8488 738.049 88.8488L705.323 88.8488C704.962 88.8488 704.601 88.5269 704.36 87.883C704.119 87.2392 703.999 86.2735 703.999 84.8248L703.999 7.56509C703.999 7.24317 703.999 7.08221 704.119 6.92125C704.119 6.76029 704.24 6.59933 704.36 6.43837C704.48 6.27742 704.601 6.27742 704.841 6.11646C705.082 5.9555 705.323 5.95551 705.563 5.95551C705.924 5.95551 706.165 5.9555 706.285 6.11646C706.526 6.27742 706.646 6.27742 706.766 6.43837C706.887 6.59933 707.007 6.76029 707.007 6.92125C707.007 7.08221 707.127 7.40413 707.127 7.56509L707.127 81.7666L720.122 81.7666L720.122 7.56509C720.122 7.24317 720.122 7.08221 720.242 6.92125C720.242 6.76029 720.363 6.59933 720.483 6.43837C720.603 6.27742 720.724 6.27742 720.964 6.11646C721.205 5.95551 721.445 5.95551 721.686 5.95551C722.047 5.95551 722.288 5.95551 722.408 6.11646C722.649 6.27742 722.769 6.27742 722.889 6.43837C723.01 6.59933 723.13 6.76029 723.13 6.92125C723.13 7.08221 723.25 7.40413 723.25 7.56509L723.25 81.7666L736.245 81.7666L736.245 7.56509C736.245 7.24317 736.245 7.08221 736.365 6.92125C736.365 6.7603 736.485 6.59933 736.606 6.43838C736.726 6.27742 736.846 6.27742 737.087 6.11646C737.328 5.95551 737.568 5.95551 737.809 5.95551C738.17 5.95551 738.41 5.95551 738.531 6.11646C738.771 6.27742 738.892 6.27742 739.012 6.43838C739.132 6.59933 739.253 6.7603 739.253 6.92125C739.253 7.08221 739.373 7.40413 739.373 7.56509L739.373 84.8248Z" fill="#25A3E5"/>
<path d="M770.175 87.4002C770.175 87.7221 770.175 87.883 770.055 88.205C770.055 88.3659 769.934 88.5269 769.814 88.6878C769.694 88.8488 769.573 89.0097 769.333 89.0097C769.092 89.1707 768.851 89.1707 768.611 89.1707C768.25 89.1707 768.009 89.1707 767.768 89.0097C767.528 88.8488 767.407 88.6878 767.287 88.5269C767.167 88.3659 767.047 88.044 767.047 87.883C766.926 87.5611 766.926 87.2392 766.806 86.9173L763.437 65.6709C763.076 62.9346 762.595 60.5202 761.993 58.5887C761.392 56.6572 760.79 54.8867 760.068 53.599C759.346 52.3114 758.504 51.3456 757.541 50.7018C756.579 50.058 755.616 49.736 754.413 49.736L752.368 49.736L752.368 87.5611C752.368 87.883 752.368 88.044 752.247 88.205C752.247 88.3659 752.127 88.5269 752.007 88.6878C751.886 88.8488 751.766 88.8488 751.525 89.0097C751.285 89.1707 751.044 89.1707 750.803 89.1707C750.563 89.1707 750.202 89.1707 750.081 89.0097C749.841 88.8488 749.721 88.8488 749.6 88.6878C749.48 88.5269 749.36 88.3659 749.36 88.205C749.36 88.044 749.239 87.7221 749.239 87.5611L749.239 7.56509C749.239 7.24317 749.239 7.08221 749.36 6.92125C749.36 6.76029 749.48 6.59933 749.6 6.43837C749.721 6.27742 749.841 6.27742 750.081 6.11646C750.322 5.95551 750.563 5.95551 750.803 5.95551C751.164 5.95551 751.405 5.95551 751.525 6.11646C751.766 6.27742 751.886 6.27742 752.007 6.43837C752.127 6.59933 752.247 6.76029 752.247 6.92125C752.247 7.08221 752.368 7.40413 752.368 7.56509L752.368 42.8148L754.413 42.8148C755.616 42.8148 756.579 42.4929 757.421 41.8491C758.263 41.2053 759.105 40.2395 759.707 38.7909C760.429 37.5032 760.91 35.8937 761.392 33.9622C761.873 32.0307 762.354 29.7773 762.715 27.2019L765.362 8.36988C765.362 8.04796 765.482 7.72604 765.482 7.40412C765.603 7.0822 765.603 6.92125 765.723 6.59933C765.843 6.43837 766.084 6.27742 766.204 6.11646C766.445 5.95551 766.686 5.95551 767.047 5.95551C767.407 5.95551 767.648 5.95551 767.768 6.11646C768.009 6.27742 768.129 6.27742 768.25 6.43838C768.37 6.59933 768.49 6.7603 768.49 6.92125C768.49 7.08221 768.49 7.40413 768.49 7.72604C768.49 8.20892 768.49 8.53082 768.37 9.0137C768.37 9.49657 768.25 9.81849 768.25 10.3014L765.362 28.8115C765.001 31.3868 764.64 33.4793 764.159 35.4108C763.798 37.1813 763.317 38.7909 762.835 40.2395C762.354 41.5272 761.752 42.6539 761.151 43.6196C760.549 44.5854 759.827 45.2292 759.105 45.7121L759.105 45.8731C759.948 46.5169 760.79 47.3217 761.392 48.2874C762.113 49.2532 762.715 50.5408 763.196 51.8285C763.798 53.2771 764.279 54.8867 764.76 56.8182C765.242 58.7497 765.603 61.0031 766.084 63.7394L769.453 84.8248C769.573 85.4687 769.573 86.1125 769.693 86.4344C770.175 86.7563 770.175 87.0782 770.175 87.4002Z" fill="#25A3E5"/>
<path d="M780.643 87.5611C780.643 87.883 780.643 88.044 780.522 88.205C780.522 88.3659 780.402 88.5269 780.282 88.6878C780.161 88.8488 780.041 88.8488 779.8 89.0097C779.56 89.1707 779.319 89.1707 779.078 89.1707C778.838 89.1707 778.477 89.1707 778.356 89.0097C778.116 88.8488 777.996 88.8488 777.875 88.6878C777.755 88.5269 777.635 88.3659 777.635 88.205C777.635 88.044 777.514 87.7221 777.514 87.5611L777.514 7.56509C777.514 7.24317 777.514 7.08221 777.635 6.92125C777.635 6.7603 777.755 6.59933 777.875 6.43838C777.996 6.27742 778.116 6.27742 778.356 6.11646C778.597 5.95551 778.838 5.95551 779.078 5.95551C779.439 5.95551 779.68 5.95551 779.8 6.11646C780.041 6.27742 780.161 6.27742 780.282 6.43838C780.402 6.59933 780.522 6.7603 780.522 6.92125C780.522 7.08221 780.643 7.40413 780.643 7.56509L780.643 87.5611Z" fill="#25A3E5"/>
<path d="M817.58 109.29C817.58 109.612 817.58 109.773 817.58 109.934C817.58 110.095 817.46 110.256 817.339 110.417C817.219 110.578 817.099 110.578 816.978 110.739C816.858 110.739 816.617 110.9 816.257 110.9C816.016 110.9 815.775 110.9 815.655 110.739C815.535 110.739 815.414 110.578 815.294 110.417C815.174 110.256 815.174 110.095 815.053 109.934C815.053 109.773 814.933 109.612 814.933 109.29L814.933 88.8488L788.102 88.8488L788.102 109.29C788.102 109.612 788.102 109.773 787.981 109.934C787.981 110.095 787.861 110.256 787.741 110.417C787.621 110.578 787.5 110.578 787.38 110.739C787.26 110.739 787.019 110.9 786.778 110.9C786.538 110.9 786.297 110.9 786.056 110.739C785.936 110.739 785.695 110.578 785.695 110.417C785.695 110.256 785.575 110.095 785.455 109.934C785.455 109.773 785.455 109.612 785.455 109.29L785.455 84.9858C785.455 84.0201 785.455 83.2153 785.575 82.7324C785.695 82.2495 785.936 81.9276 786.297 81.9276L788.463 81.9276C788.944 80.318 789.425 78.7085 789.907 77.0989C790.388 75.4893 790.749 73.5578 791.11 71.3044C791.471 69.051 791.952 66.3147 792.313 63.0956C792.674 59.8764 793.035 56.0134 793.396 51.1847C793.757 46.3559 794.118 40.7224 794.479 34.1231C794.84 27.5239 795.201 19.476 795.682 10.3014C795.802 9.01372 795.923 7.88701 796.163 7.24318C796.404 6.59935 796.645 6.27743 797.126 6.27743L811.684 6.27743C812.045 6.27743 812.406 6.59935 812.647 7.24318C812.888 7.88701 813.008 8.85276 813.008 10.3014L813.008 81.9276L816.617 81.9276C816.978 81.9276 817.099 82.2495 817.219 82.7324C817.339 83.2153 817.46 84.0201 817.46 84.9858L817.46 109.29L817.58 109.29ZM810 13.3596L798.931 13.3596C798.57 22.0513 798.088 29.6163 797.727 35.8937C797.366 42.332 797.005 47.8046 796.644 52.4723C796.284 57.1401 795.923 61.0031 795.562 64.2223C795.201 67.4414 794.84 70.1777 794.479 72.2701C794.118 74.5236 793.757 76.2941 793.396 77.7427C793.035 79.1913 792.554 80.479 792.193 81.7666L810.12 81.7666L810.12 13.3596L810 13.3596Z" fill="#25A3E5"/>
<path d="M845.735 87.5611C845.735 87.8831 845.735 88.044 845.615 88.205C845.615 88.3659 845.495 88.5269 845.374 88.6878C845.254 88.8488 845.134 88.8488 844.893 89.0098C844.652 89.1707 844.412 89.1707 844.171 89.1707C843.931 89.1707 843.57 89.1707 843.449 89.0098C843.209 88.8488 843.088 88.8488 842.968 88.6878C842.848 88.5269 842.727 88.3659 842.727 88.205C842.727 88.044 842.607 87.7221 842.607 87.5611L842.607 13.3596L831.899 13.3596C831.417 23.178 831.056 32.0307 830.575 39.5957C830.094 47.1607 829.613 53.921 829.131 59.5545C828.65 65.188 828.048 70.0167 827.447 73.8797C826.845 77.7427 826.244 80.8009 825.401 83.2153C824.68 85.6297 823.837 87.2392 822.875 88.3659C821.912 89.4926 820.829 89.9755 819.626 89.9755C819.506 89.9755 819.385 89.8146 819.265 89.6536C819.145 89.4926 819.024 89.1707 819.024 88.8488C818.904 88.5269 818.904 88.205 818.904 87.7221C818.904 87.2392 818.904 86.7564 818.904 86.1125C818.904 85.4687 818.904 84.9858 818.904 84.503C818.904 84.0201 819.024 83.6981 819.024 83.3762C819.145 83.0543 819.145 82.8934 819.265 82.7324C819.385 82.5715 819.506 82.5714 819.626 82.5714C820.348 82.5714 820.95 82.2495 821.551 81.6057C822.153 80.9619 822.754 79.6742 823.236 77.7427C823.837 75.8112 824.319 73.2359 824.8 69.8558C825.281 66.4757 825.762 62.1298 826.244 56.8182C826.725 51.5066 827.206 45.0683 827.567 37.5033C828.048 29.9382 828.409 21.0856 828.891 10.7843C829.011 9.17468 829.131 8.04796 829.372 7.40413C829.613 6.7603 829.974 6.43839 830.455 6.43839L844.412 6.43839C844.773 6.43839 845.134 6.7603 845.374 7.40413C845.615 8.04796 845.735 9.01371 845.735 10.4623L845.735 87.5611Z" fill="#25A3E5"/>
<path d="M879.545 87.5611C879.545 87.8831 879.545 88.044 879.424 88.205C879.424 88.3659 879.304 88.5269 879.184 88.6878C879.063 88.8488 878.943 88.8488 878.702 89.0098C878.462 89.1707 878.221 89.1707 877.981 89.1707C877.74 89.1707 877.379 89.1707 877.259 89.0098C877.018 88.8488 876.898 88.8488 876.777 88.6878C876.657 88.5269 876.537 88.3659 876.537 88.205C876.537 88.044 876.416 87.7221 876.416 87.5611L876.416 27.6848C876.416 26.5581 876.416 25.2705 876.416 23.9828C876.416 22.6951 876.416 21.4075 876.537 20.2808C876.416 20.7636 876.296 21.4075 876.176 22.0513C876.055 22.6951 875.815 23.339 875.695 23.9828C875.574 24.6266 875.334 25.2705 875.213 25.9143C875.093 26.5581 874.852 27.202 874.732 27.8458L858.729 87.5611C858.609 87.8831 858.609 88.044 858.489 88.205C858.369 88.3659 858.248 88.5269 858.128 88.6878C858.008 88.8488 857.887 88.8488 857.647 89.0097C857.526 89.0097 857.286 89.1707 857.045 89.1707C856.804 89.1707 856.564 89.1707 856.443 89.0097C856.323 88.8488 856.203 88.8488 856.082 88.6878C855.962 88.5269 855.962 88.3659 855.842 88.044C855.842 87.8831 855.721 87.5611 855.721 87.2392L855.721 7.5651C855.721 7.24318 855.722 7.08222 855.842 6.92127C855.842 6.76031 855.962 6.59935 856.082 6.43839C856.203 6.27743 856.323 6.27744 856.564 6.11648C856.804 5.95552 857.045 5.95552 857.286 5.95552C857.647 5.95552 857.887 5.95552 858.008 6.11648C858.248 6.27744 858.369 6.27743 858.489 6.43839C858.609 6.59935 858.729 6.76031 858.729 6.92127C858.729 7.08222 858.85 7.40414 858.85 7.5651L858.85 67.9243C858.85 69.051 858.85 70.1777 858.85 71.3044C858.85 72.4311 858.85 73.7188 858.729 74.6845C858.97 73.7188 859.211 72.5921 859.572 71.3044C859.933 70.0167 860.294 68.5681 860.655 67.2804L876.657 7.40413C876.777 7.08222 876.777 6.92127 876.898 6.76031C877.018 6.59935 877.138 6.43839 877.259 6.27743C877.379 6.11648 877.499 6.11648 877.74 5.95552C877.86 5.95552 878.101 5.79456 878.342 5.79456C878.582 5.79456 878.823 5.79457 878.943 5.95552C879.063 6.11648 879.184 6.11648 879.304 6.27743C879.424 6.43839 879.424 6.59935 879.545 6.76031C879.545 6.92127 879.665 7.24319 879.665 7.5651L879.665 87.5611L879.545 87.5611Z" fill="#25A3E5"/>
<path d="M910.226 65.8318C910.226 68.2462 910.106 70.4996 909.865 72.5921C909.624 74.6845 909.263 76.616 908.903 78.2256C908.421 79.9961 907.94 81.4447 907.338 82.7324C906.737 84.0201 906.015 85.1468 905.173 86.1125C904.33 87.0783 903.488 87.7221 902.646 88.205C901.683 88.6878 900.721 88.8488 899.518 88.8488L890.855 88.8488C890.494 88.8488 890.253 88.5269 889.892 88.044C889.531 87.4002 889.411 86.4344 889.411 84.8249L889.411 10.3014C889.411 8.6918 889.531 7.72605 889.892 7.08222C890.253 6.43839 890.494 6.27743 890.855 6.27743L898.074 6.27743C899.999 6.27743 901.563 6.76031 902.766 7.72606C903.969 8.69181 904.932 10.1404 905.774 11.911C906.616 13.6815 907.098 15.9349 907.579 18.5102C907.94 21.0856 908.181 23.9828 908.181 27.041C908.181 28.9725 908.06 30.904 907.94 32.6745C907.699 34.4451 907.459 36.0546 907.098 37.6642C906.737 39.2738 906.256 40.5615 905.774 41.8491C905.173 43.1368 904.571 44.1025 903.849 44.9073C904.691 45.3902 905.534 46.195 906.376 47.3217C907.218 48.4484 907.82 49.897 908.421 51.8285C909.023 53.599 909.504 55.6915 909.865 58.1059C909.985 60.3593 910.226 62.9346 910.226 65.8318ZM904.691 27.6848C904.691 25.5924 904.571 23.4999 904.33 21.7294C904.09 19.9588 903.729 18.5102 903.127 17.2226C902.646 15.9349 901.924 14.9692 901.082 14.3253C900.24 13.6815 899.157 13.3596 897.713 13.3596L892.539 13.3596L892.539 42.9758L898.314 42.9758C899.518 42.9758 900.601 42.4929 901.322 41.6882C902.044 40.8834 902.766 39.7567 903.247 38.308C903.729 36.8594 904.09 35.2499 904.33 33.4793C904.571 31.5478 904.691 29.6163 904.691 27.6848ZM906.857 66.3147C906.857 63.5784 906.737 61.1641 906.376 59.0716C906.015 56.9792 905.534 55.2086 904.812 53.921C904.09 52.4723 903.248 51.5066 902.285 50.7018C901.322 50.058 899.999 49.5751 898.555 49.5751L892.539 49.5751L892.539 81.7667L899.879 81.7667C900.961 81.7667 901.924 81.4448 902.766 80.8009C903.608 80.1571 904.33 79.1913 904.932 77.9037C905.534 76.616 906.015 75.0064 906.376 73.0749C906.737 71.1434 906.857 68.89 906.857 66.3147Z" fill="#25A3E5"/>
<path d="M941.63 87.5611C941.63 87.8831 941.63 88.044 941.51 88.205C941.51 88.3659 941.39 88.5269 941.269 88.6878C941.149 88.8488 941.029 88.8488 940.788 89.0097C940.547 89.1707 940.307 89.1707 940.066 89.1707C939.825 89.1707 939.464 89.1707 939.344 89.0097C939.103 88.8488 938.983 88.8488 938.863 88.6878C938.743 88.5269 938.622 88.3659 938.622 88.205C938.622 88.044 938.502 87.7221 938.502 87.5611L938.502 27.6848C938.502 26.5581 938.502 25.2705 938.502 23.9828C938.502 22.6951 938.502 21.4075 938.622 20.2808C938.502 20.7636 938.382 21.4075 938.261 22.0513C938.141 22.6951 937.9 23.339 937.78 23.9828C937.66 24.6266 937.419 25.2704 937.299 25.9143C937.178 26.5581 936.938 27.2019 936.817 27.8458L920.815 87.5611C920.695 87.8831 920.695 88.044 920.574 88.205C920.454 88.3659 920.334 88.5269 920.213 88.6878C920.093 88.8488 919.973 88.8488 919.732 89.0097C919.612 89.0097 919.371 89.1707 919.13 89.1707C918.89 89.1707 918.649 89.1707 918.529 89.0097C918.409 88.8488 918.288 88.8488 918.168 88.6878C918.048 88.5269 918.048 88.3659 917.927 88.044C917.927 87.8831 917.807 87.5611 917.807 87.2392L917.807 7.56509C917.807 7.24318 917.807 7.08222 917.927 6.92126C917.927 6.7603 918.048 6.59934 918.168 6.43838C918.288 6.27742 918.409 6.27743 918.649 6.11647C918.89 5.95551 919.13 5.95552 919.371 5.95552C919.732 5.95552 919.973 5.95551 920.093 6.11647C920.334 6.27743 920.454 6.27742 920.574 6.43838C920.695 6.59934 920.815 6.7603 920.815 6.92126C920.815 7.08222 920.935 7.40414 920.935 7.56509L920.935 67.9243C920.935 69.051 920.935 70.1777 920.935 71.3044C920.935 72.4311 920.935 73.7188 920.815 74.6845C921.056 73.7188 921.296 72.592 921.657 71.3044C922.018 70.0167 922.379 68.5681 922.74 67.2804L938.743 7.5651C938.863 7.24318 938.863 7.08222 938.983 6.92126C939.103 6.7603 939.224 6.59934 939.344 6.43838C939.464 6.27742 939.585 6.27743 939.825 6.11647C939.946 6.11647 940.186 5.95552 940.427 5.95552C940.668 5.95552 940.908 5.95551 941.029 6.11647C941.149 6.27743 941.269 6.27743 941.39 6.43838C941.51 6.59934 941.51 6.7603 941.63 6.92126C941.63 7.08222 941.75 7.40413 941.75 7.72605L941.75 87.5611L941.63 87.5611Z" fill="#25A3E5"/>
<path d="M986.389 87.5611C986.389 87.8831 986.389 88.044 986.268 88.205C986.268 88.3659 986.148 88.5269 986.028 88.6878C985.907 88.8488 985.787 88.8488 985.546 89.0097C985.306 89.1707 985.065 89.1707 984.824 89.1707C984.584 89.1707 984.343 89.1707 984.103 89.0097C983.862 88.8488 983.742 88.8488 983.621 88.6878C983.501 88.5269 983.381 88.3659 983.381 88.205C983.381 88.044 983.26 87.7221 983.26 87.5611L983.26 13.1986L970.025 88.044C970.025 88.205 969.905 88.3659 969.905 88.5269C969.785 88.6878 969.785 88.8488 969.664 88.8488C969.544 89.0098 969.424 89.0098 969.183 89.1707C969.063 89.1707 968.822 89.3317 968.581 89.3317C968.341 89.3317 968.1 89.3317 967.98 89.1707C967.859 89.0098 967.619 89.0098 967.499 88.8488C967.378 88.6878 967.258 88.6878 967.258 88.5269C967.138 88.3659 967.138 88.205 967.138 88.044L954.624 13.1986L954.624 87.5611C954.624 87.8831 954.624 88.044 954.504 88.205C954.504 88.3659 954.384 88.5269 954.263 88.6878C954.143 88.8488 954.023 88.8488 953.782 89.0097C953.542 89.1707 953.301 89.1707 952.94 89.1707C952.699 89.1707 952.459 89.1707 952.218 89.0097C951.977 88.8488 951.857 88.8488 951.737 88.6878C951.616 88.5269 951.496 88.3659 951.496 88.205C951.496 88.044 951.376 87.7221 951.376 87.5611L951.376 10.3014C951.376 8.69179 951.496 7.72605 951.857 7.08221C952.218 6.43838 952.459 6.27743 952.82 6.27743L954.504 6.27743C954.985 6.27743 955.346 6.43838 955.587 6.59934C955.948 6.76029 956.189 7.24318 956.429 7.56509C956.67 8.04797 956.91 8.53084 957.031 9.17467C957.151 9.8185 957.392 10.4623 957.512 11.2671L968.581 76.777L968.702 76.777L980.252 11.4281C980.373 10.4623 980.613 9.49658 980.854 8.85275C981.095 8.20892 981.215 7.56509 981.456 7.24317C981.696 6.7603 981.937 6.59934 982.177 6.27743C982.418 6.11647 982.659 5.95552 983.02 5.95552L984.945 5.95552C985.065 5.95552 985.306 5.95551 985.426 6.11647C985.546 6.27743 985.787 6.43839 985.907 6.76031C986.028 7.08222 986.148 7.56509 986.268 8.04796C986.389 8.53083 986.389 9.17467 986.389 9.97946L986.389 87.5611Z" fill="#25A3E5"/>
<path d="M1035.48 109.29C1035.48 109.612 1035.48 109.773 1035.48 109.934C1035.48 110.095 1035.36 110.256 1035.24 110.417C1035.12 110.578 1035 110.578 1034.88 110.739C1034.76 110.9 1034.52 110.9 1034.16 110.9C1033.91 110.9 1033.67 110.9 1033.55 110.739C1033.43 110.739 1033.31 110.578 1033.19 110.417C1033.07 110.256 1033.07 110.095 1032.95 109.934C1032.95 109.773 1032.83 109.612 1032.83 109.29L1032.83 88.8488L1006 88.8488L1006 109.29C1006 109.612 1006 109.773 1005.88 109.934C1005.88 110.095 1005.76 110.256 1005.64 110.417C1005.52 110.578 1005.4 110.578 1005.28 110.739C1005.16 110.739 1004.92 110.9 1004.68 110.9C1004.44 110.9 1004.2 110.9 1003.96 110.739C1003.84 110.739 1003.59 110.578 1003.59 110.417C1003.59 110.256 1003.47 110.095 1003.35 109.934C1003.35 109.773 1003.35 109.612 1003.35 109.29L1003.35 84.9858C1003.35 84.0201 1003.35 83.2153 1003.47 82.7324C1003.59 82.2495 1003.84 81.9276 1004.2 81.9276L1006.36 81.9276C1006.84 80.318 1007.32 78.7085 1007.81 77.0989C1008.29 75.4893 1008.65 73.5578 1009.01 71.3044C1009.37 69.051 1009.85 66.3147 1010.21 63.0956C1010.57 59.8764 1010.93 56.0134 1011.29 51.1847C1011.66 46.3559 1012.02 40.7224 1012.38 34.1232C1012.74 27.5239 1013.1 19.476 1013.58 10.3014C1013.7 9.01372 1013.82 7.88702 1014.06 7.24319C1014.3 6.59935 1014.54 6.27744 1015.02 6.27744L1029.58 6.27744C1029.94 6.27744 1030.31 6.59936 1030.55 7.24319C1030.79 7.88702 1030.91 8.85277 1030.91 10.3014L1030.91 81.9276L1034.52 81.9276C1034.88 81.9276 1035 82.2495 1035.12 82.7324C1035.24 83.2153 1035.36 84.0201 1035.36 84.9858L1035.36 109.29L1035.48 109.29ZM1027.78 13.3596L1016.71 13.3596C1016.35 22.0513 1015.87 29.6163 1015.51 35.8937C1015.15 42.332 1014.78 47.8046 1014.42 52.4723C1014.06 57.1401 1013.7 61.0031 1013.34 64.2223C1012.98 67.4414 1012.62 70.1777 1012.26 72.2702C1011.9 74.5236 1011.54 76.2941 1011.17 77.7427C1010.81 79.1913 1010.33 80.479 1009.97 81.7667L1027.9 81.7667L1027.9 13.3596L1027.78 13.3596Z" fill="#25A3E5"/>
<path d="M1063.63 87.5612C1063.63 87.8831 1063.63 88.044 1063.51 88.205C1063.51 88.3659 1063.39 88.5269 1063.27 88.6879C1063.15 88.8488 1063.03 88.8488 1062.79 89.0098C1062.55 89.1707 1062.31 89.1707 1062.07 89.1707C1061.83 89.1707 1061.47 89.1707 1061.35 89.0098C1061.11 88.8488 1060.99 88.8488 1060.87 88.6879C1060.75 88.5269 1060.63 88.3659 1060.63 88.205C1060.63 88.044 1060.5 87.7221 1060.5 87.5612L1060.5 13.3596L1049.8 13.3596C1049.32 23.178 1048.95 32.0307 1048.47 39.5957C1047.99 47.1607 1047.51 53.921 1047.03 59.5545C1046.55 65.188 1045.95 70.0167 1045.34 73.8797C1044.74 77.7427 1044.14 80.8009 1043.3 83.2153C1042.58 85.6297 1041.74 87.2392 1040.77 88.3659C1039.81 89.4926 1038.73 89.9755 1037.52 89.9755C1037.4 89.9755 1037.28 89.8146 1037.16 89.6536C1037.04 89.4927 1036.92 89.1707 1036.92 88.8488C1036.8 88.5269 1036.8 88.205 1036.8 87.7221C1036.8 87.2392 1036.8 86.7564 1036.8 86.1125C1036.8 85.4687 1036.8 84.9858 1036.8 84.503C1036.8 84.0201 1036.92 83.6982 1036.92 83.3762C1036.92 83.0543 1037.04 82.8934 1037.16 82.7324C1037.28 82.5715 1037.4 82.5715 1037.52 82.5715C1038.25 82.5715 1038.85 82.2496 1039.45 81.6057C1040.05 80.9619 1040.65 79.6742 1041.13 77.7427C1041.74 75.8112 1042.22 73.2359 1042.7 69.8558C1043.18 66.4757 1043.66 62.1298 1044.14 56.8182C1044.62 51.5066 1045.1 45.0683 1045.47 37.5033C1045.95 29.9382 1046.31 21.0856 1046.79 10.7843C1046.91 9.17469 1047.03 8.04797 1047.27 7.40414C1047.51 6.76031 1047.87 6.4384 1048.35 6.4384L1062.31 6.4384C1062.67 6.4384 1063.03 6.76031 1063.27 7.40414C1063.51 8.04797 1063.63 9.01372 1063.63 10.4623L1063.63 87.5612Z" fill="#25A3E5"/>
<path d="M1092.51 87.5611C1092.51 87.8831 1092.51 88.044 1092.39 88.205C1092.39 88.3659 1092.27 88.5269 1092.15 88.6878C1092.03 88.8488 1091.91 88.8488 1091.67 89.0098C1091.43 89.1707 1091.19 89.1707 1090.95 89.1707C1090.59 89.1707 1090.34 89.1707 1090.22 89.0098C1089.98 88.8488 1089.86 88.8488 1089.74 88.6878C1089.62 88.5269 1089.5 88.3659 1089.5 88.205C1089.5 88.044 1089.38 87.7221 1089.38 87.5611L1089.38 51.1847L1085.53 51.1847C1083.97 51.1847 1082.88 51.5066 1082.04 52.3114C1081.2 53.1162 1080.6 54.2429 1080 55.6915C1079.4 57.1401 1078.91 58.7497 1078.55 60.6812C1078.19 62.6127 1077.71 64.7051 1077.35 67.1195L1074.34 86.7564C1074.22 87.2392 1074.22 87.7221 1074.1 88.044C1073.98 88.3659 1073.86 88.6879 1073.74 88.8488C1073.62 89.0098 1073.5 89.1707 1073.26 89.1707C1073.02 89.1707 1072.78 89.3317 1072.54 89.3317C1072.18 89.3317 1071.94 89.3317 1071.7 89.1707C1071.45 89.0098 1071.33 89.0098 1071.21 88.8488C1071.09 88.6879 1070.97 88.5269 1070.97 88.3659C1070.97 88.205 1070.85 87.8831 1070.85 87.5611C1070.85 87.0783 1070.85 86.5954 1070.97 86.1125C1070.97 85.6297 1071.21 84.6639 1071.33 83.3762L1074.22 65.188C1074.58 63.0956 1074.94 61.0031 1075.3 59.3935C1075.67 57.623 1076.03 56.1744 1076.51 54.7258C1076.87 53.4381 1077.35 52.3114 1077.83 51.3456C1078.31 50.3799 1078.91 49.5751 1079.52 49.0922C1078.55 48.6094 1077.59 47.6436 1076.75 46.5169C1075.91 45.3902 1075.18 43.9416 1074.58 42.332C1073.98 40.7224 1073.5 38.7909 1073.26 36.5375C1072.9 34.4451 1072.78 32.0307 1072.78 29.4554C1072.78 26.2362 1073.02 23.178 1073.38 20.4417C1073.86 17.7054 1074.46 15.2911 1075.42 13.1986C1076.27 11.1062 1077.47 9.4966 1078.79 8.3699C1080.12 7.24319 1082.16 6.59935 1084.81 6.59935L1091.07 6.59935C1091.43 6.59935 1091.67 6.92127 1092.03 7.40414C1092.39 8.04797 1092.51 9.01372 1092.51 10.6233L1092.51 87.5611ZM1089.38 13.3596L1084.69 13.3596C1082.76 13.3596 1081.32 13.6815 1080.36 14.4863C1079.4 15.2911 1078.55 16.2568 1077.95 17.7054C1077.35 18.9931 1076.87 20.6027 1076.63 22.5342C1076.39 24.4657 1076.27 26.3972 1076.27 28.6506C1076.27 30.743 1076.39 32.8355 1076.75 34.606C1076.99 36.5375 1077.47 38.1471 1078.19 39.5957C1078.79 41.0443 1079.64 42.171 1080.6 42.9758C1081.56 43.7806 1083.01 44.2635 1084.69 44.2635L1089.5 44.2635L1089.5 13.3596L1089.38 13.3596Z" fill="#25A3E5"/>
<path d="M1135.22 65.8318C1135.22 68.2462 1135.1 70.4996 1134.86 72.5921C1134.62 74.6845 1134.26 76.616 1133.9 78.2256C1133.42 79.9961 1132.94 81.4448 1132.34 82.7324C1131.73 84.0201 1131.01 85.1468 1130.17 86.1125C1129.33 87.0783 1128.49 87.7221 1127.64 88.205C1126.68 88.6879 1125.72 88.8488 1124.52 88.8488L1115.85 88.8488C1115.49 88.8488 1115.25 88.5269 1114.89 88.044C1114.53 87.4002 1114.41 86.4345 1114.41 84.8249L1114.41 10.3014C1114.41 8.69181 1114.53 7.72606 1114.89 7.08223C1115.25 6.4384 1115.49 6.27744 1115.85 6.27744L1123.07 6.27744C1125 6.27744 1126.56 6.76032 1127.76 7.72607C1128.97 8.69181 1129.93 10.1404 1130.77 11.911C1131.61 13.6815 1132.1 15.9349 1132.58 18.5102C1132.94 21.0856 1133.18 23.9828 1133.18 27.041C1133.18 28.9725 1133.06 30.904 1132.94 32.6745C1132.7 34.4451 1132.46 36.0546 1132.1 37.6642C1131.73 39.2738 1131.25 40.5615 1130.77 41.8491C1130.17 43.1368 1129.57 44.1025 1128.85 44.9073C1129.69 45.3902 1130.53 46.195 1131.37 47.3217C1132.22 48.4484 1132.82 49.897 1133.42 51.8285C1134.02 53.5991 1134.5 55.6915 1134.86 58.1059C1134.98 60.3593 1135.22 62.9346 1135.22 65.8318ZM1129.69 27.6848C1129.69 25.5924 1129.57 23.4999 1129.33 21.7294C1129.09 19.9589 1128.73 18.5102 1128.12 17.2226C1127.64 15.9349 1126.92 14.9692 1126.08 14.3253C1125.24 13.6815 1124.15 13.3596 1122.71 13.3596L1117.54 13.3596L1117.54 42.9758L1123.31 42.9758C1124.52 42.9758 1125.6 42.493 1126.32 41.6882C1127.04 40.8834 1127.76 39.7567 1128.25 38.3081C1128.73 36.8594 1129.09 35.2499 1129.33 33.4793C1129.57 31.5478 1129.69 29.6163 1129.69 27.6848ZM1131.85 66.3147C1131.85 63.5784 1131.73 61.1641 1131.37 59.0716C1131.01 56.9792 1130.53 55.2086 1129.81 53.921C1129.09 52.4724 1128.25 51.5066 1127.28 50.7018C1126.32 50.058 1125 49.5751 1123.55 49.5751L1117.54 49.5751L1117.54 81.7667L1124.88 81.7667C1125.96 81.7667 1126.92 81.4448 1127.76 80.8009C1128.61 80.1571 1129.33 79.1913 1129.93 77.9037C1130.53 76.616 1131.01 75.0064 1131.37 73.075C1131.61 71.1435 1131.85 68.8901 1131.85 66.3147Z" fill="#25A3E5"/>
<path d="M1165.91 86.2735C1166.03 86.9173 1166.03 87.4002 1166.03 87.8831C1166.03 88.3659 1165.91 88.5269 1165.78 88.8488C1165.66 89.0098 1165.54 89.1707 1165.3 89.3317C1165.06 89.3317 1164.82 89.4926 1164.46 89.4926C1164.1 89.4926 1163.86 89.4927 1163.62 89.3317C1163.38 89.3317 1163.26 89.1707 1163.14 89.0098C1163.02 88.8488 1162.9 88.6879 1162.9 88.5269C1162.78 88.366 1162.78 88.044 1162.78 87.7221L1159.53 65.6709L1144.85 65.6709L1141.72 87.5612C1141.72 87.8831 1141.6 88.044 1141.6 88.3659C1141.48 88.5269 1141.48 88.6879 1141.36 88.8488C1141.24 89.0098 1141.12 89.1707 1140.88 89.1707C1140.64 89.3317 1140.4 89.3317 1140.04 89.3317C1139.68 89.3317 1139.31 89.3317 1139.07 89.1707C1138.83 89.0098 1138.71 89.0098 1138.59 88.6879C1138.47 88.5269 1138.47 88.205 1138.35 87.7221C1138.35 87.4002 1138.35 86.7564 1138.47 86.1125L1150.14 7.56511C1150.14 7.24319 1150.26 6.92128 1150.38 6.76032C1150.5 6.59936 1150.62 6.27744 1150.74 6.27744C1150.87 6.11648 1151.11 6.11649 1151.35 5.95553C1151.59 5.79457 1151.83 5.79456 1152.19 5.79456C1152.55 5.79456 1152.79 5.79457 1153.03 5.95553C1153.27 5.95553 1153.51 6.11648 1153.63 6.27744C1153.75 6.4384 1153.87 6.59936 1153.99 6.76032C1154.11 6.92128 1154.11 7.24319 1154.23 7.56511L1165.91 86.2735ZM1152.07 14.6472L1145.69 59.0716L1158.57 59.0716L1152.07 14.6472Z" fill="#25A3E5"/>
<path d="M1207.42 84.8249C1207.42 86.1125 1207.29 87.2392 1207.05 87.8831C1206.81 88.5269 1206.45 88.8488 1206.09 88.8488L1173.36 88.8488C1173 88.8488 1172.64 88.5269 1172.4 87.8831C1172.16 87.2392 1172.04 86.2735 1172.04 84.8249L1172.04 7.5651C1172.04 7.24319 1172.04 7.08223 1172.16 6.92127C1172.16 6.76031 1172.28 6.59935 1172.4 6.43839C1172.52 6.27743 1172.64 6.27744 1172.88 6.11648C1173.12 5.95552 1173.36 5.95553 1173.61 5.95553C1173.97 5.95553 1174.21 5.95552 1174.33 6.11648C1174.57 6.27744 1174.69 6.27743 1174.81 6.43839C1174.93 6.59935 1175.05 6.76031 1175.05 6.92127C1175.05 7.08223 1175.17 7.40415 1175.17 7.5651L1175.17 81.7667L1188.16 81.7667L1188.16 7.56511C1188.16 7.24319 1188.16 7.08223 1188.28 6.92127C1188.28 6.76031 1188.4 6.59935 1188.52 6.43839C1188.65 6.27744 1188.77 6.27744 1189.01 6.11648C1189.25 5.95552 1189.49 5.95553 1189.73 5.95553C1190.09 5.95553 1190.33 5.95552 1190.45 6.11648C1190.69 6.27744 1190.81 6.27744 1190.93 6.43839C1191.05 6.59935 1191.17 6.76031 1191.17 6.92127C1191.17 7.08223 1191.29 7.40415 1191.29 7.56511L1191.29 81.7667L1204.29 81.7667L1204.29 7.56511C1204.29 7.24319 1204.29 7.08223 1204.41 6.92127C1204.41 6.76031 1204.53 6.59935 1204.65 6.43839C1204.77 6.27744 1204.89 6.27744 1205.13 6.11648C1205.37 5.95553 1205.61 5.95553 1205.85 5.95553C1206.21 5.95553 1206.45 5.95553 1206.57 6.11648C1206.81 6.27744 1206.93 6.27744 1207.05 6.43839C1207.17 6.59935 1207.29 6.76031 1207.29 6.92127C1207.29 7.08223 1207.42 7.40415 1207.42 7.56511L1207.42 84.8249Z" fill="#25A3E5"/>
<path d="M1244.23 46.6779C1244.23 53.2772 1243.87 59.2326 1243.27 64.5442C1242.67 69.8558 1241.71 74.3626 1240.5 78.2256C1239.3 81.9276 1237.74 84.8249 1235.81 86.9173C1234.01 89.0098 1231.72 89.9755 1229.31 89.9755C1226.79 89.9755 1224.74 89.0098 1222.94 87.0783C1221.13 85.1468 1219.69 82.4105 1218.48 78.8695C1217.28 75.3284 1216.44 70.8215 1215.96 65.6709C1215.36 60.5202 1215.12 54.5648 1215.12 48.1265C1215.12 41.6882 1215.48 35.7327 1216.08 30.5821C1216.68 25.2705 1217.64 20.7637 1218.85 17.0616C1220.05 13.3596 1221.61 10.4624 1223.54 8.36991C1225.34 6.27746 1227.63 5.31171 1230.04 5.31171C1232.44 5.31171 1234.61 6.27745 1236.41 8.20894C1238.22 10.1404 1239.66 12.8767 1240.86 16.4178C1242.07 19.9589 1242.91 24.3047 1243.51 29.4554C1243.87 34.4451 1244.23 40.2396 1244.23 46.6779ZM1240.86 47.3217C1240.86 42.493 1240.62 37.8252 1240.26 33.6403C1239.9 29.2944 1239.3 25.5924 1238.46 22.5342C1237.62 19.315 1236.41 16.9007 1235.09 15.1301C1233.64 13.3596 1231.96 12.3939 1229.79 12.3939C1227.75 12.3939 1225.94 13.3596 1224.5 15.2911C1223.06 17.2226 1221.97 19.7979 1221.01 22.8561C1220.17 26.0753 1219.45 29.7773 1219.09 33.9622C1218.73 38.1471 1218.48 42.6539 1218.48 47.4827C1218.48 52.4724 1218.6 57.1401 1218.97 61.486C1219.33 65.8319 1219.93 69.5339 1220.77 72.753C1221.61 75.9722 1222.7 78.3866 1224.14 80.3181C1225.58 82.0886 1227.27 83.0543 1229.43 83.0543C1231.6 83.0543 1233.28 82.0886 1234.73 80.1571C1236.17 78.2256 1237.37 75.6503 1238.22 72.4311C1239.06 69.212 1239.78 65.349 1240.14 61.1641C1240.62 56.4963 1240.86 51.9895 1240.86 47.3217Z" fill="#25A3E5"/>
<path d="M1269.38 9.97949C1269.38 10.4624 1269.38 11.1062 1269.38 11.4281C1269.38 11.911 1269.26 12.2329 1269.26 12.5548C1269.14 12.8767 1269.14 13.0377 1269.02 13.1986C1268.9 13.3596 1268.78 13.3596 1268.66 13.3596L1255.18 13.3596L1255.18 87.5612C1255.18 87.8831 1255.18 88.044 1255.06 88.205C1255.06 88.3659 1254.94 88.5269 1254.82 88.6879C1254.7 88.8488 1254.58 88.8488 1254.34 89.0098C1254.1 89.1707 1253.86 89.1707 1253.62 89.1707C1253.38 89.1707 1253.02 89.1707 1252.9 89.0098C1252.66 88.8488 1252.53 88.8488 1252.41 88.6879C1252.29 88.5269 1252.17 88.3659 1252.17 88.205C1252.17 88.044 1252.05 87.7221 1252.05 87.5612L1252.05 10.3014C1252.05 9.01374 1252.17 7.88703 1252.53 7.2432C1252.78 6.59937 1253.14 6.27745 1253.62 6.27745L1268.78 6.27745C1269.02 6.27745 1269.26 6.59937 1269.38 7.2432C1269.38 7.88703 1269.38 8.69183 1269.38 9.97949Z" fill="#25A3E5"/>
<path d="M1299.82 46.6779C1299.82 53.2772 1299.46 59.2326 1298.86 64.5442C1298.26 69.8558 1297.29 74.3626 1296.09 78.2256C1294.89 82.0886 1293.32 84.8249 1291.4 86.9173C1289.59 89.0098 1287.31 89.9755 1284.9 89.9755C1282.37 89.9755 1280.33 89.0098 1278.52 87.0783C1276.72 85.1468 1275.28 82.4105 1274.07 78.8695C1272.87 75.3284 1272.03 70.8215 1271.55 65.6709C1270.94 60.5202 1270.7 54.5648 1270.7 48.1265C1270.7 41.6882 1271.06 35.7327 1271.67 30.5821C1272.27 25.2705 1273.23 20.7637 1274.43 17.0616C1275.64 13.3596 1277.2 10.4624 1279.13 8.36991C1280.93 6.27746 1283.22 5.31171 1285.62 5.31171C1288.03 5.31171 1290.2 6.27745 1292 8.20894C1293.8 10.1404 1295.25 12.8767 1296.45 16.4178C1297.66 19.9589 1298.5 24.3047 1299.1 29.4554C1299.46 34.4451 1299.82 40.2396 1299.82 46.6779ZM1296.45 47.3217C1296.45 42.493 1296.21 37.8252 1295.85 33.6403C1295.49 29.2944 1294.89 25.5924 1294.05 22.5342C1293.2 19.315 1292 16.9007 1290.68 15.1301C1289.23 13.3596 1287.55 12.3939 1285.38 12.3939C1283.34 12.3939 1281.53 13.3596 1280.09 15.2911C1278.64 17.2226 1277.56 19.7979 1276.6 22.8561C1275.76 26.0753 1275.04 29.7773 1274.67 33.9622C1274.31 38.1471 1274.07 42.6539 1274.07 47.4827C1274.07 52.4724 1274.19 57.1401 1274.55 61.486C1274.91 65.8319 1275.52 69.5339 1276.36 72.753C1277.2 75.9722 1278.28 78.3866 1279.73 80.3181C1281.17 82.0886 1282.86 83.0543 1285.02 83.0543C1287.19 83.0543 1288.87 82.0886 1290.32 80.1571C1291.76 78.2256 1292.96 75.6503 1293.8 72.4311C1294.65 69.212 1295.37 65.349 1295.73 61.1641C1296.21 56.4963 1296.45 51.9895 1296.45 47.3217Z" fill="#25A3E5"/>
<path d="M1336.88 66.1538C1336.88 69.5339 1336.64 72.5921 1336.16 75.4893C1335.68 78.3866 1334.95 80.9619 1333.87 83.0543C1332.79 85.1468 1331.58 86.9173 1330.14 88.044C1328.7 89.1707 1326.89 89.8146 1324.85 89.8146C1323.76 89.8146 1322.68 89.6536 1321.84 89.1707C1321 88.6879 1320.15 88.205 1319.55 87.5612C1318.95 86.9173 1318.47 86.4345 1318.11 85.9516C1317.75 85.4687 1317.51 85.1468 1317.39 84.8249C1317.27 84.503 1317.15 84.342 1317.15 84.0201C1317.03 83.6982 1317.03 83.3763 1317.03 83.0543C1317.03 82.7324 1316.91 82.2496 1316.91 81.6057C1316.91 81.1229 1316.91 80.479 1316.91 79.8352C1316.91 78.7085 1316.91 78.0647 1317.03 77.5818C1317.15 77.0989 1317.27 76.9379 1317.39 76.9379C1317.63 76.9379 1317.87 77.2599 1318.23 77.7427C1318.59 78.3866 1319.07 79.0304 1319.67 79.6742C1320.27 80.479 1321 81.1229 1321.96 81.6057C1322.8 82.2496 1323.88 82.4105 1325.21 82.4105C1326.41 82.4105 1327.61 82.0886 1328.7 81.2838C1329.78 80.479 1330.62 79.3523 1331.34 77.9037C1332.07 76.4551 1332.67 74.8455 1333.03 72.753C1333.39 70.8216 1333.63 68.5681 1333.63 66.1538C1333.63 63.5784 1333.39 61.325 1333.03 59.0716C1332.67 56.9792 1332.07 55.0477 1331.34 53.5991C1330.62 52.1504 1329.66 50.8628 1328.58 50.058C1327.49 49.2532 1326.29 48.7703 1324.85 48.7703L1320.76 48.7703C1320.64 48.7703 1320.39 48.7703 1320.27 48.6094C1320.15 48.4484 1320.03 48.2874 1320.03 47.9655C1319.91 47.6436 1319.91 47.3217 1319.91 46.8388C1319.91 46.356 1319.91 45.8731 1319.91 45.2292C1319.91 44.7464 1319.91 44.2635 1319.91 43.7806C1319.91 43.2978 1320.03 42.9759 1320.03 42.6539C1320.15 42.332 1320.15 42.171 1320.27 42.0101C1320.39 41.8491 1320.51 41.8491 1320.64 41.8491L1324.37 41.8491C1325.57 41.8491 1326.65 41.5272 1327.61 40.7224C1328.58 40.0786 1329.54 38.9519 1330.26 37.6642C1330.98 36.2156 1331.58 34.606 1331.95 32.6745C1332.31 30.743 1332.55 28.3287 1332.55 25.7534C1332.55 23.6609 1332.43 21.7294 1332.19 20.1198C1331.95 18.3493 1331.46 16.9007 1330.98 15.774C1330.38 14.4863 1329.78 13.6815 1328.94 13.0377C1328.1 12.3938 1327.13 12.0719 1326.05 12.0719C1324.85 12.0719 1323.88 12.3938 1323.04 13.0377C1322.2 13.6815 1321.48 14.3253 1320.76 14.9692C1320.15 15.613 1319.55 16.4178 1319.19 17.0616C1318.71 17.7055 1318.47 18.0274 1318.23 18.0274C1318.11 18.0274 1317.99 18.0274 1317.99 17.8664C1317.87 17.7055 1317.87 17.5445 1317.87 17.3835C1317.87 17.0616 1317.75 16.7397 1317.75 16.4178C1317.75 15.9349 1317.75 15.4521 1317.75 14.8082C1317.75 14.3253 1317.75 14.0034 1317.75 13.5206C1317.75 13.0377 1317.75 12.7158 1317.87 12.3939C1317.87 12.0719 1317.99 11.75 1317.99 11.4281C1318.11 11.1062 1318.11 10.7843 1318.23 10.4624C1318.35 10.1404 1318.71 9.65756 1319.19 9.01373C1319.67 8.3699 1320.27 7.72607 1321 7.2432C1321.72 6.59937 1322.56 6.11649 1323.52 5.79457C1324.49 5.3117 1325.45 5.15075 1326.53 5.15075C1328.1 5.15075 1329.54 5.63363 1330.74 6.76033C1331.95 7.72608 1332.91 9.1747 1333.75 10.9452C1334.59 12.7158 1335.19 14.8082 1335.55 17.3835C1335.92 19.7979 1336.16 22.5342 1336.16 25.4314C1336.16 28.3287 1336.04 30.904 1335.68 33.1574C1335.31 35.4108 1334.83 37.3423 1334.23 38.9519C1333.63 40.5615 1332.91 41.8491 1332.19 42.9758C1331.34 43.9416 1330.62 44.5854 1329.78 44.9073L1329.78 45.0683C1330.86 45.3902 1331.83 46.195 1332.67 47.3217C1333.63 48.4484 1334.35 50.058 1335.07 51.8285C1335.8 53.5991 1336.28 55.8525 1336.64 58.2668C1336.64 60.6812 1336.88 63.2565 1336.88 66.1538Z" fill="#25A3E5"/>
<path d="M1371.65 109.29C1371.65 109.612 1371.65 109.773 1371.65 109.934C1371.65 110.095 1371.53 110.256 1371.41 110.417C1371.29 110.578 1371.17 110.578 1371.05 110.739C1370.93 110.739 1370.69 110.9 1370.33 110.9C1370.09 110.9 1369.85 110.9 1369.73 110.739C1369.61 110.739 1369.49 110.578 1369.36 110.417C1369.24 110.256 1369.24 110.095 1369.12 109.934C1369.12 109.773 1369 109.612 1369 109.29L1369 88.8488L1342.17 88.8488L1342.17 109.29C1342.17 109.612 1342.17 109.773 1342.05 109.934C1342.05 110.095 1341.93 110.256 1341.81 110.417C1341.69 110.578 1341.57 110.578 1341.45 110.739C1341.33 110.739 1341.09 110.9 1340.85 110.9C1340.61 110.9 1340.37 110.9 1340.13 110.739C1340.01 110.739 1339.77 110.578 1339.77 110.417C1339.77 110.256 1339.65 110.095 1339.53 109.934C1339.53 109.773 1339.53 109.612 1339.53 109.29L1339.53 84.9858C1339.53 84.0201 1339.53 83.2153 1339.65 82.7324C1339.77 82.2496 1340.01 81.9276 1340.37 81.9276L1342.53 81.9276C1343.01 80.3181 1343.5 78.7085 1343.98 77.0989C1344.46 75.4893 1344.82 73.5578 1345.18 71.3044C1345.54 69.051 1346.02 66.3147 1346.38 63.0956C1346.74 59.8764 1347.11 56.0134 1347.47 51.1847C1347.83 46.3559 1348.19 40.7224 1348.55 34.1232C1348.91 27.5239 1349.27 19.476 1349.75 10.3014C1349.87 9.01374 1349.99 7.88703 1350.23 7.2432C1350.47 6.59937 1350.72 6.27745 1351.2 6.27745L1365.76 6.27745C1366.12 6.27745 1366.48 6.59937 1366.72 7.2432C1366.96 7.88703 1367.08 8.85278 1367.08 10.3014L1367.08 81.9276L1370.69 81.9276C1371.05 81.9276 1371.17 82.2496 1371.29 82.7324C1371.41 83.2153 1371.53 84.0201 1371.53 84.9858L1371.53 109.29L1371.65 109.29ZM1363.95 13.3596L1352.88 13.3596C1352.52 22.0513 1352.04 29.6163 1351.68 35.8937C1351.32 42.332 1350.96 47.8046 1350.6 52.4723C1350.23 57.1401 1349.87 61.0031 1349.51 64.2223C1349.15 67.4414 1348.79 70.1777 1348.43 72.2702C1348.07 74.5236 1347.71 76.2941 1347.35 77.7427C1346.99 79.1913 1346.5 80.479 1346.14 81.7667L1363.95 81.7667L1363.95 13.3596Z" fill="#25A3E5"/>
<path d="M1404.26 46.6779C1404.26 53.2772 1403.9 59.2326 1403.29 64.5442C1402.69 69.8558 1401.73 74.3626 1400.53 78.2256C1399.32 82.0886 1397.76 84.8249 1395.83 86.9173C1394.03 89.0098 1391.74 89.9755 1389.34 89.9755C1386.81 89.9755 1384.77 89.0098 1382.96 87.0783C1381.16 85.1468 1379.71 82.4105 1378.51 78.8695C1377.31 75.3284 1376.46 70.8215 1375.98 65.6709C1375.38 60.5202 1375.14 54.5648 1375.14 48.1265C1375.14 41.6882 1375.5 35.7327 1376.1 30.5821C1376.7 25.2705 1377.67 20.7637 1378.87 17.0616C1380.07 13.3596 1381.64 10.4624 1383.56 8.36991C1385.37 6.27746 1387.65 5.31171 1390.06 5.31171C1392.47 5.31171 1394.63 6.27745 1396.44 8.20894C1398.24 10.1404 1399.69 12.8767 1400.89 16.4178C1402.09 19.9589 1402.93 24.3047 1403.54 29.4554C1404.02 34.4451 1404.26 40.2396 1404.26 46.6779ZM1400.89 47.3217C1400.89 42.493 1400.65 37.8252 1400.29 33.6403C1399.93 29.2944 1399.32 25.5924 1398.48 22.5342C1397.64 19.315 1396.44 16.9007 1395.11 15.1301C1393.67 13.3596 1391.98 12.3939 1389.82 12.3939C1387.77 12.3939 1385.97 13.3596 1384.52 15.2911C1383.08 17.2226 1382 19.7979 1381.04 22.8561C1380.19 26.0753 1379.47 29.7773 1379.11 33.9622C1378.75 38.1471 1378.51 42.6539 1378.51 47.4827C1378.51 52.4724 1378.63 57.1401 1378.99 61.486C1379.35 65.8319 1379.95 69.5339 1380.8 72.753C1381.64 75.9722 1382.72 78.3866 1384.16 80.3181C1385.61 82.0886 1387.29 83.0543 1389.46 83.0543C1391.62 83.0543 1393.31 82.0886 1394.75 80.1571C1396.2 78.2256 1397.4 75.6503 1398.24 72.4311C1399.08 69.212 1399.81 65.349 1400.17 61.1641C1400.65 56.4963 1400.89 51.9895 1400.89 47.3217Z" fill="#25A3E5"/>
<path d="M1431.33 29.9383C1431.33 33.8013 1431.09 37.3423 1430.49 40.4005C1430.01 43.6197 1429.16 46.356 1428.2 48.6094C1427.24 50.8628 1426.04 52.6333 1424.59 53.921C1423.15 55.2087 1421.46 55.8525 1419.42 55.8525L1415.09 55.8525L1415.09 87.5612C1415.09 87.8831 1415.09 88.044 1414.97 88.205C1414.97 88.366 1414.85 88.5269 1414.73 88.6879C1414.61 88.8488 1414.48 88.8488 1414.24 89.0098C1414 89.1707 1413.76 89.1708 1413.52 89.1708C1413.28 89.1708 1412.92 89.1707 1412.8 89.0098C1412.56 88.8488 1412.44 88.8488 1412.32 88.6879C1412.2 88.5269 1412.08 88.366 1412.08 88.205C1412.08 88.044 1411.96 87.7221 1411.96 87.5612L1411.96 10.3014C1411.96 8.69183 1412.08 7.72609 1412.44 7.08225C1412.8 6.43842 1413.04 6.27746 1413.4 6.27746L1420.26 6.27747C1420.98 6.27747 1421.58 6.27746 1422.19 6.43842C1422.79 6.59938 1423.63 6.92129 1424.47 7.40417C1425.31 7.88704 1426.16 8.85279 1427.12 10.1405C1427.96 11.4281 1428.8 13.0377 1429.4 15.1301C1430.01 17.0616 1430.49 19.315 1430.85 21.7294C1431.09 24.3047 1431.33 27.041 1431.33 29.9383ZM1427.96 30.7431C1427.96 27.202 1427.72 24.1438 1427.12 21.7294C1426.52 19.315 1425.79 17.3836 1425.07 16.2568C1424.23 14.9692 1423.39 14.3254 1422.55 14.0034C1421.7 13.6815 1420.86 13.5206 1420.02 13.5206L1415.21 13.5206L1415.21 49.4142L1419.78 49.4142C1421.22 49.4142 1422.43 48.9313 1423.51 47.9655C1424.47 46.9998 1425.31 45.7121 1426.04 44.1026C1426.76 42.493 1427.24 40.5615 1427.6 38.3081C1427.72 35.8937 1427.96 33.3184 1427.96 30.7431Z" fill="#25A3E5"/>
<path d="M1465.86 46.6779C1465.86 53.2772 1465.5 59.2326 1464.9 64.5442C1464.3 69.8558 1463.33 74.3626 1462.13 78.2256C1460.93 82.0886 1459.36 84.8249 1457.44 86.9174C1455.63 89.0098 1453.35 89.9755 1450.94 89.9755C1448.42 89.9755 1446.37 89.0098 1444.56 87.0783C1442.76 85.1468 1441.32 82.4105 1440.11 78.8695C1438.91 75.3284 1438.07 70.8216 1437.59 65.6709C1436.98 60.5202 1436.74 54.5648 1436.74 48.1265C1436.74 41.6882 1437.11 35.7327 1437.71 30.5821C1438.31 25.2705 1439.27 20.7637 1440.47 17.0616C1441.68 13.3596 1443.24 10.4624 1445.17 8.36992C1446.97 6.27747 1449.26 5.31172 1451.66 5.31172C1454.07 5.31172 1456.24 6.27746 1458.04 8.20895C1459.85 10.1404 1461.29 12.8767 1462.49 16.4178C1463.7 19.9589 1464.54 24.3047 1465.14 29.4554C1465.62 34.4451 1465.86 40.2396 1465.86 46.6779ZM1462.49 47.3217C1462.49 42.493 1462.25 37.8252 1461.89 33.6403C1461.53 29.2944 1460.93 25.5924 1460.09 22.5342C1459.24 19.315 1458.04 16.9007 1456.72 15.1301C1455.27 13.3596 1453.59 12.3939 1451.42 12.3939C1449.38 12.3939 1447.57 13.3596 1446.13 15.2911C1444.69 17.2226 1443.6 19.7979 1442.64 22.8561C1441.8 26.0753 1441.08 29.7773 1440.71 33.9622C1440.35 38.1471 1440.11 42.6539 1440.11 47.4827C1440.11 52.4724 1440.23 57.1401 1440.59 61.486C1440.96 65.8319 1441.56 69.5339 1442.4 72.7531C1443.24 75.9722 1444.32 78.3866 1445.77 80.3181C1447.21 82.0886 1448.9 83.0543 1451.06 83.0543C1453.23 83.0543 1454.91 82.0886 1456.36 80.1571C1457.8 78.2256 1459 75.6503 1459.85 72.4311C1460.69 69.212 1461.41 65.349 1461.77 61.1641C1462.37 56.4963 1462.49 51.9895 1462.49 47.3217Z" fill="#25A3E5"/>
<path d="M1494.5 65.8319C1494.5 68.2462 1494.38 70.4996 1494.14 72.5921C1493.9 74.6845 1493.53 76.616 1493.17 78.2256C1492.69 79.9962 1492.21 81.4448 1491.61 82.7324C1491.01 84.0201 1490.29 85.1468 1489.44 86.1126C1488.6 87.0783 1487.76 87.7221 1486.92 88.205C1485.95 88.6879 1484.99 88.8488 1483.79 88.8488L1475.13 88.8488C1474.76 88.8488 1474.52 88.5269 1474.16 88.0441C1473.8 87.4002 1473.68 86.4345 1473.68 84.8249L1473.68 10.3014C1473.68 8.69183 1473.8 7.72609 1474.16 7.08225C1474.52 6.43842 1474.76 6.27746 1475.13 6.27746L1482.34 6.27747C1484.27 6.27747 1485.83 6.76034 1487.04 7.72609C1488.24 8.69184 1489.2 10.1405 1490.05 11.911C1490.89 13.6815 1491.37 15.9349 1491.85 18.5103C1492.21 21.0856 1492.45 23.9828 1492.45 27.041C1492.45 28.9725 1492.33 30.904 1492.21 32.6746C1491.97 34.4451 1491.73 36.0547 1491.37 37.6642C1491.01 39.2738 1490.53 40.5615 1490.05 41.8492C1489.44 43.1368 1488.84 44.1026 1488.12 44.9073C1488.96 45.3902 1489.8 46.195 1490.65 47.3217C1491.49 48.4484 1492.09 49.897 1492.69 51.8285C1493.29 53.5991 1493.78 55.6915 1494.14 58.1059C1494.38 60.3593 1494.5 62.9346 1494.5 65.8319ZM1488.96 27.6849C1488.96 25.5924 1488.84 23.5 1488.6 21.7294C1488.36 19.9589 1488 18.5103 1487.4 17.2226C1486.92 15.9349 1486.2 14.9692 1485.35 14.3254C1484.51 13.6815 1483.43 13.3596 1481.98 13.3596L1476.81 13.3596L1476.81 42.9759L1482.59 42.9759C1483.79 42.9759 1484.87 42.493 1485.59 41.6882C1486.32 40.8834 1487.04 39.7567 1487.52 38.3081C1488 36.8595 1488.36 35.2499 1488.6 33.4793C1488.84 31.5478 1488.96 29.6164 1488.96 27.6849ZM1491.13 66.3147C1491.13 63.5785 1491.01 61.1641 1490.65 59.0716C1490.29 56.9792 1489.8 55.2087 1489.08 53.921C1488.36 52.4724 1487.52 51.5066 1486.56 50.7018C1485.59 50.058 1484.27 49.5751 1482.83 49.5751L1476.81 49.5751L1476.81 81.7667L1484.15 81.7667C1485.23 81.7667 1486.2 81.4448 1487.04 80.801C1487.88 80.1571 1488.6 79.1914 1489.2 77.9037C1489.8 76.616 1490.29 75.0065 1490.65 73.075C1491.01 71.1435 1491.13 68.8901 1491.13 66.3147Z" fill="#25A3E5"/>
<path d="M1504 31.7088C1504 32.0307 1504 32.1917 1503.88 32.3526C1503.88 32.5136 1503.76 32.6745 1503.64 32.8355C1503.52 32.9965 1503.4 32.9965 1503.28 33.1574C1503.16 33.3184 1502.92 33.3184 1502.68 33.3184C1502.44 33.3184 1502.2 33.3184 1502.08 33.1574C1501.96 32.9965 1501.84 32.9965 1501.72 32.8355C1501.6 32.6745 1501.6 32.5136 1501.48 32.3526C1501.48 32.1917 1501.35 31.8698 1501.35 31.7088L1500.75 1.60967C1500.75 1.28776 1500.75 1.1268 1500.87 0.96584C1500.99 0.804882 1501.11 0.643932 1501.23 0.482974C1501.35 0.322016 1501.6 0.161051 1501.84 0.161051C1502.08 0.161051 1502.32 9.52675e-05 1502.68 9.52833e-05C1503.04 9.52991e-05 1503.28 9.28512e-05 1503.52 0.161051C1503.76 0.161051 1504 0.322016 1504.12 0.482974C1504.24 0.643932 1504.36 0.804882 1504.48 0.96584C1504.6 1.1268 1504.6 1.44872 1504.6 1.60967L1504 31.7088Z" fill="#25A3E5"/>
<path d="M1532.4 87.5612C1532.4 87.8831 1532.4 88.044 1532.28 88.205C1532.28 88.366 1532.16 88.5269 1532.04 88.6879C1531.92 88.8488 1531.8 88.8488 1531.56 89.0098C1531.31 89.1707 1531.07 89.1708 1530.83 89.1708C1530.47 89.1708 1530.23 89.1707 1530.11 89.0098C1529.87 88.8488 1529.75 88.8488 1529.63 88.6879C1529.51 88.5269 1529.39 88.366 1529.39 88.205C1529.39 88.044 1529.27 87.7221 1529.27 87.5612L1529.27 51.1847L1525.42 51.1847C1523.85 51.1847 1522.77 51.5066 1521.93 52.3114C1521.09 53.1162 1520.49 54.2429 1519.88 55.6915C1519.28 57.1401 1518.8 58.7497 1518.44 60.6812C1518.08 62.6127 1517.6 64.7052 1517.24 67.1195L1514.23 86.7564C1514.11 87.2393 1514.11 87.7221 1513.99 88.0441C1513.87 88.366 1513.75 88.6879 1513.63 88.8488C1513.51 89.0098 1513.39 89.1708 1513.15 89.1708C1512.91 89.1708 1512.67 89.3317 1512.42 89.3317C1512.06 89.3317 1511.82 89.3317 1511.58 89.1708C1511.34 89.0098 1511.22 89.0098 1511.1 88.8488C1510.98 88.6879 1510.86 88.5269 1510.86 88.366C1510.86 88.205 1510.74 87.8831 1510.74 87.5612C1510.74 87.0783 1510.74 86.5954 1510.86 86.1126C1510.86 85.6297 1511.1 84.6639 1511.22 83.3763L1514.11 65.188C1514.47 63.0956 1514.83 61.0031 1515.19 59.3936C1515.55 57.623 1515.91 56.1744 1516.39 54.7258C1516.76 53.4381 1517.24 52.3114 1517.72 51.3457C1518.2 50.3799 1518.8 49.5751 1519.4 49.0923C1518.44 48.6094 1517.48 47.6436 1516.64 46.5169C1515.79 45.3902 1515.07 43.9416 1514.47 42.332C1513.87 40.7224 1513.39 38.791 1513.15 36.5375C1512.79 34.4451 1512.67 32.0307 1512.67 29.4554C1512.67 26.2362 1512.91 23.178 1513.27 20.4418C1513.75 17.7055 1514.35 15.2911 1515.31 13.1987C1516.15 11.1062 1517.36 9.49663 1518.68 8.36993C1520 7.24322 1522.05 6.59938 1524.7 6.59938L1530.95 6.59938C1531.31 6.59938 1531.56 6.9213 1531.92 7.40417C1532.28 8.048 1532.4 9.01375 1532.4 10.6233L1532.4 87.5612ZM1529.27 13.3596L1524.58 13.3596C1522.65 13.3596 1521.21 13.6815 1520.25 14.4863C1519.28 15.2911 1518.44 16.2569 1517.84 17.7055C1517.24 18.9931 1516.76 20.6027 1516.52 22.5342C1516.27 24.4657 1516.15 26.3972 1516.15 28.6506C1516.15 30.7431 1516.27 32.8355 1516.64 34.606C1516.88 36.5375 1517.36 38.1471 1518.08 39.5957C1518.68 41.0444 1519.52 42.1711 1520.49 42.9759C1521.45 43.7807 1522.89 44.2635 1524.58 44.2635L1529.39 44.2635L1529.39 13.3596L1529.27 13.3596Z" fill="#25A3E5"/>
</svg>
