<svg preserveAspectRatio="none" width="293" height="58" viewBox="0 0 293 58" fill="none" xmlns="http://www.w3.org/2000/svg">
<path d="M13.7726 23.0488C13.7726 23.2134 13.7726 23.3369 13.7726 23.4603C13.7726 23.5838 13.7726 23.7073 13.7313 23.7896C13.7313 23.8719 13.69 23.9542 13.69 24.0366C13.6487 24.1189 13.6074 24.2424 13.5661 24.3658C13.4835 24.4893 13.3596 24.6951 13.1118 24.9832C12.864 25.2713 12.5749 25.5594 12.2032 25.8475C11.8315 26.1356 11.4185 26.3826 10.9642 26.5884C10.51 26.7942 9.97306 26.8765 9.43617 26.8765C8.52758 26.8765 7.70161 26.5884 6.99952 26.0122C6.25614 25.436 5.63665 24.5716 5.14106 23.4603C4.64547 22.3491 4.23246 20.9908 3.94337 19.3445C3.65427 17.6982 3.53037 15.846 3.53038 13.7881C3.53038 11.6478 3.69556 9.71339 3.98466 8.02589C4.27375 6.33839 4.68675 4.89785 5.22364 3.70425C5.76053 2.51065 6.42132 1.60516 7.16471 0.987783C7.90809 0.370405 8.73408 0.0411374 9.64266 0.0411374C10.0557 0.0411375 10.4686 0.123455 10.8816 0.24693C11.2946 0.411564 11.6663 0.576199 11.9967 0.82315C12.3271 1.0701 12.6575 1.31705 12.9053 1.60516C13.1944 1.89327 13.3596 2.14022 13.4422 2.34601C13.5248 2.51065 13.6074 2.67528 13.6487 2.7576C13.69 2.83992 13.69 2.92223 13.69 3.04571C13.69 3.12803 13.7313 3.2515 13.7313 3.37498C13.7313 3.49845 13.7313 3.66309 13.7313 3.82772C13.7313 4.03352 13.7313 4.19815 13.7313 4.32163C13.7313 4.4451 13.69 4.56858 13.69 4.69205C13.69 4.81553 13.6487 4.85669 13.6074 4.939C13.5661 4.98016 13.5248 5.02132 13.4835 5.02132C13.3596 5.02132 13.2357 4.89784 13.0292 4.60973C12.8227 4.32162 12.5749 4.03352 12.2858 3.70425C11.9967 3.37498 11.5837 3.04571 11.1707 2.79876C10.7164 2.51065 10.1796 2.38717 9.60137 2.38717C8.94059 2.38717 8.3211 2.63413 7.74291 3.12803C7.16472 3.62193 6.71043 4.36278 6.29743 5.30943C5.88444 6.25608 5.59535 7.44967 5.34755 8.84906C5.14106 10.2485 5.01714 11.8948 5.01714 13.7058C5.01714 15.4756 5.14106 16.9985 5.34755 18.3567C5.55405 19.7149 5.84312 20.8674 6.25612 21.7728C6.62781 22.7195 7.1234 23.4192 7.70159 23.9131C8.27978 24.407 8.94059 24.6539 9.68398 24.6539C10.2622 24.6539 10.7991 24.5305 11.2533 24.2424C11.7076 23.9542 12.0793 23.6661 12.4097 23.3369C12.7401 23.0076 12.9879 22.6783 13.1944 22.4314C13.4009 22.1433 13.5661 22.0198 13.6487 22.0198C13.69 22.0198 13.7313 22.0198 13.7726 22.061C13.8139 22.1021 13.8139 22.1433 13.8552 22.2256C13.8552 22.3079 13.8965 22.4314 13.8965 22.596C13.7313 22.6783 13.7726 22.843 13.7726 23.0488Z" fill="#0088EC"/>
<path d="M26.6994 25.8064C26.7407 26.0122 26.782 26.1768 26.7407 26.3003C26.7407 26.4238 26.6994 26.5473 26.6581 26.5884C26.6168 26.6707 26.5342 26.7119 26.4516 26.7119C26.369 26.7119 26.2038 26.7531 26.0799 26.7531C25.9147 26.7531 25.7908 26.7531 25.7082 26.7119C25.6256 26.7119 25.543 26.6707 25.5017 26.6296C25.4604 26.5884 25.4191 26.5473 25.3778 26.465C25.3365 26.3826 25.3365 26.3003 25.2952 26.218L23.9324 19.1799L17.6136 19.1799L16.292 26.1768C16.292 26.2592 16.2507 26.3415 16.2094 26.4238C16.1681 26.5061 16.1268 26.5473 16.0855 26.5884C16.0442 26.6296 15.9616 26.6707 15.879 26.7119C15.7964 26.7531 15.6725 26.7531 15.5486 26.7531C15.3834 26.7531 15.2595 26.7531 15.1769 26.7119C15.053 26.6707 15.0117 26.6296 14.9291 26.5884C14.8878 26.5061 14.8465 26.4238 14.8465 26.3003C14.8465 26.1768 14.8465 26.0122 14.8878 25.8064L19.9263 0.782029C19.9676 0.658553 19.9676 0.576236 20.0089 0.493919C20.0502 0.411602 20.0915 0.370444 20.1741 0.329285C20.2567 0.288127 20.3393 0.246968 20.4219 0.246968C20.5045 0.246968 20.6284 0.20581 20.7523 0.20581C20.8762 0.20581 21.0001 0.20581 21.0827 0.246968C21.1653 0.288127 21.2479 0.288127 21.3305 0.329286C21.4131 0.370444 21.4544 0.411602 21.4957 0.493919C21.537 0.576236 21.5783 0.658553 21.5783 0.782029L26.6994 25.8064ZM20.7523 3.00459L18.0265 17.1631L23.5194 17.1631L20.7523 3.00459Z" fill="#0088EC"/>
<path d="M44.293 26.2179C44.293 26.3003 44.293 26.3826 44.2517 26.4237C44.2104 26.5061 44.2104 26.5472 44.1278 26.5884C44.0865 26.6295 44.0039 26.6707 43.9213 26.6707C43.8387 26.7118 43.7148 26.7119 43.5909 26.7119C43.467 26.7119 43.3844 26.7118 43.2605 26.6707C43.1779 26.6295 43.0953 26.6295 43.054 26.5884C43.0127 26.5472 42.9714 26.5061 42.9301 26.4237C42.8888 26.3414 42.8888 26.3003 42.8888 26.2179L42.8888 2.51063L42.8475 2.51063L37.1895 26.3826C37.1895 26.4237 37.1482 26.5061 37.1069 26.5472C37.0656 26.5884 37.0243 26.6295 36.983 26.6707C36.9417 26.7118 36.8591 26.7118 36.8178 26.753C36.7352 26.753 36.6526 26.7942 36.57 26.7942C36.4461 26.7942 36.3635 26.7942 36.3222 26.753C36.2396 26.753 36.1983 26.7118 36.157 26.6707C36.1157 26.6295 36.0744 26.5884 36.0331 26.5472C35.9918 26.5061 35.9918 26.4649 35.9918 26.3826L30.6229 2.51063L30.6229 26.2591C30.6229 26.3414 30.6229 26.4237 30.5816 26.4649C30.5403 26.5472 30.5403 26.5884 30.4577 26.6295C30.4164 26.6707 30.3338 26.7119 30.2512 26.7119C30.1686 26.753 30.0447 26.753 29.9208 26.753C29.7969 26.753 29.673 26.753 29.5904 26.7119C29.5078 26.6707 29.4252 26.6707 29.3839 26.6295C29.3426 26.5884 29.3013 26.5472 29.26 26.4649C29.26 26.3826 29.2187 26.3414 29.2187 26.2591L29.2187 1.60514C29.2187 1.11123 29.3013 0.781967 29.4252 0.617333C29.5491 0.452699 29.7143 0.329223 29.8382 0.329223L30.5816 0.329223C30.7468 0.329223 30.912 0.370381 31.0772 0.452698C31.2011 0.535015 31.325 0.617332 31.4489 0.781966C31.5728 0.905442 31.6554 1.11123 31.738 1.31703C31.8206 1.52282 31.8619 1.76977 31.9445 2.01672L36.7352 22.8841L36.7765 22.8841L41.7324 2.05788C41.815 1.72861 41.8976 1.4405 41.9802 1.23471C42.0628 1.02892 42.1454 0.823125 42.228 0.699649C42.3106 0.576174 42.4345 0.452699 42.5171 0.411541C42.641 0.370382 42.7236 0.329224 42.8475 0.329224L43.6735 0.329224C43.7561 0.329224 43.7974 0.329223 43.88 0.370382C43.9626 0.41154 44.0039 0.493857 44.0865 0.576174C44.1278 0.658491 44.2104 0.823126 44.2517 0.98776C44.293 1.15239 44.293 1.35819 44.293 1.60514L44.293 26.2179Z" fill="#0088EC"/>
<path d="M60.0278 13.1707C60.0278 15.2698 59.9039 17.1631 59.6148 18.8918C59.367 20.5793 58.9541 22.061 58.4172 23.2546C57.8803 24.4482 57.2195 25.3948 56.4348 26.0122C55.6501 26.6707 54.7002 27 53.6264 27C52.5527 27 51.6441 26.6707 50.9007 26.0945C50.1573 25.5183 49.4965 24.6128 49.0009 23.4604C48.5053 22.3079 48.1336 20.9085 47.9271 19.2622C47.6794 17.6159 47.5968 15.7226 47.5968 13.6646C47.5968 11.6067 47.7206 9.71341 47.9684 8.06707C48.2162 6.37957 48.6292 4.93902 49.1661 3.74543C49.703 2.55183 50.3638 1.64634 51.1485 0.987803C51.9332 0.329267 52.8831 -4.17792e-07 53.9568 -3.55003e-07C54.9893 -2.94628e-07 55.8979 0.288108 56.6826 0.905486C57.4673 1.52286 58.0868 2.38719 58.5824 3.53963C59.0779 4.69207 59.4496 6.0503 59.6974 7.69664C59.9452 9.30183 60.0278 11.1128 60.0278 13.1707ZM58.6237 13.4177C58.6237 11.8537 58.5411 10.4131 58.3759 9.01372C58.2107 7.65549 57.9629 6.46189 57.5912 5.47408C57.2195 4.44512 56.7239 3.66311 56.1457 3.08689C55.5262 2.51067 54.7828 2.22256 53.8743 2.22256C53.007 2.22256 52.2223 2.51067 51.6441 3.12805C51.0246 3.74543 50.529 4.52744 50.1573 5.5564C49.7856 6.58537 49.4965 7.77896 49.3313 9.09604C49.1661 10.4543 49.0835 11.8948 49.0835 13.3765C49.0835 14.9817 49.1661 16.4634 49.3313 17.8216C49.4965 19.1799 49.7443 20.4146 50.116 21.4024C50.4877 22.4314 50.942 23.2134 51.5615 23.7896C52.181 24.3659 52.9244 24.654 53.8329 24.654C54.7415 24.654 55.4849 24.3659 56.1044 23.7485C56.7239 23.1311 57.2195 22.3079 57.5912 21.279C57.9629 20.25 58.252 19.0564 58.4172 17.6982C58.5411 16.3399 58.6237 14.8994 58.6237 13.4177Z" fill="#0088EC"/>
<path d="M72.2524 26.218C72.2524 26.3003 72.2524 26.3826 72.2111 26.4238C72.1698 26.5061 72.1698 26.5472 72.0872 26.5884C72.0459 26.6296 71.9633 26.6707 71.8807 26.6707C71.7981 26.7119 71.6742 26.7119 71.5503 26.7119C71.4264 26.7119 71.3026 26.7119 71.22 26.6707C71.1374 26.6296 71.0548 26.6296 71.0135 26.5884C70.9722 26.5472 70.9308 26.5061 70.8895 26.4238C70.8482 26.3414 70.8483 26.3003 70.8483 26.218L70.8483 2.59297L66.264 2.59296C66.0575 5.72101 65.8923 8.51979 65.6858 10.9481C65.4793 13.3765 65.3142 15.4756 65.0664 17.2866C64.8599 19.0975 64.6121 20.6204 64.3643 21.8552C64.1165 23.0899 63.8274 24.0777 63.497 24.8186C63.1666 25.5594 62.7949 26.1356 62.3819 26.4649C61.9689 26.7942 61.5146 26.9588 60.9777 26.9588C60.9364 26.9588 60.8538 26.9177 60.8125 26.8765C60.7712 26.8353 60.7299 26.753 60.6886 26.6296C60.6473 26.5472 60.6473 26.3826 60.606 26.2591C60.606 26.0945 60.5647 25.9299 60.5647 25.7652C60.5647 25.5594 60.5647 25.3948 60.606 25.2302C60.606 25.1067 60.6473 24.9832 60.6886 24.8597C60.7299 24.7774 60.7712 24.6951 60.8125 24.6539C60.8538 24.6128 60.8951 24.5716 60.9364 24.5716C61.2255 24.5716 61.5146 24.4482 61.7624 24.2424C62.0102 24.0366 62.258 23.625 62.5058 23.0076C62.7536 22.4314 62.9601 21.567 63.1666 20.4969C63.3731 19.4268 63.5796 18.0686 63.7861 16.3399C63.9926 14.6524 64.1991 12.5945 64.3643 10.2073C64.5708 7.8201 64.736 4.98016 64.9425 1.68748C64.9838 1.19357 65.0251 0.823148 65.149 0.617355C65.2316 0.411562 65.3967 0.288086 65.6032 0.288086L71.5916 0.288086C71.7568 0.288086 71.922 0.411563 72.0046 0.617355C72.1285 0.823148 72.1698 1.15242 72.1698 1.564L72.1698 26.218L72.2524 26.218Z" fill="#0088EC"/>
<path d="M77.8276 26.218C77.8276 26.3003 77.8276 26.3826 77.7863 26.4238C77.745 26.5061 77.745 26.5473 77.6624 26.5884C77.6211 26.6296 77.5385 26.6707 77.4559 26.6707C77.3733 26.7119 77.2494 26.7119 77.1255 26.7119C77.0016 26.7119 76.8778 26.7119 76.7952 26.6707C76.7126 26.6296 76.63 26.6296 76.5887 26.5884C76.5474 26.5473 76.506 26.5061 76.4647 26.4238C76.4234 26.3415 76.4235 26.3003 76.4235 26.218L76.4235 0.699712C76.4235 0.617395 76.4234 0.535077 76.4647 0.493919C76.506 0.411602 76.5474 0.370444 76.5887 0.329286C76.63 0.288127 76.7126 0.246968 76.7952 0.246968C76.8778 0.20581 77.0016 0.20581 77.0842 0.205811C77.2081 0.205811 77.332 0.20581 77.4146 0.246968C77.4972 0.288127 77.5798 0.288127 77.6211 0.329286C77.6624 0.370444 77.7037 0.411602 77.745 0.493919C77.7863 0.576236 77.7863 0.617395 77.7863 0.699712L77.7863 26.218L77.8276 26.218Z" fill="#0088EC"/>
<path d="M90.9614 26.1768C90.9614 26.2592 90.9614 26.3415 90.9201 26.4238C90.8788 26.5061 90.8788 26.5473 90.7962 26.5884C90.7136 26.6296 90.6723 26.6707 90.5897 26.7119C90.5071 26.7531 90.3832 26.7531 90.2593 26.7531C90.0941 26.7531 89.9702 26.7531 89.8876 26.7119C89.805 26.6707 89.7224 26.6296 89.6811 26.5884C89.6398 26.5473 89.5985 26.465 89.5572 26.3826C89.5159 26.3003 89.5159 26.1768 89.4746 26.0534L88.0705 19.3034C87.9053 18.439 87.6988 17.6982 87.451 17.0397C87.2032 16.4223 86.9554 15.8872 86.625 15.4345C86.2946 15.0229 85.9642 14.6936 85.5512 14.4878C85.1382 14.282 84.6839 14.1997 84.2296 14.1997L83.3623 14.1997L83.3623 26.2592C83.3623 26.3415 83.3624 26.4238 83.3211 26.465C83.2798 26.5473 83.2798 26.5884 83.1972 26.6296C83.1559 26.6707 83.0733 26.7119 82.9907 26.7119C82.9081 26.7531 82.7842 26.7531 82.6603 26.7531C82.5364 26.7531 82.4125 26.7531 82.3299 26.7119C82.2473 26.6707 82.1647 26.6707 82.1234 26.6296C82.0821 26.5884 82.0408 26.5473 81.9995 26.465C81.9582 26.3826 81.9582 26.3415 81.9582 26.2592L81.9582 0.740871C81.9582 0.658554 81.9582 0.576237 81.9995 0.535078C82.0408 0.452761 82.0408 0.411602 82.1234 0.370443C82.206 0.329285 82.2473 0.288126 82.3299 0.288126C82.4125 0.246967 82.5364 0.246968 82.6603 0.246968C82.7842 0.246968 82.9081 0.246967 82.9907 0.288126C83.0733 0.329284 83.1559 0.329285 83.1972 0.370443C83.2385 0.411602 83.2798 0.452761 83.3211 0.535078C83.3624 0.617395 83.3623 0.658554 83.3623 0.740871L83.3623 11.9772L84.2296 11.9772C84.7252 11.9772 85.1795 11.8537 85.5512 11.6479C85.9229 11.4421 86.2533 11.1128 86.5424 10.7012C86.8315 10.2897 87.0793 9.75459 87.2858 9.13721C87.4923 8.51983 87.6988 7.77898 87.864 6.95581L89.0204 0.946664C89.0617 0.823188 89.0617 0.699713 89.103 0.617396C89.1443 0.535079 89.1856 0.452761 89.2269 0.370444C89.2682 0.329285 89.3507 0.246968 89.4333 0.246968C89.5159 0.20581 89.6398 0.20581 89.805 0.20581C89.9289 0.20581 90.0528 0.20581 90.1354 0.246968C90.218 0.288127 90.3006 0.329285 90.3419 0.370444C90.3832 0.411602 90.4245 0.49392 90.4245 0.535078C90.4245 0.617396 90.4658 0.699712 90.4658 0.782029C90.4658 0.905505 90.4658 1.07014 90.4245 1.19361C90.4245 1.31709 90.3832 1.48172 90.3419 1.6052L89.103 7.53203C88.9378 8.31404 88.7726 9.01374 88.6074 9.63111C88.4422 10.2073 88.2357 10.7424 88.0292 11.154C87.8227 11.5656 87.5749 11.936 87.3271 12.2241C87.0793 12.5122 86.7902 12.718 86.4598 12.8826L86.4598 12.9238C86.8315 13.1296 87.1619 13.4177 87.451 13.7058C87.7401 14.0351 87.9879 14.4055 88.2357 14.8582C88.4835 15.311 88.69 15.8461 88.8965 16.4634C89.103 17.0808 89.2681 17.8217 89.4746 18.6448L90.8788 25.3537C90.9201 25.6006 90.9614 25.7653 90.9614 25.8887C90.9614 26.0122 90.9614 26.0945 90.9614 26.1768Z" fill="#0088EC"/>
<path d="M99.3036 19.2622C98.9319 20.8674 98.6428 22.1845 98.3537 23.1723C98.0646 24.1601 97.7755 24.9421 97.4864 25.4772C97.1973 26.0122 96.9082 26.3826 96.5778 26.5884C96.2474 26.7942 95.8757 26.8765 95.4215 26.8765C95.2563 26.8765 95.1324 26.8765 94.9672 26.8354C94.802 26.7942 94.6781 26.7531 94.5542 26.6708C94.4303 26.5884 94.3064 26.5061 94.1825 26.4238C94.0586 26.3415 94.0173 26.2592 93.9347 26.1768C93.8934 26.0945 93.8521 26.0534 93.8521 25.9711C93.8108 25.8887 93.8108 25.8064 93.8108 25.7241C93.8108 25.6418 93.7695 25.4772 93.7695 25.3537C93.7695 25.189 93.7695 25.0244 93.7695 24.8186C93.7695 24.4482 93.8108 24.1601 93.8521 23.9954C93.8934 23.8308 93.976 23.7485 94.0586 23.7485C94.0999 23.7485 94.1825 23.7897 94.2651 23.872C94.3477 23.9543 94.4303 24.0366 94.5542 24.1601C94.6781 24.2424 94.802 24.3659 94.9672 24.4482C95.1324 24.5305 95.2975 24.5717 95.5453 24.5717C95.7518 24.5717 95.9583 24.5305 96.1235 24.4482C96.2887 24.3659 96.4539 24.2012 96.6191 23.9131C96.7843 23.625 96.9495 23.2546 97.1147 22.7195C97.2799 22.1845 97.4864 21.5259 97.6929 20.6204L92.3653 1.19361C92.324 0.987821 92.2827 0.823187 92.2827 0.699711C92.2827 0.576236 92.2827 0.49392 92.3653 0.411603C92.4066 0.329286 92.4892 0.288126 92.6131 0.288126C92.737 0.246967 92.8609 0.246968 93.0261 0.246968C93.15 0.246968 93.2739 0.246967 93.3565 0.288126C93.4391 0.329284 93.5217 0.370444 93.563 0.411603C93.6043 0.452761 93.6869 0.535077 93.6869 0.576236C93.7282 0.658553 93.7695 0.740871 93.7695 0.823188L96.6191 11.3186C96.9495 12.5122 97.2386 13.6235 97.5277 14.6936C97.8168 15.7637 98.1059 16.8339 98.3537 17.904L98.395 17.904C98.6015 16.8339 98.8493 15.7226 99.0971 14.6113C99.3449 13.5 99.5927 12.2653 99.9231 10.907L102.029 0.740871C102.071 0.658554 102.071 0.576236 102.112 0.493919C102.153 0.411602 102.195 0.370444 102.236 0.329286C102.277 0.288127 102.36 0.246968 102.484 0.246968C102.566 0.246968 102.69 0.20581 102.855 0.205811C103.021 0.205811 103.144 0.20581 103.227 0.246968C103.31 0.288127 103.392 0.329286 103.434 0.411603C103.475 0.49392 103.516 0.576237 103.516 0.658554C103.516 0.740871 103.516 0.864346 103.475 0.987822L99.3036 19.2622Z" fill="#0088EC"/>
<path d="M114.791 19.2621C114.791 20.0442 114.75 20.7439 114.626 21.4024C114.543 22.0609 114.378 22.6783 114.213 23.2134C114.048 23.7484 113.8 24.2423 113.552 24.6539C113.304 25.0655 112.974 25.4359 112.643 25.724C112.313 26.0121 111.941 26.2179 111.57 26.3826C111.198 26.5472 110.702 26.5884 110.207 26.5884L106.49 26.5884C106.366 26.5884 106.201 26.5061 106.077 26.3003C105.953 26.1356 105.87 25.7652 105.87 25.3125L105.87 1.60514C105.87 1.11123 105.953 0.781967 106.077 0.617333C106.201 0.452699 106.366 0.329223 106.49 0.329223L109.587 0.329223C110.413 0.329223 111.115 0.493857 111.611 0.781967C112.148 1.11123 112.561 1.52282 112.891 2.09904C113.222 2.67526 113.469 3.37495 113.635 4.19812C113.8 5.0213 113.882 5.92678 113.882 6.91459C113.882 7.53197 113.841 8.14934 113.759 8.68441C113.676 9.26062 113.552 9.79569 113.428 10.2896C113.263 10.7835 113.098 11.2362 112.85 11.6067C112.602 12.0182 112.354 12.3475 112.024 12.5945C112.396 12.7179 112.767 12.9649 113.098 13.3765C113.428 13.7469 113.717 14.2408 114.006 14.7759C114.254 15.3521 114.461 16.0106 114.626 16.7515C114.708 17.5746 114.791 18.3978 114.791 19.2621ZM112.396 7.12038C112.396 6.42069 112.354 5.80331 112.23 5.22709C112.107 4.65087 111.983 4.19812 111.735 3.78654C111.528 3.37495 111.198 3.08685 110.868 2.88105C110.496 2.67526 110 2.55178 109.422 2.55178L107.192 2.55178L107.192 11.9771L109.67 11.9771C110.207 11.9771 110.661 11.8536 110.991 11.5655C111.322 11.3186 111.611 10.9481 111.817 10.4954C112.024 10.0426 112.189 9.54873 112.313 8.93136C112.354 8.35514 112.396 7.73776 112.396 7.12038ZM113.346 19.4679C113.346 18.6036 113.263 17.8216 113.098 17.1631C112.933 16.5045 112.726 15.9283 112.437 15.4756C112.148 15.0228 111.776 14.6936 111.363 14.4466C110.95 14.1996 110.413 14.1173 109.753 14.1173L107.151 14.1173L107.151 24.407L110.289 24.407C110.744 24.407 111.157 24.2835 111.487 24.0777C111.817 23.8719 112.148 23.5426 112.437 23.131C112.726 22.7195 112.933 22.1844 113.098 21.567C113.263 21.032 113.346 20.2911 113.346 19.4679Z" fill="#0088EC"/>
<path d="M127.966 25.8064C128.007 26.0122 128.048 26.1768 128.007 26.3003C128.007 26.4238 127.966 26.5473 127.924 26.5884C127.883 26.6707 127.8 26.7119 127.718 26.7119C127.635 26.7119 127.47 26.753 127.346 26.753C127.181 26.753 127.057 26.753 126.974 26.7119C126.892 26.7119 126.809 26.6707 126.768 26.6296C126.727 26.5884 126.685 26.5473 126.644 26.4649C126.603 26.3826 126.603 26.3003 126.561 26.218L125.157 19.221L118.838 19.221L117.517 26.218C117.517 26.3003 117.476 26.3826 117.434 26.4649C117.393 26.5473 117.352 26.5884 117.31 26.6296C117.269 26.6707 117.186 26.7119 117.104 26.753C117.021 26.7942 116.897 26.7942 116.773 26.7942C116.608 26.7942 116.484 26.7942 116.402 26.753C116.278 26.7119 116.237 26.6707 116.154 26.6296C116.113 26.5473 116.071 26.4649 116.071 26.3415C116.071 26.218 116.071 26.0533 116.113 25.8476L121.151 0.823168C121.192 0.699692 121.192 0.617375 121.234 0.535058C121.275 0.452741 121.316 0.411582 121.399 0.370423C121.482 0.329265 121.564 0.288106 121.647 0.288106C121.729 0.288106 121.853 0.246948 121.977 0.246948C122.101 0.246948 122.225 0.246947 122.308 0.288106C122.39 0.288106 122.473 0.329265 122.555 0.370423C122.638 0.411582 122.679 0.452741 122.721 0.535058C122.762 0.617375 122.803 0.699692 122.803 0.823168L127.966 25.8064ZM121.977 3.00457L119.251 17.1631L124.744 17.1631L121.977 3.00457Z" fill="#0088EC"/>
<path d="M140.438 26.218C140.438 26.3003 140.438 26.3826 140.397 26.4238C140.355 26.5061 140.355 26.5473 140.273 26.5884C140.231 26.6296 140.149 26.6707 140.066 26.6707C139.984 26.7119 139.86 26.7119 139.736 26.7119C139.612 26.7119 139.488 26.7119 139.406 26.6707C139.323 26.6296 139.24 26.6296 139.199 26.5884C139.158 26.5473 139.116 26.5061 139.075 26.4238C139.034 26.3415 139.034 26.3003 139.034 26.218L139.034 13.9528L131.889 13.9528L131.889 26.218C131.889 26.3003 131.889 26.3826 131.848 26.4238C131.806 26.5061 131.806 26.5473 131.724 26.5884C131.683 26.6296 131.6 26.6707 131.517 26.6707C131.435 26.7119 131.311 26.7119 131.187 26.7119C131.063 26.7119 130.939 26.7119 130.857 26.6707C130.774 26.6296 130.691 26.6296 130.65 26.5884C130.609 26.5473 130.567 26.5061 130.526 26.4238C130.485 26.3415 130.485 26.3003 130.485 26.218L130.485 0.699711C130.485 0.617394 130.485 0.535077 130.526 0.493918C130.567 0.411601 130.567 0.370444 130.65 0.329285C130.691 0.288127 130.774 0.246968 130.857 0.246968C130.939 0.205809 131.063 0.20581 131.187 0.20581C131.311 0.20581 131.435 0.205809 131.517 0.246968C131.6 0.288126 131.683 0.288127 131.724 0.329285C131.765 0.370444 131.806 0.411601 131.848 0.493919C131.889 0.576236 131.889 0.617394 131.889 0.699711L131.889 11.7714L139.034 11.7714L139.034 0.740871C139.034 0.658554 139.034 0.576237 139.075 0.535078C139.116 0.452761 139.116 0.411602 139.199 0.370444C139.24 0.329285 139.323 0.288126 139.406 0.288126C139.488 0.246968 139.612 0.246968 139.736 0.246968C139.86 0.246968 139.984 0.246968 140.066 0.288126C140.149 0.329285 140.231 0.329285 140.273 0.370444C140.314 0.411602 140.355 0.452761 140.397 0.535079C140.438 0.617396 140.438 0.658554 140.438 0.740871L140.438 26.218Z" fill="#0088EC"/>
<path d="M154.479 26.218C154.479 26.3003 154.479 26.3826 154.438 26.4238C154.397 26.5061 154.397 26.5473 154.314 26.5884C154.273 26.6296 154.19 26.6707 154.108 26.6707C154.025 26.7119 153.901 26.7119 153.777 26.7119C153.654 26.7119 153.53 26.7119 153.447 26.6707C153.364 26.6296 153.282 26.6296 153.241 26.5884C153.199 26.5473 153.158 26.5061 153.117 26.4238C153.075 26.3415 153.075 26.3003 153.075 26.218L153.075 13.9528L145.931 13.9528L145.931 26.218C145.931 26.3003 145.931 26.3826 145.889 26.4238C145.848 26.5061 145.848 26.5473 145.765 26.5884C145.724 26.6296 145.641 26.6707 145.559 26.6707C145.476 26.7119 145.352 26.7119 145.228 26.7119C145.105 26.7119 144.981 26.7119 144.898 26.6707C144.815 26.6296 144.733 26.6296 144.692 26.5884C144.65 26.5473 144.609 26.5061 144.568 26.4238C144.526 26.3415 144.526 26.3003 144.526 26.218L144.526 0.699711C144.526 0.617394 144.526 0.535077 144.568 0.493918C144.609 0.411601 144.609 0.370444 144.692 0.329285C144.733 0.288127 144.815 0.246968 144.898 0.246968C144.981 0.205809 145.105 0.20581 145.228 0.20581C145.352 0.20581 145.476 0.205809 145.559 0.246968C145.641 0.288126 145.724 0.288127 145.765 0.329285C145.807 0.370444 145.848 0.411601 145.889 0.493919C145.931 0.576236 145.931 0.617394 145.931 0.699711L145.931 11.7714L153.075 11.7714L153.075 0.740871C153.075 0.658554 153.075 0.576237 153.117 0.535078C153.158 0.452761 153.158 0.411602 153.241 0.370444C153.282 0.329285 153.364 0.288126 153.447 0.288126C153.53 0.246968 153.654 0.246968 153.777 0.246968C153.901 0.246968 154.025 0.246968 154.108 0.288126C154.19 0.329285 154.273 0.329285 154.314 0.370444C154.356 0.411602 154.397 0.452761 154.438 0.535079C154.479 0.617396 154.479 0.658554 154.479 0.740871L154.479 26.218Z" fill="#0088EC"/>
<path d="M166.87 26.2179C166.87 26.3002 166.87 26.3826 166.828 26.4237C166.787 26.506 166.787 26.5472 166.704 26.5883C166.663 26.6295 166.581 26.6707 166.498 26.6707C166.415 26.7118 166.291 26.7118 166.168 26.7118C166.044 26.7118 165.92 26.7118 165.837 26.6707C165.755 26.6295 165.672 26.6295 165.631 26.5883C165.589 26.5472 165.548 26.506 165.507 26.4237C165.465 26.3414 165.465 26.3002 165.465 26.2179L165.465 14.6112L163.855 14.6112C163.194 14.6112 162.698 14.7347 162.368 14.9816C162.038 15.2286 161.707 15.599 161.459 16.0518C161.212 16.5045 161.005 17.0396 160.84 17.6569C160.675 18.2743 160.51 18.974 160.344 19.6737L159.064 25.9298C159.023 26.0944 158.981 26.2179 158.94 26.3414C158.899 26.4237 158.858 26.506 158.816 26.5883C158.775 26.6295 158.692 26.6707 158.61 26.7118C158.527 26.7118 158.445 26.753 158.279 26.753C158.114 26.753 158.032 26.753 157.908 26.7118C157.825 26.6707 157.742 26.6295 157.701 26.5883C157.66 26.5472 157.619 26.4649 157.577 26.4237C157.577 26.3414 157.536 26.2591 157.536 26.1768C157.536 26.0533 157.536 25.8887 157.577 25.724C157.619 25.5594 157.66 25.2301 157.742 24.8185L158.981 19.0152C159.147 18.3155 159.271 17.6981 159.436 17.163C159.601 16.5868 159.766 16.1341 159.931 15.6813C160.097 15.2698 160.303 14.8993 160.51 14.6112C160.716 14.3231 160.964 14.0762 161.212 13.8704C160.757 13.7057 160.386 13.4176 160.014 13.0472C159.642 12.6768 159.353 12.224 159.105 11.7301C158.858 11.1951 158.651 10.5777 158.527 9.91914C158.403 9.21945 158.321 8.47859 158.321 7.65542C158.321 6.62646 158.403 5.67981 158.61 4.77432C158.775 3.86884 159.064 3.12798 159.477 2.46945C159.849 1.81091 160.344 1.31701 160.923 0.946581C161.501 0.576154 162.368 0.370361 163.483 0.370361L166.168 0.370361C166.291 0.370361 166.457 0.452679 166.581 0.658471C166.704 0.823106 166.787 1.19353 166.787 1.64628L166.787 26.2179L166.87 26.2179ZM165.507 2.55176L163.524 2.55176C162.698 2.55176 162.079 2.67524 161.666 2.92219C161.253 3.16914 160.881 3.49841 160.633 3.95115C160.386 4.4039 160.179 4.8978 160.055 5.51518C159.931 6.13256 159.89 6.74993 159.89 7.44963C159.89 8.10817 159.973 8.7667 160.097 9.38408C160.22 10.0015 160.427 10.5365 160.675 10.9893C160.964 11.442 161.294 11.8124 161.707 12.0594C162.12 12.3063 162.74 12.471 163.483 12.471L165.548 12.471L165.548 2.55176L165.507 2.55176Z" fill="#0088EC"/>
<path d="M191.195 26.2181C191.195 26.3004 191.195 26.3827 191.154 26.4239C191.112 26.5062 191.112 26.5473 191.03 26.5885C190.988 26.6297 190.906 26.6708 190.823 26.6708C190.741 26.712 190.617 26.712 190.493 26.712C190.369 26.712 190.286 26.712 190.162 26.6708C190.08 26.6297 189.997 26.6297 189.956 26.5885C189.915 26.5473 189.873 26.5062 189.832 26.4239C189.791 26.3415 189.791 26.3004 189.791 26.2181L189.791 2.51075L189.749 2.51075L184.091 26.3827C184.091 26.4239 184.05 26.5062 184.009 26.5473C183.967 26.5885 183.926 26.6297 183.885 26.6708C183.844 26.712 183.761 26.712 183.72 26.7531C183.637 26.7531 183.554 26.7943 183.472 26.7943C183.348 26.7943 183.265 26.7943 183.224 26.7531C183.141 26.7531 183.1 26.712 183.059 26.6708C183.018 26.6297 182.976 26.5885 182.935 26.5473C182.894 26.5062 182.894 26.465 182.894 26.3827L177.525 2.51075L177.525 26.2592C177.525 26.3415 177.525 26.4239 177.483 26.465C177.442 26.5473 177.442 26.5885 177.36 26.6297C177.318 26.6708 177.236 26.712 177.153 26.712C177.07 26.7531 176.947 26.7531 176.823 26.7531C176.699 26.7531 176.575 26.7531 176.492 26.712C176.41 26.6708 176.327 26.6708 176.286 26.6297C176.244 26.5885 176.203 26.5473 176.162 26.465C176.162 26.3827 176.121 26.3415 176.121 26.2592L176.121 1.60526C176.121 1.11136 176.203 0.782089 176.327 0.617455C176.451 0.452821 176.616 0.329345 176.74 0.329345L177.483 0.329345C177.649 0.329345 177.814 0.370503 177.979 0.45282C178.103 0.535137 178.227 0.617454 178.351 0.782088C178.475 0.905564 178.557 1.11136 178.64 1.31715C178.722 1.52294 178.764 1.76989 178.846 2.01684L183.596 22.8842L183.637 22.8842L188.593 2.058C188.676 1.72874 188.758 1.44063 188.841 1.23483C188.923 1.02904 189.006 0.823247 189.089 0.699772C189.171 0.576296 189.295 0.452822 189.378 0.411663C189.502 0.370504 189.584 0.329346 189.708 0.329346L190.534 0.329346C190.617 0.329346 190.658 0.329345 190.741 0.370504C190.823 0.411662 190.864 0.493979 190.947 0.576296C191.03 0.658613 191.071 0.823248 191.112 0.987882C191.154 1.15252 191.154 1.35831 191.154 1.60526L191.154 26.2181L191.195 26.2181Z" fill="#0088EC"/>
<path d="M206.93 13.1707C206.93 15.2698 206.806 17.1631 206.517 18.8918C206.269 20.5793 205.856 22.061 205.32 23.2546C204.783 24.4482 204.122 25.3948 203.337 26.0122C202.552 26.6707 201.603 27 200.529 27C199.455 27 198.546 26.6707 197.803 26.0945C197.06 25.5183 196.399 24.6128 195.903 23.4604C195.408 22.3079 195.036 20.9085 194.829 19.2622C194.582 17.6159 194.499 15.7226 194.499 13.6646C194.499 11.6067 194.623 9.71341 194.871 8.06707C195.119 6.37957 195.532 4.93902 196.068 3.74543C196.605 2.55183 197.266 1.64634 198.051 0.987803C198.836 0.329267 199.785 -4.17792e-07 200.859 -3.55002e-07C201.892 -2.94628e-07 202.8 0.288108 203.585 0.905486C204.37 1.52286 204.989 2.38719 205.485 3.53963C205.98 4.69207 206.352 6.0503 206.6 7.69664C206.806 9.30183 206.93 11.1128 206.93 13.1707ZM205.485 13.4177C205.485 11.8537 205.402 10.4131 205.237 9.01372C205.072 7.65549 204.824 6.46189 204.452 5.47408C204.081 4.44512 203.585 3.66311 203.007 3.08689C202.387 2.51067 201.644 2.22256 200.735 2.22256C199.868 2.22256 199.083 2.51067 198.505 3.12805C197.886 3.74543 197.39 4.52744 197.018 5.5564C196.647 6.58537 196.358 7.77896 196.192 9.09604C196.027 10.4543 195.945 11.8948 195.945 13.3765C195.945 14.9817 196.027 16.4634 196.192 17.8216C196.358 19.1799 196.605 20.4146 196.977 21.4024C197.349 22.4314 197.844 23.2134 198.423 23.7896C199.042 24.3659 199.785 24.654 200.694 24.654C201.603 24.654 202.346 24.3659 202.965 23.7485C203.585 23.1311 204.081 22.3079 204.452 21.279C204.824 20.25 205.113 19.0564 205.278 17.6982C205.402 16.3399 205.485 14.8994 205.485 13.4177Z" fill="#0088EC"/>
<path d="M224.275 26.1769C224.275 26.2592 224.275 26.3415 224.234 26.4238C224.193 26.5062 224.193 26.5473 224.11 26.5885C224.069 26.6296 223.986 26.6708 223.904 26.712C223.821 26.7531 223.697 26.7531 223.573 26.7531C223.408 26.7531 223.284 26.7531 223.202 26.712C223.119 26.6708 223.036 26.6296 222.995 26.5885C222.954 26.5473 222.913 26.465 222.871 26.3827C222.83 26.3004 222.83 26.1769 222.789 26.0534L221.508 19.0153C221.343 18.1921 221.178 17.4924 220.971 16.8751C220.765 16.2577 220.476 15.7638 220.187 15.3522C219.898 14.9406 219.526 14.6525 219.154 14.4467C218.741 14.2409 218.328 14.1586 217.833 14.1586L217.131 14.1586L217.131 26.218C217.131 26.3004 217.131 26.3827 217.089 26.4238C217.048 26.5062 217.048 26.5473 216.965 26.5885C216.924 26.6296 216.842 26.6708 216.759 26.6708C216.676 26.712 216.552 26.712 216.429 26.712C216.305 26.712 216.181 26.712 216.098 26.6708C216.016 26.6296 215.933 26.6296 215.892 26.5885C215.85 26.5473 215.809 26.5062 215.768 26.4238C215.768 26.3415 215.726 26.3004 215.726 26.218L215.726 14.1998L215.024 14.1998C214.487 14.1998 213.992 14.3232 213.579 14.529C213.166 14.776 212.835 15.1052 212.505 15.5168C212.216 15.9284 211.968 16.4635 211.762 17.0397C211.555 17.6571 211.39 18.2744 211.266 19.0153L210.027 26.0534C209.986 26.1769 209.986 26.3004 209.945 26.3827C209.903 26.465 209.862 26.5473 209.821 26.5885C209.779 26.6296 209.697 26.712 209.614 26.712C209.532 26.7531 209.408 26.7531 209.242 26.7531C209.119 26.7531 208.995 26.7531 208.912 26.712C208.829 26.6708 208.747 26.6296 208.706 26.5885C208.664 26.5473 208.623 26.465 208.582 26.4238C208.54 26.3415 208.54 26.2592 208.54 26.1769C208.54 26.1357 208.54 26.0946 208.54 26.0534C208.54 26.0123 208.54 25.9299 208.54 25.8476C208.54 25.7653 208.54 25.683 208.582 25.6007C208.582 25.5184 208.623 25.436 208.623 25.3537L209.779 18.9741C209.945 18.1098 210.11 17.3278 210.316 16.6693C210.523 16.0107 210.729 15.4757 210.936 14.9818C211.184 14.529 211.431 14.1174 211.72 13.8293C212.01 13.5412 212.381 13.2531 212.753 13.0473C212.422 12.9238 212.133 12.718 211.886 12.4711C211.638 12.2241 211.39 11.8537 211.184 11.401C210.977 10.9482 210.812 10.4132 210.605 9.75463C210.44 9.0961 210.275 8.35524 210.11 7.44975L209.036 1.52292C208.995 1.39945 208.995 1.23481 208.953 1.11134C208.953 0.987863 208.912 0.823228 208.912 0.699753C208.912 0.617436 208.912 0.535119 208.953 0.452802C208.953 0.370485 208.995 0.329326 209.036 0.288167C209.077 0.247009 209.16 0.205851 209.242 0.164692C209.325 0.123534 209.449 0.123534 209.573 0.123534C209.738 0.123534 209.862 0.123534 209.945 0.164692C210.027 0.205851 210.11 0.247009 210.151 0.288168C210.192 0.329326 210.234 0.411644 210.275 0.53512C210.316 0.617437 210.316 0.740912 210.358 0.864388L211.473 7.44975C211.597 8.19061 211.762 8.80799 211.927 9.38421C212.092 9.91927 212.34 10.4132 212.588 10.7836C212.835 11.154 213.166 11.4421 213.538 11.6479C213.909 11.8537 214.364 11.936 214.9 11.936L215.603 11.936L215.603 0.740913C215.603 0.658596 215.603 0.576279 215.644 0.53512C215.644 0.452803 215.685 0.411644 215.768 0.370485C215.85 0.329327 215.892 0.288168 215.974 0.288168C216.057 0.247009 216.181 0.24701 216.305 0.24701C216.429 0.24701 216.552 0.247009 216.635 0.288168C216.718 0.329326 216.8 0.329327 216.842 0.370485C216.883 0.411644 216.924 0.452803 216.965 0.53512C217.007 0.617437 217.007 0.658596 217.007 0.740913L217.007 11.9772L217.709 11.9772C218.204 11.9772 218.659 11.8537 219.03 11.6479C219.402 11.4421 219.732 11.1129 220.022 10.7424C220.311 10.3309 220.517 9.87811 220.724 9.30189C220.889 8.76683 221.054 8.14945 221.178 7.49091L222.293 0.946706C222.334 0.82323 222.334 0.699755 222.376 0.617438C222.417 0.535121 222.417 0.452803 222.5 0.370486C222.582 0.288169 222.623 0.24701 222.706 0.24701C222.789 0.205852 222.913 0.205852 223.078 0.205852C223.202 0.205852 223.326 0.205852 223.408 0.24701C223.491 0.288169 223.573 0.329327 223.615 0.370486C223.656 0.411644 223.697 0.493962 223.697 0.535121C223.697 0.617438 223.738 0.699754 223.738 0.782071C223.738 0.905547 223.739 1.07018 223.697 1.19366C223.656 1.31713 223.656 1.48177 223.656 1.60524L222.582 7.36744C222.417 8.14945 222.293 8.84915 222.128 9.46652C221.963 10.0839 221.797 10.5778 221.591 11.0305C221.384 11.4833 221.178 11.8126 220.889 12.1418C220.641 12.4299 220.311 12.6769 219.98 12.8827L219.98 12.9238C220.393 13.1708 220.724 13.4177 221.054 13.7882C221.343 14.1174 221.632 14.529 221.839 15.0229C222.087 15.5168 222.293 16.093 222.458 16.7516C222.623 17.4101 222.789 18.1921 222.954 19.0565L224.11 25.436C224.11 25.5184 224.151 25.6007 224.151 25.683C224.151 25.7653 224.193 25.8476 224.193 25.9299C224.193 26.0123 224.193 26.0534 224.234 26.1357C224.275 26.0946 224.275 26.1357 224.275 26.1769Z" fill="#0088EC"/>
<path d="M235.178 25.5595C235.178 25.7242 235.178 25.8888 235.137 26.0123C235.137 26.1357 235.096 26.2592 235.054 26.3415C235.013 26.4239 234.972 26.5062 234.93 26.5473C234.889 26.5885 234.848 26.6296 234.807 26.6296L228.075 26.6296C227.951 26.6296 227.786 26.5473 227.662 26.3415C227.538 26.1769 227.455 25.8065 227.455 25.3537L227.455 1.60526C227.455 1.11136 227.538 0.782089 227.662 0.617455C227.786 0.452821 227.951 0.329345 228.075 0.329345L234.683 0.329346C234.724 0.329346 234.765 0.370505 234.807 0.411663C234.848 0.452822 234.889 0.535139 234.93 0.617456C234.972 0.699773 234.972 0.823247 235.013 0.987882C235.013 1.11136 235.054 1.31715 235.054 1.48178C235.054 1.64642 235.054 1.81105 235.013 1.93453C235.013 2.058 234.972 2.18148 234.93 2.2638C234.889 2.34611 234.848 2.42843 234.807 2.46959C234.765 2.51075 234.724 2.55191 234.683 2.55191L228.818 2.55191L228.818 11.8126L233.898 11.8126C233.939 11.8126 234.022 11.8537 234.063 11.8949C234.104 11.9361 234.146 12.0184 234.187 12.1007C234.228 12.183 234.228 12.3065 234.27 12.43C234.27 12.5534 234.311 12.7592 234.311 12.9239C234.311 13.0885 234.311 13.2531 234.27 13.3766C234.27 13.5001 234.228 13.6236 234.187 13.7059C234.146 13.7882 234.104 13.8293 234.063 13.8705C234.022 13.9117 233.981 13.9117 233.898 13.9117L228.818 13.9117L228.818 24.4071L234.807 24.4071C234.848 24.4071 234.889 24.4482 234.93 24.4894C234.972 24.5306 235.013 24.6129 235.054 24.6952C235.096 24.7775 235.096 24.901 235.137 25.0245C235.178 25.1891 235.178 25.3537 235.178 25.5595Z" fill="#0088EC"/>
<path d="M252.689 19.0153C252.689 19.9208 252.607 20.8675 252.442 21.7729C252.276 22.6784 252.029 23.5016 251.698 24.2425C251.327 24.9833 250.872 25.5595 250.253 26.0123C249.633 26.465 248.766 26.712 247.651 26.712L244.388 26.712C244.264 26.712 244.099 26.6296 243.975 26.4239C243.851 26.2592 243.769 25.8888 243.769 25.436L243.769 1.60526C243.769 1.11136 243.851 0.782089 243.975 0.617455C244.099 0.452821 244.264 0.329345 244.388 0.329345L251.45 0.329346C251.492 0.329346 251.574 0.370504 251.616 0.411663C251.657 0.452822 251.698 0.535139 251.74 0.617456C251.781 0.699773 251.781 0.823247 251.822 0.987882C251.822 1.11136 251.863 1.31715 251.863 1.48178C251.863 1.64642 251.863 1.81105 251.822 1.97569C251.822 2.09916 251.781 2.22264 251.74 2.34611C251.698 2.42843 251.657 2.51075 251.616 2.55191C251.574 2.59306 251.533 2.63422 251.45 2.63422L245.09 2.63422L245.09 11.7714L247.816 11.7714C248.683 11.7714 249.427 11.9361 250.005 12.2653C250.583 12.5946 251.079 13.0885 251.45 13.747C251.822 14.4056 252.153 15.1464 252.318 16.0519C252.566 16.9162 252.689 17.904 252.689 19.0153ZM251.244 19.18C251.244 18.3568 251.161 17.6571 251.037 16.9986C250.914 16.34 250.666 15.805 250.418 15.3522C250.129 14.8995 249.799 14.529 249.386 14.3232C248.973 14.0763 248.436 13.9528 247.775 13.9528L245.09 13.9528L245.09 24.4482L247.816 24.4482C248.477 24.4482 249.014 24.3248 249.427 24.0778C249.84 23.8309 250.17 23.5016 250.418 23.0077C250.666 22.555 250.872 21.9787 251.037 21.3614C251.161 20.7028 251.244 19.962 251.244 19.18Z" fill="#0088EC"/>
<path d="M260.247 19.2622C259.875 20.8674 259.586 22.1844 259.297 23.1723C259.008 24.1601 258.719 24.9421 258.43 25.4771C258.141 26.0122 257.852 26.3826 257.521 26.5884C257.191 26.7942 256.819 26.8765 256.365 26.8765C256.2 26.8765 256.076 26.8765 255.91 26.8354C255.745 26.7942 255.621 26.753 255.497 26.6707C255.374 26.5884 255.25 26.5061 255.126 26.4238C255.002 26.3415 254.961 26.2591 254.878 26.1768C254.837 26.0945 254.795 26.0534 254.795 25.971C254.754 25.8887 254.754 25.8064 254.754 25.7241C254.754 25.6418 254.713 25.4771 254.713 25.3537C254.713 25.189 254.713 25.0244 254.713 24.8186C254.713 24.4482 254.754 24.1601 254.795 23.9954C254.837 23.8308 254.919 23.7485 255.002 23.7485C255.043 23.7485 255.126 23.7896 255.208 23.8719C255.291 23.9543 255.374 24.0366 255.497 24.1601C255.621 24.2424 255.745 24.3659 255.91 24.4482C256.076 24.5305 256.241 24.5716 256.489 24.5716C256.695 24.5716 256.902 24.5305 257.067 24.4482C257.232 24.3659 257.397 24.2012 257.562 23.9131C257.728 23.625 257.893 23.2546 258.058 22.7195C258.223 22.1844 258.43 21.5259 258.636 20.6204L253.309 1.19359C253.267 0.987801 253.226 0.823166 253.226 0.699691C253.226 0.576215 253.226 0.493899 253.309 0.411582C253.35 0.329265 253.432 0.288106 253.556 0.288106C253.68 0.246947 253.804 0.246948 253.969 0.246948C254.093 0.246948 254.217 0.246947 254.3 0.288106C254.382 0.329264 254.465 0.370424 254.506 0.411582C254.548 0.452741 254.63 0.535057 254.63 0.576216C254.671 0.658533 254.713 0.740851 254.713 0.823168L257.562 11.3186C257.893 12.5122 258.182 13.6235 258.471 14.6936C258.76 15.7637 259.049 16.8338 259.297 17.904L259.338 17.904C259.545 16.8338 259.793 15.7226 260.04 14.6113C260.288 13.5 260.536 12.2652 260.866 10.907L263.055 0.782009C263.097 0.699692 263.097 0.617375 263.138 0.535058C263.179 0.452741 263.22 0.411582 263.262 0.370423C263.303 0.329265 263.386 0.288106 263.51 0.288106C263.592 0.288106 263.716 0.246948 263.881 0.246948C264.046 0.246948 264.17 0.246948 264.253 0.288106C264.335 0.329265 264.418 0.370424 264.459 0.452741C264.501 0.535058 264.542 0.617374 264.542 0.699692C264.542 0.782009 264.542 0.905486 264.501 1.02896L260.247 19.2622Z" fill="#0088EC"/>
<path d="M275.445 1.44063C275.445 1.60526 275.445 1.76989 275.404 1.89337C275.404 2.01685 275.363 2.14032 275.321 2.22264C275.28 2.30495 275.239 2.38727 275.198 2.42843C275.156 2.46959 275.115 2.51075 275.074 2.51075L270.778 2.51075L270.778 26.2181C270.778 26.3004 270.778 26.3827 270.737 26.4239C270.696 26.5062 270.696 26.5473 270.613 26.5885C270.572 26.6296 270.489 26.6708 270.407 26.6708C270.324 26.712 270.2 26.712 270.076 26.712C269.953 26.712 269.829 26.712 269.746 26.6708C269.663 26.6296 269.581 26.6296 269.54 26.5885C269.498 26.5473 269.457 26.5062 269.416 26.4239C269.374 26.3415 269.374 26.3004 269.374 26.2181L269.374 2.55191L265.079 2.55191C265.038 2.55191 264.955 2.51075 264.914 2.46959C264.873 2.42843 264.831 2.34611 264.79 2.2638C264.749 2.18148 264.749 2.058 264.708 1.93453C264.708 1.81105 264.666 1.64642 264.666 1.48178C264.666 1.27599 264.666 1.11136 264.708 0.987881C264.708 0.864405 264.749 0.740931 264.79 0.617455C264.831 0.535138 264.873 0.452821 264.914 0.411662C264.955 0.370504 264.997 0.329345 265.079 0.329345L274.991 0.329346C275.032 0.329346 275.074 0.370505 275.115 0.411663C275.156 0.452822 275.198 0.535139 275.239 0.617456C275.28 0.699773 275.28 0.823247 275.321 0.987882C275.445 1.11136 275.445 1.27599 275.445 1.44063Z" fill="#0088EC"/>
<path d="M288 26.218C288 26.3003 288 26.3826 287.959 26.4238C287.917 26.5061 287.917 26.5473 287.835 26.5884C287.794 26.6296 287.711 26.6707 287.628 26.6707C287.546 26.7119 287.422 26.7119 287.298 26.7119C287.174 26.7119 287.05 26.7119 286.968 26.6707C286.885 26.6296 286.802 26.6296 286.761 26.5884C286.72 26.5473 286.678 26.5061 286.637 26.4238C286.596 26.3415 286.596 26.3003 286.596 26.218L286.596 7.12044C286.596 6.75002 286.596 6.37959 286.596 5.92685C286.596 5.51526 286.596 5.10368 286.637 4.77441L286.596 4.77441C286.555 4.93904 286.472 5.14483 286.431 5.35063C286.348 5.55642 286.307 5.76221 286.224 5.96801C286.142 6.1738 286.059 6.37959 286.018 6.58538C285.935 6.79118 285.894 6.99697 285.811 7.20276L278.914 26.2592C278.873 26.3415 278.832 26.4238 278.832 26.465C278.79 26.5473 278.749 26.5884 278.708 26.6296C278.666 26.6707 278.584 26.7119 278.542 26.7119C278.46 26.7119 278.377 26.7531 278.295 26.7531C278.171 26.7531 278.088 26.7531 278.006 26.7119C277.923 26.6707 277.882 26.6296 277.84 26.5884C277.799 26.5473 277.758 26.465 277.758 26.4238C277.758 26.3415 277.716 26.2592 277.716 26.1357L277.716 0.740871C277.716 0.658554 277.716 0.576236 277.758 0.535078C277.799 0.452761 277.84 0.411602 277.882 0.370443C277.964 0.288126 278.047 0.246968 278.129 0.246968C278.212 0.205809 278.336 0.20581 278.419 0.20581C278.542 0.20581 278.666 0.205809 278.749 0.246968C278.832 0.288126 278.914 0.288127 278.955 0.329285C278.997 0.370444 279.038 0.411601 279.079 0.493919C279.121 0.576236 279.121 0.617394 279.121 0.699711L279.121 19.9619C279.121 20.2912 279.121 20.6616 279.121 21.032C279.121 21.4025 279.121 21.7729 279.079 22.1433L279.121 22.1433C279.245 21.8552 279.368 21.4848 279.492 21.032C279.616 20.5793 279.781 20.1677 279.947 19.715L286.761 0.699712C286.802 0.617395 286.844 0.535078 286.844 0.493919C286.885 0.45276 286.926 0.370444 286.968 0.329286C287.05 0.288127 287.133 0.246968 287.174 0.246968C287.257 0.246968 287.339 0.205811 287.422 0.205811C287.546 0.205811 287.628 0.20581 287.711 0.246968C287.794 0.288127 287.835 0.329285 287.876 0.370444C287.917 0.411602 287.959 0.49392 287.959 0.535079C287.959 0.617396 288 0.699712 288 0.782029L288 26.218Z" fill="#0088EC"/>
<path d="M12.4717 51.6517C12.4717 51.9652 12.4293 52.2395 12.3445 52.3962C12.2596 52.553 12.1324 52.6314 12.0051 52.6314L0.466591 52.6314C0.339328 52.6314 0.21207 52.553 0.127229 52.3962C0.042387 52.2395 -2.95355e-05 52.0044 -2.95188e-05 51.6517L-2.86288e-05 32.8418C-2.86251e-05 32.7634 -3.816e-05 32.7243 0.0423822 32.6851C0.0423822 32.6459 0.0848083 32.6067 0.12723 32.5675C0.16965 32.5283 0.212082 32.5283 0.296924 32.4891C0.381765 32.45 0.466597 32.45 0.551439 32.45C0.678701 32.45 0.763559 32.45 0.80598 32.4891C0.890822 32.5283 0.933228 32.5283 0.975648 32.5675C1.01807 32.6067 1.0605 32.6459 1.0605 32.6851C1.0605 32.7243 1.10291 32.8026 1.10291 32.8418L1.10291 50.9071L5.68439 50.9071L5.68439 32.8418C5.68439 32.7634 5.68438 32.7243 5.7268 32.6851C5.7268 32.6459 5.76923 32.6067 5.81165 32.5675C5.85407 32.5283 5.89647 32.5283 5.98132 32.4891C6.06616 32.45 6.15101 32.45 6.23586 32.45C6.36312 32.45 6.44795 32.45 6.49037 32.4891C6.57521 32.5283 6.61764 32.5283 6.66007 32.5675C6.70249 32.6067 6.74491 32.6459 6.74491 32.6851C6.74491 32.7243 6.78732 32.8026 6.78732 32.8418L6.78732 50.9071L11.3688 50.9071L11.3688 32.8418C11.3688 32.7634 11.3688 32.7243 11.4112 32.6851C11.4112 32.6459 11.4536 32.6067 11.496 32.5675C11.5385 32.5283 11.5809 32.5283 11.6657 32.4891C11.7506 32.45 11.8354 32.45 11.9202 32.45C12.0475 32.45 12.1324 32.45 12.1748 32.4891C12.2596 32.5283 12.302 32.5283 12.3445 32.5675C12.3869 32.6067 12.4293 32.6459 12.4293 32.6851C12.4293 32.7243 12.4717 32.8026 12.4717 32.8418L12.4717 51.6517Z" fill="#0088EC"/>
<path d="M23.3316 52.2787C23.3316 52.3571 23.3316 52.3962 23.2892 52.4746C23.2892 52.5138 23.2468 52.553 23.2043 52.5922C23.1619 52.6314 23.1195 52.6705 23.0347 52.6705C22.9498 52.7097 22.865 52.7097 22.7801 52.7097C22.6529 52.7097 22.568 52.7097 22.4832 52.6705C22.3983 52.6314 22.3559 52.5922 22.3135 52.553C22.2711 52.5138 22.2287 52.4354 22.2287 52.3962C22.1862 52.3179 22.1862 52.2395 22.1438 52.1611L20.956 46.9884C20.8288 46.3222 20.6591 45.7344 20.447 45.2642C20.2349 44.7939 20.0228 44.3629 19.7682 44.0494C19.5137 43.7359 19.2168 43.5007 18.8774 43.344C18.538 43.1872 18.1987 43.1089 17.7745 43.1089L17.0533 43.1089L17.0533 52.3179C17.0533 52.3962 17.0533 52.4354 17.0109 52.4746C17.0109 52.5138 16.9685 52.553 16.9261 52.5922C16.8836 52.6314 16.8412 52.6314 16.7564 52.6705C16.6715 52.7097 16.5867 52.7097 16.5018 52.7097C16.417 52.7097 16.2897 52.7097 16.2473 52.6705C16.1625 52.6314 16.1201 52.6314 16.0776 52.5922C16.0352 52.553 15.9928 52.5138 15.9928 52.4746C15.9928 52.4354 15.9503 52.3571 15.9503 52.3179L15.9503 32.8418C15.9503 32.7634 15.9504 32.7243 15.9928 32.6851C15.9928 32.6459 16.0352 32.6067 16.0776 32.5675C16.1201 32.5283 16.1625 32.5283 16.2473 32.4891C16.3321 32.45 16.417 32.45 16.5018 32.45C16.6291 32.45 16.7139 32.45 16.7564 32.4891C16.8412 32.5283 16.8836 32.5283 16.9261 32.5675C16.9685 32.6067 17.0109 32.6459 17.0109 32.6851C17.0109 32.7243 17.0533 32.8026 17.0533 32.8418L17.0533 41.4238L17.7745 41.4238C18.1987 41.4238 18.538 41.3454 18.835 41.1887C19.1319 41.032 19.4289 40.7968 19.641 40.4441C19.8955 40.1306 20.0652 39.7388 20.2349 39.2685C20.4046 38.7983 20.5742 38.2497 20.7015 37.6227L21.6348 33.0378C21.6348 32.9594 21.6772 32.881 21.6772 32.8026C21.7196 32.7243 21.7196 32.6851 21.762 32.6067C21.8044 32.5675 21.8893 32.5283 21.9317 32.4891C22.0166 32.45 22.1014 32.45 22.2287 32.45C22.3559 32.45 22.4408 32.45 22.4832 32.4891C22.568 32.5283 22.6105 32.5283 22.6529 32.5675C22.6953 32.6067 22.7377 32.6459 22.7377 32.6851C22.7377 32.7243 22.7377 32.8026 22.7377 32.881C22.7377 32.9986 22.7377 33.0769 22.6953 33.1945C22.6953 33.3121 22.6529 33.3904 22.6529 33.508L21.6348 38.0145C21.5075 38.6415 21.3802 39.151 21.2106 39.6212C21.0833 40.0523 20.9136 40.4441 20.7439 40.7968C20.5743 41.1103 20.3621 41.3846 20.15 41.6198C19.9379 41.8549 19.6834 42.0116 19.4289 42.1292L19.4289 42.1684C19.7258 42.3251 20.0228 42.5211 20.2349 42.7562C20.4894 42.9913 20.7015 43.3048 20.8712 43.6183C21.0833 43.971 21.253 44.3629 21.4227 44.8331C21.5923 45.3034 21.7196 45.852 21.8893 46.5182L23.0771 51.6517C23.1195 51.8084 23.1195 51.9652 23.1619 52.0436C23.3316 52.1219 23.3316 52.2003 23.3316 52.2787Z" fill="#0088EC"/>
<path d="M27.022 52.3179C27.022 52.3962 27.022 52.4354 26.9796 52.4746C26.9796 52.5138 26.9372 52.553 26.8948 52.5922C26.8524 52.6314 26.8099 52.6314 26.7251 52.6705C26.6402 52.7097 26.5554 52.7097 26.4706 52.7097C26.3857 52.7097 26.2584 52.7097 26.216 52.6705C26.1312 52.6314 26.0888 52.6314 26.0464 52.5922C26.0039 52.553 25.9615 52.5138 25.9615 52.4746C25.9615 52.4354 25.9191 52.3571 25.9191 52.3179L25.9191 32.8418C25.9191 32.7634 25.9191 32.7243 25.9615 32.6851C25.9615 32.6459 26.0039 32.6067 26.0464 32.5675C26.0888 32.5283 26.1312 32.5283 26.216 32.4891C26.3009 32.45 26.3857 32.45 26.4706 32.45C26.5978 32.45 26.6827 32.45 26.7251 32.4891C26.8099 32.5283 26.8524 32.5283 26.8948 32.5675C26.9372 32.6067 26.9796 32.6459 26.9796 32.6851C26.9796 32.7243 27.022 32.8026 27.022 32.8418L27.022 52.3179Z" fill="#0088EC"/>
<path d="M40.0455 57.608C40.0455 57.6864 40.0455 57.7256 40.0455 57.7648C40.0455 57.804 40.003 57.8431 39.9606 57.8823C39.9182 57.9215 39.8758 57.9215 39.8334 57.9607C39.7909 57.9607 39.7061 57.9999 39.5788 57.9999C39.494 57.9999 39.4091 57.9999 39.3667 57.9607C39.3243 57.9607 39.2819 57.9215 39.2395 57.8823C39.197 57.8431 39.197 57.804 39.1546 57.7648C39.1546 57.7256 39.1122 57.6864 39.1122 57.608L39.1122 52.6312L29.6523 52.6312L29.6523 57.608C29.6523 57.6864 29.6523 57.7256 29.6099 57.7648C29.6099 57.804 29.5675 57.8431 29.5251 57.8823C29.4826 57.9215 29.4402 57.9215 29.3978 57.9607C29.3554 57.9607 29.2705 57.9999 29.1857 57.9999C29.1009 57.9999 29.016 57.9999 28.9312 57.9607C28.8888 57.9607 28.8039 57.9215 28.8039 57.8823C28.8039 57.8431 28.7615 57.804 28.7191 57.7648C28.7191 57.7256 28.7191 57.6864 28.7191 57.608L28.7191 51.6907C28.7191 51.4556 28.7191 51.2597 28.7615 51.1421C28.8039 51.0246 28.8888 50.9462 29.016 50.9462L29.7796 50.9462C29.9493 50.5543 30.119 50.1624 30.2887 49.7706C30.4583 49.3787 30.5856 48.9085 30.7129 48.3598C30.8401 47.8112 31.0098 47.145 31.1371 46.3613C31.2643 45.5775 31.3916 44.637 31.5188 43.4614C31.6461 42.2858 31.7734 40.9143 31.9006 39.3076C32.0279 37.7009 32.1552 35.7415 32.3249 33.5079C32.3673 33.1944 32.4097 32.9201 32.4945 32.7633C32.5794 32.6066 32.6642 32.5282 32.8339 32.5282L37.9668 32.5282C38.0941 32.5282 38.2214 32.6066 38.3062 32.7633C38.391 32.9201 38.4335 33.1552 38.4335 33.5079L38.4335 50.9462L39.7061 50.9462C39.8333 50.9462 39.8758 51.0246 39.9182 51.1421C39.9606 51.2597 40.003 51.4556 40.003 51.6907L40.003 57.608L40.0455 57.608ZM37.3729 34.2524L33.4702 34.2524C33.343 36.3685 33.1733 38.2103 33.046 39.7386C32.9188 41.3061 32.7915 42.6385 32.6642 43.7749C32.537 44.9114 32.4097 45.8519 32.2824 46.6356C32.1552 47.4193 32.0279 48.0855 31.9006 48.595C31.7734 49.1436 31.6461 49.5746 31.5188 49.9273C31.3916 50.28 31.2219 50.5935 31.0946 50.907L37.4154 50.907L37.4154 34.2524L37.3729 34.2524Z" fill="#0088EC"/>
<path d="M49.9722 52.3179C49.9722 52.3962 49.9722 52.4354 49.9298 52.4746C49.9298 52.5138 49.8874 52.553 49.845 52.5922C49.8025 52.6314 49.7601 52.6314 49.6753 52.6705C49.5904 52.7097 49.5056 52.7097 49.4208 52.7097C49.3359 52.7097 49.2087 52.7097 49.1662 52.6705C49.0814 52.6314 49.039 52.6314 48.9966 52.5922C48.9541 52.553 48.9117 52.5138 48.9117 52.4746C48.9117 52.4354 48.8693 52.357 48.8693 52.3179L48.8693 34.2526L45.0938 34.2526C44.9241 36.643 44.7969 38.7983 44.6272 40.6401C44.4575 42.4819 44.2878 44.1277 44.1181 45.4993C43.9485 46.8708 43.7363 48.0465 43.5242 48.9869C43.3121 49.9274 43.1001 50.672 42.8031 51.2598C42.5486 51.8476 42.2516 52.2395 41.9122 52.5138C41.5729 52.7881 41.1911 52.9057 40.7669 52.9057C40.7245 52.9057 40.682 52.8665 40.6396 52.8273C40.5972 52.7881 40.5548 52.7097 40.5548 52.6314C40.5124 52.553 40.5124 52.4746 40.5124 52.357C40.5124 52.2395 40.5124 52.1219 40.5124 51.9652C40.5124 51.8084 40.5124 51.6909 40.5124 51.5733C40.5124 51.4557 40.5548 51.3774 40.5548 51.299C40.5972 51.2206 40.5972 51.1814 40.6396 51.1422C40.682 51.1031 40.7245 51.1031 40.7669 51.1031C41.0214 51.1031 41.2335 51.0247 41.4456 50.8679C41.6577 50.7112 41.8698 50.3977 42.0395 49.9274C42.2516 49.4572 42.4213 48.8302 42.591 48.0073C42.7607 47.1843 42.9303 46.1263 43.1 44.8331C43.2697 43.5399 43.4394 41.9724 43.5667 40.1306C43.7364 38.2888 43.8636 36.1335 44.0333 33.6256C44.0757 33.2337 44.1181 32.9594 44.203 32.8026C44.2878 32.6459 44.4151 32.5675 44.5848 32.5675L49.5056 32.5675C49.6329 32.5675 49.7601 32.6459 49.845 32.8026C49.9298 32.9594 49.9722 33.1945 49.9722 33.5472L49.9722 52.3179Z" fill="#0088EC"/>
<path d="M61.8922 52.3179C61.8922 52.3962 61.8922 52.4354 61.8498 52.4746C61.8498 52.5138 61.8074 52.553 61.7649 52.5922C61.7225 52.6314 61.6801 52.6314 61.5953 52.6706C61.5104 52.7097 61.4256 52.7097 61.3407 52.7097C61.2559 52.7097 61.1286 52.7097 61.0862 52.6706C61.0014 52.6314 60.9589 52.6314 60.9165 52.5922C60.8741 52.553 60.8317 52.5138 60.8317 52.4746C60.8317 52.4354 60.7893 52.3571 60.7893 52.3179L60.7893 37.7402C60.7893 37.4659 60.7893 37.1524 60.7893 36.8389C60.7893 36.5254 60.7893 36.2119 60.8317 35.9376C60.7893 36.0552 60.7468 36.2119 60.7044 36.3687C60.662 36.5254 60.5772 36.6822 60.5347 36.8389C60.4923 36.9957 60.4075 37.1524 60.3651 37.3092C60.3226 37.4659 60.2378 37.6227 60.1954 37.7794L54.5534 52.3179C54.511 52.3962 54.511 52.4354 54.4686 52.4746C54.4261 52.5138 54.3837 52.553 54.3413 52.5922C54.2988 52.6314 54.2564 52.6314 54.1716 52.6706C54.1292 52.6706 54.0443 52.7097 53.9595 52.7097C53.8747 52.7097 53.7898 52.7097 53.7474 52.6706C53.705 52.6314 53.6626 52.6314 53.6201 52.5922C53.5777 52.553 53.5777 52.5138 53.5353 52.4354C53.5353 52.3962 53.4929 52.3179 53.4929 52.2395L53.4929 32.8418C53.4929 32.7635 53.4929 32.7243 53.5353 32.6851C53.5353 32.6459 53.5777 32.6067 53.6201 32.5675C53.6626 32.5283 53.705 32.5283 53.7898 32.4891C53.8746 32.45 53.9595 32.45 54.0443 32.45C54.1716 32.45 54.2564 32.45 54.2989 32.4891C54.3837 32.5283 54.4261 32.5283 54.4686 32.5675C54.511 32.6067 54.5534 32.6459 54.5534 32.6851C54.5534 32.7243 54.5958 32.8026 54.5958 32.8418L54.5958 47.537C54.5958 47.8113 54.5958 48.0857 54.5958 48.36C54.5958 48.6343 54.5958 48.9478 54.5534 49.1829C54.6382 48.9478 54.7231 48.6735 54.8503 48.36C54.9776 48.0465 55.1049 47.6938 55.2321 47.3803L60.8741 32.8026C60.9165 32.7243 60.9165 32.6851 60.959 32.6459C61.0014 32.6067 61.0438 32.5675 61.0862 32.5283C61.1286 32.4891 61.1711 32.4891 61.2559 32.45C61.2983 32.45 61.3832 32.4108 61.468 32.4108C61.5529 32.4108 61.6377 32.4108 61.6801 32.45C61.7225 32.4891 61.765 32.4891 61.8074 32.5283C61.8498 32.5675 61.8498 32.6067 61.8922 32.6459C61.8922 32.6851 61.9346 32.7635 61.9346 32.8418L61.9346 52.3179L61.8922 52.3179Z" fill="#0088EC"/>
<path d="M72.7095 47.0275C72.7095 47.6153 72.6671 48.1639 72.5822 48.6733C72.4974 49.1828 72.3701 49.653 72.2429 50.0449C72.0732 50.4759 71.9035 50.8286 71.6914 51.1421C71.4793 51.4556 71.2248 51.7299 70.9278 51.9651C70.6309 52.2002 70.3339 52.3569 70.037 52.4745C69.6976 52.592 69.3583 52.6312 68.9341 52.6312L65.8797 52.6312C65.7525 52.6312 65.6676 52.5529 65.5404 52.4353C65.4131 52.2786 65.3707 52.0434 65.3707 51.6516L65.3707 33.5079C65.3707 33.116 65.4131 32.8809 65.5404 32.7241C65.6676 32.5674 65.7525 32.5282 65.8797 32.5282L68.425 32.5282C69.1037 32.5282 69.6552 32.6458 70.0794 32.8809C70.5036 33.116 70.843 33.4687 71.14 33.8998C71.4369 34.3308 71.6066 34.8794 71.7763 35.5064C71.9035 36.1334 71.9884 36.8388 71.9884 37.5833C71.9884 38.0536 71.9459 38.5238 71.9035 38.9549C71.8187 39.386 71.7338 39.7778 71.6066 40.1697C71.4793 40.5616 71.3096 40.8751 71.14 41.1886C70.9278 41.5021 70.7157 41.7372 70.4612 41.9331C70.7581 42.0507 71.0551 42.2466 71.3521 42.5209C71.649 42.7952 71.8611 43.1479 72.0732 43.6182C72.2853 44.0492 72.455 44.5587 72.5822 45.1465C72.6247 45.6951 72.7095 46.3221 72.7095 47.0275ZM70.7582 37.7401C70.7582 37.2307 70.7157 36.7212 70.6309 36.2902C70.5461 35.8591 70.4188 35.5064 70.2067 35.1929C70.037 34.8794 69.7825 34.6443 69.4855 34.4876C69.1886 34.3308 68.8068 34.2524 68.2977 34.2524L66.4736 34.2524L66.4736 41.4629L68.5098 41.4629C68.9341 41.4629 69.3158 41.3453 69.5704 41.1494C69.8249 40.9534 70.0794 40.6791 70.2491 40.3265C70.4188 39.9738 70.5461 39.5819 70.6309 39.1508C70.7157 38.6806 70.7582 38.2103 70.7582 37.7401ZM71.5217 47.145C71.5217 46.4788 71.4793 45.891 71.3521 45.3816C71.2248 44.8722 71.0551 44.4411 70.8006 44.1276C70.5461 43.7749 70.2491 43.5398 69.9097 43.3439C69.5704 43.1871 69.1037 43.0696 68.5947 43.0696L66.4736 43.0696L66.4736 50.907L69.0613 50.907C69.4431 50.907 69.7825 50.8286 70.0794 50.6719C70.3764 50.5151 70.6309 50.28 70.843 49.9665C71.0551 49.653 71.2248 49.2611 71.3521 48.7909C71.4793 48.3206 71.5217 47.772 71.5217 47.145Z" fill="#0088EC"/>
<path d="M83.7814 52.3179C83.7814 52.3962 83.7814 52.4354 83.739 52.4746C83.739 52.5138 83.6965 52.553 83.6541 52.5922C83.6117 52.6314 83.5693 52.6314 83.4844 52.6705C83.3996 52.7097 83.3148 52.7097 83.2299 52.7097C83.1451 52.7097 83.0178 52.7097 82.9754 52.6705C82.8905 52.6314 82.8481 52.6314 82.8057 52.5922C82.7633 52.553 82.7209 52.5138 82.7209 52.4746C82.7209 52.4354 82.6784 52.3571 82.6784 52.3179L82.6784 37.7402C82.6784 37.4659 82.6784 37.1524 82.6784 36.8389C82.6784 36.5254 82.6784 36.2119 82.7209 35.9376C82.6784 36.0552 82.636 36.2119 82.5936 36.3687C82.5512 36.5254 82.4663 36.6822 82.4239 36.8389C82.3815 36.9957 82.2967 37.1524 82.2542 37.3092C82.2118 37.4659 82.127 37.6227 82.0845 37.7794L76.4426 52.3179C76.4001 52.3962 76.4001 52.4354 76.3577 52.4746C76.3153 52.5138 76.2729 52.553 76.2305 52.5922C76.188 52.6314 76.1456 52.6314 76.0608 52.6705C76.0183 52.6705 75.9335 52.7097 75.8487 52.7097C75.7638 52.7097 75.679 52.7097 75.6366 52.6705C75.5941 52.6314 75.5517 52.6314 75.5093 52.5922C75.4669 52.553 75.4669 52.5138 75.4244 52.4354C75.4244 52.3962 75.382 52.3179 75.382 52.2395L75.382 32.8418C75.382 32.7634 75.382 32.7243 75.4244 32.6851C75.4244 32.6459 75.4669 32.6067 75.5093 32.5675C75.5517 32.5283 75.5941 32.5283 75.679 32.4891C75.7638 32.45 75.8487 32.45 75.9335 32.45C76.0608 32.45 76.1456 32.45 76.188 32.4891C76.2729 32.5283 76.3153 32.5283 76.3577 32.5675C76.4001 32.6067 76.4426 32.6459 76.4426 32.6851C76.4426 32.7243 76.485 32.8026 76.485 32.8418L76.485 47.537C76.485 47.8113 76.485 48.0856 76.485 48.36C76.485 48.6343 76.485 48.9478 76.4426 49.1829C76.5274 48.9478 76.6123 48.6735 76.7395 48.36C76.8668 48.0465 76.994 47.6938 77.1213 47.3803L82.7633 32.8418C82.8057 32.7634 82.8057 32.7243 82.8481 32.6851C82.8905 32.6459 82.933 32.6067 82.9754 32.5675C83.0178 32.5283 83.0602 32.5283 83.1451 32.4891C83.1875 32.4891 83.2723 32.45 83.3572 32.45C83.442 32.45 83.5269 32.45 83.5693 32.4891C83.6117 32.5283 83.6541 32.5283 83.6965 32.5675C83.739 32.6067 83.739 32.6459 83.7814 32.6851C83.7814 32.7243 83.8238 32.8026 83.8238 32.881L83.8238 52.3179L83.7814 52.3179Z" fill="#0088EC"/>
<path d="M99.5621 52.3179C99.5621 52.3962 99.5621 52.4354 99.5196 52.4746C99.5196 52.5138 99.4772 52.553 99.4348 52.5922C99.3924 52.6314 99.35 52.6314 99.2651 52.6706C99.1803 52.7097 99.0954 52.7097 99.0106 52.7097C98.9257 52.7097 98.8409 52.7097 98.7561 52.6706C98.6712 52.6314 98.6288 52.6314 98.5864 52.5922C98.544 52.553 98.5015 52.5138 98.5015 52.4746C98.5015 52.4354 98.4591 52.3571 98.4591 52.3179L98.4591 34.2134L93.7928 52.4354C93.7928 52.4746 93.7504 52.5138 93.7504 52.553C93.708 52.5922 93.708 52.6314 93.6656 52.6314C93.6231 52.6706 93.5807 52.6706 93.4959 52.7097C93.4534 52.7097 93.3686 52.7489 93.2838 52.7489C93.1989 52.7489 93.1141 52.7489 93.0717 52.7097C93.0292 52.6706 92.9444 52.6706 92.902 52.6314C92.8596 52.5922 92.8171 52.5922 92.8171 52.553C92.7747 52.5138 92.7747 52.4746 92.7747 52.4354L88.3629 34.2134L88.3629 52.3179C88.3629 52.3962 88.3629 52.4354 88.3205 52.4746C88.3205 52.5138 88.2781 52.553 88.2357 52.5922C88.1933 52.6314 88.1508 52.6314 88.066 52.6706C87.9812 52.7097 87.8963 52.7097 87.7691 52.7097C87.6842 52.7097 87.5994 52.7097 87.5145 52.6706C87.4297 52.6314 87.3873 52.6314 87.3448 52.5922C87.3024 52.553 87.26 52.5138 87.26 52.4746C87.26 52.4354 87.2176 52.3571 87.2176 52.3179L87.2176 33.508C87.2176 33.1161 87.26 32.881 87.3873 32.7243C87.5145 32.5675 87.5994 32.5283 87.7266 32.5283L88.3205 32.5283C88.4902 32.5283 88.6175 32.5675 88.7023 32.6067C88.8296 32.6459 88.9144 32.7634 88.9992 32.8418C89.0841 32.9594 89.1689 33.0769 89.2114 33.2337C89.2538 33.3904 89.3386 33.5472 89.381 33.7431L93.2838 49.6923L93.3262 49.6923L97.3986 33.7823C97.441 33.5472 97.5259 33.3121 97.6107 33.1553C97.6955 32.9986 97.738 32.8418 97.8228 32.7634C97.9077 32.6459 97.9925 32.6067 98.0773 32.5283C98.1622 32.4891 98.247 32.45 98.3743 32.45L99.053 32.45C99.0954 32.45 99.1803 32.45 99.2227 32.4891C99.2651 32.5283 99.35 32.5675 99.3924 32.6459C99.4348 32.7243 99.4772 32.8418 99.5196 32.9594C99.5621 33.0769 99.5621 33.2337 99.5621 33.4296L99.5621 52.3179Z" fill="#0088EC"/>
<path d="M116.87 57.608C116.87 57.6864 116.87 57.7256 116.87 57.7648C116.87 57.804 116.827 57.8431 116.785 57.8823C116.742 57.9215 116.7 57.9215 116.658 57.9607C116.615 57.9999 116.53 57.9999 116.403 57.9999C116.318 57.9999 116.233 57.9999 116.191 57.9607C116.149 57.9607 116.106 57.9215 116.064 57.8823C116.021 57.8431 116.021 57.804 115.979 57.7648C115.979 57.7256 115.936 57.6864 115.936 57.608L115.936 52.6312L106.477 52.6312L106.477 57.608C106.477 57.6864 106.477 57.7256 106.434 57.7648C106.434 57.804 106.392 57.8431 106.349 57.8823C106.307 57.9215 106.264 57.9215 106.222 57.9607C106.18 57.9607 106.095 57.9999 106.01 57.9999C105.925 57.9999 105.84 57.9999 105.755 57.9607C105.713 57.9607 105.628 57.9215 105.628 57.8823C105.628 57.8431 105.586 57.804 105.543 57.7648C105.543 57.7256 105.543 57.6864 105.543 57.608L105.543 51.6907C105.543 51.4556 105.543 51.2597 105.586 51.1421C105.628 51.0246 105.713 50.9462 105.84 50.9462L106.604 50.9462C106.773 50.5543 106.943 50.1624 107.113 49.7706C107.283 49.3787 107.41 48.9085 107.537 48.3598C107.664 47.8112 107.834 47.145 107.961 46.3613C108.089 45.5775 108.216 44.637 108.343 43.4614C108.47 42.2858 108.598 40.9143 108.725 39.3076C108.852 37.7009 108.979 35.7415 109.149 33.5079C109.191 33.1944 109.234 32.9201 109.319 32.7633C109.404 32.6066 109.488 32.5282 109.658 32.5282L114.791 32.5282C114.918 32.5282 115.046 32.6066 115.13 32.7633C115.215 32.9201 115.258 33.1552 115.258 33.5079L115.258 50.9462L116.53 50.9462C116.658 50.9462 116.7 51.0246 116.742 51.1421C116.785 51.2597 116.827 51.4556 116.827 51.6907L116.827 57.608L116.87 57.608ZM114.155 34.2524L110.252 34.2524C110.125 36.3685 109.955 38.2103 109.828 39.7386C109.701 41.3061 109.573 42.6385 109.446 43.7749C109.319 44.9114 109.192 45.8519 109.064 46.6356C108.937 47.4193 108.81 48.0855 108.682 48.595C108.555 49.1436 108.428 49.5746 108.301 49.9273C108.173 50.28 108.004 50.5935 107.876 50.907L114.197 50.907L114.197 34.2524L114.155 34.2524Z" fill="#0088EC"/>
<path d="M126.796 52.3179C126.796 52.3962 126.796 52.4354 126.754 52.4746C126.754 52.5138 126.712 52.553 126.669 52.5922C126.627 52.6314 126.584 52.6314 126.5 52.6705C126.415 52.7097 126.33 52.7097 126.245 52.7097C126.16 52.7097 126.033 52.7097 125.99 52.6705C125.906 52.6314 125.863 52.6314 125.821 52.5922C125.778 52.553 125.736 52.5138 125.736 52.4746C125.736 52.4354 125.693 52.357 125.693 52.3179L125.694 34.2526L121.918 34.2526C121.748 36.643 121.621 38.7983 121.451 40.6401C121.282 42.4819 121.112 44.1277 120.942 45.4993C120.773 46.8708 120.561 48.0465 120.348 48.9869C120.136 49.9274 119.924 50.672 119.627 51.2598C119.373 51.8476 119.076 52.2395 118.736 52.5138C118.397 52.7881 118.015 52.9057 117.591 52.9057C117.549 52.9057 117.506 52.8665 117.464 52.8273C117.421 52.7881 117.379 52.7097 117.379 52.6314C117.337 52.553 117.337 52.4746 117.337 52.357C117.337 52.2395 117.337 52.1219 117.337 51.9652C117.337 51.8084 117.337 51.6909 117.337 51.5733C117.337 51.4557 117.379 51.3774 117.379 51.299C117.379 51.2206 117.421 51.1814 117.464 51.1422C117.506 51.1031 117.549 51.1031 117.591 51.1031C117.846 51.1031 118.058 51.0247 118.27 50.8679C118.482 50.7112 118.694 50.3977 118.864 49.9274C119.076 49.4572 119.246 48.8302 119.415 48.0073C119.585 47.1843 119.755 46.1263 119.924 44.8331C120.094 43.5399 120.264 41.9724 120.391 40.1306C120.561 38.2888 120.688 36.1335 120.858 33.6256C120.9 33.2337 120.942 32.9594 121.027 32.8026C121.112 32.6459 121.239 32.5675 121.409 32.5675L126.33 32.5675C126.457 32.5675 126.584 32.6459 126.669 32.8026C126.754 32.9594 126.796 33.1945 126.796 33.5472L126.796 52.3179Z" fill="#0088EC"/>
<path d="M136.978 52.3179C136.978 52.3962 136.978 52.4354 136.935 52.4746C136.935 52.5138 136.893 52.553 136.85 52.5922C136.808 52.6314 136.766 52.6314 136.681 52.6705C136.596 52.7097 136.511 52.7097 136.426 52.7097C136.299 52.7097 136.214 52.7097 136.172 52.6705C136.087 52.6314 136.044 52.6314 136.002 52.5922C135.96 52.553 135.917 52.5138 135.917 52.4746C135.917 52.4354 135.875 52.357 135.875 52.3179L135.875 43.4615L134.517 43.4615C133.966 43.4615 133.584 43.5399 133.287 43.7359C132.99 43.9318 132.778 44.2061 132.566 44.5588C132.354 44.9115 132.184 45.3034 132.057 45.7736C131.93 46.2438 131.76 46.7533 131.633 47.3411L130.572 52.1219C130.53 52.2395 130.53 52.357 130.487 52.4354C130.445 52.5138 130.402 52.5922 130.36 52.6314C130.318 52.6705 130.275 52.7097 130.19 52.7097C130.105 52.7097 130.021 52.7489 129.936 52.7489C129.808 52.7489 129.724 52.7489 129.639 52.7097C129.554 52.6705 129.512 52.6705 129.469 52.6314C129.427 52.5922 129.384 52.553 129.384 52.5138C129.384 52.4746 129.342 52.3962 129.342 52.3179C129.342 52.2003 129.342 52.0827 129.384 51.9652C129.384 51.8476 129.469 51.6125 129.512 51.299L130.53 46.8708C130.657 46.3614 130.784 45.852 130.911 45.4601C131.039 45.029 131.166 44.6764 131.336 44.3237C131.463 44.0102 131.633 43.7359 131.802 43.5007C131.972 43.2656 132.184 43.0697 132.396 42.9521C132.057 42.8346 131.717 42.5994 131.42 42.3251C131.124 42.0508 130.869 41.6981 130.657 41.3063C130.445 40.9144 130.275 40.4441 130.19 39.8955C130.063 39.3861 130.021 38.7983 130.021 38.1713C130.021 37.3875 130.105 36.643 130.233 35.9768C130.402 35.3106 130.614 34.7228 130.954 34.2134C131.251 33.7039 131.675 33.3121 132.142 33.0378C132.608 32.7634 133.329 32.6067 134.263 32.6067L136.469 32.6067C136.596 32.6067 136.681 32.6851 136.808 32.8026C136.935 32.9594 136.978 33.1945 136.978 33.5864L136.978 52.3179ZM135.875 34.2526L134.22 34.2526C133.542 34.2526 133.032 34.3309 132.693 34.5269C132.354 34.7228 132.057 34.9579 131.845 35.3106C131.633 35.6241 131.463 36.016 131.378 36.4862C131.293 36.9565 131.251 37.4267 131.251 37.9753C131.251 38.4848 131.293 38.9942 131.42 39.4253C131.505 39.8955 131.675 40.2874 131.93 40.6401C132.142 40.9928 132.439 41.2671 132.778 41.463C133.117 41.6589 133.626 41.7765 134.22 41.7765L135.917 41.7765L135.917 34.2526L135.875 34.2526Z" fill="#0088EC"/>
<path d="M152.037 47.0275C152.037 47.6153 151.994 48.1639 151.909 48.6733C151.825 49.1828 151.697 49.653 151.57 50.0449C151.4 50.4759 151.231 50.8286 151.019 51.1421C150.806 51.4556 150.552 51.7299 150.255 51.9651C149.958 52.2002 149.661 52.3569 149.364 52.4745C149.025 52.592 148.685 52.6312 148.261 52.6312L145.207 52.6312C145.08 52.6312 144.995 52.5529 144.868 52.4353C144.74 52.2786 144.698 52.0434 144.698 51.6516L144.698 33.5079C144.698 33.116 144.74 32.8809 144.868 32.7241C144.995 32.5674 145.08 32.5282 145.207 32.5282L147.752 32.5282C148.431 32.5282 148.982 32.6458 149.407 32.8809C149.831 33.116 150.17 33.4687 150.467 33.8998C150.764 34.3308 150.934 34.8794 151.103 35.5064C151.231 36.1334 151.316 36.8388 151.316 37.5833C151.316 38.0536 151.273 38.5238 151.231 38.9549C151.146 39.386 151.061 39.7778 150.934 40.1697C150.806 40.5616 150.637 40.8751 150.467 41.1886C150.255 41.5021 150.043 41.7372 149.788 41.9331C150.085 42.0507 150.382 42.2466 150.679 42.5209C150.976 42.7952 151.188 43.1479 151.4 43.6182C151.612 44.0492 151.782 44.5587 151.909 45.1465C151.952 45.6951 152.037 46.3221 152.037 47.0275ZM150.085 37.7401C150.085 37.2307 150.043 36.7212 149.958 36.2902C149.873 35.8591 149.746 35.5064 149.534 35.1929C149.364 34.8794 149.11 34.6443 148.813 34.4876C148.516 34.3308 148.134 34.2524 147.625 34.2524L145.801 34.2524L145.801 41.4629L147.837 41.4629C148.261 41.4629 148.643 41.3453 148.898 41.1494C149.152 40.9534 149.407 40.6791 149.576 40.3265C149.746 39.9738 149.873 39.5819 149.958 39.1508C150.043 38.6806 150.085 38.2103 150.085 37.7401ZM150.849 47.145C150.849 46.4788 150.806 45.891 150.679 45.3816C150.552 44.8722 150.382 44.4411 150.128 44.1276C149.873 43.7749 149.576 43.5398 149.237 43.3439C148.898 43.1871 148.431 43.0696 147.922 43.0696L145.801 43.0696L145.801 50.907L148.388 50.907C148.77 50.907 149.11 50.8286 149.407 50.6719C149.704 50.5151 149.958 50.28 150.17 49.9665C150.382 49.653 150.552 49.2611 150.679 48.7909C150.764 48.3206 150.849 47.772 150.849 47.145Z" fill="#0088EC"/>
<path d="M162.854 52.0044C162.897 52.1611 162.897 52.2787 162.897 52.3962C162.897 52.5138 162.854 52.553 162.812 52.6314C162.769 52.6706 162.727 52.7097 162.642 52.7489C162.557 52.7489 162.472 52.7881 162.345 52.7881C162.218 52.7881 162.133 52.7881 162.048 52.7489C161.963 52.7489 161.921 52.7097 161.878 52.6706C161.836 52.6314 161.794 52.5922 161.794 52.553C161.751 52.5138 161.751 52.4354 161.751 52.3571L160.606 46.9884L155.43 46.9884L154.328 52.3179C154.328 52.3962 154.285 52.4354 154.285 52.5138C154.243 52.553 154.243 52.5922 154.2 52.6314C154.158 52.6706 154.115 52.7097 154.031 52.7097C153.946 52.7489 153.861 52.7489 153.734 52.7489C153.606 52.7489 153.479 52.7489 153.394 52.7097C153.309 52.6706 153.267 52.6706 153.225 52.5922C153.182 52.553 153.182 52.4746 153.14 52.3571C153.14 52.2787 153.14 52.1219 153.182 51.9652L157.297 32.8418C157.297 32.7635 157.339 32.6851 157.382 32.6459C157.424 32.6067 157.467 32.5283 157.509 32.5283C157.552 32.4891 157.636 32.4891 157.721 32.45C157.806 32.4108 157.891 32.4108 158.018 32.4108C158.145 32.4108 158.23 32.4108 158.315 32.45C158.4 32.45 158.485 32.4891 158.527 32.5283C158.57 32.5675 158.612 32.6067 158.654 32.6459C158.697 32.6851 158.697 32.7635 158.739 32.8418L162.854 52.0044ZM157.976 34.5661L155.727 45.3817L160.266 45.3817L157.976 34.5661Z" fill="#0088EC"/>
<path d="M177.489 51.6517C177.489 51.9652 177.447 52.2395 177.362 52.3962C177.277 52.553 177.15 52.6314 177.023 52.6314L165.484 52.6314C165.357 52.6314 165.23 52.553 165.145 52.3962C165.06 52.2395 165.018 52.0044 165.018 51.6517L165.018 32.8418C165.018 32.7634 165.018 32.7243 165.06 32.6851C165.06 32.6459 165.102 32.6067 165.145 32.5675C165.187 32.5283 165.23 32.5283 165.315 32.4891C165.399 32.45 165.484 32.45 165.569 32.45C165.696 32.45 165.781 32.45 165.824 32.4891C165.908 32.5283 165.951 32.5283 165.993 32.5675C166.036 32.6067 166.078 32.6459 166.078 32.6851C166.078 32.7243 166.121 32.8026 166.121 32.8418L166.121 50.9071L170.702 50.9071L170.702 32.8418C170.702 32.7634 170.702 32.7243 170.744 32.6851C170.744 32.6459 170.787 32.6067 170.829 32.5675C170.872 32.5283 170.914 32.5283 170.999 32.4891C171.084 32.45 171.169 32.45 171.253 32.45C171.381 32.45 171.466 32.45 171.508 32.4891C171.593 32.5283 171.635 32.5283 171.678 32.5675C171.72 32.6067 171.762 32.6459 171.762 32.6851C171.762 32.7243 171.805 32.8026 171.805 32.8418L171.805 50.9071L176.386 50.9071L176.386 32.8418C176.386 32.7634 176.386 32.7243 176.429 32.6851C176.429 32.6459 176.471 32.6067 176.514 32.5675C176.556 32.5283 176.598 32.5283 176.683 32.4891C176.768 32.45 176.853 32.45 176.938 32.45C177.065 32.45 177.15 32.45 177.192 32.4891C177.277 32.5283 177.32 32.5283 177.362 32.5675C177.404 32.6067 177.447 32.6459 177.447 32.6851C177.447 32.7243 177.489 32.8026 177.489 32.8418L177.489 51.6517Z" fill="#0088EC"/>
<path d="M190.47 42.3643C190.47 43.971 190.343 45.4209 190.131 46.7141C189.919 48.0073 189.579 49.1045 189.155 50.045C188.731 50.9463 188.18 51.6517 187.501 52.1611C186.864 52.6706 186.058 52.9057 185.21 52.9057C184.319 52.9057 183.598 52.6706 182.962 52.2003C182.325 51.7301 181.816 51.0639 181.392 50.2018C180.968 49.3397 180.671 48.2424 180.501 46.9884C180.289 45.7344 180.204 44.2845 180.204 42.717C180.204 41.1495 180.332 39.6996 180.544 38.4456C180.756 37.1524 181.095 36.0552 181.519 35.1539C181.944 34.2526 182.495 33.5472 183.174 33.0378C183.81 32.5283 184.616 32.2932 185.465 32.2932C186.313 32.2932 187.077 32.5283 187.713 32.9986C188.349 33.4688 188.858 34.135 189.282 34.9971C189.707 35.8593 190.004 36.9173 190.216 38.1713C190.343 39.3861 190.47 40.7968 190.47 42.3643ZM189.282 42.5211C189.282 41.3455 189.198 40.209 189.07 39.1902C188.943 38.1321 188.731 37.2308 188.434 36.4862C188.137 35.7025 187.713 35.1147 187.246 34.6836C186.737 34.2526 186.143 34.0175 185.38 34.0175C184.659 34.0175 184.022 34.2526 183.513 34.7228C183.004 35.1931 182.622 35.8201 182.283 36.5646C181.986 37.3484 181.732 38.2497 181.604 39.2685C181.477 40.2874 181.392 41.3846 181.392 42.5603C181.392 43.7751 181.435 44.9115 181.562 45.9696C181.689 47.0276 181.901 47.9289 182.198 48.7127C182.495 49.4964 182.877 50.0842 183.386 50.5545C183.895 50.9855 184.489 51.2206 185.253 51.2206C186.016 51.2206 186.61 50.9855 187.119 50.5153C187.628 50.045 188.052 49.418 188.349 48.6343C188.646 47.8505 188.901 46.91 189.028 45.8912C189.198 44.7548 189.282 43.6575 189.282 42.5211Z" fill="#0088EC"/>
<path d="M199.336 33.4295C199.336 33.5471 199.336 33.7038 199.336 33.7822C199.336 33.8997 199.294 33.9781 199.294 34.0565C199.251 34.1349 199.251 34.1741 199.209 34.2132C199.166 34.2524 199.124 34.2524 199.081 34.2524L194.33 34.2524L194.33 52.3177C194.33 52.3961 194.33 52.4353 194.288 52.4745C194.288 52.5137 194.245 52.5529 194.203 52.5921C194.161 52.6312 194.118 52.6312 194.033 52.6704C193.949 52.7096 193.864 52.7096 193.779 52.7096C193.694 52.7096 193.567 52.7096 193.524 52.6704C193.439 52.6312 193.397 52.6312 193.355 52.5921C193.312 52.5529 193.27 52.5137 193.27 52.4745C193.27 52.4353 193.227 52.3569 193.227 52.3177L193.227 33.5079C193.227 33.1944 193.27 32.9201 193.397 32.7633C193.482 32.6066 193.609 32.5282 193.779 32.5282L199.124 32.5282C199.209 32.5282 199.294 32.6066 199.336 32.7633C199.336 32.9201 199.336 33.116 199.336 33.4295Z" fill="#0088EC"/>
<path d="M210.069 42.3643C210.069 43.971 209.942 45.4209 209.73 46.7141C209.517 48.0073 209.178 49.1045 208.754 50.045C208.33 50.9855 207.778 51.6517 207.099 52.1611C206.463 52.6706 205.657 52.9057 204.809 52.9057C203.918 52.9057 203.197 52.6706 202.56 52.2003C201.924 51.7301 201.415 51.0639 200.991 50.2018C200.567 49.3397 200.27 48.2424 200.1 46.9884C199.888 45.7344 199.803 44.2845 199.803 42.717C199.803 41.1495 199.93 39.6996 200.142 38.4456C200.355 37.1524 200.694 36.0552 201.118 35.1539C201.542 34.2526 202.094 33.5472 202.773 33.0378C203.409 32.5283 204.215 32.2932 205.063 32.2932C205.912 32.2932 206.675 32.5283 207.312 32.9986C207.948 33.4688 208.457 34.135 208.881 34.9971C209.305 35.8593 209.602 36.9173 209.814 38.1713C209.942 39.3861 210.069 40.7968 210.069 42.3643ZM208.881 42.5211C208.881 41.3455 208.796 40.209 208.669 39.1902C208.542 38.1321 208.33 37.2308 208.033 36.4862C207.736 35.7025 207.312 35.1147 206.845 34.6836C206.336 34.2526 205.742 34.0175 204.978 34.0175C204.257 34.0175 203.621 34.2526 203.112 34.7228C202.603 35.1931 202.221 35.8201 201.882 36.5646C201.585 37.3484 201.33 38.2497 201.203 39.2685C201.076 40.2874 200.991 41.3846 200.991 42.5603C200.991 43.7751 201.033 44.9115 201.161 45.9696C201.288 47.0276 201.5 47.9289 201.797 48.7127C202.094 49.4964 202.476 50.0842 202.985 50.5545C203.494 50.9855 204.088 51.2206 204.851 51.2206C205.615 51.2206 206.209 50.9855 206.718 50.5153C207.227 50.045 207.651 49.418 207.948 48.6343C208.245 47.8505 208.499 46.91 208.627 45.8912C208.796 44.7548 208.881 43.6575 208.881 42.5211Z" fill="#0088EC"/>
<path d="M223.134 47.1059C223.134 47.9288 223.05 48.6733 222.88 49.3787C222.71 50.0841 222.456 50.7111 222.074 51.2205C221.692 51.7299 221.268 52.161 220.759 52.4353C220.25 52.7096 219.613 52.8664 218.892 52.8664C218.51 52.8664 218.129 52.8272 217.832 52.7096C217.535 52.5921 217.238 52.4745 217.026 52.3178C216.814 52.161 216.644 52.0434 216.517 51.9259C216.389 51.8083 216.305 51.73 216.262 51.6516C216.22 51.5732 216.177 51.534 216.177 51.4556C216.135 51.3773 216.135 51.2989 216.135 51.2205C216.135 51.1421 216.092 51.0246 216.092 50.8678C216.092 50.7503 216.092 50.5935 216.092 50.4368C216.092 50.1625 216.092 50.0057 216.135 49.8882C216.177 49.7706 216.22 49.7314 216.262 49.7314C216.347 49.7314 216.432 49.8098 216.559 49.9273C216.686 50.0841 216.856 50.2408 217.068 50.3976C217.28 50.5935 217.535 50.7503 217.874 50.8678C218.171 51.0246 218.553 51.0638 219.02 51.0638C219.444 51.0638 219.868 50.9854 220.25 50.7895C220.632 50.5935 220.928 50.3192 221.183 49.9665C221.438 49.6138 221.65 49.222 221.777 48.7125C221.904 48.2423 221.989 47.6937 221.989 47.1059C221.989 46.4789 221.904 45.9302 221.777 45.3816C221.65 44.8722 221.438 44.4019 221.183 44.0493C220.928 43.6966 220.589 43.3831 220.207 43.1871C219.826 42.9912 219.401 42.8736 218.892 42.8736L217.45 42.8736C217.408 42.8736 217.323 42.8736 217.28 42.8345C217.238 42.7953 217.195 42.7561 217.195 42.6777C217.153 42.5993 217.153 42.521 217.153 42.4034C217.153 42.2858 217.153 42.1683 217.153 42.0115C217.153 41.894 217.153 41.7764 217.153 41.6588C217.153 41.5413 217.195 41.4629 217.195 41.3845C217.238 41.3062 217.238 41.267 217.28 41.2278C217.323 41.1886 217.365 41.1886 217.408 41.1886L218.723 41.1886C219.147 41.1886 219.529 41.1102 219.868 40.9143C220.207 40.7575 220.547 40.4832 220.801 40.1697C221.056 39.817 221.268 39.4252 221.395 38.9549C221.522 38.4847 221.607 37.8969 221.607 37.2699C221.607 36.7604 221.565 36.2902 221.48 35.8983C221.395 35.4673 221.225 35.1146 221.056 34.8403C220.844 34.5268 220.632 34.3308 220.335 34.1741C220.038 34.0173 219.698 33.939 219.316 33.939C218.892 33.939 218.553 34.0173 218.256 34.1741C217.959 34.3308 217.704 34.4876 217.45 34.6443C217.238 34.8011 217.026 34.997 216.898 35.1538C216.729 35.3105 216.644 35.3889 216.559 35.3889C216.517 35.3889 216.474 35.3889 216.474 35.3497C216.432 35.3105 216.432 35.2713 216.432 35.2321C216.432 35.1538 216.389 35.0754 216.389 34.997C216.389 34.8794 216.389 34.7619 216.389 34.6051C216.389 34.4876 216.389 34.4092 216.389 34.2916C216.389 34.1741 216.389 34.0957 216.432 34.0173C216.432 33.939 216.474 33.8606 216.474 33.7822C216.517 33.7038 216.517 33.6255 216.559 33.5471C216.602 33.4687 216.729 33.3511 216.898 33.1944C217.068 33.0376 217.28 32.8809 217.535 32.7633C217.789 32.6066 218.086 32.489 218.426 32.4107C218.765 32.2931 219.104 32.2539 219.486 32.2539C220.038 32.2539 220.547 32.3715 220.971 32.6458C221.395 32.8809 221.734 33.2336 222.031 33.6646C222.328 34.0957 222.54 34.6051 222.668 35.2321C222.795 35.8199 222.88 36.4861 222.88 37.1915C222.88 37.8969 222.837 38.5239 222.71 39.0725C222.583 39.6211 222.413 40.0913 222.201 40.4832C221.989 40.8751 221.734 41.1886 221.48 41.4629C221.183 41.698 220.928 41.8548 220.632 41.9331L220.632 41.9723C221.013 42.0507 221.353 42.2466 221.65 42.521C221.989 42.7953 222.244 43.1871 222.498 43.6182C222.753 44.0493 222.922 44.5979 223.05 45.1857C223.05 45.7735 223.134 46.4005 223.134 47.1059Z" fill="#0088EC"/>
<path d="M235.394 57.608C235.394 57.6864 235.394 57.7256 235.394 57.7648C235.394 57.804 235.352 57.8431 235.309 57.8823C235.267 57.9215 235.224 57.9215 235.182 57.9607C235.14 57.9607 235.055 57.9999 234.928 57.9999C234.843 57.9999 234.758 57.9999 234.715 57.9607C234.673 57.9607 234.631 57.9215 234.588 57.8823C234.546 57.8431 234.546 57.804 234.503 57.7648C234.503 57.7256 234.461 57.6864 234.461 57.608L234.461 52.6312L225.001 52.6312L225.001 57.608C225.001 57.6864 225.001 57.7256 224.959 57.7648C224.959 57.804 224.916 57.8431 224.874 57.8823C224.831 57.9215 224.789 57.9215 224.746 57.9607C224.704 57.9607 224.619 57.9999 224.534 57.9999C224.45 57.9999 224.365 57.9999 224.28 57.9607C224.237 57.9607 224.153 57.9215 224.153 57.8823C224.153 57.8431 224.11 57.804 224.068 57.7648C224.068 57.7256 224.068 57.6864 224.068 57.608L224.068 51.6907C224.068 51.4556 224.068 51.2597 224.11 51.1421C224.153 51.0246 224.237 50.9462 224.365 50.9462L225.128 50.9462C225.298 50.5543 225.468 50.1624 225.637 49.7706C225.807 49.3787 225.934 48.9085 226.062 48.3598C226.189 47.8112 226.358 47.145 226.486 46.3613C226.613 45.5775 226.74 44.637 226.868 43.4614C226.995 42.2858 227.122 40.9143 227.249 39.3076C227.377 37.7009 227.504 35.7415 227.674 33.5079C227.716 33.1944 227.758 32.9201 227.843 32.7633C227.928 32.6066 228.013 32.5282 228.183 32.5282L233.316 32.5282C233.443 32.5282 233.57 32.6066 233.655 32.7633C233.74 32.9201 233.782 33.1552 233.782 33.5079L233.782 50.9462L235.055 50.9462C235.182 50.9462 235.224 51.0246 235.267 51.1421C235.309 51.2597 235.352 51.4556 235.352 51.6907L235.352 57.608L235.394 57.608ZM232.679 34.2524L228.776 34.2524C228.649 36.3685 228.48 38.2103 228.352 39.7386C228.225 41.3061 228.098 42.6385 227.97 43.7749C227.843 44.9114 227.716 45.8519 227.589 46.6356C227.461 47.4193 227.334 48.0855 227.207 48.595C227.08 49.1436 226.952 49.5746 226.825 49.9273C226.698 50.28 226.528 50.5935 226.401 50.907L232.679 50.907L232.679 34.2524Z" fill="#0088EC"/>
<path d="M246.89 42.3643C246.89 43.971 246.763 45.4209 246.551 46.7141C246.339 48.0073 245.999 49.1045 245.575 50.045C245.151 50.9855 244.599 51.6517 243.921 52.1611C243.284 52.6706 242.478 52.9057 241.63 52.9057C240.739 52.9057 240.018 52.6706 239.382 52.2003C238.745 51.7301 238.236 51.0639 237.812 50.2018C237.388 49.3397 237.091 48.2424 236.921 46.9884C236.709 45.7344 236.624 44.2845 236.624 42.717C236.624 41.1495 236.752 39.6996 236.964 38.4456C237.176 37.1524 237.515 36.0552 237.939 35.1539C238.364 34.2526 238.915 33.5472 239.594 33.0378C240.23 32.5283 241.036 32.2932 241.885 32.2932C242.733 32.2932 243.497 32.5283 244.133 32.9986C244.769 33.4688 245.278 34.135 245.702 34.9971C246.127 35.8593 246.424 36.9173 246.636 38.1713C246.805 39.3861 246.89 40.7968 246.89 42.3643ZM245.702 42.5211C245.702 41.3455 245.618 40.209 245.49 39.1902C245.363 38.1321 245.151 37.2308 244.854 36.4862C244.557 35.7025 244.133 35.1147 243.666 34.6836C243.157 34.2526 242.563 34.0175 241.8 34.0175C241.079 34.0175 240.442 34.2526 239.933 34.7228C239.424 35.1931 239.042 35.8201 238.703 36.5646C238.406 37.3484 238.152 38.2497 238.024 39.2685C237.897 40.2874 237.812 41.3846 237.812 42.5603C237.812 43.7751 237.855 44.9115 237.982 45.9696C238.109 47.0276 238.321 47.9289 238.618 48.7127C238.915 49.4964 239.297 50.0842 239.806 50.5545C240.315 50.9855 240.909 51.2206 241.672 51.2206C242.436 51.2206 243.03 50.9855 243.539 50.5153C244.048 50.045 244.472 49.418 244.769 48.6343C245.066 47.8505 245.321 46.91 245.448 45.8912C245.618 44.7548 245.702 43.6575 245.702 42.5211Z" fill="#0088EC"/>
<path d="M256.435 38.2887C256.435 39.2292 256.35 40.0913 256.138 40.8359C255.969 41.6196 255.672 42.2858 255.332 42.8344C254.993 43.3831 254.569 43.8141 254.06 44.1276C253.551 44.4411 252.957 44.5979 252.235 44.5979L250.708 44.5979L250.708 52.3177C250.708 52.3961 250.708 52.4353 250.666 52.4745C250.666 52.5137 250.623 52.5529 250.581 52.5921C250.539 52.6312 250.496 52.6312 250.411 52.6704C250.327 52.7096 250.242 52.7096 250.157 52.7096C250.072 52.7096 249.945 52.7096 249.902 52.6704C249.817 52.6312 249.775 52.6312 249.733 52.5921C249.69 52.5529 249.648 52.5137 249.648 52.4745C249.648 52.4353 249.605 52.3569 249.605 52.3177L249.605 33.5079C249.605 33.116 249.648 32.8809 249.775 32.7241C249.902 32.5674 249.987 32.5282 250.114 32.5282L252.532 32.5282C252.787 32.5282 252.999 32.5282 253.211 32.5674C253.423 32.6066 253.72 32.6849 254.017 32.8025C254.314 32.9201 254.611 33.1552 254.95 33.4687C255.247 33.7822 255.544 34.1741 255.756 34.6835C255.969 35.1537 256.138 35.7024 256.265 36.2902C256.35 36.9172 256.435 37.5833 256.435 38.2887ZM255.247 38.4847C255.247 37.6225 255.163 36.878 254.95 36.2902C254.738 35.7024 254.484 35.2321 254.229 34.9578C253.932 34.6443 253.635 34.4876 253.338 34.4092C253.041 34.3308 252.745 34.2916 252.448 34.2916L250.751 34.2916L250.751 43.0304L252.363 43.0304C252.872 43.0304 253.296 42.9128 253.678 42.6777C254.017 42.4426 254.314 42.1291 254.569 41.7372C254.823 41.3453 254.993 40.8751 255.12 40.3265C255.163 39.7386 255.247 39.1116 255.247 38.4847Z" fill="#0088EC"/>
<path d="M268.61 42.3643C268.61 43.971 268.483 45.4209 268.271 46.7141C268.058 48.0073 267.719 49.1045 267.295 50.045C266.871 50.9855 266.319 51.6517 265.64 52.1611C265.004 52.6706 264.198 52.9057 263.35 52.9057C262.459 52.9057 261.738 52.6706 261.101 52.2003C260.465 51.7301 259.956 51.0639 259.532 50.2018C259.108 49.3397 258.811 48.2424 258.641 46.9884C258.429 45.7344 258.344 44.2845 258.344 42.717C258.344 41.1495 258.471 39.6996 258.683 38.4456C258.896 37.1524 259.235 36.0552 259.659 35.1539C260.083 34.2526 260.635 33.5472 261.314 33.0378C261.95 32.5283 262.756 32.2932 263.604 32.2932C264.453 32.2932 265.216 32.5283 265.853 32.9986C266.489 33.4688 266.998 34.135 267.422 34.9971C267.846 35.8593 268.143 36.9173 268.355 38.1713C268.525 39.3861 268.61 40.7968 268.61 42.3643ZM267.422 42.5211C267.422 41.3455 267.337 40.209 267.21 39.1902C267.083 38.1321 266.871 37.2308 266.574 36.4862C266.277 35.7025 265.853 35.1147 265.386 34.6836C264.877 34.2526 264.283 34.0175 263.519 34.0175C262.798 34.0175 262.162 34.2526 261.653 34.7228C261.144 35.1931 260.762 35.8201 260.423 36.5646C260.126 37.3484 259.871 38.2497 259.744 39.2685C259.617 40.2874 259.532 41.3846 259.532 42.5603C259.532 43.7751 259.574 44.9115 259.702 45.9696C259.829 47.0276 260.041 47.9289 260.338 48.7127C260.635 49.4964 261.017 50.0842 261.526 50.5545C262.035 50.9855 262.629 51.2206 263.392 51.2206C264.156 51.2206 264.75 50.9855 265.259 50.5153C265.768 50.045 266.192 49.418 266.489 48.6343C266.786 47.8505 267.04 46.91 267.168 45.8912C267.38 44.7548 267.422 43.6575 267.422 42.5211Z" fill="#0088EC"/>
<path d="M278.706 47.0275C278.706 47.6153 278.663 48.1639 278.578 48.6733C278.494 49.1828 278.366 49.653 278.239 50.0449C278.069 50.4759 277.9 50.8286 277.688 51.1421C277.475 51.4556 277.221 51.7299 276.924 51.9651C276.627 52.2002 276.33 52.3569 276.033 52.4745C275.694 52.592 275.354 52.6312 274.93 52.6312L271.876 52.6312C271.749 52.6312 271.664 52.5529 271.537 52.4353C271.409 52.2786 271.367 52.0434 271.367 51.6516L271.367 33.5079C271.367 33.116 271.409 32.8809 271.537 32.7241C271.664 32.5674 271.749 32.5282 271.876 32.5282L274.421 32.5282C275.1 32.5282 275.651 32.6458 276.076 32.8809C276.5 33.116 276.839 33.4687 277.136 33.8998C277.433 34.3308 277.603 34.8794 277.772 35.5064C277.9 36.1334 277.985 36.8388 277.985 37.5833C277.985 38.0536 277.942 38.5238 277.9 38.9549C277.815 39.386 277.73 39.7778 277.603 40.1697C277.475 40.5616 277.306 40.8751 277.136 41.1886C276.924 41.5021 276.712 41.7372 276.457 41.9331C276.754 42.0507 277.051 42.2466 277.348 42.5209C277.645 42.7952 277.857 43.1479 278.069 43.6182C278.281 44.0492 278.451 44.5587 278.578 45.1465C278.663 45.6951 278.706 46.3221 278.706 47.0275ZM276.754 37.7401C276.754 37.2307 276.712 36.7212 276.627 36.2902C276.542 35.8591 276.415 35.5064 276.203 35.1929C276.033 34.8794 275.779 34.6443 275.482 34.4876C275.185 34.3308 274.803 34.2524 274.294 34.2524L272.47 34.2524L272.47 41.4629L274.506 41.4629C274.93 41.4629 275.312 41.3453 275.567 41.1494C275.821 40.9534 276.076 40.6791 276.245 40.3265C276.415 39.9738 276.542 39.5819 276.627 39.1508C276.712 38.6806 276.754 38.2103 276.754 37.7401ZM277.518 47.145C277.518 46.4788 277.475 45.891 277.348 45.3816C277.221 44.8722 277.051 44.4411 276.797 44.1276C276.542 43.7749 276.245 43.5398 275.906 43.3439C275.567 43.1871 275.1 43.0696 274.591 43.0696L272.47 43.0696L272.47 50.907L275.057 50.907C275.439 50.907 275.779 50.8286 276.076 50.6719C276.373 50.5151 276.627 50.28 276.839 49.9665C277.051 49.653 277.221 49.2611 277.348 48.7909C277.475 48.3206 277.518 47.772 277.518 47.145Z" fill="#0088EC"/>
<path d="M282.057 38.7199C282.057 38.7983 282.057 38.8374 282.015 38.8766C282.015 38.9158 281.972 38.955 281.93 38.9942C281.887 39.0334 281.845 39.0334 281.802 39.0726C281.76 39.1118 281.675 39.1118 281.59 39.1118C281.505 39.1118 281.421 39.1118 281.378 39.0726C281.336 39.0334 281.293 39.0334 281.251 38.9942C281.209 38.955 281.209 38.9158 281.166 38.8766C281.166 38.8374 281.124 38.7591 281.124 38.7199L280.912 31.3919C280.912 31.3135 280.912 31.2743 280.954 31.2351C280.996 31.1959 281.039 31.1568 281.081 31.1176C281.124 31.0784 281.209 31.0392 281.293 31.0392C281.378 31.0392 281.463 31 281.59 31C281.718 31 281.802 31 281.887 31.0392C281.972 31.0392 282.057 31.0784 282.099 31.1176C282.142 31.1568 282.184 31.1959 282.227 31.2351C282.269 31.2743 282.269 31.3527 282.269 31.3919L282.057 38.7199Z" fill="#0088EC"/>
<path d="M292.068 52.3179C292.068 52.3962 292.068 52.4354 292.026 52.4746C292.026 52.5138 291.984 52.553 291.941 52.5922C291.899 52.6314 291.856 52.6314 291.772 52.6705C291.687 52.7097 291.602 52.7097 291.517 52.7097C291.39 52.7097 291.305 52.7097 291.262 52.6705C291.178 52.6314 291.135 52.6314 291.093 52.5922C291.05 52.553 291.008 52.5138 291.008 52.4746C291.008 52.4354 290.966 52.357 290.966 52.3179L290.966 43.4615L289.608 43.4615C289.057 43.4615 288.675 43.5399 288.378 43.7359C288.081 43.9318 287.869 44.2061 287.657 44.5588C287.445 44.9115 287.275 45.3034 287.148 45.7736C287.02 46.2438 286.851 46.7533 286.723 47.3411L285.663 52.1219C285.62 52.2395 285.62 52.357 285.578 52.4354C285.536 52.5138 285.493 52.5922 285.451 52.6314C285.408 52.6705 285.366 52.7097 285.281 52.7097C285.196 52.7097 285.111 52.7489 285.027 52.7489C284.899 52.7489 284.814 52.7489 284.73 52.7097C284.645 52.6705 284.602 52.6705 284.56 52.6314C284.518 52.5922 284.475 52.553 284.475 52.5138C284.475 52.4746 284.433 52.3962 284.433 52.3179C284.433 52.2003 284.433 52.0827 284.475 51.9652C284.475 51.8476 284.56 51.6125 284.602 51.299L285.62 46.8708C285.748 46.3614 285.875 45.852 286.002 45.4601C286.13 45.029 286.257 44.6764 286.426 44.3237C286.554 44.0102 286.723 43.7359 286.893 43.5007C287.063 43.2656 287.275 43.0697 287.487 42.9521C287.148 42.8346 286.808 42.5994 286.511 42.3251C286.214 42.0508 285.96 41.6981 285.748 41.3063C285.536 40.9144 285.366 40.4441 285.281 39.8955C285.154 39.3861 285.111 38.7983 285.111 38.1713C285.111 37.3875 285.196 36.643 285.324 35.9768C285.493 35.3106 285.705 34.7228 286.045 34.2134C286.342 33.7039 286.766 33.3121 287.232 33.0378C287.699 32.7634 288.42 32.6067 289.354 32.6067L291.559 32.6067C291.687 32.6067 291.772 32.6851 291.899 32.8026C292.026 32.9594 292.068 33.1945 292.068 33.5864L292.068 52.3179ZM290.966 34.2526L289.311 34.2526C288.632 34.2526 288.123 34.3309 287.784 34.5269C287.445 34.7228 287.148 34.9579 286.936 35.3106C286.723 35.6241 286.554 36.016 286.469 36.4862C286.384 36.9565 286.342 37.4267 286.342 37.9753C286.342 38.4848 286.384 38.9942 286.511 39.4253C286.596 39.8955 286.766 40.2874 287.02 40.6401C287.232 40.9928 287.529 41.2671 287.869 41.463C288.208 41.6589 288.717 41.7765 289.311 41.7765L291.008 41.7765L291.008 34.2526L290.966 34.2526Z" fill="#0088EC"/>
</svg>
