<svg width="42" height="42" viewBox="0 0 42 42" fill="none" xmlns="http://www.w3.org/2000/svg">
<path d="M5.45971 31.2902L4.19971 40.9502L37.7997 41.3702L37.5897 35.9102L36.3297 30.4502L31.9197 28.1402L24.5697 26.0402L23.9397 24.1502L26.6697 22.0502L28.1397 19.5302L29.1897 16.5902L31.0797 17.0102L31.9197 15.9602V13.0202L30.6597 11.5502L30.2397 5.67017L28.1397 2.31017L23.9397 0.840166L17.2197 0.420166L15.5397 1.47017L15.1197 2.94017L12.5997 3.78017L11.3397 6.30017V11.5502L10.7097 12.6002L10.0797 14.2802L10.2897 15.9602L11.3397 16.3802L12.5997 17.0102L14.2797 21.0002L17.6397 23.7302V26.0402L11.9697 27.3002L7.34971 29.1902L5.45971 31.2902Z" fill="#86C8EA" fill-opacity="0.25"/>
<path fill-rule="evenodd" clip-rule="evenodd" d="M36.5222 35.0039L37.0399 40.7695H31.5606V37.6518H30.3301V40.7695H26.9492L29.3877 36.2179L27.5075 34.058L28.8307 28.0256L32.2264 28.8126C35.5829 29.7335 36.1512 30.8736 36.485 34.5892L36.5222 35.0039ZM37.7477 34.8938L37.7105 34.4791C37.533 32.5037 37.2709 31.0592 36.5135 29.9629C35.7652 28.8799 34.5767 28.18 32.5396 27.6225L24.918 25.8558L24.7357 24.0089C27.4873 22.607 29.5148 19.8503 29.8066 17.3285H30.4579C31.4757 17.3285 32.3036 16.5006 32.3036 15.4828V13.0213C32.3036 12.2192 31.7892 11.5354 31.0732 11.2814V7.99805C31.0732 3.58788 27.4853 0 23.0751 0H17.6939C16.1952 0 14.9441 1.07764 14.673 2.49859C12.5621 2.77405 10.9264 4.58276 10.9264 6.76758V9.22852V11.2814C10.2103 11.5354 9.69589 12.2192 9.69589 13.0213V15.4828C9.69589 16.5006 10.5238 17.3285 11.5416 17.3285H12.1932C12.485 19.8503 14.5124 22.6068 17.2639 24.0087L17.0816 25.8558L9.48343 27.6166L9.45989 27.6225C7.42281 28.18 6.23434 28.8799 5.48613 29.9628C4.72866 31.059 4.46648 32.5036 4.28913 34.479L3.61377 42H38.3858L37.7477 34.8938ZM12.1568 9.22852V6.76758C12.1568 5.28207 13.2154 4.03914 14.6178 3.75334V5.53711H15.8482V3.07617C15.8482 2.05841 16.6763 1.23047 17.6939 1.23047H23.0751C26.8067 1.23047 29.8427 4.26636 29.8427 7.99805V11.1739C24.8188 11.1485 19.8235 10.784 16.7389 8.65922L16.1326 8.2416L15.8293 8.91237C15.2151 10.2704 13.6026 10.9825 12.1568 11.1412V9.22852ZM26.1729 34.399L27.9021 36.3854L25.5533 40.7695H24.1134L24.9202 27.1194L27.6319 27.7478L26.1729 34.399ZM17.8862 40.7695H16.4463L14.0974 36.3854L15.8266 34.399L14.3677 27.7478L17.0794 27.1194L17.8862 40.7695ZM18.4863 30.0681L20.9998 31.6472L23.5133 30.068L22.8808 40.7695H19.1188L18.4863 30.0681ZM31.0731 15.4828C31.0731 15.8221 30.797 16.0981 30.4578 16.0981H29.8427V13.0213C29.8427 12.8584 29.9071 12.7043 30.0239 12.5874C30.1407 12.4705 30.2949 12.4062 30.4578 12.4062C30.797 12.4062 31.0731 12.6821 31.0731 13.0214V15.4828ZM11.5416 16.0981C11.2024 16.0981 10.9264 15.8221 10.9264 15.4828V13.0213C10.9264 12.682 11.2024 12.4061 11.5416 12.4061C11.8809 12.4061 12.1568 12.6821 12.1568 13.0213L12.1569 16.098L11.5416 16.0981ZM13.3875 16.7133L13.3874 13.0213C13.3874 12.7286 13.3186 12.4518 13.1967 12.2057C13.698 12.0848 14.1841 11.9114 14.6323 11.6897C15.4757 11.2725 16.1467 10.7073 16.6054 10.0335C19.7116 11.8755 24.1663 12.3166 28.7246 12.3925C28.6521 12.5918 28.6122 12.8034 28.6122 13.0214V16.7133C28.6122 18.1628 27.7549 19.9231 26.3749 21.3072C24.8298 22.8569 22.9209 23.7104 20.9999 23.7104C19.0789 23.7104 17.1699 22.8569 15.6249 21.3071C14.2448 19.923 13.3875 18.1628 13.3875 16.7133ZM20.9999 24.9409C21.88 24.9409 22.7366 24.7858 23.5487 24.5105L23.732 26.3677L23.6025 28.5589L20.9998 30.1941L18.3971 28.5589L18.2676 26.3677L18.4509 24.5104C19.263 24.7858 20.1197 24.9409 20.9999 24.9409ZM5.51468 34.5892C5.84838 30.8735 6.41669 29.7335 9.77317 28.8126L13.1689 28.0256L14.4921 34.058L12.6119 36.2179L15.0504 40.7695H11.6694V37.6518H10.4389V40.7695H4.95966L5.51468 34.5892ZM25.9218 4.30664H27.1522V5.53711H25.9218V4.30664ZM24.6913 3.07617H23.4608V4.30664H24.6913V3.07617Z" fill="#86C8EA"/>
</svg>
