<svg width="42" height="42" viewBox="0 0 42 42" fill="none" xmlns="http://www.w3.org/2000/svg">
<g clip-path="url(#clip0)">
<path d="M0.629883 24.9901L4.61988 30.8701L5.66988 31.5001L5.87988 34.6501L6.92988 35.7001H8.60988L9.44988 38.6401H14.4899L15.5399 38.0101L15.9599 33.8101L18.2699 34.0201H26.2499L31.2899 33.8101L31.4999 38.4301L36.9599 38.6401L38.2199 38.0101V35.7001H39.6899L41.1599 34.8601L41.7899 32.7601L41.1599 27.5101L38.6399 26.8801L38.2199 24.1501L33.3899 23.5201L31.4999 24.3601V29.1901L23.3099 28.3501L15.9599 28.9801L15.5399 24.1501L13.0199 23.5201L20.3699 18.4801L24.5699 15.1201L27.9299 18.6901L32.7599 14.9101L31.7099 12.8101L32.9699 11.3401L33.3899 10.2901L30.6599 5.46007L28.3499 4.20007L26.4599 5.46007L24.3599 3.57007L19.3199 7.35007L21.8399 11.3401L13.4399 16.5901L9.02988 20.1601L6.29988 16.8001L2.51988 19.1101L1.46988 20.5801L2.09988 22.6801L0.629883 24.9901Z" fill="#86C8EA" fill-opacity="0.25"/>
<path fill-rule="evenodd" clip-rule="evenodd" d="M42 29.6054V28.4155C42 27.2127 41.0816 26.2342 39.9528 26.2342H38.9571V24.9735C38.9571 24.0914 38.2394 23.3738 37.3574 23.3738H32.4052C31.5231 23.3738 30.8055 24.0915 30.8055 24.9735V28.2565C26.3816 27.7404 20.875 27.7396 16.4436 28.2565V24.9735C16.4436 24.0914 15.7259 23.3738 14.8439 23.3738H14.4527C17.8254 21.32 21.5972 18.535 24.5381 15.8226L26.4693 18.4775C26.9889 19.192 27.9921 19.3481 28.704 18.8302L32.7088 15.9173V15.9172C33.4221 15.3984 33.5803 14.3959 33.0615 13.6825L32.3199 12.663L33.1252 12.0774C34.0381 11.4133 34.2052 10.0818 33.4977 9.10904L30.1582 4.51784C29.4506 3.54528 28.1324 3.29402 27.2195 3.95806L26.4142 4.54384L25.6727 3.52444C25.1539 2.81094 24.1514 2.65286 23.438 3.17163L19.4332 6.08455C18.7199 6.60332 18.5617 7.60582 19.0805 8.31924L21.0116 10.9741C17.1294 13.1597 12.6767 16.3975 9.39725 19.4221L7.97672 17.4693C7.17675 16.3695 5.62899 16.1251 4.52936 16.9252L1.92848 18.8169C0.828117 19.6175 0.584074 21.1639 1.38445 22.2644L1.61529 22.5817L0.810152 23.1674C-0.120983 23.8445 -0.255432 25.1829 0.437649 26.1357L3.77713 30.7268C4.1425 31.2292 4.678 31.5487 5.2491 31.6336V34.0928C5.2491 35.2956 6.16752 36.2742 7.29635 36.2742H8.29204V37.5348C8.29204 38.4169 9.00973 39.1345 9.89173 39.1345H14.8439C15.726 39.1345 16.4436 38.4168 16.4436 37.5348V34.2521C18.1921 34.4556 20.1577 34.5835 22.1765 34.6241H25.0726C27.0915 34.5835 29.0571 34.4556 30.8055 34.2521V37.5348C30.8055 38.4169 31.5232 39.1345 32.4052 39.1345H37.3574C38.2395 39.1345 38.9571 38.4168 38.9571 37.5348V36.2742H39.9528C41.0816 36.2742 42 35.2956 42 34.0928V32.4767V29.6054ZM16.4436 33.0132C18.1882 33.2218 20.1657 33.3528 22.2013 33.3938H25.0478C27.0835 33.3528 29.0611 33.2218 30.8055 33.0132V29.495C26.3628 28.9625 20.796 28.9734 16.4436 29.495V33.0132ZM40.7696 34.0928V32.4767V29.6055V28.4156C40.7696 27.9002 40.3955 27.4648 39.9528 27.4648H38.9572V35.0437H39.9528C40.3956 35.0437 40.7696 34.6082 40.7696 34.0928ZM29.163 5.24177C28.8599 4.82497 28.3011 4.69298 27.9432 4.95318L27.138 5.5388L27.1911 5.61175C27.8481 6.51503 31.1125 11.0028 31.5961 11.6679L32.4013 11.0823C32.7593 10.8219 32.8056 10.2497 32.5025 9.83296L29.163 5.24177ZM20.157 7.07984C19.9953 7.19755 19.958 7.43372 20.0756 7.59557L22.6058 11.074L22.9224 11.5092C24.9449 14.2898 27.3232 17.5596 27.4644 17.7536C27.5836 17.9176 27.8174 17.9532 27.98 17.8351L31.9849 14.9221C32.1468 14.8044 32.184 14.5682 32.0663 14.4064L30.9632 12.8899L30.963 12.8897L30.9629 12.8896L30.9628 12.8894C30.7273 12.5655 27.0734 7.54223 25.4437 5.3016L25.4085 5.2532L24.6775 4.24829C24.5602 4.08693 24.3244 4.04879 24.1619 4.16683L20.157 7.07984ZM23.8097 14.821L21.7401 11.9759C17.8108 14.1713 13.3182 17.4607 10.1258 20.4238L12.1951 23.2685C16.1189 21.0761 20.6088 17.7919 23.8097 14.821ZM5.2491 30.3685V28.4155C5.2491 28.1971 5.28199 27.9566 5.35533 27.7235C4.2189 26.1611 3.46928 25.1305 3.00029 24.4858C2.58027 23.9083 2.38533 23.6403 2.33921 23.5769L1.53408 24.1625C1.18676 24.4151 1.11588 24.9761 1.43293 25.4118L4.77242 30.0029C4.89694 30.1742 5.06609 30.3004 5.2491 30.3685ZM7.29635 35.0436H8.29204L8.29196 27.4646H7.29635C7.08479 27.4646 6.85847 27.5687 6.69113 27.7862C6.55061 27.9685 6.47965 28.2005 6.47965 28.4155V34.0927C6.47965 34.6082 6.85371 35.0436 7.29635 35.0436ZM8.29204 26.2341V24.9734C8.29204 24.0914 9.00973 23.3737 9.89165 23.3737H10.7498L9.30426 21.3864C8.34875 20.0727 7.2465 18.5573 6.98152 18.1931C6.58178 17.6434 5.8024 17.5206 5.2532 17.9203L2.65232 19.812C2.10067 20.2133 1.97836 20.9888 2.37965 21.5404L6.09624 26.6498C6.38933 26.423 6.74075 26.2771 7.12171 26.2426C7.1304 26.2418 7.1391 26.2411 7.14779 26.2405C7.19693 26.2366 7.24639 26.2341 7.29635 26.2341H8.29204ZM14.844 37.9038C15.0441 37.9038 15.2132 37.7348 15.2132 37.5347V24.9735C15.2132 24.7734 15.0441 24.6044 14.844 24.6044H12.5424H12.195H9.89181C9.69174 24.6044 9.52267 24.7734 9.52267 24.9735V37.5347C9.52267 37.7348 9.69174 37.9038 9.89181 37.9038H14.844ZM37.3575 37.9038C37.5575 37.9038 37.7266 37.7348 37.7266 37.5347V24.9735C37.7266 24.7734 37.5575 24.6044 37.3575 24.6044H32.4052C32.2052 24.6044 32.0361 24.7734 32.0361 24.9735V37.5347C32.0361 37.7348 32.2052 37.9038 32.4052 37.9038H37.3575Z" fill="#86C8EA"/>
</g>
<defs>
<clipPath id="clip0">
<rect width="42" height="42" fill="white"/>
</clipPath>
</defs>
</svg>
