<svg width="286" height="58" viewBox="0 0 286 58" fill="none" xmlns="http://www.w3.org/2000/svg">
<path d="M4.10005 0.300049V5.00005H4.60005V6.80005H4.10005V5.50005H0.800049V6.80005H0.300049V5.00005H0.70005C0.90005 4.60005 1.10005 4.30005 1.20005 3.80005C1.40005 3.20005 1.50005 2.50005 1.50005 1.60005V0.300049H4.10005ZM1.80005 1.90005C1.80005 2.80005 1.70005 3.50005 1.50005 4.10005C1.40005 4.50005 1.20005 4.80005 1.10005 5.10005H3.40005V0.900047H1.80005V1.90005Z" fill="#636363"/>
<path d="M8.79998 3.69995C8.79998 5.09995 7.79997 5.69995 6.89997 5.69995C5.89997 5.69995 5.09998 4.89995 5.09998 3.69995C5.09998 2.39995 5.89998 1.69995 6.99998 1.69995C8.09998 1.69995 8.79998 2.49995 8.79998 3.69995ZM5.79998 3.69995C5.79998 4.49995 6.29997 5.19995 6.89997 5.19995C7.59997 5.19995 8.09998 4.59995 8.09998 3.69995C8.09998 3.09995 7.79998 2.19995 6.99998 2.19995C6.19998 2.19995 5.79998 2.99995 5.79998 3.69995Z" fill="#636363"/>
<path d="M14.1 5.50005C13.9 5.60005 13.5 5.70005 13 5.70005C11.9 5.70005 11.1 4.90005 11.1 3.80005C11.1 2.60005 11.9 1.80005 13.1 1.80005C13.5 1.80005 13.9 1.90005 14.1 2.00005L13.9 2.50005C13.7 2.40005 13.5 2.30005 13.1 2.30005C12.2 2.30005 11.8 3.00005 11.8 3.70005C11.8 4.60005 12.4 5.10005 13.1 5.10005C13.5 5.10005 13.8 5.00005 14 4.90005L14.1 5.50005Z" fill="#636363"/>
<path d="M15.6 1.80005V3.50005H15.8L17.2001 1.80005H18L16.3 3.50005C16.9 3.60005 17.3 4.00005 17.6 4.70005C17.7 5.00005 17.8 5.30005 18 5.60005H17.3C17.2 5.40005 17.1 5.10005 16.9 4.80005C16.6 4.20005 16.3 3.90005 15.6 3.90005H15.5V5.60005H14.8V1.80005H15.6Z" fill="#636363"/>
<path d="M21.5 1.80005V5.60005H20.8V2.30005H19.5V3.30005C19.5 4.40005 19.4 5.10005 18.9 5.40005C18.7 5.50005 18.5 5.60005 18.1 5.60005V5.10005C18.2 5.10005 18.4 5.00005 18.5 4.90005C18.9 4.60005 18.9 4.10005 18.9 3.30005V1.80005H21.5Z" fill="#636363"/>
<path d="M25.3 4.69995C25.3 4.99995 25.3 5.39995 25.4 5.59995H24.8L24.7001 5.09995C24.5001 5.39995 24.1 5.69995 23.5 5.69995C22.7 5.69995 22.3 5.19995 22.3 4.59995C22.3 3.69995 23.1001 3.19995 24.6001 3.19995V3.09995C24.6001 2.79995 24.5001 2.19995 23.7001 2.19995C23.3001 2.19995 23.0001 2.29995 22.7001 2.49995L22.5 1.99995C22.8 1.79995 23.3 1.69995 23.8 1.69995C25 1.69995 25.2001 2.49995 25.2001 3.19995V4.69995H25.3ZM24.7001 3.59995C23.9001 3.59995 23.1001 3.69995 23.1001 4.49995C23.1001 4.99995 23.4001 5.19995 23.7001 5.19995C24.2001 5.19995 24.5001 4.89995 24.6001 4.59995C24.6001 4.49995 24.6001 4.39995 24.6001 4.39995V3.59995H24.7001Z" fill="#636363"/>
<path d="M29.3999 1.80005V5.10005H29.7999V6.80005H29.2999V5.60005H26.7V6.80005H26.2V5.10005H26.4999C26.6999 4.90005 26.7999 4.60005 26.8999 4.30005C26.9999 3.80005 27.1 3.30005 27.1 2.80005V1.80005H29.3999ZM27.4999 2.90005C27.4999 3.40005 27.3999 3.90005 27.2999 4.30005C27.1999 4.60005 27.0999 4.80005 26.9999 5.00005H28.7999V2.20005H27.4999V2.90005Z" fill="#636363"/>
<path d="M30.8999 1.80005L31.7 4.10005C31.8 4.40005 31.8999 4.70005 31.9999 4.90005C32.0999 4.70005 32.1 4.40005 32.2 4.10005L32.9999 1.90005H33.7L32.7 4.60005C32.2 5.90005 31.8999 6.60005 31.3999 7.00005C31.0999 7.30005 30.7 7.40005 30.6 7.40005L30.3999 6.80005C30.5999 6.70005 30.7999 6.60005 30.9999 6.50005C31.1999 6.40005 31.4 6.10005 31.6 5.70005C31.6 5.60005 31.7 5.60005 31.7 5.50005C31.7 5.50005 31.7 5.40005 31.6 5.30005L30.2 1.80005H30.8999Z" fill="#636363"/>
<path d="M36.7 0.299952V2.69995H36.9L38.7 0.299952H39.5L37.5 2.69995C38.4 2.79995 38.7 3.39995 39 4.09995C39.2 4.59995 39.4 5.09995 39.6 5.59995H38.9C38.7 5.19995 38.6 4.79995 38.4 4.29995C38.2 3.59995 37.8 3.09995 36.9 3.09995H36.7V5.49995H36V0.199951H36.7V0.299952Z" fill="#636363"/>
<path d="M43.7 3.69995C43.7 5.09995 42.7 5.69995 41.8 5.69995C40.8 5.69995 40 4.89995 40 3.69995C40 2.39995 40.8 1.69995 41.9 1.69995C43 1.69995 43.7 2.49995 43.7 3.69995ZM40.7 3.69995C40.7 4.49995 41.2 5.19995 41.8 5.19995C42.5 5.19995 43 4.59995 43 3.69995C43 3.09995 42.7 2.19995 41.9 2.19995C41.1 2.19995 40.7 2.99995 40.7 3.69995Z" fill="#636363"/>
<path d="M44.6 3.00005C44.6 2.50005 44.6 2.10005 44.6 1.80005H45.2V2.50005C45.5 2.00005 45.9 1.80005 46.6 1.80005C47.5 1.80005 48.2 2.60005 48.2 3.70005C48.2 5.10005 47.4 5.70005 46.5 5.70005C46 5.70005 45.6 5.50005 45.3 5.10005V7.20005H44.6V3.00005ZM45.3 4.00005C45.3 4.10005 45.3 4.20005 45.3 4.30005C45.4 4.80005 45.8 5.10005 46.3 5.10005C47 5.10005 47.5 4.50005 47.5 3.60005C47.5 2.80005 47.1 2.20005 46.4 2.20005C45.9 2.20005 45.5 2.50005 45.4 3.10005C45.4 3.20005 45.4 3.30005 45.4 3.40005V4.00005H45.3Z" fill="#636363"/>
<path d="M52.2 1.80005V5.60005H51.5V2.30005H49.7V5.60005H49V1.80005H52.2Z" fill="#636363"/>
<path d="M56.8 3.69995C56.8 5.09995 55.8 5.69995 54.9 5.69995C53.9 5.69995 53.1 4.89995 53.1 3.69995C53.1 2.39995 53.9 1.69995 55 1.69995C56 1.69995 56.8 2.49995 56.8 3.69995ZM53.7 3.69995C53.7 4.49995 54.2 5.19995 54.8 5.19995C55.5 5.19995 56 4.59995 56 3.69995C56 3.09995 55.7 2.19995 54.9 2.19995C54.1 2.19995 53.7 2.99995 53.7 3.69995Z" fill="#636363"/>
<path d="M57.6 3.00005C57.6 2.50005 57.6 2.10005 57.6 1.80005H58.2V2.50005C58.5 2.00005 58.9 1.80005 59.6 1.80005C60.5 1.80005 61.2 2.60005 61.2 3.70005C61.2 5.10005 60.4 5.70005 59.5 5.70005C59 5.70005 58.6 5.50005 58.3 5.10005V7.20005H57.6V3.00005ZM58.3 4.00005C58.3 4.10005 58.3 4.20005 58.3 4.30005C58.4 4.80005 58.8 5.10005 59.3 5.10005C60 5.10005 60.5 4.50005 60.5 3.60005C60.5 2.80005 60.1 2.20005 59.4 2.20005C58.9 2.20005 58.5 2.50005 58.4 3.10005C58.4 3.20005 58.4 3.30005 58.4 3.40005V4.00005H58.3Z" fill="#636363"/>
<path d="M64.8 4.69995C64.8 4.99995 64.8 5.39995 64.9 5.59995H64.3L64.2001 5.09995C64.0001 5.39995 63.6 5.69995 63 5.69995C62.2 5.69995 61.8 5.19995 61.8 4.59995C61.8 3.69995 62.6001 3.19995 64.1001 3.19995V3.09995C64.1001 2.79995 64.0001 2.19995 63.2001 2.19995C62.8001 2.19995 62.5001 2.29995 62.2001 2.49995L62 1.99995C62.3 1.79995 62.8 1.69995 63.3 1.69995C64.5 1.69995 64.7001 2.49995 64.7001 3.19995V4.69995H64.8ZM64.1001 3.59995C63.3001 3.59995 62.5 3.69995 62.5 4.49995C62.5 4.99995 62.8001 5.19995 63.1001 5.19995C63.6001 5.19995 63.9 4.89995 64 4.59995C64 4.49995 64 4.39995 64 4.39995V3.59995H64.1001Z" fill="#636363"/>
<path d="M66.6 1.80005V5.00005H68.3V1.80005H69V5.10005H69.4V6.80005H68.8V5.60005H65.9V1.80005H66.6Z" fill="#636363"/>
<path d="M70.9999 0.700048C70.9999 0.900048 70.8 1.10005 70.6 1.10005C70.3 1.10005 70.2 0.900048 70.2 0.700048C70.2 0.500048 70.4 0.300049 70.6 0.300049C70.8 0.300049 70.9999 0.500048 70.9999 0.700048ZM70.2 1.80005H70.8999V5.60005H70.2V1.80005Z" fill="#636363"/>
<path d="M71.3 0.700048C71.3 0.500048 71.5001 0.300049 71.7001 0.300049C71.9001 0.300049 72.1001 0.500048 72.1001 0.700048C72.1001 0.900048 71.9001 1.10005 71.7001 1.10005C71.5001 1.10005 71.3 0.900048 71.3 0.700048ZM72.1001 1.80005H72.8V5.60005H72.1001V1.80005ZM72.8 0.700048C72.8 0.500048 73.0001 0.300049 73.2001 0.300049C73.4001 0.300049 73.6001 0.500048 73.6001 0.700048C73.6001 0.900048 73.4001 1.10005 73.2001 1.10005C72.9001 1.10005 72.8 0.900048 72.8 0.700048Z" fill="#636363"/>
<path d="M75.7999 3.59995L76.7999 5.09995H76.2L75.2 3.69995L76.2 2.29995H76.7999L75.7999 3.59995ZM77.1 3.59995L78.1 4.99995H77.4999L76.4999 3.59995L77.4999 2.19995H78.1L77.1 3.59995Z" fill="#636363"/>
<path d="M79.8 3.90005L79.2 5.60005H78.5L80.3 0.300049H81.1L82.9 5.60005H82.2L81.6 3.90005H79.8ZM81.5 3.40005L81 1.90005C80.9 1.60005 80.8 1.20005 80.7 0.900047C80.6 1.20005 80.5 1.50005 80.4 1.90005L79.9 3.40005H81.5Z" fill="#636363"/>
<path d="M83.7 3.00005C83.7 2.50005 83.7 2.10005 83.7 1.80005H84.2999V2.50005C84.5999 2.00005 84.9999 1.80005 85.6999 1.80005C86.5999 1.80005 87.2999 2.60005 87.2999 3.70005C87.2999 5.10005 86.5 5.70005 85.6 5.70005C85.1 5.70005 84.6999 5.50005 84.3999 5.10005V7.20005H83.7V3.00005ZM84.3999 4.00005C84.3999 4.10005 84.3999 4.20005 84.3999 4.30005C84.4999 4.80005 84.9 5.10005 85.4 5.10005C86.1 5.10005 86.6 4.50005 86.6 3.60005C86.6 2.80005 86.1999 2.20005 85.4999 2.20005C84.9999 2.20005 84.5999 2.50005 84.4999 3.10005C84.4999 3.20005 84.4999 3.30005 84.4999 3.40005V4.00005H84.3999Z" fill="#636363"/>
<path d="M90.7 1.80005V2.30005H89.6V5.60005H88.9V2.30005H87.7V1.80005H90.7Z" fill="#636363"/>
<path d="M91.8 3.79995C91.8 4.69995 92.4 5.09995 93.1 5.09995C93.6 5.09995 93.9 4.99995 94.2 4.89995L94.3 5.39995C94.1 5.49995 93.6 5.59995 93 5.59995C91.8 5.59995 91.1 4.79995 91.1 3.69995C91.1 2.59995 91.8 1.69995 92.9 1.69995C94.2 1.69995 94.5 2.79995 94.5 3.49995C94.5 3.59995 94.5 3.69995 94.5 3.79995H91.8ZM93.8 3.29995C93.8 2.89995 93.6 2.19995 92.8 2.19995C92.1 2.19995 91.8 2.79995 91.7 3.29995H93.8Z" fill="#636363"/>
<path d="M95.3 3.00005C95.3 2.50005 95.3 2.10005 95.3 1.80005H95.9001V2.50005C96.2001 2.00005 96.6 1.80005 97.3 1.80005C98.2 1.80005 98.9001 2.60005 98.9001 3.70005C98.9001 5.10005 98.1 5.70005 97.2 5.70005C96.7 5.70005 96.3 5.50005 96 5.10005V7.20005H95.3V3.00005ZM96 4.00005C96 4.10005 96 4.20005 96 4.30005C96.1 4.80005 96.5 5.10005 97 5.10005C97.7 5.10005 98.2 4.50005 98.2 3.60005C98.2 2.80005 97.8001 2.20005 97.1001 2.20005C96.6001 2.20005 96.2001 2.50005 96.1001 3.10005C96.1001 3.20005 96.1001 3.30005 96.1001 3.40005V4.00005H96Z" fill="#636363"/>
<path d="M100.6 0.700048C100.6 0.900048 100.4 1.10005 100.2 1.10005C99.9 1.10005 99.8 0.900048 99.8 0.700048C99.8 0.500048 100 0.300049 100.2 0.300049C100.4 0.300049 100.6 0.500048 100.6 0.700048ZM99.8 1.80005H100.5V5.60005H99.8V1.80005Z" fill="#636363"/>
<path d="M101.9 1.80005L102.7 4.10005C102.8 4.40005 102.9 4.70005 103 4.90005C103.1 4.70005 103.1 4.40005 103.2 4.10005L104 1.90005H104.7L103.7 4.60005C103.2 5.90005 102.9 6.60005 102.4 7.00005C102.1 7.30005 101.7 7.40005 101.6 7.40005L101.4 6.80005C101.6 6.70005 101.8 6.60005 102 6.50005C102.2 6.40005 102.4 6.10005 102.6 5.70005C102.6 5.60005 102.7 5.60005 102.7 5.50005C102.7 5.50005 102.7 5.40005 102.6 5.30005L101.2 1.80005H101.9Z" fill="#636363"/>
<path d="M105.4 1.79995H106.2L106.9 3.69995C107 3.99995 107.2 4.39995 107.2 4.69995C107.3 4.39995 107.5 3.79995 107.7 3.39995L108.3 1.69995H109.2L109.5 5.49995H108.8L108.7 3.69995C108.7 3.29995 108.7 2.79995 108.6 2.29995C108.5 2.59995 108.4 2.89995 108.2 3.49995L107.5 5.39995H107L106.3 3.49995C106.2 3.09995 106 2.59995 105.9 2.19995C105.9 2.59995 105.9 3.19995 105.8 3.59995L105.7 5.39995H105.1L105.4 1.79995Z" fill="#636363"/>
<path d="M110 2.19995H110.6L111.6 3.59995L110.6 4.99995H110L111 3.59995L110 2.19995ZM111.3 2.19995H111.9L112.9 3.59995L111.9 4.99995H111.3L112.3 3.59995L111.3 2.19995Z" fill="#636363"/>
<path d="M115.3 1.79995C115.6 1.79995 116.1 1.69995 116.5 1.69995C117.1 1.69995 118.2 1.79995 118.2 2.69995C118.2 3.19995 117.8 3.49995 117.4 3.59995C118 3.69995 118.4 3.99995 118.4 4.49995C118.4 5.49995 117.1 5.59995 116.4 5.59995C116 5.59995 115.5 5.59995 115.3 5.59995V1.79995ZM116 5.09995C116.2 5.09995 116.3 5.09995 116.6 5.09995C117.1 5.09995 117.8 4.99995 117.8 4.39995C117.8 3.79995 117.2 3.69995 116.6 3.69995H116.1V5.09995H116ZM116 3.39995H116.5C117 3.39995 117.5 3.29995 117.5 2.79995C117.5 2.39995 117.2 2.19995 116.5 2.19995C116.3 2.19995 116.1 2.19995 116 2.19995V3.39995Z" fill="#636363"/>
<path d="M119.6 1.80005L120.1 2.60005C120.2 2.80005 120.4 3.00005 120.5 3.20005C120.6 3.00005 120.8 2.80005 120.9 2.60005L121.4 1.80005H122.2L120.9 3.60005L122.2 5.60005H121.4L120.8 4.70005C120.7 4.50005 120.5 4.30005 120.4 4.00005C120.3 4.20005 120.1 4.40005 120 4.70005L119.4 5.60005H118.8L120.2 3.70005L118.9 1.80005H119.6Z" fill="#636363"/>
<path d="M126.4 3.69995C126.4 5.09995 125.4 5.69995 124.5 5.69995C123.5 5.69995 122.7 4.89995 122.7 3.69995C122.7 2.39995 123.5 1.69995 124.6 1.69995C125.6 1.69995 126.4 2.49995 126.4 3.69995ZM123.4 3.69995C123.4 4.49995 123.9 5.19995 124.5 5.19995C125.2 5.19995 125.7 4.59995 125.7 3.69995C125.7 3.09995 125.4 2.19995 124.6 2.19995C123.7 2.19995 123.4 2.99995 123.4 3.69995Z" fill="#636363"/>
<path d="M130.2 1.80005V5.10005H130.6V6.80005H130.1V5.60005H127.5V6.80005H126.8V5.10005H127.1C127.3 4.90005 127.4 4.60005 127.5 4.30005C127.6 3.80005 127.7 3.30005 127.7 2.80005V1.80005H130.2ZM128.3 2.90005C128.3 3.40005 128.2 3.90005 128.1 4.30005C128 4.60005 127.9 4.80005 127.8 5.00005H129.6V2.20005H128.3V2.90005Z" fill="#636363"/>
<path d="M134.2 5.59995H133.5V3.99995H133C132.7 3.99995 132.5 4.09995 132.4 4.19995C132.1 4.39995 132 4.89995 131.9 5.29995C131.9 5.39995 131.8 5.49995 131.7 5.59995H131C131.1 5.49995 131.2 5.29995 131.2 5.19995C131.4 4.79995 131.5 4.29995 131.8 3.99995C131.9 3.89995 132.1 3.79995 132.2 3.79995C131.7 3.69995 131.2 3.39995 131.2 2.79995C131.2 2.39995 131.4 2.09995 131.7 1.99995C132 1.79995 132.5 1.69995 133 1.69995C133.4 1.69995 133.9 1.69995 134.2 1.79995V5.59995ZM133.5 2.19995C133.3 2.19995 133.2 2.19995 132.9 2.19995C132.4 2.19995 131.9 2.29995 131.9 2.89995C131.9 3.39995 132.5 3.59995 132.9 3.59995H133.5V2.19995Z" fill="#636363"/>
<path d="M137.9 1.80005V2.30005H136.7V5.60005H136V2.30005H134.8V1.80005H137.9Z" fill="#636363"/>
<path d="M139.2 1.80005V3.10005C139.4 3.10005 139.6 3.10005 139.8 3.10005C140.7 3.10005 141.6 3.40005 141.6 4.40005C141.6 4.80005 141.4 5.10005 141.2 5.30005C140.8 5.70005 140.1 5.70005 139.5 5.70005C139.1 5.70005 138.8 5.70005 138.5 5.60005V1.80005H139.2ZM139.2 5.10005C139.3 5.10005 139.5 5.10005 139.7 5.10005C140.2 5.10005 140.9 4.90005 140.9 4.30005C140.9 3.60005 140.2 3.50005 139.7 3.50005C139.5 3.50005 139.4 3.50005 139.2 3.50005V5.10005Z" fill="#636363"/>
<path d="M145 3.90005L144.4 5.60005H143.8L145.6 0.300049H146.4L148.2 5.60005H147.5L146.9 3.90005H145ZM146.8 3.40005L146.3 1.90005C146.2 1.60005 146.1 1.20005 146 0.900047C145.9 1.20005 145.8 1.50005 145.7 1.90005L145.2 3.40005H146.8Z" fill="#636363"/>
<path d="M150 0.900047H148.4V0.300049H152.3V0.900047H150.7V5.60005H150V0.900047Z" fill="#636363"/>
<path d="M154.7 3.59995L155.8 5.09995H155.2L154.2 3.69995L155.2 2.29995H155.8L154.7 3.59995ZM156 3.59995L157 4.99995H156.4L155.4 3.59995L156.4 2.19995H157L156 3.59995Z" fill="#636363"/>
<path d="M158.5 0.299952V2.69995H158.7L160.5 0.299952H161.3L159.3 2.69995C160.2 2.79995 160.5 3.39995 160.8 4.09995C161 4.59995 161.2 5.09995 161.4 5.59995H160.7C160.5 5.19995 160.4 4.79995 160.2 4.29995C160 3.59995 159.6 3.09995 158.7 3.09995H158.5V5.49995H157.8V0.199951H158.5V0.299952Z" fill="#636363"/>
<path d="M162.7 1.79995V3.39995C162.7 3.99995 162.7 4.39995 162.7 4.89995C162.9 4.39995 163.1 4.19995 163.3 3.69995L164.5 1.69995H165.3V5.49995H164.6V3.89995C164.6 3.29995 164.6 2.99995 164.6 2.29995C164.3 2.79995 164.2 3.09995 164 3.49995C163.6 4.09995 163.2 4.79995 162.8 5.49995H162V1.69995H162.7V1.79995Z" fill="#636363"/>
<path d="M165.7 0.700048C165.7 0.500048 165.9 0.300049 166.1 0.300049C166.3 0.300049 166.5 0.500048 166.5 0.700048C166.5 0.900048 166.3 1.10005 166.1 1.10005C165.9 1.10005 165.7 0.900048 165.7 0.700048ZM166.5 1.80005H167.2V5.60005H166.5V1.80005ZM167.1 0.700048C167.1 0.500048 167.3 0.300049 167.5 0.300049C167.7 0.300049 167.9 0.500048 167.9 0.700048C167.9 0.900048 167.7 1.10005 167.5 1.10005C167.3 1.10005 167.1 0.900048 167.1 0.700048Z" fill="#636363"/>
<path d="M168.3 1.79995C168.6 1.79995 169.1 1.69995 169.5 1.69995C170.1 1.69995 171.2 1.79995 171.2 2.69995C171.2 3.19995 170.8 3.49995 170.4 3.59995C171 3.69995 171.4 3.99995 171.4 4.49995C171.4 5.49995 170.1 5.59995 169.4 5.59995C169 5.59995 168.5 5.59995 168.3 5.59995V1.79995ZM168.9 5.09995C169.1 5.09995 169.2 5.09995 169.5 5.09995C170 5.09995 170.7 4.99995 170.7 4.39995C170.7 3.79995 170.1 3.69995 169.5 3.69995H169V5.09995H168.9ZM168.9 3.39995H169.4C169.9 3.39995 170.4 3.29995 170.4 2.79995C170.4 2.39995 170.1 2.19995 169.4 2.19995C169.2 2.19995 169 2.19995 168.9 2.19995V3.39995Z" fill="#636363"/>
<path d="M172.3 1.79995H173.1L173.8 3.69995C173.9 3.99995 174.1 4.39995 174.1 4.69995C174.2 4.39995 174.4 3.79995 174.6 3.39995L175.2 1.69995H176.1L176.4 5.49995H175.7L175.6 3.69995C175.6 3.29995 175.6 2.79995 175.5 2.29995C175.4 2.59995 175.3 2.89995 175.1 3.49995L174.4 5.39995H173.9L173.2 3.49995C173.1 3.09995 172.9 2.59995 172.8 2.19995C172.8 2.59995 172.8 3.19995 172.7 3.59995L172.6 5.39995H172L172.3 1.79995Z" fill="#636363"/>
<path d="M177.6 3.79995C177.6 4.69995 178.2 5.09995 178.9 5.09995C179.4 5.09995 179.7 4.99995 180 4.89995L180.1 5.39995C179.9 5.49995 179.4 5.59995 178.8 5.59995C177.6 5.59995 176.9 4.79995 176.9 3.69995C176.9 2.59995 177.6 1.69995 178.7 1.69995C180 1.69995 180.3 2.79995 180.3 3.49995C180.3 3.59995 180.3 3.69995 180.3 3.79995H177.6ZM179.7 3.29995C179.7 2.89995 179.5 2.19995 178.7 2.19995C178 2.19995 177.7 2.79995 177.6 3.29995H179.7Z" fill="#636363"/>
<path d="M184.2 1.80005V5.10005H184.6V6.80005H184.1V5.60005H181.5V6.80005H181V5.10005H181.3C181.5 4.90005 181.6 4.60005 181.7 4.30005C181.8 3.80005 181.9 3.30005 181.9 2.80005V1.80005H184.2ZM182.2 2.90005C182.2 3.40005 182.1 3.90005 182 4.30005C181.9 4.60005 181.8 4.80005 181.7 5.00005H183.5V2.20005H182.2V2.90005Z" fill="#636363"/>
<path d="M188.5 1.80005V5.60005H187.8V2.30005H186V5.60005H185.3V1.80005H188.5Z" fill="#636363"/>
<path d="M189.6 3.00005C189.6 2.50005 189.6 2.10005 189.6 1.80005H190.2V2.50005C190.5 2.00005 190.9 1.80005 191.6 1.80005C192.5 1.80005 193.2 2.60005 193.2 3.70005C193.2 5.10005 192.4 5.70005 191.5 5.70005C191 5.70005 190.6 5.50005 190.3 5.10005V7.20005H189.6V3.00005ZM190.3 4.00005C190.3 4.10005 190.3 4.20005 190.3 4.30005C190.4 4.80005 190.8 5.10005 191.3 5.10005C192 5.10005 192.5 4.50005 192.5 3.60005C192.5 2.80005 192.1 2.20005 191.4 2.20005C190.9 2.20005 190.5 2.50005 190.4 3.10005C190.4 3.20005 190.4 3.30005 190.4 3.40005V4.00005H190.3Z" fill="#636363"/>
<path d="M194.5 3.79995C194.5 4.69995 195.1 5.09995 195.8 5.09995C196.3 5.09995 196.6 4.99995 196.9 4.89995L197 5.39995C196.8 5.49995 196.3 5.59995 195.7 5.59995C194.5 5.59995 193.8 4.79995 193.8 3.69995C193.8 2.59995 194.5 1.69995 195.6 1.69995C196.9 1.69995 197.2 2.79995 197.2 3.49995C197.2 3.59995 197.2 3.69995 197.2 3.79995H194.5ZM196.5 3.29995C196.5 2.89995 196.3 2.19995 195.5 2.19995C194.8 2.19995 194.5 2.79995 194.4 3.29995H196.5Z" fill="#636363"/>
<path d="M201.2 1.80005V5.60005H200.5V2.30005H198.7V5.60005H198V1.80005H201.2Z" fill="#636363"/>
<path d="M205 4.69995C205 4.99995 205 5.39995 205.1 5.59995H204.5L204.4 5.09995C204.2 5.39995 203.8 5.69995 203.2 5.69995C202.4 5.69995 202 5.19995 202 4.59995C202 3.69995 202.8 3.19995 204.3 3.19995V3.09995C204.3 2.79995 204.2 2.19995 203.4 2.19995C203 2.19995 202.7 2.29995 202.4 2.49995L202.2 1.99995C202.5 1.79995 203 1.69995 203.5 1.69995C204.7 1.69995 204.9 2.49995 204.9 3.19995V4.69995H205ZM204.3 3.59995C203.5 3.59995 202.7 3.69995 202.7 4.49995C202.7 4.99995 203 5.19995 203.3 5.19995C203.8 5.19995 204.1 4.89995 204.2 4.59995C204.2 4.49995 204.2 4.39995 204.2 4.39995V3.59995H204.3Z" fill="#636363"/>
<path d="M206.1 3.00005C206.1 2.50005 206.1 2.10005 206.1 1.80005H206.7V2.50005C207 2.00005 207.4 1.80005 208.1 1.80005C209 1.80005 209.7 2.60005 209.7 3.70005C209.7 5.10005 208.9 5.70005 208 5.70005C207.5 5.70005 207.1 5.50005 206.8 5.10005V7.20005H206.1V3.00005ZM206.8 4.00005C206.8 4.10005 206.8 4.20005 206.8 4.30005C206.9 4.80005 207.3 5.10005 207.8 5.10005C208.5 5.10005 209 4.50005 209 3.60005C209 2.80005 208.6 2.20005 207.9 2.20005C207.4 2.20005 207 2.50005 206.9 3.10005C206.9 3.20005 206.9 3.30005 206.9 3.40005V4.00005H206.8Z" fill="#636363"/>
<path d="M213.2 4.69995C213.2 4.99995 213.2 5.39995 213.3 5.59995H212.7L212.6 5.09995C212.4 5.39995 212 5.69995 211.4 5.69995C210.6 5.69995 210.2 5.19995 210.2 4.59995C210.2 3.69995 211 3.19995 212.5 3.19995V3.09995C212.5 2.79995 212.4 2.19995 211.6 2.19995C211.2 2.19995 210.9 2.29995 210.6 2.49995L210.4 1.99995C210.7 1.79995 211.2 1.69995 211.7 1.69995C212.9 1.69995 213.1 2.49995 213.1 3.19995V4.69995H213.2ZM212.6 3.59995C211.8 3.59995 211 3.69995 211 4.49995C211 4.99995 211.3 5.19995 211.6 5.19995C212.1 5.19995 212.4 4.89995 212.5 4.59995C212.5 4.49995 212.5 4.39995 212.5 4.39995V3.59995H212.6Z" fill="#636363"/>
<path d="M216.9 1.80005V2.30005H215.7V5.60005H215.1V2.30005H213.9V1.80005H216.9Z" fill="#636363"/>
<path d="M217.2 2.19995H217.8L218.8 3.59995L217.8 4.99995H217.2L218.2 3.59995L217.2 2.19995ZM218.5 2.19995H219.1L220.1 3.59995L219.1 4.99995H218.5L219.5 3.59995L218.5 2.19995Z" fill="#636363"/>
<path d="M225.1 1.80005V2.30005H223.9V5.60005H223.3V2.30005H222.1V1.80005H225.1Z" fill="#636363"/>
<path d="M228.5 4.69995C228.5 4.99995 228.5 5.39995 228.6 5.59995H228L227.8 5.09995C227.6 5.39995 227.2 5.69995 226.6 5.69995C225.8 5.69995 225.4 5.19995 225.4 4.59995C225.4 3.69995 226.2 3.19995 227.7 3.19995V3.09995C227.7 2.79995 227.6 2.19995 226.8 2.19995C226.4 2.19995 226.1 2.29995 225.8 2.49995L225.6 1.99995C225.9 1.79995 226.4 1.69995 226.9 1.69995C228.1 1.69995 228.3 2.49995 228.3 3.19995V4.69995H228.5ZM227.8 3.59995C227 3.59995 226.2 3.69995 226.2 4.49995C226.2 4.99995 226.5 5.19995 226.8 5.19995C227.3 5.19995 227.6 4.89995 227.7 4.59995C227.7 4.49995 227.7 4.39995 227.7 4.39995V3.59995H227.8Z" fill="#636363"/>
<path d="M232.1 3.90005L231.5 5.60005H230.8L232.6 0.300049H233.4L235.2 5.60005H234.5L233.9 3.90005H232.1ZM233.9 3.40005L233.4 1.90005C233.3 1.60005 233.2 1.20005 233.1 0.900047C233 1.20005 232.9 1.50005 232.8 1.90005L232.3 3.40005H233.9Z" fill="#636363"/>
<path d="M237.1 0.900047H235.5V0.300049H239.4V0.900047H237.8V5.60005H237.1V0.900047Z" fill="#636363"/>
<path d="M241.9 3.59995L243 4.99995H242.4L241.4 3.59995L242.4 2.19995H243L241.9 3.59995ZM243.1 3.59995L244.1 4.99995H243.5L242.5 3.59995L243.5 2.19995H244.1L243.1 3.59995Z" fill="#636363"/>
<path d="M247.8 0.300049V0.900047H245.6V5.60005H245V0.300049H247.8Z" fill="#636363"/>
<path d="M251 4.69995C251 4.99995 251 5.39995 251.1 5.59995H250.5L250.4 5.09995C250.2 5.39995 249.8 5.69995 249.2 5.69995C248.4 5.69995 248 5.19995 248 4.59995C248 3.69995 248.8 3.19995 250.3 3.19995V3.09995C250.3 2.79995 250.2 2.19995 249.4 2.19995C249 2.19995 248.7 2.29995 248.4 2.49995L248.2 1.99995C248.5 1.79995 249 1.69995 249.5 1.69995C250.7 1.69995 250.9 2.49995 250.9 3.19995V4.69995H251ZM250.4 3.59995C249.6 3.59995 248.8 3.69995 248.8 4.49995C248.8 4.99995 249.1 5.19995 249.4 5.19995C249.9 5.19995 250.2 4.89995 250.3 4.59995C250.3 4.49995 250.3 4.39995 250.3 4.39995V3.59995H250.4Z" fill="#636363"/>
<path d="M255 1.80005V5.60005H254.3V2.30005H253V3.30005C253 4.40005 252.9 5.10005 252.4 5.40005C252.2 5.50005 252 5.60005 251.6 5.60005L251.5 5.10005C251.6 5.10005 251.8 5.00005 251.9 4.90005C252.3 4.60005 252.3 4.10005 252.3 3.30005V1.80005H255Z" fill="#636363"/>
<path d="M256.8 1.79995V3.39995C256.8 3.99995 256.8 4.39995 256.8 4.89995C257 4.39995 257.2 4.19995 257.4 3.69995L258.6 1.69995H259.4V5.49995H258.7V3.89995C258.7 3.29995 258.7 2.99995 258.7 2.29995C258.4 2.79995 258.3 3.09995 258.1 3.49995C257.7 4.09995 257.3 4.79995 256.9 5.49995H256.1V1.69995H256.8V1.79995Z" fill="#636363"/>
<path d="M261.1 1.80005V3.10005C261.1 3.60005 261.3 3.90005 261.9 3.90005C262.2 3.90005 262.5 3.80005 262.7 3.60005V1.80005H263.4V5.70005H262.7V4.10005C262.4 4.30005 262 4.40005 261.7 4.40005C261 4.40005 260.4 4.00005 260.4 3.20005V1.80005H261.1Z" fill="#636363"/>
<path d="M266.8 0V1.7C267.9 1.8 268.7 2.5 268.7 3.7C268.7 5 267.9 5.6 266.8 5.7V7.2H266.2V5.7C265.1 5.6 264.3 4.9 264.3 3.7C264.3 2.4 265.1 1.8 266.2 1.7V0H266.8ZM266.2 2.2C265.4 2.3 265 2.9 265 3.7C265 4.5 265.5 5.1 266.2 5.2V2.2ZM266.8 5.2C267.6 5.1 268 4.5 268 3.7C268 2.9 267.5 2.3 266.8 2.2V5.2Z" fill="#636363"/>
<path d="M272.3 4.69995C272.3 4.99995 272.3 5.39995 272.4 5.59995H271.8L271.7 5.09995C271.5 5.39995 271.1 5.69995 270.5 5.69995C269.7 5.69995 269.3 5.19995 269.3 4.59995C269.3 3.69995 270.1 3.19995 271.6 3.19995V3.09995C271.6 2.79995 271.5 2.19995 270.7 2.19995C270.3 2.19995 270 2.29995 269.7 2.49995L269.5 1.99995C269.8 1.79995 270.3 1.69995 270.8 1.69995C272 1.69995 272.2 2.49995 272.2 3.19995V4.69995H272.3ZM271.6 3.59995C270.8 3.59995 270 3.69995 270 4.49995C270 4.99995 270.3 5.19995 270.6 5.19995C271.1 5.19995 271.4 4.89995 271.5 4.59995C271.5 4.49995 271.5 4.39995 271.5 4.39995V3.59995H271.6Z" fill="#636363"/>
<path d="M273.4 3.00005C273.4 2.50005 273.4 2.10005 273.4 1.80005H274V2.50005C274.3 2.00005 274.7 1.80005 275.4 1.80005C276.3 1.80005 277 2.60005 277 3.70005C277 5.10005 276.2 5.70005 275.3 5.70005C274.8 5.70005 274.4 5.50005 274.1 5.10005V7.20005H273.4V3.00005ZM274.1 4.00005C274.1 4.10005 274.1 4.20005 274.1 4.30005C274.2 4.80005 274.6 5.10005 275.1 5.10005C275.8 5.10005 276.3 4.50005 276.3 3.60005C276.3 2.80005 275.9 2.20005 275.2 2.20005C274.7 2.20005 274.3 2.50005 274.2 3.10005C274.2 3.20005 274.2 3.30005 274.2 3.40005V4.00005H274.1Z" fill="#636363"/>
<path d="M277.9 1.79995H278.7L279.4 3.69995C279.5 3.99995 279.7 4.39995 279.7 4.69995C279.8 4.39995 280 3.79995 280.2 3.39995L280.8 1.69995H281.7L282 5.49995H281.3L281.2 3.69995C281.2 3.29995 281.2 2.79995 281.1 2.29995C281 2.59995 280.9 2.89995 280.7 3.49995L280 5.39995H279.5L278.8 3.49995C278.7 3.09995 278.5 2.59995 278.4 2.19995C278.4 2.59995 278.4 3.19995 278.3 3.59995L278.2 5.39995H277.6L277.9 1.79995Z" fill="#636363"/>
<path d="M282.5 2.19995H283.1L284.1 3.59995L283.1 4.99995H282.5L283.5 3.59995L282.5 2.19995ZM283.8 2.19995H284.4L285.4 3.59995L284.4 4.99995H283.8L284.8 3.59995L283.8 2.19995Z" fill="#636363"/>
<path d="M3.89997 38L0.599976 34.8L3.89997 31.4L4.19998 31.6L2.29998 34.8L4.19998 37.9L3.89997 38ZM5.69998 37.5L3.29998 34.7L5.69998 31.9L5.89997 32L4.79998 34.7L5.99998 37.4L5.69998 37.5Z" fill="#557EB9"/>
<path d="M16.5 38.3C16.5 38.4 16.4 38.5 16.3 38.6C16.2 38.6 16.1 38.7 15.9 38.7H13.9C13.7 38.7 13.6 38.7 13.4 38.6C13.3 38.6 13.2 38.5 13.2 38.3C13.2 38.2 13.2 38.2 13.2 38.2C13.2 38.2 13.3 38.2 13.4 38.2C13.5 38.2 13.7 38.2 13.8 38.1C13.9 38 14 37.9 14 37.8C14 37.7 14 37.6 14 37.5C14 37.4 14 37.4 13.9 37.3L13.1 34.6H9.39997L8.49998 37.3C8.49998 37.4 8.49997 37.5 8.39997 37.5C8.39997 37.6 8.39997 37.7 8.39997 37.7C8.39997 38 8.49998 38.2 8.69998 38.2C8.79998 38.2 8.89997 38.2 8.89997 38.2C8.99997 38.2 8.99998 38.3 8.99998 38.4C8.99998 38.6 8.79998 38.7 8.49998 38.7H7.19998C7.09998 38.7 6.89998 38.7 6.79998 38.7C6.69998 38.7 6.59998 38.6 6.59998 38.4C6.59998 38.3 6.69998 38.2 6.79998 38.2C6.89998 38.2 6.99998 38.1 7.19998 38C7.29998 37.9 7.49998 37.6 7.59998 37.3L10.5 28.9C10.6 28.5 10.6 28.2 10.3 28.1C10.1 28 9.99998 27.9 9.99998 27.8C9.99998 27.7 10.1 27.6 10.2 27.5C10.3 27.5 10.5 27.4 10.6 27.4H11.8C11.9 27.4 12.1 27.4 12.2 27.5C12.3 27.5 12.4 27.6 12.4 27.7C12.5 27.8 12.5 27.9 12.6 28.1C12.6 28.3 12.7 28.5 12.8 28.7L15.3 37.1C15.4 37.5 15.5 37.7 15.6 37.8C15.7 37.9 15.8 38 15.9 38C16 38 16.1 38 16.1 38C16.5 38.2 16.5 38.2 16.5 38.3ZM11.6 28.5L9.79998 33.8H13L11.6 28.5Z" fill="#557EB9"/>
<path d="M24.7 34.7C24.7 35.3 24.6 35.8 24.5 36.3C24.3 36.8 24.1 37.2 23.8 37.6C23.5 38 23.1 38.3 22.7 38.5C22.3 38.7 21.8 38.8 21.2 38.8C20.8 38.8 20.4 38.7 20.1 38.6C19.8 38.5 19.5 38.3 19.2 38V41.4C19.2 41.6 19.2 41.6999 19.2 41.7999C19.2 41.9 19.3 42 19.3 42L19.4 42.1C19.5 42.1 19.5 42.1 19.6 42.1C19.7 42.1 19.7 42.1 19.8 42.2V42.2999C19.8 42.4999 19.7 42.6 19.6 42.6C19.5 42.7 19.4 42.7 19.2 42.7H17.8C17.7 42.7 17.5 42.7 17.4 42.6C17.3 42.5 17.2 42.4 17.2 42.2999C17.2 42.1999 17.2 42.2 17.2 42.2C17.2 42.2 17.3 42.1 17.4 42.1C17.5 42.1 17.5 42.1 17.6 42.1C17.7 42.1 17.7 42.1 17.7 42C17.7 41.9 17.8 41.9 17.8 41.7999C17.8 41.6999 17.8 41.5 17.8 41.4V32.3C17.8 32 17.8 31.8 17.7 31.7C17.6 31.6 17.5 31.5 17.3 31.5C17.2 31.5 17.1 31.4 17.1 31.3C17.1 31.2 17.2 31.1 17.3 31C17.4 30.9 17.6 30.9 17.7 30.9H18.7C18.9 30.9 19 31 19.1 31.2C19.1 31.4 19.1 31.6 19.1 31.9C19.3 31.6 19.4 31.4 19.6 31.3C19.8 31.1 20 31 20.2 30.9C20.4 30.8 20.6 30.7 20.9 30.7C21.1 30.7 21.3 30.7 21.5 30.7C21.9 30.7 22.3 30.8 22.7 30.9C23.1 31.1 23.4 31.3 23.7 31.6C24 31.9 24.2 32.3 24.3 32.8C24.7 33.4 24.7 34 24.7 34.7ZM23.3 34.6C23.3 33.7 23.1 33 22.8 32.4C22.5 31.8 22 31.6 21.3 31.6C21 31.6 20.7 31.7 20.4 31.8C20.1 31.9 19.9 32.1 19.8 32.3C19.6 32.5 19.5 32.8 19.4 33C19.3 33.3 19.3 33.6 19.3 33.8V36.1C19.3 36.5 19.4 36.8 19.5 37.1C19.6 37.4 19.7 37.6 19.9 37.8C20.1 38 20.3 38.1 20.5 38.2C20.7 38.3 21 38.3 21.2 38.3C21.9 38.3 22.5 38 22.8 37.4C23.1 36.6 23.3 35.7 23.3 34.6Z" fill="#557EB9"/>
<path d="M31.9 32.2C31.9 32.3 31.9 32.4 31.9 32.5C31.9 32.6 31.9 32.7 31.8 32.9C31.8 33 31.7001 33.1 31.7001 33.2C31.7001 33.3 31.6 33.3 31.5 33.3C31.4 33.3 31.3 33.2 31.3 33.1C31.3 32.9 31.2001 32.8 31.1001 32.6C31.0001 32.4 30.9 32.2 30.8 32.1C30.7 31.9 30.5001 31.9 30.2001 31.9H29.3V37.5C29.3 37.7 29.3 37.8 29.3 37.9C29.3 38 29.4 38.1 29.4 38.1L29.5 38.2H29.6001C29.7001 38.2 29.7 38.2 29.8 38.3L29.9 38.4C29.9 38.6 29.8001 38.7 29.7001 38.7C29.6001 38.8 29.4 38.8 29.3 38.8H27.9C27.8 38.8 27.7 38.8 27.5 38.7C27.4 38.6 27.3 38.5 27.3 38.4V38.3C27.3 38.3 27.4 38.2 27.5 38.2C27.6 38.2 27.6001 38.2 27.7001 38.2C27.8001 38.2 27.8 38.2 27.8 38.1C27.8 38.1 27.9 38 27.9 37.9C27.9 37.8 27.9 37.6 27.9 37.5V31.9H27C26.7 31.9 26.5 32 26.4 32.1C26.3 32.3 26.2001 32.4 26.1001 32.6C26.0001 32.8 26 33 25.9 33.1C25.9 33.3 25.8001 33.3 25.7001 33.3C25.6001 33.3 25.6 33.3 25.5 33.2C25.5 33.1 25.4 33 25.4 32.9C25.4 32.8 25.3 32.7 25.3 32.5C25.3 32.4 25.3 32.3 25.3 32.2V31.7C25.3 31.5 25.3 31.4 25.3 31.3C25.3 31.2 25.4 31.1 25.4 31C25.5 30.9 25.5001 30.9 25.6001 30.9H25.7001C25.8001 30.9 25.8 30.9 25.9 30.9C26 30.9 26.1 30.9 26.3 30.9C26.5 30.9 26.6 30.9 26.9 30.9H29.8C30.3 30.9 30.6 30.9 30.8 30.8C31 30.8 31.1001 30.7 31.2001 30.7C31.3001 30.7 31.4 30.7 31.4 30.8C31.5 30.9 31.5 31 31.5 31.1C31.5 31.2 31.5 31.4 31.5 31.5V32.2H31.9Z" fill="#557EB9"/>
<path d="M39.2999 33.9C39.2999 34.3 39.2 34.5 39.1 34.6C39 34.7 38.8 34.8 38.7 34.8H34.2C34.2 35.2 34.1999 35.6 34.2999 35.9C34.3999 36.3 34.5 36.6 34.6 36.9C34.8 37.2 34.9999 37.5 35.2999 37.7C35.5999 37.9 35.9999 38 36.3999 38C36.8999 38 37.3 37.9 37.6 37.7C37.9 37.5 38.1999 37.2 38.3999 36.9C38.3999 36.8 38.4999 36.8 38.4999 36.7C38.5999 36.6 38.6 36.6 38.7 36.6C38.8 36.6 38.8999 36.6 38.8999 36.7C38.9999 36.7 38.9999 36.8 38.9999 36.9C38.9999 37 38.9999 37 38.9999 37.1C38.9999 37.1 38.9999 37.2 38.8999 37.2C38.7999 37.4 38.5999 37.7 38.3999 37.9C38.1999 38.1 38 38.3 37.7 38.4C37.4 38.5 37.1999 38.6 36.8999 38.7C36.5999 38.8 36.2999 38.8 35.9999 38.8C35.4999 38.8 35.1 38.7 34.7 38.6C34.3 38.4 33.9 38.2 33.7 37.9C33.4 37.6 33.1999 37.2 32.9999 36.7C32.7999 36.2 32.7 35.6 32.7 35C32.7 34.3 32.7999 33.8 32.8999 33.2C33.0999 32.7 33.3 32.3 33.6 31.9C33.9 31.5 34.2 31.3 34.7 31.1C35.1 30.9 35.6 30.8 36.1 30.8C36.6 30.8 36.9999 30.9 37.3999 31C37.7999 31.2 38.0999 31.4 38.3999 31.7C38.6999 32 38.8999 32.3 38.9999 32.7C39.1999 33 39.2999 33.5 39.2999 33.9ZM37.7999 33.5C37.7999 33.3 37.8 33 37.7 32.8C37.6 32.6 37.5999 32.3 37.3999 32.1C37.2999 31.9 37.0999 31.7 36.8999 31.6C36.6999 31.5 36.4 31.4 36.1 31.4C35.7 31.4 35.4 31.5 35.1 31.7C34.9 31.9 34.6999 32.1 34.4999 32.3C34.3999 32.6 34.3 32.8 34.2 33.1C34.2 33.4 34.1 33.6 34.1 33.8C34.1 33.9 34.1 34 34.2 34.1C34.2 34.1 34.2999 34.1 34.3999 34.1H37.1C37.3 34.1 37.4999 34.1 37.4999 34C37.7999 33.9 37.7999 33.7 37.7999 33.5Z" fill="#557EB9"/>
<path d="M47.5 34.7C47.5 35.3 47.4 35.8 47.3 36.3C47.1 36.8 46.9 37.2 46.6 37.6C46.3 38 45.9 38.3 45.5 38.5C45.1 38.7 44.6 38.8 44 38.8C43.6 38.8 43.2 38.7 42.9 38.6C42.6 38.5 42.3 38.3 42 38V41.4C42 41.6 42 41.6999 42 41.7999C42 41.9 42.1 42 42.1 42L42.2 42.1C42.3 42.1 42.3 42.1 42.4 42.1C42.5 42.1 42.5 42.1 42.6 42.2V42.2999C42.6 42.4999 42.5 42.6 42.4 42.6C42.3 42.7 42.2 42.7 42 42.7H40.6C40.5 42.7 40.3 42.7 40.2 42.6C40.1 42.5 40 42.4 40 42.2999C40 42.1999 40 42.2 40 42.2C40 42.2 40.1 42.1 40.2 42.1C40.3 42.1 40.3 42.1 40.4 42.1C40.5 42.1 40.5 42.1 40.5 42C40.5 41.9 40.6 41.9 40.6 41.7999C40.6 41.6999 40.6 41.5 40.6 41.4V32.3C40.6 32 40.6 31.8 40.5 31.7C40.4 31.6 40.3 31.5 40.1 31.5C40 31.5 39.9 31.4 39.9 31.3C39.9 31.2 40 31.1 40.1 31C40.2 30.9 40.4 30.9 40.5 30.9H41.5C41.7 30.9 41.8 31 41.9 31.2C41.9 31.4 41.9 31.6 41.9 31.9C42.1 31.6 42.2 31.4 42.4 31.3C42.6 31.1 42.8 31 43 30.9C43.2 30.8 43.4 30.7 43.7 30.7C43.9 30.7 44.1 30.7 44.3 30.7C44.7 30.7 45.1 30.8 45.5 30.9C45.9 31.1 46.2 31.3 46.5 31.6C46.8 31.9 47 32.3 47.1 32.8C47.5 33.4 47.5 34 47.5 34.7ZM46.1 34.6C46.1 33.7 45.9 33 45.6 32.4C45.3 31.9 44.8 31.6 44.1 31.6C43.8 31.6 43.5 31.7 43.2 31.8C42.9 31.9 42.7 32.1 42.6 32.3C42.4 32.5 42.3 32.8 42.2 33C42.1 33.3 42.1 33.6 42.1 33.8V36.1C42.1 36.5 42.2 36.8 42.3 37.1C42.4 37.4 42.5 37.6 42.7 37.8C42.9 38 43.1 38.1 43.3 38.2C43.5 38.3 43.8 38.3 44 38.3C44.7 38.3 45.3 38 45.6 37.4C45.9 36.6 46.1 35.7 46.1 34.6Z" fill="#557EB9"/>
<path d="M51.2 38.3C51.2 38.5 51.1 38.6 51 38.6C50.9 38.7 50.7 38.7 50.6 38.7H49.2C49.1 38.7 49 38.7 48.8 38.6C48.7 38.5 48.6 38.4 48.6 38.3V38.2C48.6 38.2 48.7 38.1 48.8 38.1C48.9 38.1 48.9 38.1 49 38.1C49.1 38.1 49.1 38.1 49.1 38C49.1 38 49.2 37.9 49.2 37.8C49.2 37.7 49.2 37.5 49.2 37.4V32.5C49.2 32.2 49.2 32 49.1 31.9C49 31.8 48.9 31.7 48.8 31.7C48.7 31.7 48.7 31.7 48.6 31.6C48.5 31.5 48.6 31.5 48.6 31.5C48.6 31.4 48.7 31.3 48.8 31.2C48.9 31.1 49.1 31.1 49.2 31.1H50.2C50.3 31.1 50.4 31.1 50.5 31.2C50.6 31.3 50.6 31.4 50.6 31.5C50.6 31.6 50.6 31.8 50.6 31.9C50.6 32.1 50.6 32.2 50.6 32.4V37.3C50.6 37.5 50.6 37.6 50.6 37.7C50.6 37.8 50.7 37.9 50.7 37.9L50.8 38H50.9C51 38 51.1 38 51.1 38.1C51.2 38.2 51.2 38.2 51.2 38.3ZM50.7 28.9C50.7 29.1 50.6 29.3 50.4 29.5C50.2 29.7 50 29.8 49.8 29.8C49.6 29.8 49.4 29.7 49.2 29.5C49 29.3 48.9 29.1 48.9 28.9C48.9 28.7 49 28.5 49.2 28.3C49.4 28.1 49.6 28 49.8 28C50 28 50.2 28.1 50.4 28.3C50.6 28.5 50.7 28.7 50.7 28.9Z" fill="#557EB9"/>
<path d="M59.4 31.3C59.4 31.5 59.3001 31.6 59.2001 31.6C59.1001 31.6 59.1 31.6 59 31.6C58.9 31.6 58.9 31.6 58.9 31.7C58.9 31.8 58.8 31.8 58.8 31.9C58.8 32 58.7001 32.1 58.6001 32.3L56.7001 38.3C56.5001 38.9 56.3001 39.5 56.1001 40C55.9001 40.5 55.7 41 55.5 41.4C55.3 41.8 55.1 42.1 54.8 42.3C54.6 42.5 54.3001 42.6 54.1001 42.6C53.8001 42.6 53.6 42.5 53.5 42.4C53.4 42.3 53.3 42 53.3 41.7C53.3 41.4 53.4 41.2 53.5 41.1C53.6 41 53.8 40.9 53.9 40.9C54 40.9 54.1001 40.9 54.2001 40.9C54.3001 40.9 54.4001 40.9 54.6001 40.9C54.7001 40.9 54.9 40.9 55 40.8C55.1 40.7 55.2 40.6 55.3 40.5C55.4 40.4 55.4 40.2 55.5 40.1C55.5 39.9 55.6001 39.8 55.6001 39.6C55.6001 39.4 55.6 39.2 55.5 38.9C55.4 38.7 55.3 38.5 55.3 38.2L52.8 32.7C52.7 32.5 52.6001 32.3 52.6001 32.1C52.5001 31.9 52.5 31.8 52.4 31.8C52.3 31.7 52.3001 31.7 52.2001 31.6C52.2001 31.6 52.1 31.6 52 31.6C51.9 31.6 51.9 31.6 51.8 31.5V31.4C51.8 31.2 51.9 31.1 52 31.1C52.1 31 52.3 31 52.4 31H53.9C54 31 54.2 31 54.3 31.1C54.4 31.2 54.5 31.3 54.5 31.4C54.5 31.5 54.5 31.5 54.5 31.5C54.5 31.5 54.4 31.6 54.3 31.6C54.2 31.6 54.2001 31.6 54.1001 31.6C54.0001 31.6 54 31.7 54 31.9C54 32 54 32.1 54 32.2C54 32.3 54.1001 32.5 54.2001 32.8L56.1001 37.8L57.6001 32.4C57.6001 32.3 57.6001 32.2 57.7001 32.1C57.7001 32 57.7001 32 57.7001 31.9C57.7001 31.7 57.6 31.6 57.4 31.6C57.3 31.6 57.2001 31.6 57.2001 31.5V31.4C57.2001 31.2 57.3 31.1 57.4 31.1C57.5 31 57.6 31 57.8 31H58.9C59 31 59.2 31 59.3 31C59.3 31.1 59.4 31.2 59.4 31.3Z" fill="#557EB9"/>
<path d="M69.5 38.3C69.5 38.5 69.4 38.6 69.3 38.6C69.2 38.7 69 38.7 68.9 38.7H67.5C67.4 38.7 67.3 38.7 67.1 38.6C67 38.5 66.9 38.4 66.9 38.3V38.2C66.9 38.2 67 38.1 67.1 38.1H67.2C67.3 38.1 67.3 38.1 67.3 38C67.3 38 67.4 37.9 67.4 37.8C67.4 37.7 67.4 37.5 67.4 37.4V32.5H67.3L64.8 38.3C64.7 38.5 64.6 38.7 64.5 38.8C64.4 38.9 64.3 38.9 64.2 38.9C64.1 38.9 64 38.9 64 38.8C63.9 38.7 63.9 38.6 63.8 38.3L61.3 32.5H61.2V37.4C61.2 37.7 61.2 37.8 61.3 38C61.4 38.1 61.5 38.2 61.6 38.2C61.7 38.2 61.8 38.2 61.8 38.3V38.4C61.8 38.6 61.7 38.7 61.6 38.7C61.5 38.8 61.3 38.8 61.2 38.8H60.3C60.2 38.8 60 38.8 60 38.7C59.9 38.6 59.9 38.5 59.9 38.4C59.9 38.3 60 38.2 60.1 38.2C60.2 38.2 60.3 38.1 60.4 38C60.5 37.9 60.5 37.7 60.5 37.4V32.5C60.5 32.1 60.5 31.9 60.4 31.8C60.3 31.7 60.2 31.7 60.1 31.7C60 31.7 60 31.7 60 31.6C60 31.5 60 31.5 60 31.4C60 31.3 60.1 31.2 60.2 31.1C60.3 31.1 60.4 31 60.6 31H62.1C62.2 31 62.3 31 62.3 31C62.3 31 62.4 31.1 62.5 31.2L64.8 36.9L67.3 31.1C67.4 31 67.4 30.9 67.6 30.9H69C69.2 30.9 69.3 30.9 69.4 31C69.5 31.1 69.6 31.2 69.6 31.3C69.6 31.4 69.6 31.4 69.6 31.4C69.6 31.4 69.5 31.5 69.4 31.5C69.3 31.5 69.3 31.5 69.2 31.5C69.1 31.5 69.1 31.5 69.1 31.6C69.1 31.6 69 31.7 69 31.8C69 31.9 69 32 69 32.2V37.1C69 37.3 69 37.4 69 37.5C69 37.6 69.1 37.7 69.1 37.7L69.2 37.8C69.3 37.8 69.3 37.8 69.4 37.8C69.5 37.8 69.6 37.8 69.6 37.9C69.4 38.2 69.5 38.2 69.5 38.3Z" fill="#557EB9"/>
<path d="M70.8 37.4L72 34.7L70.8 32.1L71 32L73.4 34.8L71 37.6L70.8 37.4ZM72.5 37.8L74.4 34.7L72.5 31.5L72.8 31.3L76.1001 34.7L72.8 37.9L72.5 37.8Z" fill="#557EB9"/>
<path d="M92.1001 33C92.1001 33.6 92 34.1 91.8 34.6C91.6 35.1 91.3001 35.6 90.9001 36C90.5001 36.4 90.0001 36.7 89.4001 36.9C88.8001 37.1 88 37.2 87.2 37.2V37.7C87.2 38 87.3 38.3 87.3 38.4C87.4 38.5 87.5001 38.5 87.6001 38.5C87.7001 38.5 87.8 38.5 87.8 38.5V38.6C87.8 38.7 87.7001 38.8 87.6001 38.9C87.5001 38.9 87.3 38.9 87.2 38.9H85.6001C85.5001 38.9 85.3 38.9 85.2 38.9C85.1 38.9 85 38.8 85 38.6C85 38.5 85 38.5 85 38.5C85 38.5 85.1 38.5 85.2 38.5C85.3 38.5 85.4 38.5 85.5 38.4C85.6 38.3 85.7 38.1 85.7 37.7V37.2C84.8 37.2 84.1 37.1 83.5 36.9C82.9 36.7 82.4 36.4 82 36.1C81.6 35.7 81.3001 35.3 81.1001 34.8C80.9001 34.3 80.8 33.7 80.8 33C80.8 32.3 80.9001 31.7 81.2001 31.2C81.4001 30.7 81.8001 30.3 82.2001 30C82.6001 29.7 83.1001 29.4 83.7001 29.3C84.3001 29.1 84.8001 29.1 85.4001 29.1H85.8V28.7C85.8 28.4 85.7001 28.1 85.6001 28C85.5001 27.9 85.4 27.9 85.3 27.9C85.2 27.9 85.1001 27.9 85.1001 27.8V27.7C85.1001 27.6 85.2 27.5 85.3 27.4C85.4 27.4 85.6 27.4 85.7 27.4H87.3C87.4 27.4 87.5 27.4 87.7 27.4C87.8 27.4 87.9001 27.5 87.9001 27.7C87.9001 27.8 87.9001 27.8 87.9001 27.8C87.9001 27.8 87.8 27.9 87.7 27.9C87.6 27.9 87.5001 27.9 87.4001 28C87.3001 28.1 87.3 28.3 87.3 28.7V29.1H87.7C88.3 29.1 88.9001 29.2 89.4001 29.3C89.9001 29.4 90.4 29.7 90.8 30C91.2 30.3 91.6 30.7 91.8 31.2C91.9 31.7 92.1001 32.3 92.1001 33ZM85.7 29.7H85.4001C84.8001 29.7 84.3 29.8 83.9 30C83.5 30.2 83.2 30.4 82.9 30.7C82.7 31 82.5 31.4 82.4 31.8C82.3 32.2 82.2001 32.7 82.2001 33.2C82.2001 33.6 82.2 34 82.3 34.4C82.4 34.8 82.6 35.2 82.8 35.5C83.1 35.8 83.4 36.1 83.9 36.3C84.3 36.5 84.9001 36.6 85.6001 36.6V29.7H85.7ZM90.6001 33.1C90.6001 32.6 90.5001 32.1 90.4001 31.7C90.3001 31.3 90.1001 30.9 89.9001 30.6C89.7001 30.3 89.3001 30.1 88.9001 29.9C88.5001 29.7 88.0001 29.6 87.4001 29.6H87.1001V36.6C87.8001 36.6 88.4 36.5 88.8 36.3C89.2 36.1 89.6001 35.8 89.9001 35.5C90.2001 35.2 90.3001 34.8 90.4001 34.4C90.5001 33.9 90.6001 33.5 90.6001 33.1Z" fill="#557EB9"/>
<path d="M99.4001 38.3C99.4001 38.4 99.3 38.6 99.2 38.6C99 38.7 98.9 38.7 98.8 38.7C98.7 38.7 98.5001 38.7 98.4001 38.7C98.3001 38.7 98.1 38.7 98 38.6C97.9 38.5 97.8 38.4 97.7 38.3C97.6 38.2 97.6001 38 97.6001 37.7V37.4C97.5001 37.6 97.3 37.8 97.2 38C97 38.2 96.9 38.3 96.7 38.5C96.5 38.6 96.3 38.7 96 38.8C95.7 38.9 95.5001 38.9 95.1001 38.9C94.9001 38.9 94.6001 38.9 94.4001 38.8C94.2001 38.7 94 38.6 93.8 38.5C93.6 38.3 93.5001 38.2 93.4001 37.9C93.3001 37.6 93.3 37.4 93.3 37.1C93.3 36.6 93.4001 36.3 93.6001 36C93.8001 35.7 94.1001 35.5 94.4001 35.3C94.7001 35.1 95.1001 35 95.4001 34.9C95.8001 34.8 96.1 34.7 96.5 34.5C96.8 34.4 97 34.3 97.3 34.2C97.5 34.1 97.7 33.9 97.7 33.7V32.6C97.7 32.5 97.7 32.4 97.7 32.3C97.7 32.2 97.6 32.1 97.5 32C97.4 31.9 97.3 31.8 97.2 31.8C97.1 31.7 96.9 31.7 96.7 31.7C96.3 31.7 95.9 31.8 95.7 32C95.5 32.2 95.3001 32.4 95.1001 32.7C95.1001 32.8 95 32.9 95 33C95 33.1 94.9001 33.2 94.9001 33.3C94.8001 33.4 94.8 33.5 94.7 33.5C94.6 33.6 94.6 33.6 94.5 33.6C94.4 33.6 94.3 33.6 94.3 33.5C94.2 33.4 94.2 33.3 94.2 33.2C94.2 33.1 94.2001 33 94.1001 32.8C94.1001 32.7 94.1001 32.6 94.1001 32.5C94.1001 32.2 94.1 32 94.2 31.8C94.3 31.6 94.4 31.5 94.5 31.4C94.6 31.3 94.8001 31.3 94.9001 31.3C95.0001 31.3 95.2001 31.2 95.4001 31.2C95.7001 31.1 95.9 31.1 96.2 31.1C96.5 31.1 96.7 31.1 97 31.1C97.3 31.1 97.5 31.1 97.8 31.2C98.1 31.2 98.3 31.3 98.5 31.4C98.7 31.5 98.9 31.7 99 31.9C99.1 32.1 99.2 32.4 99.2 32.7V37.5C99.2 37.8 99.2 38 99.3 38.1C99.4 38.2 99.5001 38.3 99.6001 38.3C99.3001 38.1 99.4001 38.2 99.4001 38.3ZM97.5 34.5C97.4 34.6 97.2001 34.7 97.1001 34.8C97.0001 34.9 96.8001 34.9 96.6001 35C96.4001 35.1 96.1001 35.2 95.9001 35.3C95.7001 35.4 95.4 35.5 95.2 35.6C95 35.7 94.8 35.9 94.7 36.1C94.6 36.3 94.5 36.5 94.5 36.8C94.5 36.9 94.5 37 94.5 37.2C94.5 37.3 94.6001 37.5 94.6001 37.6C94.6001 37.7 94.8001 37.8 94.9001 37.9C95.0001 38 95.2001 38 95.4001 38C95.7001 38 95.9001 37.9 96.1001 37.8C96.3001 37.7 96.5 37.6 96.7 37.4C96.9 37.2 97.0001 37.1 97.1001 36.9C97.2001 36.7 97.3001 36.6 97.4001 36.4V34.5H97.5Z" fill="#557EB9"/>
<path d="M107.9 34.7C107.9 35.3 107.8 35.8 107.7 36.3C107.5 36.8 107.3 37.2 107 37.6C106.7 38 106.3 38.3 105.9 38.5C105.5 38.7 105 38.8 104.4 38.8C104 38.8 103.6 38.7 103.3 38.6C103 38.5 102.7 38.3 102.4 38V41.4C102.4 41.6 102.4 41.6999 102.4 41.7999C102.4 41.9 102.5 42 102.5 42L102.6 42.1C102.7 42.1 102.7 42.1 102.8 42.1C102.9 42.1 102.9 42.1 103 42.2V42.2999C103 42.4999 102.9 42.6 102.8 42.6C102.7 42.7 102.6 42.7 102.4 42.7H101C100.9 42.7 100.7 42.7 100.6 42.6C100.5 42.5 100.4 42.4 100.4 42.2999C100.4 42.1999 100.4 42.2 100.4 42.2C100.4 42.2 100.5 42.1 100.6 42.1C100.7 42.1 100.7 42.1 100.8 42.1C100.9 42.1 100.9 42.1 100.9 42C100.9 41.9 101 41.9 101 41.7999C101 41.6999 101 41.5 101 41.4V32.3C101 32 101 31.8 100.9 31.7C100.8 31.6 100.7 31.5 100.5 31.5C100.4 31.5 100.3 31.4 100.3 31.3C100.3 31.2 100.4 31.1 100.5 31C100.6 30.9 100.8 30.9 100.9 30.9H101.9C102.1 30.9 102.2 31 102.3 31.2C102.3 31.4 102.3 31.6 102.3 31.9C102.5 31.6 102.6 31.4 102.8 31.3C103 31.1 103.2 31 103.4 30.9C103.6 30.8 103.8 30.7 104.1 30.7C104.3 30.7 104.5 30.7 104.7 30.7C105.1 30.7 105.5 30.8 105.9 30.9C106.3 31.1 106.6 31.3 106.9 31.6C107.2 31.9 107.4 32.3 107.5 32.8C107.9 33.4 107.9 34 107.9 34.7ZM106.5 34.6C106.5 33.7 106.3 33 106 32.4C105.7 31.9 105.2 31.6 104.5 31.6C104.2 31.6 103.9 31.7 103.6 31.8C103.3 31.9 103.1 32.1 103 32.3C102.8 32.5 102.7 32.8 102.6 33C102.5 33.3 102.5 33.6 102.5 33.8V36.1C102.5 36.5 102.6 36.8 102.7 37.1C102.8 37.4 102.9 37.6 103.1 37.8C103.3 38 103.5 38.1 103.7 38.2C103.9 38.3 104.2 38.3 104.4 38.3C105.1 38.3 105.7 38 106 37.4C106.4 36.6 106.5 35.7 106.5 34.6Z" fill="#557EB9"/>
<path d="M118.5 38.3C118.5 38.5 118.4 38.6 118.3 38.6C118.2 38.7 118 38.7 117.9 38.7H116.5C116.4 38.7 116.3 38.7 116.1 38.6C116 38.5 115.9 38.4 115.9 38.3V38.2C115.9 38.2 116 38.1 116.1 38.1H116.2C116.3 38.1 116.3 38.1 116.3 38C116.3 38 116.4 37.9 116.4 37.8C116.4 37.7 116.4 37.5 116.4 37.4V32.5H116.3L113.8 38.3C113.7 38.5 113.6 38.7 113.5 38.8C113.4 38.9 113.3 38.9 113.2 38.9C113.1 38.9 113 38.9 113 38.8C112.9 38.7 112.9 38.6 112.8 38.3L110.3 32.5H110.2V37.4C110.2 37.7 110.2 37.8 110.3 38C110.4 38.1 110.5 38.2 110.6 38.2C110.7 38.2 110.8 38.2 110.8 38.3V38.4C110.8 38.6 110.7 38.7 110.6 38.7C110.5 38.8 110.3 38.8 110.2 38.8H109.3C109.2 38.8 109 38.8 109 38.7C108.9 38.6 108.9 38.5 108.9 38.4C108.9 38.3 109 38.2 109.1 38.2C109.2 38.2 109.3 38.1 109.4 38C109.5 37.9 109.5 37.7 109.5 37.4V32.5C109.5 32.1 109.5 31.9 109.4 31.8C109.3 31.7 109.2 31.7 109.1 31.7C109 31.7 109 31.7 109 31.6C109 31.5 109 31.5 109 31.4C109 31.3 109.1 31.2 109.2 31.1C109.3 31.1 109.4 31 109.6 31H111.1C111.2 31 111.3 31 111.3 31C111.4 31 111.4 31.1 111.5 31.2L113.8 36.9L116.3 31.1C116.4 31 116.4 30.9 116.6 30.9H118C118.2 30.9 118.3 30.9 118.4 31C118.5 31.1 118.6 31.2 118.6 31.3C118.6 31.4 118.6 31.4 118.6 31.4C118.6 31.4 118.5 31.5 118.4 31.5C118.3 31.5 118.3 31.5 118.2 31.5C118.1 31.5 118.1 31.5 118.1 31.6C118.1 31.6 118 31.7 118 31.8C118 31.9 118 32 118 32.2V37.1C118 37.3 118 37.4 118 37.5C118 37.6 118.1 37.7 118.1 37.7L118.2 37.8C118.3 37.8 118.3 37.8 118.4 37.8C118.5 37.8 118.6 37.8 118.6 37.9C118.5 38.2 118.5 38.2 118.5 38.3Z" fill="#557EB9"/>
<path d="M125.9 38.3C125.9 38.4 125.8 38.6 125.7 38.6C125.5 38.7 125.4 38.7 125.3 38.7C125.2 38.7 125 38.7 124.9 38.7C124.8 38.7 124.6 38.7 124.5 38.6C124.4 38.5 124.3 38.4 124.2 38.3C124.1 38.2 124.1 38 124.1 37.7V37.4C124 37.6 123.8 37.8 123.7 38C123.5 38.2 123.4 38.3 123.2 38.5C123 38.6 122.8 38.7 122.5 38.8C122.2 38.9 122 38.9 121.6 38.9C121.4 38.9 121.1 38.9 120.9 38.8C120.7 38.7 120.5 38.6 120.3 38.5C120.1 38.3 120 38.2 119.9 37.9C119.8 37.6 119.8 37.4 119.8 37.1C119.8 36.6 119.9 36.3 120.1 36C120.3 35.7 120.6 35.5 120.9 35.3C121.2 35.1 121.6 35 121.9 34.9C122.3 34.8 122.6 34.7 123 34.5C123.3 34.4 123.5 34.3 123.8 34.2C124 34.1 124.2 33.9 124.2 33.7V32.6C124.2 32.5 124.2 32.4 124.2 32.3C124.2 32.2 124.1 32.1 124 32C123.9 31.9 123.8 31.8 123.7 31.8C123.6 31.7 123.4 31.7 123.2 31.7C122.8 31.7 122.4 31.8 122.2 32C122 32.2 121.8 32.4 121.6 32.7C121.6 32.8 121.5 32.9 121.5 33C121.5 33.1 121.4 33.2 121.4 33.3C121.3 33.4 121.3 33.5 121.2 33.5C121.1 33.6 121.1 33.6 121 33.6C120.9 33.6 120.8 33.6 120.8 33.5C120.7 33.4 120.7 33.3 120.7 33.2C120.7 33.1 120.7 33 120.6 32.8C120.6 32.7 120.6 32.6 120.6 32.5C120.6 32.2 120.6 32 120.7 31.8C120.8 31.6 120.9 31.5 121 31.4C121.1 31.3 121.3 31.3 121.4 31.3C121.5 31.3 121.7 31.2 121.9 31.2C122.2 31.1 122.4 31.1 122.7 31.1C123 31.1 123.2 31.1 123.5 31.1C123.8 31.1 124 31.1 124.3 31.2C124.6 31.2 124.8 31.3 125 31.4C125.2 31.5 125.4 31.7 125.5 31.9C125.6 32.1 125.7 32.4 125.7 32.7V37.5C125.7 37.8 125.7 38 125.8 38.1C125.9 38.2 126 38.3 126.1 38.3C125.8 38.1 125.9 38.2 125.9 38.3ZM124 34.5C123.9 34.6 123.7 34.7 123.6 34.8C123.5 34.9 123.3 34.9 123.1 35C122.9 35.1 122.6 35.2 122.4 35.3C122.2 35.4 121.9 35.5 121.7 35.6C121.5 35.7 121.3 35.9 121.2 36.1C121.1 36.3 121 36.5 121 36.8C121 36.9 121 37 121 37.2C121 37.3 121.1 37.5 121.1 37.6C121.1 37.7 121.3 37.8 121.4 37.9C121.5 38 121.7 38 121.9 38C122.2 38 122.4 37.9 122.6 37.8C122.8 37.7 123 37.6 123.2 37.4C123.4 37.2 123.5 37.1 123.6 36.9C123.7 36.7 123.8 36.6 123.9 36.4V34.5H124Z" fill="#557EB9"/>
<path d="M134.6 38.7C134.6 38.8 134.6 39 134.6 39.2C134.6 39.4 134.6 39.6 134.5 39.8C134.5 40 134.4 40.2 134.4 40.3C134.3 40.4 134.3 40.5 134.2 40.5C134.1 40.5 134 40.4 134 40.3C134 40.2 133.9 40 133.9 39.9C133.9 39.7 133.8 39.6 133.8 39.4C133.8 39.2 133.7 39.1 133.7 39C133.6 38.8 133.5 38.7 133.3 38.7C133.1 38.6 132.9 38.6 132.6 38.6H127.8C127.7 38.6 127.6 38.6 127.4 38.5C127.3 38.4 127.2 38.3 127.2 38.2V38.1C127.2 38.1 127.3 38 127.4 38C127.5 38 127.5 38 127.6 38C127.7 38 127.7 38 127.7 37.9C127.7 37.9 127.8 37.8 127.8 37.7C127.8 37.6 127.8 37.5 127.8 37.3V32.4C127.8 32.1 127.8 31.8 127.7 31.7C127.6 31.6 127.5 31.6 127.4 31.6C127.3 31.6 127.2 31.5 127.2 31.4C127.2 31.2 127.3 31.1 127.4 31.1C127.5 31 127.7 31 127.8 31H129.2C129.3 31 129.5 31 129.6 31.1C129.7 31.2 129.8 31.3 129.8 31.4C129.8 31.5 129.7 31.6 129.6 31.6C129.5 31.6 129.4 31.6 129.3 31.7C129.2 31.8 129.2 32 129.2 32.4V37.7C129.2 37.8 129.2 37.9 129.2 37.9H129.3H132.1C132.2 37.9 132.2 37.9 132.3 37.9C132.3 37.9 132.3 37.8 132.3 37.7V32.4C132.3 32.2 132.3 32.1 132.3 32C132.3 31.9 132.2 31.8 132.2 31.8C132.2 31.7 132.1 31.7 132.1 31.7C132 31.7 132 31.7 132 31.7C131.9 31.7 131.8 31.6 131.8 31.5C131.8 31.3 131.9 31.2 132 31.2C132.1 31.1 132.3 31.1 132.4 31.1H133.8C134 31.1 134.1 31.1 134.2 31.2C134.3 31.3 134.4 31.4 134.4 31.5C134.4 31.6 134.3 31.7 134.2 31.7C134.1 31.7 134 31.7 133.9 31.8C133.8 31.9 133.8 32.1 133.8 32.5V37.6C133.8 37.7 133.8 37.8 133.8 37.9C133.8 38 133.9 38 133.9 38C134 38 134 38 134.1 38C134.2 38 134.3 38 134.4 38C134.5 38 134.6 38 134.6 38.1C134.7 38.1 134.7 38.2 134.7 38.4V38.7H134.6Z" fill="#557EB9"/>
<path d="M142 33.9C142 34.3 141.9 34.5 141.8 34.6C141.7 34.7 141.5 34.8 141.4 34.8H136.9C136.9 35.2 136.9 35.6 137 35.9C137.1 36.3 137.2 36.6 137.3 36.9C137.5 37.2 137.7 37.5 138 37.7C138.3 37.9 138.7 38 139.1 38C139.6 38 140 37.9 140.3 37.7C140.6 37.5 140.9 37.2 141.1 36.9C141.1 36.8 141.2 36.8 141.2 36.7C141.3 36.6 141.3 36.6 141.4 36.6C141.5 36.6 141.6 36.6 141.6 36.7C141.7 36.7 141.7 36.8 141.7 36.9C141.7 37 141.7 37 141.7 37.1C141.7 37.1 141.7 37.2 141.6 37.2C141.5 37.4 141.3 37.7 141.1 37.9C140.9 38.1 140.7 38.3 140.4 38.4C140.1 38.5 139.9 38.6 139.6 38.7C139.3 38.8 139 38.8 138.7 38.8C138.2 38.8 137.8 38.7 137.4 38.6C137 38.4 136.6 38.2 136.4 37.9C136.1 37.6 135.9 37.2 135.7 36.7C135.5 36.2 135.4 35.6 135.4 35C135.4 34.3 135.5 33.8 135.6 33.2C135.8 32.7 136 32.3 136.3 31.9C136.6 31.5 136.9 31.3 137.4 31.1C137.8 30.9 138.3 30.8 138.8 30.8C139.3 30.8 139.7 30.9 140.1 31C140.5 31.2 140.8 31.4 141.1 31.7C141.4 32 141.6 32.3 141.7 32.7C141.9 33 142 33.5 142 33.9ZM140.5 33.5C140.5 33.3 140.5 33 140.4 32.8C140.3 32.6 140.3 32.3 140.1 32.1C140 31.9 139.8 31.7 139.6 31.6C139.4 31.5 139.1 31.4 138.8 31.4C138.4 31.4 138.1 31.5 137.8 31.7C137.6 31.9 137.4 32.1 137.2 32.3C137.1 32.6 137 32.8 136.9 33.1C136.9 33.4 136.8 33.6 136.8 33.8C136.8 33.9 136.8 34 136.9 34.1C136.9 34.1 137 34.1 137.1 34.1H139.8C140 34.1 140.2 34.1 140.2 34C140.5 33.9 140.5 33.7 140.5 33.5Z" fill="#557EB9"/>
<path d="M149.3 36.5C149.3 37 149.2 37.3 149 37.6C148.8 37.9 148.5 38.1 148.2 38.2C147.9 38.4 147.6 38.5 147.3 38.5C147 38.6 146.7 38.6 146.4 38.6H143.4C143.3 38.6 143.2 38.6 143 38.5C142.9 38.4 142.8 38.3 142.8 38.2V38.1C142.8 38.1 142.9 38 143 38C143.1 38 143.1 38 143.2 38C143.3 38 143.3 38 143.3 37.9C143.3 37.9 143.4 37.8 143.4 37.7C143.4 37.6 143.4 37.4 143.4 37.3V32.4C143.4 32 143.4 31.8 143.3 31.7C143.2 31.6 143.1 31.6 143 31.6C142.9 31.6 142.8 31.5 142.8 31.4C142.8 31.3 142.9 31.2 143 31.1C143.1 31 143.3 31 143.4 31H146.6C146.8 31 147.1 31 147.3 31.1C147.5 31.2 147.8 31.2 148.1 31.3C148.3 31.4 148.6 31.6 148.7 31.8C148.9 32 149 32.3 149 32.7C149 33 148.9 33.3 148.8 33.5C148.7 33.7 148.5 33.9 148.4 34C148.2 34.1 148.1 34.3 147.9 34.3C147.7 34.4 147.6 34.5 147.5 34.5C147.7 34.5 147.9 34.6 148.1 34.7C148.3 34.8 148.5 34.9 148.7 35C148.9 35.1 149 35.3 149.2 35.6C149.3 35.9 149.3 36.2 149.3 36.5ZM147.7 32.9C147.7 32.5 147.6 32.2 147.3 32C147 31.8 146.8 31.7 146.4 31.7H145.6C145.3 31.7 145.1 31.7 145 31.8C144.9 31.8 144.8 32 144.8 32.2V34.4H146.2C146.7 34.4 147 34.3 147.3 34.1C147.5 33.8 147.7 33.4 147.7 32.9ZM147.9 36.4C147.9 36.2 147.9 36.1 147.8 35.9C147.8 35.7 147.7 35.6 147.5 35.5C147.4 35.4 147.2 35.3 147 35.2C146.8 35.1 146.5 35.1 146.2 35.1H144.8V37.4C144.8 37.6 144.8 37.8 144.9 37.9C144.9 38 145.1 38 145.3 38H146.6C146.7 38 146.8 38 146.9 38C147.1 38 147.2 37.9 147.4 37.8C147.6 37.7 147.7 37.5 147.8 37.3C147.9 37.1 147.9 36.8 147.9 36.4Z" fill="#557EB9"/>
<path d="M156.6 32.2C156.6 32.3 156.6 32.4 156.6 32.5C156.6 32.6 156.6 32.7 156.5 32.9C156.5 33 156.4 33.1 156.4 33.2C156.4 33.3 156.3 33.3 156.2 33.3C156.1 33.3 156 33.2 156 33.1C156 32.9 155.9 32.8 155.8 32.6C155.7 32.4 155.6 32.2 155.5 32.1C155.4 31.9 155.2 31.9 154.9 31.9H154V37.5C154 37.7 154 37.8 154 37.9C154 38 154.1 38.1 154.1 38.1L154.2 38.2H154.3C154.4 38.2 154.4 38.2 154.5 38.3L154.6 38.4C154.6 38.6 154.5 38.7 154.4 38.7C154.3 38.8 154.1 38.8 154 38.8H152.6C152.5 38.8 152.4 38.8 152.2 38.7C152.1 38.6 152 38.5 152 38.4V38.3C152 38.3 152.1 38.2 152.2 38.2C152.3 38.2 152.3 38.2 152.4 38.2C152.5 38.2 152.5 38.2 152.5 38.1C152.5 38.1 152.6 38 152.6 37.9C152.6 37.8 152.6 37.6 152.6 37.5V31.9H151.7C151.4 31.9 151.2 32 151.1 32.1C151 32.3 150.9 32.4 150.8 32.6C150.7 32.8 150.7 33 150.6 33.1C150.6 33.3 150.5 33.3 150.4 33.3C150.3 33.3 150.3 33.3 150.2 33.2C150.2 33.1 150.1 33 150.1 32.9C150.1 32.8 150 32.7 150 32.5C150 32.4 150 32.3 150 32.2V31.7C150 31.5 150 31.4 150 31.3C150 31.2 150.1 31.1 150.1 31C150.2 30.9 150.2 30.9 150.3 30.9H150.4C150.5 30.9 150.5 30.9 150.6 30.9C150.7 30.9 150.8 30.9 151 30.9C151.2 30.9 151.3 30.9 151.6 30.9H154.5C155 30.9 155.3 30.9 155.5 30.8C155.7 30.8 155.8 30.7 155.9 30.7C156 30.7 156.1 30.7 156.1 30.8C156.2 30.9 156.2 31 156.2 31.1C156.2 31.2 156.2 31.4 156.2 31.5V32.2H156.6Z" fill="#557EB9"/>
<path d="M164.8 38.3C164.8 38.5 164.7 38.6 164.6 38.6C164.5 38.7 164.3 38.7 164.2 38.7H162.8C162.7 38.7 162.6 38.7 162.4 38.6C162.3 38.5 162.2 38.4 162.2 38.3V38.2C162.2 38.2 162.3 38.1 162.4 38.1C162.5 38.1 162.5 38.1 162.6 38.1C162.7 38.1 162.7 38.1 162.7 38C162.7 38 162.8 37.9 162.8 37.8C162.8 37.7 162.8 37.5 162.8 37.4V33.1L159.5 37.4C159.5 37.5 159.4 37.5 159.4 37.5V37.6C159.4 37.8 159.4 37.9 159.5 38C159.6 38 159.6 38.1 159.7 38.1C159.8 38.1 159.9 38.1 159.9 38.1V38.2C159.9 38.3 159.8 38.4 159.7 38.5C159.6 38.6 159.4 38.6 159.3 38.6H158C157.8 38.6 157.7 38.6 157.6 38.5C157.5 38.4 157.4 38.3 157.4 38.2C157.4 38.1 157.5 38 157.6 38C157.7 38 157.7 38 157.8 38C157.9 38 157.9 38 157.9 37.9C157.9 37.8 158 37.8 158 37.7C158 37.6 158 37.4 158 37.3V32.4C158 32 158 31.8 157.9 31.7C157.8 31.6 157.7 31.6 157.6 31.6C157.5 31.6 157.4 31.5 157.4 31.4C157.4 31.2 157.5 31.1 157.6 31.1C157.7 31 157.9 31 158 31H159.4C159.5 31 159.7 31 159.8 31.1C159.9 31.2 160 31.3 160 31.4C160 31.5 159.9 31.6 159.8 31.6C159.7 31.6 159.6 31.6 159.5 31.7C159.4 31.8 159.4 32 159.4 32.4V36.6L162.7 32.3L162.8 32.2V32.1C162.8 31.9 162.8 31.8 162.7 31.8C162.6 31.8 162.6 31.8 162.5 31.8C162.4 31.8 162.3 31.7 162.3 31.6C162.3 31.4 162.4 31.3 162.5 31.3C162.6 31.2 162.8 31.2 162.9 31.2H164.2C164.4 31.2 164.5 31.2 164.6 31.3C164.7 31.4 164.8 31.5 164.8 31.6C164.8 31.7 164.7 31.8 164.6 31.8C164.5 31.8 164.4 31.8 164.3 31.9C164.2 32 164.2 32.2 164.2 32.6V37.5C164.2 37.7 164.2 37.8 164.2 37.9C164.2 38 164.3 38.1 164.3 38.1L164.4 38.2H164.5C164.6 38.2 164.7 38.2 164.7 38.3C164.8 38.2 164.8 38.2 164.8 38.3Z" fill="#557EB9"/>
<path d="M172.6 38.3C172.6 38.5 172.5 38.6 172.4 38.6C172.3 38.7 172.1 38.7 172 38.7H170.6C170.5 38.7 170.4 38.7 170.2 38.6C170.1 38.5 170 38.4 170 38.3V38.2C170 38.2 170.1 38.1 170.2 38.1C170.3 38.1 170.3 38.1 170.4 38.1C170.5 38.1 170.5 38.1 170.5 38C170.5 38 170.6 37.9 170.6 37.8C170.6 37.7 170.6 37.5 170.6 37.4V35C170.4 35.2 170.2 35.3 170 35.4C169.8 35.5 169.5 35.6 169.3 35.7C169 35.8 168.7 35.8 168.4 35.8C167.7 35.8 167.2 35.6 166.9 35.3C166.6 35 166.5 34.6 166.5 34V32.3C166.5 32 166.5 31.7 166.4 31.6C166.3 31.5 166.2 31.5 166.1 31.5C166 31.5 165.9 31.4 165.9 31.3C165.9 31.1 166 31 166.1 31C166.2 30.9 166.4 30.9 166.5 30.9H167.9C168.1 30.9 168.2 30.9 168.3 31C168.4 31.1 168.5 31.2 168.5 31.3C168.5 31.4 168.4 31.5 168.3 31.5C168.2 31.5 168.1 31.5 168 31.6C167.9 31.7 167.9 31.9 167.9 32.2V33.6C167.9 34 168 34.3 168.2 34.5C168.4 34.7 168.7 34.8 169.2 34.8C169.4 34.8 169.6 34.8 169.8 34.7C170 34.6 170.2 34.5 170.3 34.4C170.5 34.3 170.6 34.2 170.7 34.1C170.8 34 170.8 33.9 170.8 33.8V32.2C170.8 31.9 170.8 31.6 170.7 31.6C170.6 31.5 170.5 31.5 170.4 31.5C170.3 31.5 170.2 31.4 170.2 31.3C170.2 31.1 170.3 31 170.4 31C170.5 30.9 170.7 30.9 170.8 30.9H172.2C172.4 30.9 172.5 30.9 172.6 31C172.7 31.1 172.8 31.2 172.8 31.3C172.8 31.4 172.7 31.5 172.6 31.5C172.5 31.5 172.4 31.5 172.3 31.6C172.2 31.7 172.2 31.9 172.2 32.3V37.2C172.2 37.4 172.2 37.5 172.2 37.6C172.2 37.7 172.3 37.8 172.3 37.8L172.4 37.9C172.5 37.9 172.5 37.9 172.6 37.9C172.7 37.9 172.8 37.9 172.8 38C172.8 38.1 172.6 38.2 172.6 38.3Z" fill="#557EB9"/>
<path d="M180.9 38.3C180.9 38.5 180.8 38.6 180.7 38.6C180.6 38.7 180.4 38.7 180.3 38.7H178.9C178.8 38.7 178.7 38.7 178.5 38.6C178.4 38.5 178.3 38.4 178.3 38.3V38.2C178.3 38.2 178.4 38.1 178.5 38.1H178.6C178.7 38.1 178.7 38.1 178.7 38C178.7 38 178.8 37.9 178.8 37.8C178.8 37.7 178.8 37.5 178.8 37.4V35H175.6V37.4C175.6 37.6 175.6 37.7 175.6 37.8C175.6 37.9 175.7 38 175.7 38L175.8 38.1C175.9 38.1 175.9 38.1 176 38.1C176.1 38.1 176.1 38.1 176.2 38.2V38.3C176.2 38.5 176.1 38.6 176 38.6C175.9 38.7 175.7 38.7 175.6 38.7H174.2C174.1 38.7 174 38.7 173.8 38.6C173.7 38.5 173.6 38.4 173.6 38.3V38.2C173.6 38.2 173.7 38.1 173.8 38.1C173.9 38.1 173.9 38.1 174 38.1C174.1 38.1 174.1 38.1 174.1 38C174.1 38 174.2 37.9 174.2 37.8C174.2 37.7 174.2 37.5 174.2 37.4V32.5C174.2 32.1 174.2 31.9 174.1 31.8C174 31.7 173.9 31.7 173.8 31.7C173.7 31.7 173.6 31.6 173.6 31.5C173.6 31.3 173.7 31.2 173.8 31.2C173.9 31.1 174.1 31.1 174.2 31.1H175.6C175.7 31.1 175.9 31.1 176 31.2C176.1 31.3 176.2 31.4 176.2 31.5C176.2 31.6 176.1 31.7 176 31.7C175.9 31.7 175.8 31.7 175.7 31.8C175.6 31.9 175.6 32.1 175.6 32.5V34.3H178.8V32.5C178.8 32.3 178.8 32.2 178.8 32.1C178.8 32 178.7 31.9 178.7 31.9C178.7 31.8 178.6 31.8 178.6 31.8C178.5 31.8 178.5 31.8 178.5 31.8C178.4 31.8 178.3 31.7 178.3 31.6C178.3 31.4 178.4 31.3 178.5 31.3C178.6 31.2 178.8 31.2 178.9 31.2H180.3C180.5 31.2 180.6 31.2 180.7 31.3C180.8 31.4 180.9 31.5 180.9 31.6C180.9 31.7 180.8 31.8 180.7 31.8C180.6 31.8 180.5 31.8 180.4 31.9C180.3 32 180.3 32.2 180.3 32.6V37.5C180.3 37.7 180.3 37.8 180.3 37.9C180.3 38 180.4 38.1 180.4 38.1L180.5 38.2H180.6C180.7 38.2 180.8 38.2 180.8 38.3C180.9 38.2 180.9 38.2 180.9 38.3Z" fill="#557EB9"/>
<path d="M188.2 38.3C188.2 38.4 188.1 38.6 188 38.6C187.8 38.7 187.7 38.7 187.6 38.7C187.5 38.7 187.3 38.7 187.2 38.7C187.1 38.7 186.9 38.7 186.8 38.6C186.7 38.5 186.6 38.4 186.5 38.3C186.4 38.2 186.4 38 186.4 37.7V37.4C186.3 37.6 186.1 37.8 186 38C185.8 38.2 185.7 38.3 185.5 38.5C185.3 38.6 185.1 38.7 184.8 38.8C184.5 38.9 184.3 38.9 183.9 38.9C183.7 38.9 183.4 38.9 183.2 38.8C183 38.7 182.8 38.6 182.6 38.5C182.4 38.3 182.3 38.2 182.2 37.9C182.1 37.6 182.1 37.4 182.1 37.1C182.1 36.6 182.2 36.3 182.4 36C182.6 35.7 182.9 35.5 183.2 35.3C183.5 35.1 183.9 35 184.2 34.9C184.6 34.8 184.9 34.7 185.3 34.5C185.6 34.4 185.8 34.3 186.1 34.2C186.3 34.1 186.5 33.9 186.5 33.7V32.6C186.5 32.5 186.5 32.4 186.5 32.3C186.5 32.2 186.4 32.1 186.3 32C186.2 31.9 186.1 31.8 186 31.8C185.9 31.7 185.7 31.7 185.5 31.7C185.1 31.7 184.7 31.8 184.5 32C184.3 32.2 184.1 32.4 183.9 32.7C183.9 32.8 183.8 32.9 183.8 33C183.8 33.1 183.7 33.2 183.7 33.3C183.6 33.4 183.6 33.5 183.5 33.5C183.4 33.6 183.4 33.6 183.3 33.6C183.2 33.6 183.1 33.6 183.1 33.5C183 33.4 183 33.3 183 33.2C183 33.1 183 33 182.9 32.8C182.9 32.7 182.9 32.6 182.9 32.5C182.9 32.2 182.9 32 183 31.8C183.1 31.6 183.2 31.5 183.3 31.4C183.4 31.3 183.6 31.3 183.7 31.3C183.8 31.3 184 31.2 184.2 31.2C184.5 31.1 184.7 31.1 185 31.1C185.3 31.1 185.5 31.1 185.8 31.1C186.1 31.1 186.3 31.1 186.6 31.2C186.9 31.2 187.1 31.3 187.3 31.4C187.5 31.5 187.7 31.7 187.8 31.9C187.9 32.1 188 32.4 188 32.7V37.5C188 37.8 188 38 188.1 38.1C188.2 38.2 188.3 38.3 188.4 38.3C188.2 38.1 188.2 38.2 188.2 38.3ZM186.4 34.5C186.3 34.6 186.1 34.7 186 34.8C185.9 34.9 185.7 34.9 185.5 35C185.3 35.1 185 35.2 184.8 35.3C184.6 35.4 184.3 35.5 184.1 35.6C183.9 35.7 183.7 35.9 183.6 36.1C183.5 36.3 183.4 36.5 183.4 36.8C183.4 36.9 183.4 37 183.4 37.2C183.4 37.3 183.5 37.5 183.5 37.6C183.5 37.7 183.7 37.8 183.8 37.9C183.9 38 184.1 38 184.3 38C184.6 38 184.8 37.9 185 37.8C185.2 37.7 185.4 37.6 185.6 37.4C185.8 37.2 185.9 37.1 186 36.9C186.1 36.7 186.2 36.6 186.3 36.4V34.5H186.4Z" fill="#557EB9"/>
<path d="M201.7 38.2C201.7 38.3 201.6 38.5 201.5 38.6C201.3 38.7 201.1 38.8 200.8 38.8C200.7 38.8 200.5 38.8 200.4 38.8C200.3 38.8 200.1 38.7 200 38.7C199.9 38.6 199.7 38.5 199.6 38.3C199.5 38.1 199.3 37.9 199.1 37.6C198.8 37.1 198.5 36.7 198.2 36.2C197.9 35.8 197.6 35.3 197.3 34.8C197 34.4 196.7 34 196.5 33.7C196.3 33.4 196.1 33.2 196 33.1C195.9 33.1 195.9 33.2 195.8 33.2C195.7 33.2 195.7 33.3 195.6 33.3C195.5 33.3 195.5 33.4 195.4 33.4V37.4C195.4 37.8 195.5 38 195.6 38.1C195.7 38.2 195.8 38.2 195.9 38.2C196 38.2 196.1 38.2 196.1 38.2V38.3C196.1 38.4 196 38.5 195.9 38.6C195.8 38.6 195.6 38.6 195.5 38.6H193.8C193.7 38.6 193.6 38.6 193.4 38.6C193.3 38.6 193.2 38.5 193.2 38.3C193.2 38.2 193.3 38.1 193.4 38.1C193.5 38.1 193.6 38.1 193.7 38C193.8 37.9 193.9 37.7 193.9 37.3V28.7C193.9 28.5 193.9 28.4 193.9 28.3C193.9 28.2 193.8 28.1 193.8 28.1C193.8 28 193.7 28 193.6 28C193.5 28 193.5 28 193.4 28C193.3 28 193.3 28 193.2 27.9V27.8C193.2 27.7 193.3 27.6 193.4 27.5C193.5 27.5 193.7 27.5 193.8 27.5H195.5C195.6 27.5 195.7 27.5 195.9 27.5C196 27.5 196.1 27.6 196.1 27.8C196.1 27.9 196.1 27.9 196.1 27.9C196.1 27.9 196 28 195.9 28C195.8 28 195.8 28 195.7 28C195.6 28 195.6 28.1 195.5 28.1C195.5 28.2 195.4 28.2 195.4 28.3C195.4 28.4 195.4 28.5 195.4 28.7V32.6C195.6 32.5 195.8 32.4 196.1 32.2C196.3 32.1 196.5 31.9 196.8 31.7C197.1 31.5 197.4 31.3 197.7 31C198 30.7 198.3 30.4 198.5 30.1C198.7 29.8 198.9 29.6 199 29.4C199.1 29.2 199.2 29 199.3 28.8C199.3 28.6 199.4 28.5 199.4 28.4C199.4 28.3 199.4 28.2 199.3 28.1C199.3 28 199.2 28 199.1 28C199 28 199 27.9 198.9 27.9L198.8 27.8C198.8 27.6 198.9 27.5 199 27.5C199.1 27.5 199.3 27.4 199.4 27.4H200.8C201 27.4 201.1 27.4 201.3 27.4C201.4 27.4 201.5 27.5 201.5 27.7C201.5 27.8 201.4 28 201.2 28.2C201 28.4 200.7 28.7 200.4 29.1C200.1 29.5 199.8 29.9 199.5 30.2C199.2 30.5 199 30.8 198.7 31.1C198.5 31.4 198.2 31.6 198 31.8C197.8 32 197.6 32.2 197.3 32.4C197.5 32.6 197.7 32.8 197.8 33.1C198 33.4 198.2 33.7 198.5 34.1C198.8 34.5 199.1 34.9 199.4 35.4C199.7 35.9 200.1 36.4 200.5 37C200.7 37.2 200.8 37.4 201 37.6C201.2 37.7 201.3 37.8 201.4 37.9C201.5 38 201.6 38.1 201.7 38.1C201.7 38 201.7 38.1 201.7 38.2Z" fill="#557EB9"/>
<path d="M209.7 34.8C209.7 35.4 209.6 36 209.4 36.5C209.2 37 208.9 37.4 208.6 37.8C208.3 38.2 207.9 38.4 207.5 38.6C207.1 38.8 206.6 38.9 206.2 38.9C205.6 38.9 205.1 38.8 204.7 38.6C204.3 38.4 203.9 38.1 203.6 37.8C203.3 37.4 203.1 37 202.9 36.5C202.7 36 202.7 35.5 202.7 34.9C202.7 34.3 202.8 33.7 203 33.2C203.2 32.7 203.5 32.3 203.8 31.9C204.1 31.6 204.5 31.3 204.9 31.1C205.3 30.9 205.8 30.8 206.2 30.8C206.8 30.8 207.3 30.9 207.7 31.1C208.1 31.3 208.5 31.6 208.8 31.9C209.1 32.3 209.3 32.7 209.5 33.2C209.7 33.7 209.7 34.2 209.7 34.8ZM208.3 35C208.3 34.5 208.3 34 208.2 33.5C208.1 33.1 208 32.7 207.8 32.4C207.6 32.1 207.4 31.8 207.1 31.7C206.8 31.5 206.5 31.4 206.2 31.4C205.5 31.4 205 31.7 204.6 32.2C204.2 32.7 204 33.5 204 34.5C204 35 204 35.5 204.1 36C204.2 36.4 204.3 36.8 204.5 37.2C204.7 37.5 204.9 37.8 205.2 38C205.5 38.2 205.8 38.3 206.1 38.3C206.8 38.3 207.3 38 207.7 37.5C208.2 36.9 208.3 36.1 208.3 35Z" fill="#557EB9"/>
<path d="M218.3 34.7C218.3 35.3 218.2 35.8 218.1 36.3C217.9 36.8 217.7 37.2 217.4 37.6C217.1 38 216.7 38.3 216.3 38.5C215.9 38.7 215.4 38.8 214.8 38.8C214.4 38.8 214 38.7 213.7 38.6C213.4 38.5 213.1 38.3 212.8 38V41.4C212.8 41.6 212.8 41.6999 212.8 41.7999C212.8 41.9 212.9 42 212.9 42L213 42.1C213.1 42.1 213.1 42.1 213.2 42.1C213.3 42.1 213.3 42.1 213.4 42.2V42.2999C213.4 42.4999 213.3 42.6 213.2 42.6C213.1 42.7 213 42.7 212.8 42.7H211.4C211.3 42.7 211.1 42.7 211 42.6C210.9 42.5 210.8 42.4 210.8 42.2999C210.8 42.1999 210.8 42.2 210.8 42.2C210.8 42.2 210.9 42.1 211 42.1C211.1 42.1 211.1 42.1 211.2 42.1C211.3 42.1 211.3 42.1 211.3 42C211.3 41.9 211.4 41.9 211.4 41.7999C211.4 41.6999 211.4 41.5 211.4 41.4V32.3C211.4 32 211.4 31.8 211.3 31.7C211.2 31.6 211.1 31.5 210.9 31.5C210.8 31.5 210.7 31.4 210.7 31.3C210.7 31.2 210.8 31.1 210.9 31C211 30.9 211.2 30.9 211.3 30.9H212.3C212.5 30.9 212.6 31 212.7 31.2C212.7 31.4 212.7 31.6 212.7 31.9C212.9 31.6 213 31.4 213.2 31.3C213.4 31.1 213.6 31 213.8 30.9C214 30.8 214.2 30.7 214.5 30.7C214.7 30.7 214.9 30.7 215.1 30.7C215.5 30.7 215.9 30.8 216.3 30.9C216.7 31.1 217 31.3 217.3 31.6C217.6 31.9 217.8 32.3 217.9 32.8C218.3 33.4 218.3 34 218.3 34.7ZM216.9 34.6C216.9 33.7 216.7 33 216.4 32.4C216.1 31.8 215.6 31.6 214.9 31.6C214.6 31.6 214.3 31.7 214 31.8C213.7 31.9 213.5 32.1 213.4 32.3C213.2 32.5 213.1 32.8 213 33C212.9 33.3 212.9 33.6 212.9 33.8V36.1C212.9 36.5 213 36.8 213.1 37.1C213.2 37.4 213.3 37.6 213.5 37.8C213.7 38 213.9 38.1 214.1 38.2C214.3 38.3 214.6 38.3 214.8 38.3C215.5 38.3 216.1 38 216.4 37.4C216.7 36.6 216.9 35.7 216.9 34.6Z" fill="#557EB9"/>
<path d="M226.6 31.4C226.6 31.5 226.6 31.5 226.6 31.5C226.6 31.5 226.5 31.6 226.4 31.6C226.3 31.6 226.3 31.6 226.3 31.6C226.3 31.6 226.2 31.6 226.2 31.7C226.2 31.7 226.1 31.8 226.1 31.9C226.1 32 226.1 32.1 226.1 32.3V37.2C226.1 37.4 226.1 37.5 226.1 37.6C226.1 37.7 226.2 37.8 226.2 37.8L226.3 37.9H226.4C226.5 37.9 226.6 37.9 226.6 38V38.1C226.6 38.3 226.5 38.4 226.4 38.4C226.3 38.5 226.1 38.5 226 38.5H224.6C224.5 38.5 224.4 38.5 224.2 38.4C224.1 38.3 224 38.2 224 38.1V38C224 38 224.1 37.9 224.2 37.9H224.3C224.4 37.9 224.4 37.9 224.4 37.8C224.4 37.8 224.5 37.7 224.5 37.6C224.5 37.5 224.5 37.3 224.5 37.2V31.9C224.5 31.8 224.5 31.7 224.5 31.7C224.5 31.7 224.4 31.7 224.3 31.7H221.5C221.4 31.7 221.4 31.7 221.4 31.7C221.4 31.7 221.4 31.8 221.4 31.9V37.2C221.4 37.4 221.4 37.5 221.4 37.6C221.4 37.7 221.5 37.8 221.5 37.8L221.6 37.9C221.7 37.9 221.7 37.9 221.8 37.9C221.9 37.9 221.9 37.9 222 38V38.1C222 38.3 221.9 38.4 221.8 38.4C221.7 38.5 221.5 38.5 221.4 38.5H220C219.9 38.5 219.8 38.5 219.6 38.4C219.5 38.3 219.4 38.2 219.4 38.1V38C219.4 38 219.5 37.9 219.6 37.9C219.7 37.9 219.7 37.9 219.8 37.9C219.9 37.9 219.9 37.9 219.9 37.8C219.9 37.8 220 37.7 220 37.6C220 37.5 220 37.3 220 37.2V32.3C220 31.9 220 31.7 219.9 31.6C219.8 31.5 219.7 31.5 219.6 31.5C219.5 31.5 219.4 31.4 219.4 31.2C219.4 31.1 219.5 31 219.6 30.9C219.7 30.9 219.9 30.8 220 30.8H226C226.2 30.8 226.3 30.8 226.4 30.9C226.5 31.1 226.6 31.2 226.6 31.4Z" fill="#557EB9"/>
<path d="M234.9 34.8C234.9 35.4 234.8 36 234.6 36.5C234.4 37 234.1 37.4 233.8 37.8C233.5 38.2 233.1 38.4 232.7 38.6C232.3 38.8 231.8 38.9 231.4 38.9C230.8 38.9 230.3 38.8 229.9 38.6C229.5 38.4 229.1 38.1 228.8 37.8C228.5 37.4 228.3 37 228.1 36.5C227.9 36 227.9 35.5 227.9 34.9C227.9 34.3 228 33.7 228.2 33.2C228.4 32.7 228.7 32.3 229 31.9C229.3 31.6 229.7 31.3 230.1 31.1C230.5 30.9 231 30.8 231.4 30.8C232 30.8 232.5 30.9 232.9 31.1C233.3 31.3 233.7 31.6 234 31.9C234.3 32.3 234.5 32.7 234.7 33.2C234.8 33.7 234.9 34.2 234.9 34.8ZM233.5 35C233.5 34.5 233.5 34 233.4 33.5C233.3 33.1 233.2 32.7 233 32.4C232.8 32.1 232.6 31.8 232.3 31.7C232 31.5 231.7 31.4 231.4 31.4C230.7 31.4 230.2 31.7 229.8 32.2C229.4 32.7 229.2 33.5 229.2 34.5C229.2 35 229.2 35.5 229.3 36C229.4 36.4 229.5 36.8 229.7 37.2C229.9 37.5 230.1 37.8 230.4 38C230.7 38.2 231 38.3 231.3 38.3C232 38.3 232.5 38 232.9 37.5C233.3 36.9 233.5 36.1 233.5 35Z" fill="#557EB9"/>
<path d="M243.5 34.7C243.5 35.3 243.4 35.8 243.3 36.3C243.1 36.8 242.9 37.2 242.6 37.6C242.3 38 241.9 38.3 241.5 38.5C241.1 38.7 240.6 38.8 240 38.8C239.6 38.8 239.2 38.7 238.9 38.6C238.6 38.5 238.3 38.3 238 38V41.4C238 41.6 238 41.6999 238 41.7999C238 41.9 238.1 42 238.1 42L238.2 42.1C238.3 42.1 238.3 42.1 238.4 42.1C238.5 42.1 238.5 42.1 238.6 42.2V42.2999C238.6 42.4999 238.5 42.6 238.4 42.6C238.3 42.7 238.2 42.7 238 42.7H236.6C236.5 42.7 236.3 42.7 236.2 42.6C236.1 42.5 236 42.4 236 42.2999C236 42.1999 236 42.2 236 42.2C236 42.2 236.1 42.1 236.2 42.1C236.3 42.1 236.3 42.1 236.4 42.1C236.5 42.1 236.5 42.1 236.5 42C236.5 41.9 236.6 41.9 236.6 41.7999C236.6 41.6999 236.6 41.5 236.6 41.4V32.3C236.6 32 236.6 31.8 236.5 31.7C236.4 31.6 236.3 31.5 236.1 31.5C236 31.5 235.9 31.4 235.9 31.3C235.9 31.2 236 31.1 236.1 31C236.2 30.9 236.4 30.9 236.5 30.9H237.5C237.7 30.9 237.8 31 237.9 31.2C237.9 31.4 237.9 31.6 237.9 31.9C238.1 31.6 238.2 31.4 238.4 31.3C238.6 31.1 238.8 31 239 30.9C239.2 30.8 239.4 30.7 239.7 30.7C239.9 30.7 240.1 30.7 240.3 30.7C240.7 30.7 241.1 30.8 241.5 30.9C241.9 31.1 242.2 31.3 242.5 31.6C242.8 31.9 243 32.3 243.1 32.8C243.4 33.4 243.5 34 243.5 34.7ZM242 34.6C242 33.7 241.8 33 241.5 32.4C241.2 31.9 240.7 31.6 240 31.6C239.7 31.6 239.4 31.7 239.1 31.8C238.8 31.9 238.6 32.1 238.5 32.3C238.3 32.5 238.2 32.8 238.1 33C238 33.3 238 33.6 238 33.8V36.1C238 36.5 238.1 36.8 238.2 37.1C238.3 37.4 238.4 37.6 238.6 37.8C238.8 38 239 38.1 239.2 38.2C239.4 38.3 239.7 38.3 239.9 38.3C240.6 38.3 241.2 38 241.5 37.4C241.9 36.6 242 35.7 242 34.6Z" fill="#557EB9"/>
<path d="M250.8 38.3C250.8 38.4 250.7 38.6 250.6 38.6C250.4 38.7 250.3 38.7 250.2 38.7C250.1 38.7 249.9 38.7 249.8 38.7C249.7 38.7 249.5 38.7 249.4 38.6C249.3 38.5 249.2 38.4 249.1 38.3C249 38.2 249 38 249 37.7V37.4C248.9 37.6 248.7 37.8 248.6 38C248.4 38.2 248.3 38.3 248.1 38.5C247.9 38.6 247.7 38.7 247.4 38.8C247.1 38.9 246.9 38.9 246.5 38.9C246.3 38.9 246 38.9 245.8 38.8C245.6 38.7 245.4 38.6 245.2 38.5C245 38.3 244.9 38.2 244.8 37.9C244.7 37.6 244.7 37.4 244.7 37.1C244.7 36.6 244.8 36.3 245 36C245.2 35.7 245.5 35.5 245.8 35.3C246.1 35.1 246.5 35 246.8 34.9C247.2 34.8 247.5 34.7 247.9 34.5C248.2 34.4 248.4 34.3 248.7 34.2C249 34.1 249.1 33.9 249.1 33.7V32.6C249.1 32.5 249.1 32.4 249.1 32.3C249.1 32.2 249 32.1 248.9 32C248.8 31.9 248.7 31.8 248.6 31.8C248.5 31.7 248.3 31.7 248.1 31.7C247.7 31.7 247.3 31.8 247.1 32C246.9 32.2 246.7 32.4 246.5 32.7C246.5 32.8 246.4 32.9 246.4 33C246.4 33.1 246.3 33.2 246.3 33.3C246.2 33.4 246.2 33.5 246.1 33.5C246 33.5 246 33.6 245.9 33.6C245.8 33.6 245.7 33.6 245.7 33.5C245.6 33.4 245.6 33.3 245.6 33.2C245.6 33.1 245.6 33 245.5 32.8C245.5 32.7 245.5 32.6 245.5 32.5C245.5 32.2 245.5 32 245.6 31.8C245.7 31.6 245.8 31.5 245.9 31.4C246 31.3 246.2 31.3 246.3 31.3C246.4 31.3 246.6 31.2 246.8 31.2C247.1 31.1 247.3 31.1 247.6 31.1C247.9 31.1 248.1 31.1 248.4 31.1C248.7 31.1 248.9 31.1 249.2 31.2C249.5 31.2 249.7 31.3 249.9 31.4C250.1 31.5 250.3 31.7 250.4 31.9C250.5 32.1 250.6 32.4 250.6 32.7V37.5C250.6 37.8 250.6 38 250.7 38.1C250.8 38.2 250.9 38.3 251 38.3C250.7 38.1 250.8 38.2 250.8 38.3ZM248.9 34.5C248.8 34.6 248.6 34.7 248.5 34.8C248.4 34.9 248.2 34.9 248 35C247.8 35.1 247.5 35.2 247.3 35.3C247.1 35.4 246.8 35.5 246.6 35.6C246.4 35.7 246.2 35.9 246.1 36.1C246 36.3 245.9 36.5 245.9 36.8C245.9 36.9 245.9 37 245.9 37.2C245.9 37.3 246 37.5 246 37.6C246 37.7 246.2 37.8 246.3 37.9C246.4 38 246.6 38 246.8 38C247.1 38 247.3 37.9 247.5 37.8C247.7 37.7 247.9 37.6 248.1 37.4C248.3 37.2 248.4 37.1 248.5 36.9C248.6 36.7 248.7 36.6 248.8 36.4V34.5H248.9Z" fill="#557EB9"/>
<path d="M259.4 38.7C259.4 38.8 259.4 39 259.4 39.2C259.4 39.4 259.4 39.6 259.3 39.8C259.3 40 259.2 40.2 259.2 40.3C259.1 40.4 259.1 40.5 259 40.5C258.9 40.5 258.8 40.4 258.8 40.3C258.8 40.2 258.7 40 258.7 39.9C258.7 39.7 258.6 39.6 258.6 39.4C258.6 39.2 258.5 39.1 258.5 39C258.4 38.8 258.3 38.7 258.1 38.7C257.9 38.6 257.7 38.6 257.4 38.6H252.6C252.5 38.6 252.4 38.6 252.2 38.5C252.1 38.4 252 38.3 252 38.2V38.1C252 38.1 252.1 38 252.2 38C252.3 38 252.3 38 252.4 38C252.5 38 252.5 38 252.5 37.9C252.5 37.9 252.6 37.8 252.6 37.7C252.6 37.6 252.6 37.5 252.6 37.3V32.4C252.6 32.1 252.6 31.8 252.5 31.7C252.4 31.6 252.3 31.6 252.2 31.6C252.1 31.6 252 31.5 252 31.4C252 31.2 252.1 31.1 252.2 31.1C252.3 31 252.5 31 252.6 31H254C254.1 31 254.3 31 254.4 31.1C254.5 31.2 254.6 31.3 254.6 31.4C254.6 31.5 254.5 31.6 254.4 31.6C254.3 31.6 254.2 31.6 254.1 31.7C254 31.8 254 32 254 32.4V37.7C254 37.8 254 37.9 254 37.9H254.1H256.9C257 37.9 257 37.9 257.1 37.9C257.1 37.9 257.1 37.8 257.1 37.7V32.4C257.1 32.2 257.1 32.1 257.1 32C257.1 31.9 257 31.8 257 31.8C257 31.7 256.9 31.7 256.9 31.7C256.8 31.7 256.8 31.7 256.8 31.7C256.7 31.7 256.6 31.6 256.6 31.5C256.6 31.3 256.7 31.2 256.8 31.2C256.9 31.1 257.1 31.1 257.2 31.1H258.6C258.8 31.1 258.9 31.1 259 31.2C259.1 31.3 259.2 31.4 259.2 31.5C259.2 31.6 259.1 31.7 259 31.7C258.9 31.7 258.8 31.7 258.7 31.8C258.6 31.9 258.6 32.1 258.6 32.5V37.6C258.6 37.7 258.6 37.8 258.6 37.9C258.6 38 258.7 38 258.7 38C258.8 38 258.8 38 258.9 38C259 38 259.1 38 259.2 38C259.3 38 259.4 38 259.4 38.1C259.5 38.1 259.5 38.2 259.5 38.4V38.7H259.4Z" fill="#557EB9"/>
<path d="M263 38.3C263 38.5 262.9 38.6 262.8 38.6C262.7 38.7 262.5 38.7 262.4 38.7H261C260.9 38.7 260.8 38.7 260.6 38.6C260.5 38.5 260.4 38.4 260.4 38.3V38.2C260.4 38.2 260.5 38.1 260.6 38.1C260.7 38.1 260.7 38.1 260.8 38.1C260.9 38.1 260.9 38.1 260.9 38C260.9 38 261 37.9 261 37.8C261 37.7 261 37.5 261 37.4V32.5C261 32.2 261 32 260.9 31.9C260.8 31.8 260.7 31.7 260.6 31.7C260.5 31.7 260.5 31.7 260.4 31.6V31.5C260.4 31.4 260.5 31.3 260.6 31.2C260.7 31.1 260.9 31.1 261 31.1H262C262.1 31.1 262.2 31.1 262.3 31.2C262.4 31.3 262.4 31.4 262.4 31.5C262.4 31.6 262.4 31.8 262.4 31.9C262.4 32.1 262.4 32.2 262.4 32.4V37.3C262.4 37.5 262.4 37.6 262.4 37.7C262.4 37.8 262.5 37.9 262.5 37.9L262.6 38H262.7C262.8 38 262.9 38 262.9 38.1C263 38.2 263 38.2 263 38.3ZM262.4 28.9C262.4 29.1 262.3 29.3 262.1 29.5C261.9 29.7 261.7 29.8 261.5 29.8C261.3 29.8 261.1 29.7 260.9 29.5C260.7 29.3 260.6 29.1 260.6 28.9C260.6 28.7 260.7 28.5 260.9 28.3C261.1 28.1 261.3 28 261.5 28C261.7 28 261.9 28.1 262.1 28.3C262.3 28.5 262.4 28.7 262.4 28.9Z" fill="#557EB9"/>
<path d="M270.7 38.3C270.7 38.5 270.6 38.6 270.5 38.6C270.4 38.7 270.2 38.7 270.1 38.7H268.7C268.6 38.7 268.5 38.7 268.3 38.6C268.2 38.5 268.1 38.4 268.1 38.3V38.2C268.1 38.2 268.2 38.1 268.3 38.1C268.4 38.1 268.4 38.1 268.5 38.1C268.6 38.1 268.6 38.1 268.6 38C268.6 38 268.7 37.9 268.7 37.8C268.7 37.7 268.7 37.5 268.7 37.4V35.6C268.6 35.6 268.5 35.6 268.4 35.6C268.3 35.6 268.2 35.6 268.1 35.6C268 35.6 267.9 35.6 267.8 35.6C267.7 35.7 267.6 35.9 267.4 36.1C267.3 36.3 267 36.6 266.7 37C266.5 37.3 266.3 37.5 266.1 37.8C265.9 38 265.8 38.2 265.6 38.4C265.4 38.6 265.3 38.7 265.1 38.7C264.9 38.8 264.7 38.8 264.5 38.8C264.4 38.8 264.3 38.8 264.3 38.8C264.2 38.8 264.1 38.8 264 38.7C263.9 38.7 263.9 38.6 263.8 38.6C263.7 38.5 263.7 38.5 263.7 38.4C263.7 38.3 263.7 38.3 263.8 38.2C263.9 38.1 263.9 38.1 264 38C264.1 37.9 264.2 37.8 264.4 37.7C264.6 37.6 264.7 37.4 265 37.1L266.4 35.5C266.1 35.4 265.9 35.4 265.6 35.3C265.4 35.2 265.1 35 265 34.9C264.8 34.7 264.7 34.5 264.6 34.2C264.5 33.9 264.4 33.6 264.4 33.3C264.4 32.8 264.5 32.4 264.7 32.1C264.9 31.8 265.1 31.6 265.4 31.4C265.7 31.2 266 31.1 266.4 31.1C266.8 31.1 267.1 31 267.4 31H270C270.2 31 270.3 31 270.4 31.1C270.5 31.2 270.6 31.3 270.6 31.4C270.6 31.5 270.5 31.6 270.4 31.6C270.3 31.6 270.3 31.6 270.2 31.6C270.1 31.6 270.1 31.6 270.1 31.7C270.1 31.7 270 31.8 270 31.9C270 32 270 32.2 270 32.3V37.2C270 37.4 270 37.5 270 37.6C270 37.7 270.1 37.8 270.1 37.8L270.2 37.9C270.3 37.9 270.3 37.9 270.4 37.9C270.5 37.9 270.5 37.9 270.6 38C270.7 38.2 270.7 38.2 270.7 38.3ZM268.8 32.2C268.8 32 268.8 31.9 268.7 31.8C268.7 31.7 268.5 31.7 268.4 31.7H267.6C267.5 31.7 267.3 31.7 267.1 31.7C266.9 31.7 266.7 31.8 266.6 31.9C266.5 32 266.3 32.2 266.2 32.4C266.1 32.6 266 32.9 266 33.3C266 33.7 266.1 34 266.2 34.2C266.3 34.4 266.5 34.6 266.6 34.7C266.8 34.8 267 34.9 267.2 35C267.4 35 267.6 35.1 267.9 35.1C268.3 35.1 268.5 35.1 268.6 35C268.7 34.9 268.8 34.8 268.8 34.7V32.2Z" fill="#557EB9"/>
<path d="M10.6 50.3C10.6 50.4 10.5 50.5 10.4 50.5C10.3 50.5 10.2 50.5 10.1 50.6C10 50.7 9.9 50.9 9.8 51.2L8.5 56.8C8.4 57.4 8.1 57.6 7.8 57.6C7.6 57.6 7.5 57.5 7.3 57.4C7.2 57.2 7 57 6.9 56.6L5.3 51.9L3.5 56.8C3.4 57.1 3.2 57.4 3.1 57.5C3 57.6 2.8 57.7 2.6 57.7C2.5 57.7 2.3 57.6 2.2 57.4C2.1 57.2 2 57 2 56.7L0.899998 51.6C0.799998 51.1 0.699998 50.8 0.599998 50.7C0.499998 50.6 0.400001 50.5 0.200001 50.5C0.100001 50.5 0 50.4 0 50.3C0 50.1 0.100001 50 0.200001 50C0.300001 49.9 0.499998 49.9 0.599998 49.9H2.1C2.2 49.9 2.4 49.9 2.5 50C2.6 50.1 2.7 50.2 2.7 50.3C2.7 50.4 2.7 50.4 2.7 50.4C2.7 50.4 2.6 50.5 2.5 50.5C2.4 50.5 2.3 50.6 2.3 50.7C2.3 50.8 2.2 50.9 2.2 51C2.2 51.1 2.2 51.2 2.2 51.4C2.2 51.6 2.3 51.8 2.3 51.9L3.1 55.9L5.1 50.7C5.2 50.4 5.3 50.3 5.4 50.2C5.5 50.1 5.6 50.1 5.7 50.1C5.8 50.1 5.9 50.2 6 50.3C6.1 50.4 6.1 50.6 6.2 50.9L8 56L8.9 51.5C8.9 51.4 8.9 51.4 8.9 51.3C8.9 51.2 8.9 51.2 8.9 51.1C8.9 51 8.9 50.9 8.8 50.8C8.7 50.7 8.7 50.7 8.6 50.7C8.5 50.7 8.5 50.7 8.5 50.6V50.5C8.5 50.3 8.6 50.2 8.7 50.2C8.8 50.1 8.9 50.1 9.1 50.1H10.1C10.2 50.1 10.3 50.1 10.5 50.2C10.5 50 10.6 50.1 10.6 50.3Z" fill="#636363"/>
<path d="M21.4 50.3C21.4 50.4 21.3001 50.5 21.2001 50.5C21.1 50.5 21 50.5 20.9 50.6C20.8 50.7 20.7 50.9 20.6 51.2L19.3 56.8C19.2 57.4 18.9 57.6 18.6 57.6C18.4 57.6 18.3 57.5 18.1 57.4C18 57.2 17.8001 57 17.7001 56.6L16.1 51.9L14.3 56.8C14.2 57.1 14 57.4 13.9 57.5C13.8 57.6 13.6 57.7 13.4 57.7C13.3 57.7 13.1 57.6 13 57.4C12.9 57.2 12.8 57 12.8 56.7L11.7001 51.6C11.6001 51.1 11.5 50.8 11.4 50.7C11.3 50.6 11.2 50.5 11 50.5C10.9 50.5 10.8 50.4 10.8 50.3C10.8 50.1 10.9 50 11 50C11.1 49.9 11.3 49.9 11.4 49.9H12.9C13 49.9 13.2 49.9 13.3 50C13.4 50.1 13.5 50.2 13.5 50.3C13.5 50.4 13.5 50.4 13.5 50.4C13.5 50.4 13.4 50.5 13.3 50.5C13.2 50.5 13.1 50.6 13.1 50.7C13.1 50.8 13 50.9 13 51C13 51.1 13 51.2 13 51.4C13 51.6 13.1 51.8 13.1 51.9L13.9 55.9L15.9 50.7C16 50.4 16.1001 50.3 16.2001 50.2C16.3001 50.1 16.4 50.1 16.5 50.1C16.6 50.1 16.7 50.2 16.8 50.3C16.9 50.4 16.9 50.6 17 50.9L18.8 56L19.7001 51.5C19.7001 51.4 19.7001 51.4 19.7001 51.3C19.7001 51.2 19.7001 51.2 19.7001 51.1C19.7001 51 19.7 50.9 19.6 50.8C19.5 50.7 19.5 50.7 19.4 50.7C19.3 50.7 19.3 50.7 19.3 50.6V50.5C19.3 50.3 19.4 50.2 19.5 50.2C19.6 50.1 19.7 50.1 19.9 50.1H20.9C21 50.1 21.1 50.1 21.3 50.2C21.4 50 21.4 50.1 21.4 50.3Z" fill="#636363"/>
<path d="M32.2999 50.3C32.2999 50.4 32.2 50.5 32.1 50.5C32 50.5 31.9 50.5 31.7999 50.6C31.6999 50.7 31.5999 50.9 31.4999 51.2L30.2 56.8C30.1 57.4 29.7999 57.6 29.4999 57.6C29.2999 57.6 29.1999 57.5 28.9999 57.4C28.8999 57.2 28.7 57 28.6 56.6L26.9999 51.9L25.2 56.8C25.1 57.1 24.8999 57.4 24.7999 57.5C24.6999 57.6 24.4999 57.7 24.2999 57.7C24.1999 57.7 23.9999 57.6 23.8999 57.4C23.7999 57.2 23.7 57 23.7 56.7L22.6 51.6C22.5 51.1 22.3999 50.8 22.2999 50.7C22.1999 50.6 22.0999 50.5 21.8999 50.5C21.7999 50.5 21.7 50.4 21.7 50.3C21.7 50.1 21.7999 50 21.8999 50C21.9999 49.9 22.1999 49.9 22.2999 49.9H23.7999C23.8999 49.9 24.1 49.9 24.2 50C24.3 50.1 24.3999 50.2 24.3999 50.3C24.3999 50.4 24.3999 50.4 24.3999 50.4C24.3999 50.4 24.3 50.5 24.2 50.5C24.1 50.5 23.9999 50.6 23.9999 50.7C23.9999 50.8 23.8999 50.9 23.8999 51C23.8999 51.1 23.8999 51.2 23.8999 51.4C23.8999 51.6 23.9999 51.8 23.9999 51.9L24.7999 55.9L26.7999 50.7C26.8999 50.4 27 50.3 27.1 50.2C27.2 50.1 27.2999 50.1 27.3999 50.1C27.4999 50.1 27.6 50.2 27.7 50.3C27.8 50.4 27.7999 50.6 27.8999 50.9L29.7 56L30.6 51.5C30.6 51.4 30.6 51.4 30.6 51.3C30.6 51.2 30.6 51.2 30.6 51.1C30.6 51 30.5999 50.9 30.4999 50.8C30.3999 50.7 30.4 50.7 30.2999 50.7C30.1999 50.7 30.2 50.7 30.2 50.6V50.5C30.2 50.3 30.2999 50.2 30.3999 50.2C30.4999 50.1 30.5999 50.1 30.7999 50.1H31.7999C31.9 50.1 32 50.1 32.2 50.2C32.3 50 32.2999 50.1 32.2999 50.3Z" fill="#636363"/>
<path d="M35.2 56.7C35.2 57 35.0999 57.2 34.8999 57.4C34.6999 57.6 34.5 57.7 34.2 57.7C33.9 57.7 33.6999 57.6 33.4999 57.4C33.2999 57.2 33.2 57 33.2 56.7C33.2 56.4 33.2999 56.2 33.4999 56C33.6999 55.8 33.9 55.7 34.2 55.7C34.5 55.7 34.6999 55.8 34.8999 56C35.0999 56.2 35.2 56.4 35.2 56.7Z" fill="#636363"/>
<path d="M42.9 57.2C42.9 57.3 42.8001 57.5 42.7001 57.5C42.5001 57.6 42.4 57.6 42.3 57.6C42.2 57.6 42 57.6 41.9 57.6C41.8 57.6 41.6 57.6 41.5 57.5C41.4 57.4 41.3001 57.3 41.2001 57.2C41.1001 57.1 41.1001 56.9 41.1001 56.6V56.3C41.0001 56.5 40.8001 56.7 40.7001 56.9C40.5001 57.1 40.4001 57.2 40.2001 57.4C40.0001 57.5 39.8 57.6 39.5 57.7C39.2 57.8 39.0001 57.8 38.6001 57.8C38.4001 57.8 38.1 57.8 37.9 57.7C37.7 57.6 37.5 57.5 37.3 57.4C37.1 57.2 37 57.1 36.9 56.8C36.8 56.6 36.8 56.3 36.8 56C36.8 55.5 36.9001 55.2 37.1001 54.9C37.3001 54.6 37.6 54.4 37.9 54.2C38.2 54 38.6 53.9 38.9 53.8C39.3 53.7 39.6 53.6 40 53.4C40.3 53.3 40.5 53.2 40.8 53.1C41.1 53 41.2001 52.8 41.2001 52.6V51.5C41.2001 51.4 41.2001 51.3 41.2001 51.2C41.2001 51.1 41.1 51 41 50.9C40.9 50.8 40.8001 50.7 40.7001 50.7C40.6001 50.7 40.4001 50.6 40.2001 50.6C39.8001 50.6 39.4001 50.7 39.2001 50.9C39.0001 51.1 38.8001 51.3 38.6001 51.6C38.6001 51.7 38.5 51.8 38.5 51.9C38.5 52 38.4 52.1 38.4 52.2C38.3 52.3 38.3001 52.4 38.2001 52.4C38.1001 52.5 38.1 52.5 38 52.5C37.9 52.5 37.8 52.5 37.8 52.4C37.7 52.3 37.7001 52.2 37.7001 52.1C37.7001 52 37.7001 51.9 37.6001 51.7C37.6001 51.6 37.6001 51.5 37.6001 51.4C37.6001 51.1 37.6001 50.9 37.7001 50.7C37.8001 50.5 37.9 50.4 38 50.3C38.1 50.2 38.3 50.2 38.4 50.2C38.5 50.2 38.7 50.1 38.9 50.1C39.2 50 39.4001 50 39.7001 50C40.0001 50 40.2 50 40.5 50C40.8 50 41 50 41.3 50.1C41.6 50.1 41.8 50.2 42 50.3C42.2 50.4 42.4 50.6 42.5 50.8C42.6 51 42.7001 51.3 42.7001 51.6V56.4C42.7001 56.7 42.7 56.9 42.8 57C42.9 57.1 43.0001 57.2 43.1001 57.2C42.8001 57 42.9 57.1 42.9 57.2ZM41 53.4C40.9 53.5 40.7001 53.6 40.6001 53.7C40.4001 53.8 40.3001 53.8 40.1001 53.9C39.9001 54 39.6 54.1 39.4 54.2C39.2 54.3 38.9001 54.4 38.7001 54.5C38.5001 54.6 38.3001 54.8 38.2001 55C38.1001 55.2 38 55.4 38 55.7C38 55.8 38 55.9 38 56.1C38 56.2 38.1001 56.4 38.1001 56.5C38.2001 56.6 38.3 56.7 38.4 56.8C38.5 56.9 38.7 56.9 38.9 56.9C39.2 56.9 39.4001 56.8 39.6001 56.7C39.8001 56.6 40.0001 56.5 40.2001 56.3C40.4001 56.1 40.5001 56 40.6001 55.8C40.7001 55.6 40.8 55.5 40.9 55.3V53.4H41Z" fill="#636363"/>
<path d="M49.3 50.5C49.3 50.8 49.2 51.1 49.1 51.2C49 51.4 48.9 51.4 48.7 51.4C48.6 51.4 48.5 51.4 48.5 51.3C48.4 51.2 48.4 51.1 48.3 51.1C48.2 51 48.2 50.9 48.1 50.9C48 50.8 47.9 50.8 47.7 50.8C47.4 50.8 47.2 50.9 47 51C46.8 51.2 46.6 51.4 46.5 51.6C46.4 51.8 46.3 52.1 46.2 52.4C46.1 52.7 46.1 53 46.1 53.3V56.1C46.1 56.3 46.1 56.4 46.1 56.5C46.1 56.6 46.2 56.7 46.2 56.7L46.3 56.8C46.4 56.8 46.4 56.8 46.5 56.8C46.6 56.8 46.6 56.8 46.7 56.9V57C46.7 57.2 46.6 57.3 46.5 57.3C46.4 57.4 46.3 57.4 46.1 57.4H44.7C44.6 57.4 44.4 57.4 44.3 57.3C44.2 57.2 44.1 57.1 44.1 57V56.9C44.1 56.9 44.2 56.8 44.3 56.8C44.4 56.8 44.4 56.8 44.5 56.8C44.6 56.8 44.6 56.8 44.6 56.7C44.6 56.7 44.7 56.6 44.7 56.5C44.7 56.4 44.7 56.2 44.7 56.1V51.2C44.7 50.9 44.7 50.7 44.6 50.6C44.5 50.5 44.4 50.4 44.3 50.4C44.2 50.4 44.1 50.3 44.1 50.2C44.1 50.1 44.2 49.9 44.3 49.9C44.4 49.8 44.6 49.8 44.7 49.8H45.8C45.9 49.8 46 49.8 46 49.9C46 50 46.1 50.1 46.1 50.2C46.1 50.3 46.1 50.5 46.1 50.7C46.1 50.9 46.1 51 46.1 51.2C46.4 50.7 46.7 50.3 47.1 50C47.5 49.7 47.9 49.6 48.4 49.6C48.8 49.6 49.1 49.6 49.2 49.7C49.2 50 49.3 50.2 49.3 50.5Z" fill="#636363"/>
<path d="M54.2 50.3C54.2 50.5 54.1 50.7 54 50.7C53.9 50.8 53.8 50.8 53.7 50.8H52.3V55.2V55.5C52.3 55.6 52.3 55.8 52.3 55.9C52.3 56 52.3 56.2 52.4 56.3C52.4 56.4 52.5 56.5 52.6 56.6C52.7 56.7 52.9 56.8 53 56.8C53.1 56.8 53.3 56.8 53.4 56.8C53.5 56.8 53.5 56.8 53.6 56.8L53.7 56.9C53.7 57.1 53.6 57.2 53.4 57.3C53.2 57.4 53 57.4 52.8 57.4C52.6 57.4 52.3 57.4 52.1 57.4C51.9 57.4 51.7 57.3 51.5 57.2C51.3 57.1 51.2 56.9 51.1 56.6C51 56.3 51 55.9 51 55.5V50.8H50.3C50.1 50.8 50 50.7 50 50.5C50 50.4 50 50.3 50.1 50.2C50.2 50.1 50.3 50.1 50.4 50C50.5 50 50.5 49.9 50.6 49.9C50.7 49.8 50.9 49.7 51 49.5C51.2 49.3 51.3 49.1 51.3 48.8C51.4 48.6 51.4 48.3 51.4 48.1C51.4 47.8 51.5 47.6 51.5 47.4C51.5 47.2 51.7 47.1 51.8 47.1C52 47.1 52.1 47.1 52.1 47.2C52.2 47.3 52.2 47.4 52.2 47.6V50.1H53.9C54 50.1 54 50.1 54.1 50.1C54.2 50.1 54.2 50.2 54.2 50.3Z" fill="#636363"/>
<path d="M61.7999 52.7999C61.7999 53.1999 61.7 53.4 61.6 53.5C61.5 53.6 61.3 53.7 61.2 53.7H56.7C56.7 54.1 56.6999 54.4999 56.7999 54.7999C56.8999 55.1999 57 55.4999 57.1 55.7999C57.3 56.0999 57.4999 56.4 57.7999 56.6C58.0999 56.8 58.4999 56.9 58.8999 56.9C59.3999 56.9 59.8 56.8 60.1 56.6C60.4 56.4 60.6999 56.0999 60.8999 55.7999C60.8999 55.6999 60.9999 55.7 60.9999 55.6C61.0999 55.5 61.1 55.5 61.2 55.5C61.3 55.5 61.3999 55.5 61.3999 55.6C61.4999 55.6 61.4999 55.6999 61.4999 55.7999C61.4999 55.8999 61.4999 55.9 61.4999 56C61.4999 56 61.4999 56.1 61.3999 56.1C61.2999 56.3 61.0999 56.5999 60.8999 56.7999C60.6999 56.9999 60.5 57.1999 60.2 57.2999C59.9 57.3999 59.6999 57.5 59.3999 57.6C59.0999 57.7 58.7999 57.7 58.4999 57.7C57.9999 57.7 57.6 57.6 57.2 57.5C56.8 57.3 56.4 57.0999 56.2 56.7999C56 56.4999 55.6999 56.1 55.4999 55.6C55.2999 55.1 55.2 54.5 55.2 53.9C55.2 53.2 55.2999 52.7 55.3999 52.1C55.5999 51.6 55.8 51.1999 56.1 50.7999C56.4 50.3999 56.7 50.2 57.2 50C57.6 49.8 58.1 49.7 58.6 49.7C59.1 49.7 59.4999 49.8 59.8999 49.9C60.2999 50.1 60.5999 50.3 60.8999 50.6C61.1999 50.9 61.3999 51.2 61.4999 51.6C61.6999 51.9 61.7999 52.2999 61.7999 52.7999ZM60.2999 52.4C60.2999 52.2 60.3 51.9 60.2 51.7C60.1 51.5 60.0999 51.2 59.8999 51C59.7999 50.8 59.5999 50.6 59.3999 50.5C59.1999 50.4 58.9 50.2999 58.6 50.2999C58.2 50.2999 57.9 50.4 57.6 50.6C57.4 50.8 57.1999 51 56.9999 51.2C56.8999 51.5 56.8 51.7 56.7 52C56.7 52.3 56.6 52.5 56.6 52.7C56.6 52.8 56.6 52.9 56.7 53C56.7 53 56.7999 53 56.8999 53H59.6C59.8 53 59.9999 53 59.9999 52.9C60.2999 52.8 60.2999 52.6 60.2999 52.4Z" fill="#636363"/>
<path d="M68.2 50.5C68.2 50.8 68.1 51.1 68 51.2C67.9 51.4 67.8 51.4 67.6 51.4C67.5 51.4 67.4 51.4 67.4 51.3C67.3 51.2 67.3 51.1 67.2 51.1C67.1 51 67.1 50.9 67 50.9C66.9 50.8 66.8 50.8 66.6 50.8C66.3 50.8 66.1 50.9 65.9 51C65.7 51.2 65.5 51.4 65.4 51.6C65.3 51.8 65.2 52.1 65.1 52.4C65 52.7 65 53 65 53.3V56.1C65 56.3 65 56.4 65 56.5C65 56.6 65.1 56.7 65.1 56.7L65.2 56.8C65.3 56.8 65.3 56.8 65.4 56.8C65.5 56.8 65.5 56.8 65.6 56.9V57C65.6 57.2 65.5 57.3 65.4 57.3C65.3 57.4 65.2 57.4 65 57.4H63.6C63.5 57.4 63.3 57.4 63.2 57.3C63.1 57.2 63 57.1 63 57V56.9C63 56.9 63.1 56.8 63.2 56.8C63.3 56.8 63.3 56.8 63.4 56.8C63.5 56.8 63.5 56.8 63.5 56.7C63.5 56.7 63.6 56.6 63.6 56.5C63.6 56.4 63.6 56.2 63.6 56.1V51.2C63.6 50.9 63.6 50.7 63.5 50.6C63.4 50.5 63.3 50.4 63.2 50.4C63.1 50.4 63 50.3 63 50.2C63 50.1 63.1 49.9 63.2 49.9C63.3 49.8 63.5 49.8 63.6 49.8H64.7C64.8 49.8 64.9 49.8 64.9 49.9C64.9 50 65 50.1 65 50.2C65 50.3 65 50.5 65 50.7C65 50.9 65 51 65 51.2C65.3 50.7 65.6 50.3 66 50C66.4 49.7 66.8 49.6 67.3 49.6C67.7 49.6 68 49.6 68.1 49.7C68.1 50 68.2 50.2 68.2 50.5Z" fill="#636363"/>
<path d="M71.5 57.1C71.5 57.3 71.4 57.4 71.3 57.4C71.2 57.5 71 57.5 70.9 57.5H69.5C69.4 57.5 69.3 57.5 69.1 57.4C69 57.3 68.9 57.2 68.9 57.1V57C68.9 57 69 56.9 69.1 56.9C69.2 56.9 69.2 56.9 69.3 56.9C69.4 56.9 69.4 56.9 69.4 56.8C69.4 56.8 69.5 56.7 69.5 56.6C69.5 56.5 69.5 56.3 69.5 56.2V51.3C69.5 51 69.5 50.8 69.4 50.7C69.3 50.6 69.2 50.5 69.1 50.5C69 50.5 69 50.5 68.9 50.4V50.3C68.9 50.2 69 50.1 69.1 50C69.2 49.9 69.4 49.9 69.5 49.9H70.5C70.6 49.9 70.7 49.9 70.8 50C70.9 50.1 70.9 50.2 70.9 50.3C70.9 50.4 70.9 50.6 70.9 50.7C70.9 50.9 70.9 51 70.9 51.2V56.1C70.9 56.3 70.9 56.4 70.9 56.5C70.9 56.6 71 56.7 71 56.7L71.1 56.8H71.2C71.3 56.8 71.4 56.8 71.4 56.9C71.4 57.1 71.5 57.1 71.5 57.1ZM70.9 47.8C70.9 48 70.8 48.2 70.6 48.4C70.4 48.6 70.2 48.7 70 48.7C69.8 48.7 69.6 48.6 69.4 48.4C69.2 48.2 69.1 48 69.1 47.8C69.1 47.6 69.2 47.4 69.4 47.2C69.6 47 69.8 46.9 70 46.9C70.2 46.9 70.4 47 70.6 47.2C70.8 47.4 70.9 47.6 70.9 47.8Z" fill="#636363"/>
<path d="M79.8 57.2C79.8 57.4 79.7 57.5 79.6 57.5C79.5 57.5 79.3 57.6 79.2 57.6H78.2C78.1 57.6 78 57.6 77.9 57.5C77.9 57.4 77.8 57.3 77.8 57.1C77.8 56.9 77.8 56.8 77.8 56.6C77.8 56.4 77.8 56.2 77.8 56C77.6 56.4 77.4 56.7 77.1 56.9C76.9 57.1 76.6 57.3 76.4 57.4C76.2 57.5 75.9 57.6 75.7 57.7C75.5 57.7 75.3 57.8 75 57.8C74.4 57.8 73.9 57.6 73.6 57.2C73.3 56.8 73.2 56.2 73.2 55.4V51.4C73.2 51.2 73.2 51 73.1 50.8C73 50.7 72.9 50.6 72.8 50.6C72.7 50.6 72.7 50.6 72.6 50.5V50.4C72.6 50.3 72.7 50.2 72.8 50.1C72.9 50 73.1 50 73.2 50H74.3C74.4 50 74.4 50 74.5 50.1C74.5 50.2 74.6 50.2 74.6 50.3C74.6 50.4 74.6 50.5 74.6 50.6V50.9V54.8C74.6 55 74.6 55.2 74.6 55.5C74.6 55.7 74.6 56 74.7 56.2C74.8 56.4 74.9 56.6 75.1 56.7C75.3 56.8 75.5 56.9 75.9 56.9C76.2 56.9 76.4 56.8 76.7 56.7C76.9 56.5 77.2 56.3 77.3 56.1C77.5 55.9 77.6 55.6 77.7 55.3C77.8 55 77.9 54.8 77.9 54.5V51.4C77.9 51.2 77.8 51 77.8 50.8C77.7 50.7 77.6 50.6 77.5 50.6C77.4 50.6 77.4 50.6 77.3 50.5V50.4C77.3 50.3 77.4 50.2 77.5 50.1C77.6 50 77.8 50 77.9 50H79C79.2 50 79.2 50.1 79.3 50.3C79.3 50.5 79.3 50.6 79.3 50.8V56.1C79.3 56.4 79.3 56.6 79.4 56.7C79.5 56.8 79.6 56.9 79.7 56.9C79.8 56.9 79.9 56.9 79.9 57C79.8 57.1 79.8 57.1 79.8 57.2Z" fill="#636363"/>
<path d="M91.9 57.1C91.9 57.3 91.8 57.4 91.7 57.4C91.6 57.5 91.4 57.5 91.3 57.5H89.8C89.7 57.5 89.5 57.5 89.4 57.4C89.3 57.3 89.2 57.2 89.2 57.1V57C89.2 57 89.3 56.9 89.4 56.9H89.5C89.6 56.9 89.6 56.9 89.6 56.8C89.6 56.7 89.7 56.7 89.7 56.6C89.7 56.5 89.7 56.3 89.7 56.2V53.1C89.7 52.7 89.7 52.4 89.7 52.1C89.7 51.8 89.6 51.6 89.6 51.4C89.5 51.2 89.4 51 89.3 50.9C89.2 50.8 89 50.7 88.7 50.7C88.2 50.7 87.8 51 87.4 51.5C87 52 86.9 52.8 86.9 53.7V56.3C86.9 56.5 86.9 56.6 86.9 56.7C86.9 56.8 87 56.9 87 56.9L87.1 57H87.2C87.3 57 87.3 57 87.4 57.1V57.2C87.4 57.4 87.3 57.5 87.2 57.5C87.1 57.6 86.9 57.6 86.8 57.6H85.4C85.3 57.6 85.1 57.6 85 57.5C84.9 57.4 84.8 57.3 84.8 57.2V57.1C84.8 57.1 84.9 57 85 57C85.1 57 85.1 57 85.2 57C85.3 57 85.3 57 85.3 56.9C85.3 56.8 85.4 56.8 85.4 56.7C85.4 56.6 85.4 56.4 85.4 56.3V53.1C85.4 52.7 85.4 52.3 85.4 52C85.4 51.7 85.3 51.5 85.3 51.3C85.2 51.1 85.1 51 85 50.9C84.9 50.8 84.7 50.8 84.5 50.8C84.3 50.8 84 50.9 83.8 51C83.6 51.1 83.4 51.3 83.2 51.6C83 51.9 82.9 52.2 82.8 52.5C82.7 52.8 82.6 53.2 82.6 53.6V56.2C82.6 56.4 82.6 56.5 82.6 56.6C82.6 56.7 82.7 56.8 82.7 56.8L82.8 56.9C82.9 56.9 82.9 56.9 83 56.9C83.1 56.9 83.1 56.9 83.2 57V57.1C83.2 57.3 83.1 57.4 83 57.4C82.9 57.5 82.7 57.5 82.6 57.5H81.2C81.1 57.5 81 57.5 80.8 57.4C80.7 57.3 80.6 57.2 80.6 57.1V57C80.6 57 80.7 56.9 80.8 56.9C80.9 56.9 80.9 56.9 81 56.9C81.1 56.9 81.1 56.9 81.1 56.8C81.1 56.8 81.2 56.7 81.2 56.6C81.2 56.5 81.2 56.3 81.2 56.2V51.3C81.2 51 81.2 50.9 81.1 50.7C81 50.6 80.9 50.5 80.8 50.5C80.7 50.5 80.6 50.4 80.6 50.3C80.6 50.2 80.7 50.1 80.8 50C80.9 49.9 81.1 49.9 81.2 49.9H82.2C82.3 49.9 82.4 49.9 82.5 50C82.5 50.1 82.6 50.2 82.6 50.3C82.6 50.4 82.6 50.6 82.6 50.8C82.6 51 82.6 51.2 82.6 51.4C82.7 51.2 82.8 51 83 50.8C83.2 50.6 83.4 50.4 83.6 50.2C83.8 50 84.1 49.9 84.3 49.8C84.6 49.7 84.8 49.6 85.2 49.6C85.6 49.6 85.9 49.7 86.1 49.9C86.3 50.1 86.5 50.3 86.6 50.5C86.7 50.8 86.8 51.1 86.8 51.4C86.9 51.2 87.1 50.9 87.3 50.7C87.5 50.5 87.7 50.3 87.9 50.1C88.1 49.9 88.4 49.8 88.6 49.7C88.9 49.6 89.1 49.6 89.4 49.6C90.1 49.6 90.5 49.8 90.7 50.2C90.9 50.6 91.1 51.2 91.1 52V56.1C91.1 56.3 91.1 56.4 91.1 56.5C91.1 56.6 91.2 56.7 91.2 56.7L91.3 56.8H91.4C91.5 56.8 91.6 56.8 91.6 56.9C91.9 57.1 91.9 57.1 91.9 57.1Z" fill="#636363"/>
<path d="M95.2 56.7C95.2 57 95.1 57.2 94.9 57.4C94.7 57.6 94.5 57.7 94.2 57.7C93.9 57.7 93.7 57.6 93.5 57.4C93.3 57.2 93.2 57 93.2 56.7C93.2 56.4 93.3 56.2 93.5 56C93.7 55.8 93.9 55.7 94.2 55.7C94.5 55.7 94.7 55.8 94.9 56C95.1 56.2 95.2 56.4 95.2 56.7Z" fill="#636363"/>
<path d="M103.8 57.2C103.8 57.4 103.7 57.5 103.6 57.5C103.5 57.5 103.3 57.6 103.2 57.6H102.2C102.1 57.6 102 57.6 101.9 57.5C101.9 57.4 101.8 57.3 101.8 57.1C101.8 56.9 101.8 56.8 101.8 56.6C101.8 56.4 101.8 56.2 101.8 56C101.6 56.4 101.4 56.7 101.1 56.9C100.9 57.1 100.6 57.3 100.4 57.4C100.2 57.5 99.9 57.6 99.7 57.7C99.5 57.7 99.3 57.8 99 57.8C98.4 57.8 97.9 57.6 97.6 57.2C97.3 56.8 97.2 56.2 97.2 55.4V51.4C97.2 51.2 97.2 51 97.1 50.8C97 50.7 96.9 50.6 96.8 50.6C96.7 50.6 96.7 50.6 96.6 50.5V50.4C96.6 50.3 96.7 50.2 96.8 50.1C96.9 50 97.1 50 97.2 50H98.3C98.4 50 98.4 50 98.5 50.1C98.5 50.2 98.6 50.2 98.6 50.3C98.6 50.4 98.6 50.5 98.6 50.6V50.9V54.8C98.6 55 98.6 55.2 98.6 55.5C98.6 55.7 98.6 56 98.7 56.2C98.8 56.4 98.9 56.6 99.1 56.7C99.3 56.8 99.5 56.9 99.9 56.9C100.2 56.9 100.4 56.8 100.7 56.7C100.9 56.5 101.2 56.3 101.3 56.1C101.5 55.9 101.6 55.6 101.7 55.3C101.8 55 101.9 54.8 101.9 54.5V51.4C101.9 51.2 101.8 51 101.8 50.8C101.7 50.7 101.6 50.6 101.5 50.6C101.4 50.6 101.4 50.6 101.3 50.5V50.4C101.3 50.3 101.4 50.2 101.5 50.1C101.6 50 101.8 50 101.9 50H103C103.2 50 103.2 50.1 103.3 50.3C103.3 50.5 103.3 50.6 103.3 50.8V56.1C103.3 56.4 103.3 56.6 103.4 56.7C103.5 56.8 103.6 56.9 103.7 56.9C103.8 56.9 103.9 56.9 103.9 57C103.8 57.1 103.8 57.1 103.8 57.2Z" fill="#636363"/>
<path d="M111.1 57.2C111.1 57.3 111 57.5 110.9 57.5C110.7 57.6 110.6 57.6 110.5 57.6C110.4 57.6 110.2 57.6 110.1 57.6C110 57.6 109.8 57.6 109.7 57.5C109.6 57.4 109.5 57.3 109.4 57.2C109.3 57.1 109.3 56.9 109.3 56.6V56.3C109.2 56.5 109 56.7 108.9 56.9C108.7 57.1 108.6 57.2 108.4 57.4C108.2 57.5 108 57.6 107.7 57.7C107.4 57.8 107.2 57.8 106.8 57.8C106.6 57.8 106.3 57.8 106.1 57.7C105.9 57.6 105.7 57.5 105.5 57.4C105.3 57.2 105.2 57.1 105.1 56.8C105 56.6 105 56.3 105 56C105 55.5 105.1 55.2 105.3 54.9C105.5 54.6 105.8 54.4 106.1 54.2C106.4 54 106.8 53.9 107.1 53.8C107.5 53.7 107.8 53.6 108.2 53.4C108.5 53.3 108.7 53.2 109 53.1C109.3 53 109.4 52.8 109.4 52.6V51.5C109.4 51.4 109.4 51.3 109.4 51.2C109.4 51.1 109.3 51 109.2 50.9C109.1 50.8 109 50.7 108.9 50.7C108.8 50.6 108.6 50.6 108.4 50.6C108 50.6 107.6 50.7 107.4 50.9C107.2 51.1 107 51.3 106.8 51.6C106.8 51.7 106.7 51.8 106.7 51.9C106.7 52 106.6 52.1 106.6 52.2C106.5 52.3 106.5 52.4 106.4 52.4C106.3 52.5 106.3 52.5 106.2 52.5C106.1 52.5 106 52.5 106 52.4C105.9 52.3 105.9 52.2 105.9 52.1C105.9 52 105.9 51.9 105.8 51.7C105.8 51.6 105.8 51.5 105.8 51.4C105.8 51.1 105.8 50.9 105.9 50.7C106 50.5 106.1 50.4 106.2 50.3C106.3 50.2 106.5 50.2 106.6 50.2C106.7 50.2 106.9 50.1 107.1 50.1C107.4 50 107.6 50 107.9 50C108.2 50 108.4 50 108.7 50C109 50 109.2 50 109.5 50.1C109.8 50.1 110 50.2 110.2 50.3C110.4 50.4 110.6 50.6 110.7 50.8C110.8 51 110.9 51.3 110.9 51.6V56.4C110.9 56.7 110.9 56.9 111 57C111.1 57.1 111.2 57.2 111.3 57.2C111 57 111.1 57.1 111.1 57.2ZM109.2 53.4C109.1 53.5 108.9 53.6 108.8 53.7C108.6 53.8 108.5 53.8 108.3 53.9C108.1 54 107.8 54.1 107.6 54.2C107.4 54.3 107.1 54.4 106.9 54.5C106.7 54.6 106.5 54.8 106.4 55C106.3 55.2 106.2 55.4 106.2 55.7C106.2 55.8 106.2 55.9 106.2 56.1C106.2 56.2 106.3 56.4 106.3 56.5C106.4 56.6 106.5 56.7 106.6 56.8C106.7 56.9 106.9 56.9 107.1 56.9C107.4 56.9 107.6 56.8 107.8 56.7C108 56.6 108.2 56.5 108.4 56.3C108.6 56.1 108.7 56 108.8 55.8C108.9 55.6 109 55.5 109.1 55.3V53.4H109.2Z" fill="#636363"/>
</svg>
