<svg width="120" height="120" viewBox="0 0 120 120" fill="none" xmlns="http://www.w3.org/2000/svg">
<path d="M40 87.5L43 78.5L42 74.5L38 64L49 60.5L56 53.5L60 47.5L63 53.5L70 58.5L84 64.5L79 70.5L77 79.5L81 89.5L87.5 94L96 96.5L106 92.5L114.5 81.5L118 68.5V54L114 40L106.5 29.5L97 26L89 27L79 33.5L77.5 45L82 56L71 51.5L67 46L64 38V15.5H56V39.5L50.5 50.5L43 54L37.5 56.5L43 47.5L42 40L38.5 32.5L33 28.5L29 26H22.5L14 29.5L8.5 36L3.5 46.5L1.5 61.5L2.5 73L7 84.5L14 91L21.5 95.5H29L36 92L40 87.5Z" fill="#77E14B" fill-opacity="0.15"/>
<path d="M56.8474 104.455V75.7999C56.8474 70.8342 54.3117 66.372 50.2734 63.8195L45.8494 65.6152C50.3252 67.017 53.3323 71.1101 53.3323 75.7999V104.455H56.8474Z" fill="url(#paint0_linear)"/>
<path fill-rule="evenodd" clip-rule="evenodd" d="M110.732 32.1375C109.98 31.2188 109.175 30.3298 108.341 29.4949C100.872 22.0263 88.7198 22.0266 81.2517 29.4949C74.9501 35.7966 73.9657 45.4324 78.2981 52.7759L75.9199 51.9445C73.395 51.0619 71.2748 49.2966 69.9499 46.9732L66.667 41.2172C65.7345 39.5822 65.2418 37.7234 65.2418 35.8411V15.6434H61.7257V35.8409C61.7257 38.3327 62.3782 40.7941 63.6129 42.9588L66.8955 48.7146C68.6405 51.7748 71.4333 54.1006 74.7595 55.2631L82.2375 57.8768C82.6699 58.6552 82.8888 59.5109 82.8888 60.4357C82.8888 60.8782 82.8326 61.3031 82.7332 61.7133L73.6184 58.5274C69.5051 57.0895 66.0506 54.2131 63.8916 50.4274L61.8284 46.8096C61.4538 46.1534 60.7519 45.7458 59.9965 45.746C59.2411 45.7463 58.5394 46.1538 58.1655 46.8098L56.1019 50.4277C53.9433 54.2128 50.4888 57.0893 46.3753 58.5272L37.2656 61.7114C37.1665 61.3017 37.1105 60.8775 37.1105 60.4357C37.1105 59.5099 37.3301 58.6533 37.7634 57.8745L45.2344 55.2631C48.5599 54.1006 51.3527 51.7751 53.0984 48.7146L56.3808 42.9591C57.6152 40.7944 58.2677 38.3332 58.2677 35.8413V15.5449H54.7523V35.8413C54.7523 37.7234 54.2595 39.5824 53.3271 41.2174L50.0447 46.973C48.7195 49.2963 46.5991 51.0619 44.0745 51.9443L41.7077 52.7714C43.4348 49.8541 44.3583 46.5178 44.3583 43.0388C44.3583 37.9223 42.3659 33.1123 38.748 29.4945C35.1302 25.8766 30.3202 23.884 25.2038 23.884C20.0873 23.884 15.277 25.8764 11.6595 29.4945C1.51477 39.6396 0 53.2348 0 60.4359C0 66.6867 1.17398 78.638 9.0368 88.4487C11.11 91.1451 14.3219 93.5736 15.6687 94.4508C18.6354 96.1549 21.9176 96.9849 25.1798 96.9849C30.1444 96.9849 35.0623 95.063 38.7478 91.3772C42.3656 87.7594 44.358 82.9493 44.358 77.8329C44.358 75.8925 44.07 73.9966 43.5169 72.1927L43.7646 72.2702C45.3157 72.7561 46.358 74.1745 46.358 75.7999V104.455H49.8741V75.7999C49.8741 72.6295 47.8413 69.863 44.8158 68.9152L41.5905 67.905C40.9109 66.7875 40.1098 65.7354 39.1978 64.7606L46.6106 62.1694L47.5355 61.8462C52.4498 60.1282 56.5767 56.6916 59.1558 52.1695L59.9967 50.6951L60.8374 52.1691C63.4167 56.6916 67.5436 60.1282 72.4582 61.8462L73.3856 62.1703L80.8005 64.762C79.8893 65.7363 79.0887 66.788 78.4092 67.9048L75.1837 68.9152C72.1584 69.863 70.1257 72.6295 70.1257 75.7999V104.455H73.6411V75.7999C73.6411 74.1745 74.6831 72.7559 76.2345 72.2702L76.4822 72.1927C75.9291 73.9966 75.641 75.8925 75.641 77.8329C75.641 82.9493 77.6334 87.7596 81.251 91.3772C84.9858 95.112 89.8896 96.979 94.7955 96.9785C99.6998 96.9781 104.606 95.111 108.34 91.3772C118.485 81.2325 120 67.6369 120 60.4359C120 55.1374 119.199 47.1891 115.384 39.4123C114.707 37.9421 112.001 33.9498 110.732 32.1375ZM116.484 60.4359C116.484 55.5096 115.746 48.132 112.228 40.9608C111.524 39.4169 109.123 35.9198 108.011 34.3643C107.333 33.5355 106.607 32.7338 105.855 31.9809C102.9 29.0269 98.973 27.4001 94.7958 27.4001C90.6185 27.4001 86.6911 29.0269 83.7375 31.9807C77.6398 38.0784 77.6398 48 83.7375 54.0977C84.131 54.491 84.4802 54.9084 84.7889 55.3446C84.8114 55.3737 84.8323 55.4037 84.8529 55.4341C84.9401 55.5602 85.0238 55.688 85.1037 55.8173C87.1988 54.735 88.4262 52.856 89.0128 51.7099C89.4553 50.8456 90.514 50.5036 91.3786 50.9463C92.2427 51.3888 92.5847 52.448 92.1422 53.3121C90.7704 55.9915 88.7353 58.0116 86.3119 59.1405C86.373 59.5643 86.4047 59.9965 86.4047 60.4359C86.4047 60.493 86.4029 60.5495 86.4011 60.6061C86.4004 60.6288 86.3997 60.6516 86.3991 60.6743C88.7822 61.8117 90.791 63.8215 92.1424 66.4603C92.5847 67.3245 92.2432 68.3836 91.3788 68.8261C91.1224 68.9573 90.8487 69.0197 90.5791 69.0197C89.9402 69.0197 89.3243 68.6705 89.013 68.0627C88.4763 67.0141 87.3853 65.3201 85.563 64.2122C85.4761 64.3948 85.3814 64.5743 85.2813 64.7515C85.2752 64.763 85.2684 64.7735 85.2621 64.7848C84.8571 65.4956 84.349 66.1629 83.7375 66.7744C82.7152 67.7967 81.8559 68.9377 81.1641 70.1632C81.1343 70.2227 81.1022 70.2811 81.0656 70.3369C79.8209 72.6094 79.1571 75.1695 79.1571 77.8327C79.1571 82.0102 80.7837 85.9374 83.7377 88.8912C86.6916 91.845 90.619 93.4718 94.796 93.4718C98.9735 93.4718 102.901 91.845 105.855 88.8912C115.103 79.6425 116.484 67.0931 116.484 60.4359ZM3.51562 60.4359C3.51562 66.2255 4.5893 77.2779 11.7802 86.25C12.5138 87.263 14.6688 89.7116 17.4202 91.4023C23.5268 94.9109 31.275 93.878 36.262 88.8912C39.2161 85.9374 40.8427 82.0099 40.8427 77.8327C40.8427 75.1702 40.1791 72.6103 38.9351 70.3383C38.8978 70.2813 38.865 70.2218 38.8345 70.1611C38.1429 68.9363 37.2841 67.796 36.2623 66.7741C35.6695 66.1814 35.1741 65.5359 34.7752 64.8492C34.7611 64.8263 34.7477 64.8026 34.7346 64.7789C34.6287 64.5928 34.5286 64.4041 34.4372 64.2122C32.6147 65.3201 31.5239 67.0141 30.987 68.0627C30.6757 68.6702 30.0598 69.0197 29.4209 69.0197C29.1513 69.0197 28.8778 68.9573 28.6212 68.8261C27.7573 68.3836 27.4153 67.3245 27.8578 66.4603C29.209 63.8213 31.2178 61.8117 33.6012 60.6743C33.6005 60.6477 33.5997 60.6211 33.5989 60.5945C33.5972 60.5417 33.5955 60.4889 33.5955 60.4357C33.5955 59.9965 33.627 59.5643 33.6881 59.1403C31.2649 58.0116 29.2298 55.9915 27.8578 53.3121C27.4153 52.448 27.757 51.3888 28.6212 50.9463C29.4851 50.5041 30.5445 50.8456 30.987 51.7097C31.5738 52.856 32.8013 54.735 34.8963 55.8173C34.977 55.6868 35.0616 55.5581 35.1495 55.4309C35.1698 55.4009 35.1905 55.3711 35.2127 55.3423C35.5212 54.907 35.8697 54.4906 36.2625 54.0977C39.2166 51.1439 40.8431 47.2167 40.8431 43.0392C40.8431 38.8617 39.2163 34.9345 36.2625 31.9807C33.3087 29.0269 29.3813 27.4001 25.204 27.4001C21.0265 27.4001 17.0993 29.0269 14.1455 31.9807C4.89656 41.2296 3.51562 53.7788 3.51562 60.4359Z" fill="url(#paint1_linear)"/>
<path d="M63.1519 75.7999V104.455H66.6677V75.7999C66.6677 71.1101 69.6748 67.017 74.1504 65.6152L69.6094 63.8937C65.6389 66.4579 63.1519 70.882 63.1519 75.7999Z" fill="url(#paint2_linear)"/>
<defs>
<linearGradient id="paint0_linear" x1="61.0955" y1="6.0004" x2="61.0959" y2="121.03" gradientUnits="userSpaceOnUse">
<stop stop-color="#F0F83C"/>
<stop offset="1" stop-color="#2FA02D"/>
</linearGradient>
<linearGradient id="paint1_linear" x1="61.0955" y1="6.0004" x2="61.0959" y2="121.03" gradientUnits="userSpaceOnUse">
<stop stop-color="#F0F83C"/>
<stop offset="1" stop-color="#2FA02D"/>
</linearGradient>
<linearGradient id="paint2_linear" x1="61.0955" y1="6.0004" x2="61.0959" y2="121.03" gradientUnits="userSpaceOnUse">
<stop stop-color="#F0F83C"/>
<stop offset="1" stop-color="#2FA02D"/>
</linearGradient>
</defs>
</svg>
