<svg width="155" height="30" viewBox="0 0 155 30" fill="none" xmlns="http://www.w3.org/2000/svg">
<path d="M14.454 3.47561C13.8834 4.93902 13.3129 6.40244 12.5521 8.04878C11.9816 9.14634 11.6012 10.2439 11.2209 11.5244C10.6503 12.622 10.2699 13.7195 9.88957 14.4512H9.69939C9.12883 13.5366 8.74847 12.439 8.3681 11.3415C7.98773 10.2439 7.41718 9.14634 7.03681 8.23171L3.6135 0H0L7.98773 17.7439L7.41718 18.8415C7.03681 19.5732 6.65644 19.939 6.08589 20.122C5.51534 20.3049 4.94479 20.4878 4.37423 20.4878H3.42331V23.2317H5.13497C6.27607 23.2317 7.41718 22.8659 8.3681 22.1341C9.31902 21.4024 10.2699 20.3049 11.0307 18.4756L19.3988 0H15.9755C15.5951 0.914634 15.0245 2.0122 14.454 3.47561ZM32.7117 7.5C32.1411 6.76829 31.3804 6.21951 30.4294 5.85366C29.6687 5.4878 28.7178 5.30488 27.7669 5.30488C27.0061 5.30488 26.0552 5.4878 25.2945 5.67073C24.3436 6.03659 23.5828 6.40244 22.8221 7.13415V5.67073H19.589V30C19.7791 30 19.9693 29.8171 20.1595 29.8171C20.5399 29.6341 20.7301 29.6341 21.1104 29.4512C21.4908 29.2683 21.681 29.0854 22.0613 29.0854C22.4417 28.9024 22.6319 28.9024 22.6319 28.9024V21.7683C23.3926 22.5 24.1534 22.8659 24.7239 23.2317C25.4847 23.5976 26.2454 23.5976 27.1963 23.5976C28.1472 23.5976 28.908 23.4146 29.8589 23.0488C30.8098 22.6829 31.5706 22.1341 32.1411 21.4024C32.9018 20.6707 33.4724 19.7561 33.8528 18.4756C34.2331 17.378 34.4233 15.9146 34.4233 14.2683C34.4233 12.8049 34.2331 11.5244 33.8528 10.4268C33.8528 8.96341 33.4724 8.04878 32.7117 7.5ZM30.4294 19.0244C29.6687 20.122 28.5276 20.6707 27.0061 20.6707C26.2454 20.6707 25.4847 20.4878 24.7239 19.939C23.9632 19.5732 23.3926 19.0244 22.8221 18.2927V10.2439C23.3926 9.69512 23.9632 9.14634 24.7239 8.59756C25.4847 8.04878 26.2454 7.86585 27.1963 7.86585C28.5276 7.86585 29.6687 8.41463 30.4294 9.51219C31.1902 10.6098 31.5706 12.0732 31.5706 14.0854C31.5706 16.4634 31.1902 17.9268 30.4294 19.0244ZM52.1104 7.68293C51.3497 6.95122 50.589 6.40244 49.638 5.85366C48.4969 5.67073 47.546 5.4878 46.4049 5.4878C45.2638 5.4878 44.1227 5.67073 43.1718 6.03659C42.2209 6.40244 41.2699 6.95122 40.6994 7.86585C39.9386 8.59756 39.3681 9.69512 38.9877 10.7927C38.6074 11.8902 38.227 13.1707 38.227 14.6341C38.227 16.0976 38.4172 17.1951 38.7975 18.2927C39.1779 19.3902 39.7485 20.3049 40.319 21.0366C41.0798 21.7683 41.8405 22.3171 42.7914 22.8659C43.7423 23.2317 44.8834 23.4146 46.0245 23.4146C47.1656 23.4146 48.3067 23.2317 49.2577 22.8659C50.2086 22.5 51.1595 21.7683 51.9202 21.0366C52.681 20.3049 53.2515 19.2073 53.6319 18.1098C54.0123 17.0122 54.2025 15.7317 54.2025 14.2683C54.2025 12.8049 54.0123 11.7073 53.6319 10.6098C53.2515 9.5122 52.681 8.41463 52.1104 7.68293ZM50.7791 16.8293C50.589 17.561 50.2086 18.2927 49.8282 18.8415C49.4479 19.3902 48.8773 19.939 48.3067 20.3049C47.7362 20.6707 46.9755 20.8537 46.2147 20.8537C44.6932 20.8537 43.5521 20.3049 42.6012 19.2073C41.8405 18.1098 41.4601 16.4634 41.4601 14.4512C41.4601 13.5366 41.6503 12.8049 41.8405 12.0732C42.0307 11.3415 42.411 10.6098 42.7914 10.061C43.1718 9.5122 43.7423 8.96342 44.3129 8.78049C44.8834 8.41463 45.6442 8.23171 46.4049 8.23171C47.1656 8.23171 47.9264 8.41463 48.4969 8.78049C49.0675 9.14634 49.638 9.5122 50.0184 10.061C50.3988 10.6098 50.7791 11.3415 50.9693 12.0732C51.1595 12.8049 51.3497 13.7195 51.3497 14.6341C50.9693 15.1829 50.9693 16.0976 50.7791 16.8293ZM59.908 15.7317C59.908 16.6463 59.908 17.378 59.7178 17.9268C59.7178 18.4756 59.5276 19.0244 59.3374 19.3902C59.1472 19.7561 58.7669 20.122 58.3865 20.3049C58.0061 20.4878 57.2454 20.6707 56.4847 20.8537L56.6748 23.4146C58.3865 23.4146 59.5276 23.0488 60.4785 22.5C61.2393 21.9512 62 21.2195 62.3804 20.3049C62.7607 19.3902 62.9509 18.4756 62.9509 17.378C62.9509 16.2805 62.9509 15.1829 62.9509 14.2683V8.41463H69.4172V23.0488H72.6503V5.67073H59.908V15.7317ZM89.7669 7.86585C89.1963 7.13415 88.2454 6.58537 87.2945 6.03659C86.5337 5.67073 85.3926 5.4878 84.0613 5.4878C82.9202 5.4878 81.9693 5.67073 80.8282 6.03659C79.8773 6.40244 79.1166 7.13415 78.3558 7.86585C77.5951 8.59756 77.0245 9.69512 76.6442 10.7927C76.2638 11.8902 76.0736 13.1707 76.0736 14.6341C76.0736 16.0976 76.2638 17.378 76.6442 18.4756C77.0245 19.5732 77.5951 20.4878 78.1656 21.2195C78.9264 21.9512 79.6871 22.5 80.638 22.8659C81.589 23.2317 82.7301 23.4146 83.8712 23.4146C85.0123 23.4146 86.1534 23.2317 87.2945 22.8659C88.2454 22.5 89.1963 21.9512 90.1472 21.2195L88.4356 19.2073C87.865 19.7561 87.2945 20.122 86.5337 20.3049C85.773 20.6707 85.0123 20.6707 84.2515 20.6707C82.9202 20.6707 81.7791 20.3049 80.8282 19.3902C79.8773 18.4756 79.3067 17.1951 79.3067 15.3659H91.4785V14.2683C91.4785 12.9878 91.2883 11.7073 90.908 10.6098C90.908 9.5122 90.5276 8.59756 89.7669 7.86585ZM79.4969 13.1707C79.6871 11.5244 80.0675 10.4268 81.0184 9.51219C81.7791 8.59756 82.9202 8.04878 84.0613 8.04878C84.8221 8.04878 85.5828 8.23171 86.1534 8.41463C86.5337 8.78049 87.1043 9.14634 87.4847 9.51219C87.865 10.061 88.0552 10.4268 88.2454 11.1585C88.4356 11.7073 88.4356 12.439 88.4356 13.1707H79.4969ZM104.791 20.122C104.221 20.4878 103.46 20.6707 102.699 20.6707C101.178 20.6707 100.037 20.122 99.2761 19.0244C98.5153 17.9268 98.135 16.4634 98.135 14.8171C98.135 13.9024 98.3251 12.9878 98.5153 12.0732C98.7055 11.1585 99.0859 10.6098 99.4663 9.87805C99.8466 9.32927 100.227 8.78049 100.798 8.41463C101.368 8.04878 101.939 7.86585 102.699 7.86585C103.46 7.86585 104.221 8.04878 104.791 8.23171C105.362 8.59756 106.123 8.96342 106.693 9.69512L108.785 7.68293C108.025 6.76829 107.074 6.21951 106.123 5.67073C104.982 5.67073 103.84 5.4878 102.509 5.4878C101.368 5.4878 100.227 5.67073 99.2761 6.03659C98.3251 6.40244 97.5644 7.13415 96.8037 7.86585C96.0429 8.59756 95.6626 9.69512 95.2822 10.7927C94.9018 12.0732 94.7117 13.3537 94.7117 14.8171C94.7117 16.2805 94.9018 17.378 95.2822 18.4756C95.6626 19.5732 96.2331 20.4878 96.9939 21.0366C97.7546 21.7683 98.5153 22.3171 99.4663 22.6829C100.417 23.0488 101.368 23.2317 102.509 23.2317C103.84 23.2317 105.172 23.0488 106.123 22.5C107.074 21.9512 108.025 21.4024 108.785 20.4878L106.693 18.6585C105.933 19.3902 105.362 19.939 104.791 20.122ZM123.81 6.76829C122.669 5.85366 120.957 5.30488 118.865 5.30488C117.724 5.30488 116.583 5.4878 115.632 5.67073C114.681 5.85366 113.73 6.21951 112.779 6.76829L113.73 9.14634C114.491 8.78049 115.252 8.59756 116.012 8.23171C116.773 8.04878 117.534 7.86585 118.485 7.86585C121.147 7.86585 122.479 8.96341 122.479 11.3415V13.1707C121.718 12.8049 120.767 12.439 120.006 12.2561C119.245 12.0732 118.485 12.0732 117.724 12.0732C116.773 12.0732 115.822 12.2561 115.061 12.439C114.301 12.622 113.54 13.1707 112.969 13.5366C112.399 14.0854 111.828 14.6341 111.638 15.3659C111.258 16.0976 111.067 16.8293 111.067 17.7439C111.067 18.6585 111.258 19.5732 111.638 20.3049C112.018 21.0366 112.399 21.5854 112.969 21.9512C113.54 22.3171 114.11 22.6829 114.871 22.8659C115.632 23.0488 116.393 23.2317 116.963 23.2317C117.724 23.2317 118.675 23.0488 119.626 22.8659C120.577 22.6829 121.528 22.1341 122.479 21.2195V22.8659H125.712V11.1585C125.712 9.14634 124.951 7.86585 123.81 6.76829ZM122.479 18.8415C121.908 19.3902 121.147 19.939 120.386 20.3049C119.626 20.6707 118.675 20.8537 117.914 21.0366C116.773 21.0366 115.822 20.8537 115.252 20.3049C114.681 19.7561 114.301 19.0244 114.301 17.9268C114.301 16.8293 114.681 16.0976 115.442 15.5488C116.012 14.8171 116.963 14.6341 117.914 14.6341C118.865 14.6341 119.626 14.8171 120.386 15C121.147 15.1829 121.718 15.5488 122.288 15.9146V18.8415H122.479ZM141.497 5.67073V12.622H132.748V5.67073H129.515V23.0488H132.748V15.3659H141.497V23.0488H144.73V5.67073H141.497Z" fill="#3BB239"/>
<path d="M151.006 11.7073C150.436 11.7073 149.865 11.5244 149.485 11.3415C149.104 11.1586 148.724 10.9756 148.344 10.6098C147.963 10.2439 147.773 9.87807 147.583 9.32929C147.393 8.78051 147.203 8.41466 147.203 7.86588C147.203 7.3171 147.203 6.76832 147.583 6.40246C147.583 5.85368 147.963 5.48783 148.344 5.12197C148.724 4.75612 149.104 4.57319 149.485 4.39027C149.865 4.20734 150.436 4.02441 151.006 4.02441C151.577 4.02441 152.147 4.20734 152.528 4.39027C152.908 4.57319 153.479 4.75612 153.669 5.12197C154.049 5.48783 154.239 5.85368 154.43 6.40246C154.62 6.95124 154.81 7.3171 154.81 7.86588C154.81 8.41466 154.62 8.96344 154.43 9.32929C154.239 9.87807 154.049 10.2439 153.669 10.6098C153.289 10.9756 152.908 11.1586 152.528 11.3415C152.147 11.5244 151.577 11.7073 151.006 11.7073ZM151.006 4.75612C150.626 4.75612 150.055 4.75612 149.675 4.93905C149.295 5.12198 148.914 5.3049 148.724 5.67076C148.534 6.03661 148.154 6.21954 148.154 6.58539C147.963 6.95124 147.963 7.3171 147.963 7.86588C147.963 8.23173 147.963 8.78051 148.154 9.14637C148.344 9.51222 148.534 9.87807 148.724 10.061C148.914 10.4269 149.295 10.6098 149.675 10.7927C150.246 10.9756 150.626 10.9756 151.006 10.9756C151.387 10.9756 151.957 10.9756 152.338 10.7927C152.718 10.6098 153.098 10.4269 153.289 10.061C153.669 9.87807 153.859 9.51222 154.049 9.14637C154.239 8.78051 154.239 8.41466 154.239 7.86588C154.239 7.50002 154.239 6.95124 154.049 6.58539C153.859 6.21954 153.669 5.85368 153.479 5.67076C153.289 5.3049 152.908 5.12198 152.528 4.93905C151.957 4.75612 151.577 4.75612 151.006 4.75612ZM151.197 8.41466H150.246V10.061H149.485V5.67076H151.387C151.767 5.67076 152.147 5.85368 152.528 6.03661C152.718 6.21954 152.908 6.58539 152.908 7.13417C152.908 7.68295 152.718 8.23173 152.147 8.41466L153.098 10.061H152.147L151.197 8.41466ZM150.436 6.40246V7.68295H151.387C151.577 7.68295 151.767 7.68295 151.957 7.50002C151.957 7.50002 152.147 7.3171 152.147 7.13417C152.147 6.76832 151.957 6.40246 151.387 6.40246H150.436Z" fill="#3BB239"/>
</svg>
