<svg width="134" height="44" viewBox="0 0 134 44" fill="none" xmlns="http://www.w3.org/2000/svg">
<path d="M37.8252 1.7C37.8252 0.399997 37.7252 0.299999 36.8252 0.299999V0H42.0253C42.0253 0.2 42.1252 1.1 42.1252 1.7H41.8252C41.7252 1.1 41.6252 0.799998 41.4252 0.599998C41.2252 0.399998 40.8252 0.299999 40.1252 0.299999H39.3252C38.9252 0.299999 38.8252 0.299997 38.8252 0.699997V3.1H40.1252C42.0252 3.1 42.8252 4 42.8252 5.2C42.8252 6.2 42.4252 6.7 41.8252 7.1C41.2252 7.5 40.4253 7.6 39.5253 7.6H36.8252V7.3C37.8252 7.2 37.9252 7.1 37.9252 5.9V1.7H37.8252ZM41.7252 5.4C41.7252 4.1 40.9252 3.6 39.6252 3.6H38.8252V6C38.8252 7.1 39.0252 7.3 39.9252 7.3C40.8252 7.3 41.7252 6.8 41.7252 5.4Z" fill="#636363"/>
<path d="M49.3253 2.5V2.8C48.5253 2.9 48.5254 2.9 48.5254 3.6V6.6C48.5254 7.3 48.6253 7.3 49.3253 7.4V7.7H46.7253V7.4C47.5253 7.3 47.6254 7.3 47.6254 6.6V3.4C47.6254 3 47.6253 2.9 47.2253 2.9H46.7253C46.2253 2.9 46.2253 3 46.2253 3.4C46.1253 5.8 45.6254 7 45.1254 7.5C44.9254 7.7 44.7254 7.8 44.6254 7.8C44.4254 7.8 44.2254 7.7 44.0254 7.7V7.5C44.6254 7.2 45.0253 6.7 45.3253 6.2C45.5253 5.8 45.8253 4.9 45.8253 3.6C45.8253 3.1 45.8254 3 45.0254 2.9V2.6H49.3253V2.5Z" fill="#636363"/>
<path d="M55.4252 6.60003C55.4252 7.30002 55.5252 7.30002 56.3252 7.40002V7.70002H53.8252V7.40002C54.5252 7.30002 54.5253 7.30002 54.5253 6.60003V4.00003L52.3252 6.50003C52.2252 6.60003 52.1252 6.70003 52.1252 6.80003V7.10003C52.1252 7.20003 52.2252 7.30003 52.4252 7.30003H52.6252V7.60003H50.3252V7.30003C51.1252 7.20003 51.2252 7.20003 51.2252 6.50003V3.50003C51.2252 2.80003 51.1252 2.80002 50.3252 2.70002V2.40002H52.8252V2.70002C52.1252 2.80002 52.1252 2.80003 52.1252 3.50003V6.10003L54.3252 3.50003C54.4252 3.40003 54.4252 3.30002 54.4252 3.20002V3.10003C54.4252 3.00003 54.3252 2.90002 54.2252 2.90002L54.0253 2.80003V2.50003H56.3252V2.80003C55.5252 2.90003 55.4252 2.90003 55.4252 3.60003V6.60003Z" fill="#636363"/>
<path d="M62.7253 2.50005V2.80005C62.0253 2.90005 61.9253 2.90005 61.9253 3.60005V4.80005C62.3253 4.80005 62.5253 4.70005 62.8253 4.40005C63.1253 4.20005 63.5253 3.60005 63.7253 3.20005C63.9253 2.90005 64.3253 2.30005 64.8253 2.30005C65.1253 2.30005 65.3253 2.40005 65.3253 2.70005C65.3253 2.90005 65.2253 3.10005 64.9253 3.10005H64.6254C64.1254 3.10005 63.9254 3.50005 63.5254 4.00005C63.3254 4.20005 63.1253 4.50005 62.8253 4.70005C63.1253 4.70005 63.4254 4.90005 63.6254 5.30005C63.8254 5.60005 64.0253 5.80005 64.3253 6.40005C64.7253 7.10005 64.9253 7.20005 65.4253 7.30005V7.60005H64.7253C64.2253 7.60005 63.8254 7.50005 63.5254 6.90005C63.2254 6.40005 62.9253 5.90005 62.8253 5.60005C62.5253 5.10005 62.2253 5.00005 61.8253 5.00005V6.50005C61.8253 7.20005 61.9254 7.20005 62.6254 7.30005V7.60005H60.0254V7.30005C60.8254 7.20005 60.9253 7.20005 60.9253 6.50005V5.10005C60.5253 5.10005 60.1253 5.20005 59.8253 5.70005C59.7253 6.00005 59.4254 6.50005 59.1254 7.00005C58.8254 7.60005 58.4253 7.70005 57.9253 7.70005H57.2253V7.40005C57.7253 7.40005 57.9253 7.20005 58.3253 6.50005C58.7253 5.90005 58.9254 5.70005 59.0254 5.40005C59.2254 5.00005 59.6253 4.90005 59.8253 4.80005C59.5253 4.60005 59.3254 4.40005 59.1254 4.10005C58.7254 3.60005 58.5254 3.20005 58.1254 3.20005H57.8253C57.5253 3.20005 57.4253 3.00005 57.4253 2.80005C57.4253 2.60005 57.6253 2.40005 57.9253 2.40005C58.4253 2.40005 58.8254 3.00005 59.0254 3.30005C59.2254 3.60005 59.6253 4.30005 59.9253 4.50005C60.2253 4.70005 60.4253 4.90005 60.8253 4.90005V3.70005C60.8253 3.00005 60.7254 3.00005 60.0254 2.90005V2.60005H62.7253V2.50005Z" fill="#636363"/>
<path d="M71.3253 6.60003C71.3253 7.30003 71.4254 7.30002 72.1254 7.40002V7.70002H69.4253V7.40002C70.3253 7.30002 70.3253 7.30003 70.3253 6.60003V5.30003C69.9253 5.40003 69.5254 5.50003 69.1254 5.50003C68.5254 5.50003 68.0253 5.40003 67.7253 5.10003C67.4253 4.80003 67.3253 4.50003 67.3253 4.00003V3.50003C67.3253 2.80003 67.2254 2.80002 66.5254 2.70002V2.40002H68.9253V2.70002C68.2253 2.80002 68.2253 2.80003 68.2253 3.50003V4.10003C68.2253 4.80003 68.6253 5.10003 69.3253 5.10003C69.6253 5.10003 70.0253 5.10003 70.3253 5.00003V3.60003C70.3253 2.90003 70.2254 2.90003 69.6254 2.80003V2.50003H72.1254V2.80003C71.3254 2.90003 71.3253 2.90003 71.3253 3.60003V6.60003Z" fill="#636363"/>
<path d="M77.6254 6.7C77.0254 7.6 76.1253 7.9 75.8253 7.9C74.3253 7.9 73.4253 6.8 73.4253 5.4C73.4253 3.8 74.5253 2.5 75.9253 2.5C76.8253 2.5 77.6254 3.4 77.6254 4.1C77.6254 4.5 77.6253 4.5 77.4253 4.5C77.2253 4.5 75.8253 4.6 74.3253 4.7C74.3253 6.5 75.4253 7.1 76.2253 7.1C76.6253 7.1 76.9253 7 77.4253 6.5L77.6254 6.7ZM76.4253 4.2C76.6253 4.2 76.6254 4.1 76.6254 3.8C76.6254 3.3 76.2254 2.8 75.6254 2.8C75.0254 2.8 74.4253 3.4 74.3253 4.3L76.4253 4.2Z" fill="#636363"/>
<path d="M83.2253 7.7C82.7253 7.7 82.6253 7.9 82.4253 8.6L82.3253 9.2H82.0254V7.7C82.0254 7.5 82.1253 7.4 82.2253 7.4H82.5254C82.6254 7.4 82.6253 7.4 82.7253 7.2C82.8253 7 83.0254 6.6 83.1254 6C83.3254 5.3 83.4253 4 83.4253 3.5C83.4253 3.1 83.3253 3 82.8253 2.9L82.4253 2.8V2.5H87.1254V2.8C86.4254 2.9 86.3253 2.9 86.3253 3.6V6.5C86.3253 7.2 86.4253 7.3 86.7253 7.3H86.9253C87.1253 7.3 87.1254 7.3 87.1254 7.6V9.1H86.8253L86.7253 8.5C86.5253 7.8 86.5253 7.6 85.9253 7.6H83.2253V7.7ZM84.9253 7.3C85.5253 7.3 85.5254 7.3 85.5254 6.6V3.4C85.5254 2.9 85.5253 2.9 84.9253 2.9H84.5254C83.9254 2.9 83.9253 3 83.9253 3.5C83.8253 5.1 83.6253 6.4 83.3253 7.1C83.2253 7.3 83.2253 7.4 83.4253 7.4H84.9253V7.3Z" fill="#636363"/>
<path d="M88.5254 5.3C88.5254 3.3 90.0254 2.5 91.1254 2.5C92.6254 2.5 93.7253 3.6 93.7253 5.1C93.7253 6.9 92.3254 7.9 91.1254 7.9C89.4254 7.8 88.5254 6.5 88.5254 5.3ZM92.6254 5.3C92.6254 4 92.0254 2.8 91.0254 2.8C90.2254 2.8 89.6254 3.6 89.6254 4.9C89.6254 6.4 90.2253 7.5 91.3253 7.5C91.9253 7.5 92.6254 6.9 92.6254 5.3Z" fill="#636363"/>
<path d="M103.425 2.5V2.8C102.625 2.9 102.526 2.9 102.526 3.6V6.6C102.526 7.3 102.625 7.3 103.425 7.4V7.7H100.825V7.4C101.625 7.3 101.725 7.3 101.725 6.6V3.4C101.725 3 101.725 2.9 101.325 2.9H100.825C100.325 2.9 100.325 3 100.325 3.4C100.225 5.8 99.7255 7 99.2255 7.5C99.0255 7.7 98.8255 7.8 98.7255 7.8C98.5255 7.8 98.3255 7.7 98.1255 7.7V7.5C98.7255 7.2 99.1254 6.7 99.3254 6.2C99.5254 5.8 99.8254 4.9 99.8254 3.6C99.8254 3.1 99.8255 3 99.0255 2.9V2.6H103.425V2.5Z" fill="#636363"/>
<path d="M104.525 2.50003H107.125V2.80003C106.325 2.90003 106.325 2.90003 106.325 3.60003V4.90002H107.425C107.625 3.20002 109.025 2.40002 110.025 2.40002C111.525 2.40002 112.625 3.50003 112.625 5.00003C112.625 6.80003 111.225 7.80003 110.025 7.80003C108.325 7.80003 107.425 6.50002 107.425 5.20002H106.325V6.60003C106.325 7.30002 106.425 7.30002 107.225 7.40002V7.70002H104.625V7.40002C105.425 7.30002 105.425 7.30002 105.425 6.60003V3.60003C105.425 2.90003 105.325 2.90003 104.525 2.80003V2.50003ZM111.425 5.30003C111.425 4.00003 110.825 2.80003 109.825 2.80003C109.025 2.80003 108.425 3.60002 108.425 4.90002C108.425 6.40002 109.025 7.50003 110.125 7.50003C110.825 7.50003 111.425 6.90003 111.425 5.30003Z" fill="#636363"/>
<path d="M114.625 7.70002C114.125 7.70002 114.025 7.90003 113.825 8.60003L113.725 9.10003H113.425V7.60003C113.425 7.40003 113.525 7.30003 113.725 7.30003H114.025C114.125 7.30003 114.125 7.30002 114.225 7.10003C114.325 6.90003 114.525 6.50002 114.625 5.90002C114.825 5.20002 114.925 3.90002 114.925 3.40002C114.925 3.00002 114.825 2.90003 114.325 2.80003L113.925 2.70002V2.40002H118.625V2.70002C117.925 2.80002 117.825 2.80003 117.825 3.50003V6.40002C117.825 7.10002 117.925 7.20002 118.225 7.20002H118.425C118.625 7.20002 118.625 7.20003 118.725 7.50003V9.10003H118.425L118.325 8.50003C118.125 7.80003 118.125 7.60003 117.525 7.60003H114.625V7.70002ZM116.325 7.30003C116.925 7.30003 116.925 7.30002 116.925 6.60003V3.40002C116.925 2.90002 116.925 2.90002 116.325 2.90002H115.925C115.325 2.90002 115.325 3.00003 115.325 3.50003C115.225 5.10003 115.025 6.40003 114.725 7.10003C114.625 7.30002 114.625 7.40002 114.825 7.40002H116.325V7.30003Z" fill="#636363"/>
<path d="M124.025 6.7C123.425 7.6 122.525 7.9 122.225 7.9C120.725 7.9 119.825 6.8 119.825 5.4C119.825 3.8 120.925 2.5 122.325 2.5C123.225 2.5 124.025 3.4 124.025 4.1C124.025 4.5 124.025 4.5 123.725 4.5C123.525 4.5 122.125 4.6 120.625 4.7C120.625 6.5 121.725 7.1 122.525 7.1C122.925 7.1 123.225 7 123.725 6.5L124.025 6.7ZM122.925 4.2C123.125 4.2 123.125 4.1 123.125 3.8C123.125 3.3 122.725 2.8 122.125 2.8C121.525 2.8 120.925 3.4 120.825 4.3L122.925 4.2Z" fill="#636363"/>
<path d="M130.325 6.59995C130.325 7.29995 130.425 7.29995 131.225 7.39995V7.69995H128.725V7.39995C129.425 7.29995 129.425 7.29995 129.425 6.59995V3.99995L127.225 6.49995C127.125 6.59995 127.025 6.69995 127.025 6.79995V7.09995C127.025 7.19995 127.125 7.29995 127.325 7.29995H127.525V7.59995H125.225V7.29995C126.025 7.19995 126.125 7.19995 126.125 6.49995V3.49995C126.125 2.79995 126.025 2.79995 125.225 2.69995V2.39995H127.725V2.69995C127.025 2.79995 127.025 2.79995 127.025 3.49995V6.09995L129.225 3.49995C129.325 3.39995 129.325 3.29995 129.325 3.19995V3.09995C129.325 2.99995 129.225 2.89995 129.125 2.89995L128.925 2.79995V2.49995H131.225V2.79995C130.325 2.89995 130.325 2.89995 130.325 3.59995V6.59995ZM128.825 1.29995C128.825 1.19995 128.825 1.09995 128.725 1.09995C128.625 0.899953 128.725 0.699951 129.025 0.699951C129.325 0.699951 129.425 0.899951 129.425 1.19995C129.425 1.69995 128.925 1.99995 128.125 1.99995C127.325 1.99995 126.825 1.59995 126.825 1.19995C126.825 0.999951 127.025 0.699951 127.225 0.699951C127.525 0.699951 127.625 0.999953 127.525 1.09995C127.525 1.19995 127.525 1.29995 127.425 1.29995C127.425 1.49995 127.625 1.59995 128.025 1.59995C128.625 1.59995 128.825 1.49995 128.825 1.29995Z" fill="#636363"/>
<path d="M68.9253 27C68.9253 24.5 68.7253 24.4 66.9253 24.2V23.7H76.8253C76.8253 24.1 76.9254 25.7 77.0254 27L76.4253 27.1C76.2253 26 75.9254 25.4 75.6254 25C75.2254 24.6 74.5254 24.5 73.1254 24.5H71.4253C70.8253 24.5 70.7253 24.5 70.7253 25.2V30.5H73.0254C74.9254 30.5 75.0253 30.4 75.2253 28.7H75.8253V33.1H75.2253C75.1253 32.3 75.0253 31.8 74.7253 31.6C74.4253 31.4 73.9253 31.2999 72.9253 31.2999H70.6254V35.2999C70.6254 36.5999 70.7253 37.3 71.2253 37.5C71.6253 37.8 72.4254 37.7999 73.5254 37.7999C74.8254 37.7999 75.8253 37.7 76.3253 37.1C76.7253 36.7 77.0253 35.9 77.4253 34.9L78.0254 35C77.9254 35.6 77.4253 37.9 77.2253 38.5H66.7253V38C68.7253 37.9 68.9253 37.6999 68.9253 35.2999V27Z" fill="#636363"/>
<path d="M95.1254 35.1C95.1254 37.5 95.3254 37.6999 97.1254 37.7999V38.2999H91.2253V37.7999C93.0253 37.6999 93.2253 37.5 93.2253 35.1V27C93.2253 24.5 93.0253 24.4 91.2253 24.2V23.7H97.1254V24.2C95.3254 24.3 95.1254 24.5 95.1254 27V35.1Z" fill="#636363"/>
<path d="M104.525 23.8V24.3C102.725 24.4 102.525 24.6 102.525 27.1V31.8C102.525 33.7 102.725 35.2 103.425 36.2C104.125 37.2 105.125 37.8 106.625 37.8C108.025 37.8 109.225 37.2 109.925 36.1C110.625 35 110.925 33 110.925 31.1V29.9001C110.925 27.5001 110.825 26.3 110.725 25.6C110.625 24.8 110.025 24.5 108.525 24.4V23.9H113.925V24.4C112.725 24.4 112.125 24.8 112.025 25.6C111.925 26.3 111.825 27.5001 111.825 29.9001V31.4001C111.825 34.0001 111.425 35.9 110.125 37.3C109.125 38.3 107.525 38.9001 105.925 38.9001C104.725 38.9001 103.225 38.6 102.225 37.7C101.025 36.7 100.525 35.2 100.525 32.6V27.1C100.525 24.6 100.325 24.5 98.4253 24.3V23.8H104.525Z" fill="#636363"/>
<path d="M119.025 23.8L124.425 35.4001L129.825 23.8H133.525V24.3C131.525 24.5 131.425 24.6 131.525 27.1L131.725 35.2C131.825 37.7 131.825 37.8001 133.825 37.9001V38.4001H127.925V37.9001C129.825 37.7001 129.925 37.7 129.825 35.2L129.725 26.1H129.625L124.125 38.2H123.525L118.325 26.4001L118.125 32.7C118.025 34.8 118.025 36.1 118.125 36.8C118.225 37.6 118.825 37.9 120.225 38V38.5H114.925V38C116.225 37.9 116.625 37.7 116.825 36.8C116.925 36.1 117.125 34.8 117.225 32.5L117.425 27.8C117.625 24.8 117.425 24.5 115.325 24.4V23.9H119.025V23.8Z" fill="#636363"/>
<path d="M53.8254 23.8C53.7254 24.8 53.6255 26 53.6255 27.2H54.2255C54.5255 26.2 54.7255 25.6 55.0255 25.3C55.3255 24.9 55.9254 24.6 57.9254 24.6H59.0255V35.1C59.0255 37.5 58.8255 37.7 56.7255 37.8V38.3H63.3254V37.8C61.1254 37.7 60.9254 37.5 60.9254 35.1V24.5H62.4254C63.8254 24.5 64.5254 24.7 64.9254 25.1C65.2254 25.5 65.5255 26.1 65.7255 27.2H66.3254C66.2254 26.1 66.1255 24.7 66.1255 23.8H53.8254Z" fill="#636363"/>
<path d="M53.0253 37.1C52.4253 36.4 51.9252 35.8 51.1252 34.6C50.4252 33.6 49.5252 32.1001 49.1252 31.4001C50.9252 30.7001 52.1252 29.3 52.1252 27.5C52.1252 26.2 51.5252 25.2 50.6252 24.6C49.8252 24 48.5253 23.8 47.0253 23.8H43.3252V24.5H45.4252C45.7252 24.5 46.2252 24.5 46.7252 24.5C48.4252 24.5 50.1252 25.3 50.1252 27.7C50.1252 28.8 49.8252 29.9 48.8252 30.7C48.2252 31.2 47.5253 31.2 46.5253 31.2H43.3252V31.9001H46.4252C47.1252 31.9001 47.5252 32.1 47.8252 32.7C48.4252 33.8 49.4252 35.4001 50.1252 36.4001C51.0252 37.6001 51.7252 38.4 54.3252 38.5H54.6252V38.1C53.8252 38 53.4253 37.6 53.0253 37.1Z" fill="#636363"/>
<path d="M88.9253 37.1C88.3253 36.4 87.8254 35.8 87.0254 34.6C86.3254 33.6 85.4254 32.1001 85.0254 31.4001C86.8254 30.7001 88.0254 29.3 88.0254 27.5C88.0254 26.2 87.4254 25.2 86.5254 24.6C85.7254 24 84.4253 23.8 82.9253 23.8H79.2253V24.5H81.3253C81.6253 24.5 82.1254 24.5 82.6254 24.5C84.3254 24.5 86.0254 25.3 86.0254 27.7C86.0254 28.8 85.7253 29.9 84.7253 30.7C84.1253 31.2 83.4253 31.2 82.4253 31.2H79.2253V31.9001H82.3253C83.0253 31.9001 83.4253 32.1 83.7253 32.7C84.3253 33.8 85.3254 35.4001 86.0254 36.4001C86.9254 37.6001 87.6253 38.4 90.2253 38.5H90.5254V38.1C89.8254 38 89.4253 37.6 88.9253 37.1Z" fill="#636363"/>
<path d="M38.8252 37.9L39.5253 37.8C40.3253 37.7 40.4252 37.5 40.2252 36.8C40.0252 36.3 39.4252 34.5 38.8252 32.9H34.2252C34.0252 33.5 33.4252 35.2 33.1252 36.2C32.7252 37.5 32.9252 37.8 33.9252 37.9L34.6252 38V38.5H29.8252V38C30.0252 38 30.2252 38 30.3252 37.9C31.3252 37.7 31.5252 37.4 32.2252 35.7L36.8252 23.7L37.3252 23.5L38.9252 27.8C40.0252 30.7 40.9252 33.5 41.8252 35.8C42.5252 37.7 42.8252 37.8 44.2252 38V38.5H38.8252V37.9ZM34.5253 32H38.5253L36.5253 26.5L34.5253 32Z" fill="#636363"/>
<path d="M12.3254 18.7C13.1254 18.8 13.6254 18.9 14.3254 19.1C18.0254 20.4 20.2253 26.6 13.4253 30.1C13.4253 30.1 13.1254 30.2999 13.0254 30.2999C12.8254 30.4 12.5254 30.5 12.3254 30.6C8.02536 32.4 5.52536 32.9999 4.32536 35.7999C2.92536 39.5999 5.92533 43.5 12.4253 43.6C11.6253 43.5 11.1253 43.4 10.4253 43.2C6.72533 41.9 4.52536 35.7 11.3254 32.2L11.7254 32C11.9254 31.9 12.2253 31.8 12.4253 31.7C16.7253 29.9 19.2253 29.3 20.4253 26.5C21.8253 22.7 18.9254 18.8 12.3254 18.7Z" fill="#636363"/>
<path d="M12.1253 19.9C10.5253 19.1 8.72531 19.1 7.22531 19.8C6.72531 20 4.22526 21.2 2.42526 23.7C0.925263 25.7 0.125361 28 0.0253606 30.2C-0.174639 33.4 0.825263 36.2 2.42526 38.4C1.22526 36.7 1.52534 34 3.62534 32.6C6.12534 30.9 9.52526 30.5 11.4253 29.8C12.6253 29.4 13.8253 28.5 14.4253 27.2C15.8253 24.6 14.8253 21.3 12.1253 19.9Z" fill="#557EB9"/>
<path d="M22.4254 23.8C23.6254 25.5 23.3255 28.2 21.2255 29.6C18.7255 31.3 15.3254 31.7001 13.4254 32.4001C12.1254 32.8001 11.0254 33.7 10.4254 35C9.02544 37.7 10.0255 41.0001 12.6255 42.4001C14.2255 43.3001 16.0255 43.2001 17.5255 42.5C18.0255 42.3 20.5255 41.1 22.3255 38.6C23.8255 36.6 24.6255 34.4 24.7255 32.1C25.0255 28.8 24.0254 26 22.4254 23.8Z" fill="#636363"/>
</svg>
