<svg width="132" height="25" viewBox="0 0 132 25" fill="none" xmlns="http://www.w3.org/2000/svg">
<path fill-rule="evenodd" clip-rule="evenodd" d="M12.239 0C12.8423 0 13.2866 0.159164 13.8235 0.351527L13.8286 0.353388C13.9688 0.403495 14.115 0.45593 14.2723 0.508364C17.8307 1.52501 19.864 7.87918 13.2557 11.1833C13.2557 11.1833 13.0014 11.4375 12.7473 11.4375C12.7473 11.4375 12.4931 11.6917 12.239 11.6917C11.8553 11.8496 11.4878 11.9975 11.1357 12.1379C10.9022 12.231 10.6754 12.3207 10.4551 12.4079C7.26486 13.6707 5.44316 14.3919 4.35988 16.775C3.08905 20.5875 5.88482 24.4 12.239 24.4C11.6357 24.4 11.1914 24.2408 10.6545 24.0485L10.6494 24.0466C10.5091 23.9965 10.363 23.9441 10.2057 23.8916C6.64729 22.875 4.61399 16.775 11.2223 13.2167C11.2223 13.2167 11.4765 12.9625 11.7306 12.9625C11.9849 12.9625 12.239 12.7083 12.239 12.7083C12.8769 12.4456 13.4706 12.2106 14.0231 11.9918C17.2131 10.7292 19.035 10.008 20.1181 7.62499C21.6432 4.06668 18.5931 0 12.239 0ZM38.9265 18.8083H38.164V19.3166H43.2473V18.8083C41.9765 18.8083 41.7224 18.5541 40.9598 16.7749C40.1973 14.4874 39.1807 11.6916 38.164 8.89583L36.639 4.57497L36.1307 4.82915L31.5557 16.5208C31.0474 18.2999 30.7931 18.5541 29.7765 18.8083H29.2682V19.5708H34.0974V19.0625H33.3348C32.3182 18.8083 32.0639 18.5541 32.5723 17.2833C32.8266 16.2666 33.3348 14.4874 33.589 13.9792H38.164C38.6475 14.9461 39.0288 16.0152 39.3079 16.7979C39.3493 16.9141 39.3884 17.0239 39.4254 17.1261C39.4623 17.2284 39.497 17.3232 39.5294 17.409C39.5906 17.571 39.6438 17.7014 39.6889 17.7917C39.9432 18.5541 39.6889 18.8083 38.9265 18.8083ZM37.6556 13.2166H33.8431L35.8764 7.62499L37.6556 13.2166ZM51.5625 17.2474L51.5639 17.2495C51.7657 17.5145 51.9545 17.7626 52.1433 18.0458C52.2494 18.1519 52.3445 18.2581 52.4354 18.3597C52.78 18.7443 53.0649 19.0625 53.6682 19.0625V19.5708H53.4141C50.8725 19.5708 50.11 18.8083 49.6016 17.2833C48.8392 16.5208 47.8224 14.7416 47.3141 13.725C46.8057 13.2167 46.5516 12.9625 45.7891 12.9625H42.7391V12.2H45.7891C46.8057 12.2 47.5683 12.2 48.0765 11.6917C49.0933 11.1833 49.3474 9.91248 49.3474 8.89583C49.3474 6.60834 47.8224 5.8458 46.0432 5.8458H44.7724H42.7391V5.08333H46.2975C47.5683 5.08333 48.8392 5.33751 49.6016 5.8458C50.6182 6.35416 51.1266 7.37081 51.1266 8.64164C51.1266 10.4208 50.11 11.6917 48.3308 12.4541C48.6057 12.729 48.955 13.3013 49.3382 13.9299L49.3396 13.9318C49.6648 14.4648 50.0144 15.0379 50.3641 15.5042C50.8427 16.3019 51.2212 16.7991 51.5625 17.2474ZM52.7789 6.73051L52.7784 6.73539L52.7779 6.74028C52.7146 7.31054 52.6514 7.88057 52.6514 8.38746H53.1597C53.4137 7.37159 53.6678 6.8633 53.9217 6.35532L53.9222 6.35416C54.1763 5.8458 54.9389 5.59169 56.718 5.59169H57.7347V16.0125C57.7347 18.3 57.4806 18.5541 55.4471 18.8083V19.3167H61.8013V18.8083C60.6969 18.6856 60.1257 18.6221 59.8303 18.3032C59.5139 17.9616 59.5139 17.327 59.5139 16.0125V5.8458H61.0388C62.3096 5.8458 63.0721 6.09998 63.5805 6.35416C63.8347 6.60834 64.0888 7.37081 64.3429 8.38746H64.8513C64.8513 7.8791 64.7879 7.30728 64.7243 6.73539C64.6607 6.16351 64.5972 5.59169 64.5972 5.08333H52.9055C52.9055 5.59022 52.8422 6.16025 52.7789 6.73051ZM65.868 5.33751C67.6472 5.59169 67.9013 5.8458 67.9013 8.13336H67.6472V16.0125C67.6472 18.5541 67.393 18.8083 65.3597 18.8083V19.3167H75.7804C76.0347 18.5541 76.5431 16.2666 76.5431 15.7584H76.0347C75.8375 16.5467 75.4877 17.1822 75.222 17.6649L75.2196 17.6696C75.1435 17.8075 75.0744 17.9329 75.018 18.0458C74.5096 18.8083 73.493 18.8083 72.2222 18.8083C71.2055 18.8083 70.443 18.8083 69.9346 18.5541C69.6805 18.3 69.4263 17.5375 69.4263 16.2666V12.4541H71.7138C72.7306 12.4541 73.2388 12.4541 73.493 12.7083C73.7471 12.9625 74.0014 13.4708 74.0014 14.2333H74.5096V9.91248H74.0014C73.7471 11.4375 73.493 11.6917 71.7138 11.6917H69.4263V6.60834C69.4263 5.8458 69.6805 5.8458 70.1889 5.8458H71.9679C73.493 5.8458 74.2555 6.09998 74.5096 6.35416C74.7639 6.60834 75.018 7.37081 75.2722 8.38746H75.7804C75.7804 7.50934 75.6591 6.38852 75.584 5.69586L75.5817 5.67624L75.5735 5.59984C75.5634 5.50443 75.5543 5.41903 75.5468 5.3455C75.5341 5.21876 75.5263 5.12777 75.5263 5.08333H65.868V5.33751ZM95.6055 19.0625C93.8263 18.8083 93.5721 18.5541 93.5721 16.2666H93.318V8.38746C93.318 5.88148 93.5649 5.84626 95.2773 5.60224L95.3513 5.59169V5.08333H89.5055V5.33751C91.2847 5.59169 91.5388 5.8458 91.5388 8.13336V16.2666C91.5388 18.5541 91.5388 18.8083 89.7596 18.8083V19.5708H95.6055V19.0625ZM102.722 5.59169L102.648 5.60224C100.936 5.84626 100.689 5.88155 100.689 8.38746V12.9625C100.689 14.7416 100.943 16.2666 101.706 17.2833C102.468 18.3 103.485 18.8083 105.01 18.8083C106.281 18.8083 107.551 18.3 108.314 17.0292C109.076 16.0125 109.331 13.9792 109.331 12.2V10.9291C109.331 8.64164 109.331 7.37081 109.076 6.60834C109.076 5.8458 108.314 5.59169 106.789 5.33751V5.08333H112.126V5.59169C110.856 5.59169 110.347 5.8458 110.093 6.86252C110.093 7.14161 110.059 7.48879 110.016 7.92905C109.941 8.69152 109.839 9.73307 109.839 11.1833V12.7083C109.839 15.25 109.331 17.0292 108.06 18.5541C107.043 19.5708 105.518 20.0791 103.993 20.0791C102.722 20.0791 101.451 19.825 100.435 19.0625C99.1639 18.0458 98.6556 16.5208 98.6556 13.9792V8.13336C98.6556 5.8458 98.4015 5.59169 96.6223 5.33751V5.08333H102.722V5.59169ZM122.293 16.5208L116.956 5.08333H113.397V5.33751C115.431 5.33751 115.685 5.59169 115.431 8.64164L115.176 13.2167C115.176 15.5042 115.176 16.775 114.922 17.5375C114.922 18.5541 114.414 18.8083 113.143 18.8083V19.5708H118.226V19.0625C116.956 18.8083 116.193 18.5541 116.193 17.7917V13.725L116.447 7.62499L121.531 19.0625H122.039L127.376 7.11663V16.0125C127.627 18.5189 127.383 18.5537 125.67 18.7979L125.597 18.8083V19.5708H131.443V19.0625L131.369 19.0519C129.657 18.8078 129.41 18.7725 129.41 16.2666L129.156 8.38746C129.156 7.02161 129.156 6.38976 129.471 6.05802C129.743 5.77242 130.248 5.70928 131.189 5.59169V5.08333H127.631L122.293 16.5208ZM86.8928 17.2495L86.8914 17.2474C86.5501 16.7991 86.1716 16.3019 85.693 15.5042C85.4797 15.2197 85.2664 14.8954 85.0585 14.5648C84.9262 14.3543 84.7962 14.1411 84.6699 13.9341L84.6685 13.9318L84.6671 13.9299C84.2839 13.3013 83.9346 12.729 83.6597 12.4541C85.4389 11.6917 86.4555 10.4208 86.4555 8.64164C86.4555 7.37081 85.9471 6.35416 84.9305 5.8458C84.1681 5.33751 82.8972 5.08333 81.6264 5.08333H78.068V5.8458H80.1013H81.3721C83.1513 5.8458 84.6763 6.60834 84.6763 8.89583C84.6763 9.91248 84.4222 11.1833 83.4054 11.6917C82.8972 12.2 82.1346 12.2 81.118 12.2H78.068V12.9625H81.118C81.8805 12.9625 82.1346 13.2167 82.643 13.725C83.1513 14.7416 84.1681 16.5208 84.9305 17.2833C85.693 18.5541 86.4555 19.3167 88.9971 19.3167V18.8083C88.3676 19.0182 88.0846 18.7082 87.719 18.3076L87.7181 18.3065L87.7171 18.3053C87.6405 18.2215 87.56 18.1336 87.4722 18.0458C87.2834 17.7626 87.0946 17.5145 86.8928 17.2495ZM20.8804 10.675C22.9137 9.40419 23.1679 6.60834 22.1512 5.08333C23.6762 7.11663 24.6929 9.91248 24.4388 12.9625C24.1845 15.25 23.4221 17.5375 22.1512 19.5708C20.2397 21.9603 18.1035 23.0019 17.432 23.3293C17.3892 23.3501 17.3524 23.3681 17.322 23.3833C15.7971 24.1458 14.0179 24.1458 12.4929 23.3833C9.69701 21.8583 8.68043 18.5541 10.2054 16.0125C10.9678 14.7416 11.9846 13.725 13.2554 13.4708C13.8989 13.2295 14.6696 13.0391 15.495 12.8352C17.2781 12.3947 19.3167 11.8912 20.8804 10.675Z" fill="#636363"/>
<path d="M11.9847 1.27085C10.4597 0.50835 8.68058 0.50835 7.15558 1.27085C6.64725 1.27085 4.35975 2.54168 2.58059 4.82918C1.05559 6.86251 0.29309 9.15001 0.038924 11.4375C-0.215242 14.4875 0.801423 17.2833 2.32642 19.5708C1.30976 17.7917 1.56392 14.9958 3.59725 13.725C6.13892 11.9458 9.44308 11.6917 11.2222 10.9292C12.4931 10.4208 13.5097 9.65834 14.2722 8.38751C15.5431 5.84584 14.5264 2.54168 11.9847 1.27085Z" fill="#557EB9"/>
</svg>
