<svg width="100" height="100" viewBox="0 0 100 100" fill="none" xmlns="http://www.w3.org/2000/svg">
<path d="M21.5 86L27.5 94.5L30.5 97L38 98H44.5L52.5 96L59 90L61.5 85L64 75.5L60.5 66.5L54.5 59L53.5 35V12.5L51 6L46 3L41 1L35.5 2L31 7L28.5 14.5L29.5 58L25 62.5L20.5 70L19 79L21.5 86Z" fill="#77E14B" fill-opacity="0.15"/>
<path d="M68.5 11L61 18L64 19.5V53.5H73.5V19.5L75.8125 18L68.5 11Z" fill="#77E14B" fill-opacity="0.15"/>
<path fill-rule="evenodd" clip-rule="evenodd" d="M55.4916 57.7178V33.7727V27.14V14.0074C55.4916 10.1541 53.9137 6.65488 51.3781 4.11367C48.8426 1.57793 45.3379 0 41.4846 0C37.6311 0 34.1266 1.57793 31.5914 4.11328C29.05 6.65449 27.4779 10.1537 27.4779 14.007V57.7174C24.6652 59.816 22.3344 62.5396 20.6846 65.6846C18.9848 68.9344 18.0215 72.6273 18.0215 76.5361C18.0215 79.0887 18.4311 81.5469 19.1895 83.8555C19.9756 86.2414 21.1273 88.4617 22.5887 90.4437C24.112 92.6425 26.5525 94.6857 27.5824 95.4324C29.5592 96.8941 31.7793 98.0512 34.1707 98.8373C36.474 99.5902 38.9322 100 41.4846 100C47.9621 100 53.8307 97.3758 58.0771 93.1295C62.3238 88.8828 64.948 83.0197 64.948 76.5365C64.948 72.6277 63.9848 68.9348 62.285 65.685C60.6352 62.5402 58.3041 59.8164 55.4916 57.7178ZM29.3102 93.0793C31.0428 94.3584 32.9859 95.3658 35.0734 96.0525C37.083 96.7168 39.2426 97.0711 41.4848 97.0711C47.1539 97.0711 52.2863 94.7734 56.0014 91.0586C59.7221 87.3436 62.0197 82.2113 62.0197 76.5365C62.0197 73.0982 61.1781 69.865 59.6943 67.0357C58.166 64.107 55.9404 61.5936 53.2443 59.7057C52.8346 59.4455 52.5635 58.9859 52.5635 58.4652V33.7727L52.5631 27.14V14.0074C52.5631 10.9623 51.3172 8.19394 49.3076 6.18418C47.298 4.17441 44.5297 2.92891 41.4846 2.92891C38.4393 2.92891 35.6709 4.17441 33.6613 6.18418C31.6518 8.19394 30.4059 10.9623 30.4059 14.0074V17.6393H30.4061H35.2008V20.5736H30.4061V25.2244H35.2008V28.1531H30.4061V32.8094H35.2008V35.7381H30.4061V40.3943H35.2008V43.3232H30.4061V58.4156C30.4061 58.9193 30.2012 59.3732 29.7752 59.6668C27.0568 61.5602 24.8145 64.0902 23.2752 67.0301C21.7912 69.8648 20.9498 73.098 20.9498 76.5363C20.9498 78.7842 21.31 80.9377 21.9687 82.9529C22.6555 85.0404 23.6682 86.9779 24.9473 88.7107C25.6458 89.6829 27.4964 91.9177 29.3102 93.0793ZM36.6621 61.7373V50.908H46.307V61.7041C46.307 62.2021 46.5229 62.6506 46.9379 62.9385L49.6178 64.8043C51.5551 66.1498 53.0943 67.9102 54.1465 69.9145C55.1928 71.9186 55.7631 74.183 55.7631 76.5361C55.7631 80.4836 54.1629 84.0492 51.583 86.6346C48.9975 89.2199 45.4266 90.8145 41.4846 90.8145C37.5424 90.8145 33.9715 89.2199 31.3859 86.6346C28.8061 84.0492 27.2063 80.4836 27.2063 76.5361C27.2063 74.183 27.7762 71.9188 28.8225 69.9145C29.8746 67.9102 31.4139 66.1498 33.3514 64.8043L35.9812 62.9775C36.3908 62.7174 36.6621 62.2576 36.6621 61.7373ZM33.7336 49.4408V60.9734L31.6793 62.402C29.3596 64.0131 27.5107 66.1334 26.2373 68.5695C24.9691 70.9943 24.2771 73.7184 24.2771 76.5365C24.2771 81.2924 26.2041 85.5941 29.3154 88.7057C32.4324 91.8174 36.7344 93.7441 41.4848 93.7441C46.2352 93.7441 50.5369 91.8227 53.6539 88.7057C56.7652 85.5941 58.6922 81.2924 58.6922 76.5365C58.6922 73.7184 58 70.9943 56.732 68.5695C55.4588 66.1334 53.6098 64.0131 51.29 62.402L49.2357 60.9734V49.4408C49.2357 48.6328 48.5826 47.9793 47.7686 47.9793H35.2008C34.3867 47.9793 33.7336 48.6326 33.7336 49.4408ZM62.5675 20.2541V34.6324L62.5673 41.2703V53.4007C62.5673 54.2091 63.2261 54.8679 64.0345 54.8679H73.629C74.4374 54.8679 75.0966 54.2091 75.0966 53.4007L75.0966 20.2539H77.0229C77.4106 20.2539 77.7817 20.0933 78.0583 19.8165C78.6286 19.2462 78.6233 18.3216 78.053 17.7515L69.8643 9.60737C69.2944 9.03725 68.3698 9.03725 67.7995 9.60737L59.6886 17.674C59.3784 17.9453 59.1792 18.3439 59.1792 18.7869C59.1792 19.5953 59.8323 20.2541 60.6407 20.2541H62.5675ZM65.4958 41.2703V51.9392H72.1675V18.7869C72.1675 18.0283 72.7431 17.4027 73.485 17.3308L68.8345 12.7023L64.178 17.3308C64.92 17.4027 65.4956 18.0283 65.4956 18.7869V34.6324H65.496L65.4958 41.2703Z" fill="url(#paint0_linear)"/>
<defs>
<linearGradient id="paint0_linear" x1="48.8044" y1="-10.735" x2="48.8054" y2="118.642" gradientUnits="userSpaceOnUse">
<stop stop-color="#F0F83C"/>
<stop offset="1" stop-color="#3BB339"/>
</linearGradient>
</defs>
</svg>
