<svg width="24" height="24" viewBox="0 0 24 24" fill="none" xmlns="http://www.w3.org/2000/svg">
<path fill-rule="evenodd" clip-rule="evenodd" d="M1.36483 4.56869C1.87444 3.63548 2.86541 3 4 3H20C21.1346 3 22.1256 3.63548 22.6352 4.5687C22.5667 4.59561 22.5001 4.63055 22.4367 4.67377L12 11.7897L1.56334 4.67377C1.49994 4.63055 1.43335 4.5956 1.36483 4.56869ZM1 6.71032V18C1 19.6523 2.34772 21 4 21H20C21.6523 21 23 19.6523 23 18V6.71032L12.5633 13.8262C12.2235 14.0579 11.7765 14.0579 11.4367 13.8262L1 6.71032Z" fill="#24243F"/>
</svg>
