<svg width="100" height="100" viewBox="0 0 100 100" fill="none" xmlns="http://www.w3.org/2000/svg">
<path d="M18.5 96L81.5 97.5V69L75 64L62 59L65 56L69.5 46.5L75.5 43L76 37L72.5 32.5L73 11.5L65 7L58 3H40L32.5 7L27.5 13L26 32C25.5 33.5 24.3 36.6 23.5 37C22.7 37.4 23.1667 39.5 23.5 40.5L26 44L29.5 45.5L31.5 50.5L38.5 59L23.5 65L20 68L18.5 72.5V96Z" fill="#77E14B" fill-opacity="0.15"/>
<path fill-rule="evenodd" clip-rule="evenodd" d="M7.8125 10.9375H4.6875V7.8125H1.5625V4.6875H4.6875V1.5625H7.8125V4.6875H10.9375V7.8125H7.8125V10.9375ZM74.5156 12.6766C73.3422 9.14687 70.1312 6.54062 66.2797 6.27344C63.0172 3.22969 58.7922 1.5625 54.3094 1.5625H42.5656C35.3203 1.5625 29.0891 5.97188 26.4062 12.2469C25.9375 13.4297 25 16.4619 25 19.1281V28.8344C21.9828 26.9453 20.3125 24.7719 20.3125 22.6562C20.3125 20.7471 21.2696 18.8189 23.7305 17.0862L24.1211 13.419C19.6347 15.9876 17.1875 19.1886 17.1875 22.6562C17.1875 26.3984 20.1187 29.7703 25 32.3547V32.8531C23.1141 34.2812 21.875 36.5219 21.875 39.0625C21.875 43.0031 24.8187 46.2375 28.6156 46.7672C29.6328 51.5187 32.2016 55.6953 35.7578 58.7562L24.9078 62.0938C20.2891 63.5156 17.1875 67.7188 17.1875 72.55V96.875C17.1875 97.7391 17.8859 98.4375 18.75 98.4375H81.25C82.1141 98.4375 82.8125 97.7391 82.8125 96.875V72.55C82.8125 67.7188 79.7109 63.5172 75.0922 62.0953L64.2422 58.7578C67.8 55.6953 70.3688 51.5203 71.3844 46.7687C75.1813 46.2375 78.125 43.0031 78.125 39.0625C78.125 36.5203 76.8859 34.2797 75 32.8531V32.3547C79.8812 29.7703 82.8125 26.3984 82.8125 22.6562C82.8125 19.2914 80.4662 16.1226 76.1719 13.5783V17.3095C78.4525 18.9869 79.6875 20.8239 79.6875 22.6562C79.6875 24.7719 78.0172 26.9453 75 28.8344V16.5187C75 14.6556 74.6771 13.181 74.5156 12.6766ZM54.3094 4.6875H42.5656C34.6031 4.6875 28.125 11.1656 28.125 19.1266V30.4625C28.7172 30.725 29.3422 30.9766 29.9922 31.2188C32.4328 31.0594 34.375 29.0438 34.375 26.5625V23.5469C34.375 20.0406 37.2281 17.1875 40.7344 17.1875C41.9953 17.1875 43.2141 17.5562 44.2641 18.2563L45.1422 18.8422C48.0297 20.7672 51.9719 20.7672 54.8594 18.8422L55.7375 18.2563C56.7859 17.5562 58.0047 17.1875 59.2656 17.1875C62.7719 17.1875 65.625 20.0406 65.625 23.5469V26.5625C65.625 29.0438 67.5672 31.0594 70.0078 31.2203C70.6594 30.9766 71.2844 30.7266 71.875 30.4641V15.625C71.875 12.1781 69.0719 9.375 65.625 9.375C65.2094 9.375 64.8125 9.21094 64.5203 8.91719C61.7922 6.18906 58.1672 4.6875 54.3094 4.6875ZM50 34.375C55.85 34.375 61.05 33.7078 65.4172 32.6234C63.6453 31.1906 62.5 29.0141 62.5 26.5625V23.5469C62.5 21.7641 61.05 20.3125 59.2656 20.3125C58.625 20.3125 58.0031 20.5 57.4688 20.8562L56.5906 21.4422C52.675 24.0547 47.3219 24.0547 43.4062 21.4422L42.5281 20.8562C41.9969 20.5 41.375 20.3125 40.7344 20.3125C38.9516 20.3125 37.5 21.7625 37.5 23.5469V26.5625C37.5 29.0141 36.3547 31.1906 34.5828 32.6234C38.95 33.7078 44.15 34.375 50 34.375ZM28.125 34.6625C26.3109 35.3094 25 37.0281 25 39.0625C25 41.1203 26.3422 42.8547 28.1906 43.4828C28.1837 43.3628 28.1755 43.2432 28.1673 43.1237C28.1462 42.8134 28.125 42.5033 28.125 42.1875V34.6625ZM50 64.0625C46.6422 64.0625 43.4719 63.2797 40.625 61.9219V64.0625C40.625 69.2328 44.8297 73.4375 50 73.4375C55.1703 73.4375 59.375 69.2328 59.375 64.0625V61.9219C56.5281 63.2797 53.3578 64.0625 50 64.0625ZM28.125 87.5H20.3125V95.3125H28.125V87.5ZM71.875 87.5V95.3125H79.6875V87.5H71.875ZM79.6875 84.375V72.55C79.6875 69.0984 77.4703 66.0969 74.1734 65.0812L62.5 61.4906V64.0625C62.5 70.9547 56.8922 76.5625 50 76.5625C43.1078 76.5625 37.5 70.9547 37.5 64.0625V61.4906L25.8266 65.0828C22.5297 66.0969 20.3125 69.0984 20.3125 72.55V84.375H28.125V78.125H31.25V95.3125H68.75V78.125H71.875V84.375H79.6875ZM31.25 42.1875C31.25 52.5266 39.6609 60.9375 50 60.9375C60.3391 60.9375 68.75 52.5266 68.75 42.1875V34.9031C63.4656 36.5438 57.0281 37.5 50 37.5C42.9719 37.5 36.5344 36.5438 31.25 34.9031V42.1875ZM71.875 34.6625V42.1875C71.875 42.5033 71.8538 42.8134 71.8327 43.1236L71.8326 43.1248C71.8244 43.244 71.8163 43.3632 71.8094 43.4828C73.6578 42.8547 75 41.1203 75 39.0625C75 37.0281 73.6891 35.3094 71.875 34.6625ZM98.4375 4.6875H95.3125V1.5625H92.1875V4.6875H89.0625V7.8125H92.1875V10.9375H95.3125V7.8125H98.4375V4.6875ZM89.0625 17.1875H92.1875V20.3125H95.3125V23.4375H92.1875V26.5625H89.0625V23.4375H85.9375V20.3125H89.0625V17.1875ZM85.9375 7.8125V4.6875H82.8125V1.5625H79.6875V4.6875H76.5625V7.8125H79.6875V10.9375H82.8125V7.8125H85.9375ZM10.9375 17.1875H7.8125V20.3125H4.6875V23.4375H7.8125V26.5625H10.9375V23.4375H14.0625V20.3125H10.9375V17.1875ZM20.3125 10.9375H17.1875V7.8125H14.0625V4.6875H17.1875V1.5625H20.3125V4.6875H23.4375V7.8125H20.3125V10.9375Z" fill="url(#paint0_linear)"/>
<defs>
<linearGradient id="paint0_linear" x1="50.8844" y1="-8.83702" x2="50.885" y2="116.497" gradientUnits="userSpaceOnUse">
<stop stop-color="#F0F83C"/>
<stop offset="1" stop-color="#3BB339"/>
</linearGradient>
</defs>
</svg>
