<svg width="78" height="70" viewBox="0 0 78 70" fill="none" xmlns="http://www.w3.org/2000/svg">
<path d="M33.9307 46.5523H13.4793C12.1624 46.5523 11.1553 45.5452 11.1553 44.2283C11.1553 42.9113 12.1624 41.9042 13.4793 41.9042H32.6138L41.5226 26.4882L32.6138 11.0721H13.4793C12.1624 11.0721 11.1553 10.065 11.1553 8.7481C11.1553 7.43115 12.1624 6.42407 13.4793 6.42407H34.0082C34.8604 6.42407 35.635 6.88888 36.0224 7.58609L46.2481 25.3262C46.6354 26.0234 46.6354 26.953 46.2481 27.6502L35.9449 45.3903C35.5576 46.0875 34.7829 46.5523 33.9307 46.5523Z" fill="white"/>
<path d="M64.3757 64.2918H43.9243C43.0721 64.2918 42.2974 63.827 41.9101 63.1298L31.6069 45.3897C31.2196 44.6925 31.2196 43.7629 31.6069 43.0657L41.8326 25.3256C42.22 24.6284 42.9946 24.1636 43.8468 24.1636H64.3757C65.6926 24.1636 66.6997 25.1707 66.6997 26.4876C66.6997 27.8045 65.6926 28.8116 64.3757 28.8116H45.2412L36.3324 44.2277L45.2412 59.6437H64.3757C65.6926 59.6437 66.6997 60.6508 66.6997 61.9678C66.6997 63.2072 65.6926 64.2918 64.3757 64.2918Z" fill="white"/>
<path d="M7.82423 16.4172C3.48604 16.4172 0 12.9311 0 8.67042C0 4.4097 3.48604 0.846191 7.82423 0.846191C12.1624 0.846191 15.6485 4.33223 15.6485 8.67042C15.6485 13.0086 12.0849 16.4172 7.82423 16.4172ZM7.82423 5.49425C6.04247 5.49425 4.64806 6.88866 4.64806 8.67042C4.64806 10.4522 6.04247 11.8466 7.82423 11.8466C9.52851 11.8466 11.0004 10.4522 11.0004 8.67042C11.0004 6.88866 9.52851 5.49425 7.82423 5.49425Z" fill="white"/>
<path d="M69.876 69.7922C65.6153 69.7922 62.0518 66.3062 62.0518 61.968C62.0518 57.6298 65.5378 54.1438 69.876 54.1438C74.1367 54.1438 77.7002 57.6298 77.7002 61.968C77.7002 66.3062 74.1367 69.7922 69.876 69.7922ZM69.876 58.7919C68.1717 58.7919 66.6998 60.1863 66.6998 61.968C66.6998 63.6723 68.0942 65.1442 69.876 65.1442C71.5803 65.1442 73.0522 63.7498 73.0522 61.968C72.9747 60.2637 71.5803 58.7919 69.876 58.7919Z" fill="white"/>
</svg>
