<svg width="126" height="117" viewBox="0 0 126 117" fill="none" xmlns="http://www.w3.org/2000/svg">
<path fill-rule="evenodd" clip-rule="evenodd" d="M49.4805 113.644C52.2852 113.644 54.4889 111.448 54.4889 108.652C54.4889 105.857 52.2852 103.661 49.4805 103.661C46.6758 103.661 44.4722 105.857 44.4722 108.652C44.4722 111.248 46.6758 113.644 49.4805 113.644ZM49.4805 116.239C53.6875 116.239 57.0932 112.845 57.0932 108.652C57.0932 104.46 53.6875 101.065 49.4805 101.065C45.2735 101.065 41.8678 104.46 41.8678 108.652C41.6675 112.645 45.2735 116.239 49.4805 116.239Z" fill="#0088EC"/>
<path fill-rule="evenodd" clip-rule="evenodd" d="M107.177 67.723C109.981 67.723 112.185 65.5267 112.185 62.7316C112.185 59.9364 109.981 57.7402 107.177 57.7402C104.372 57.7402 102.168 59.9364 102.168 62.7316C102.168 65.5267 104.372 67.723 107.177 67.723ZM107.177 70.3185C111.384 70.3185 114.789 66.9243 114.789 62.7316C114.789 58.5388 111.384 55.1447 107.177 55.1447C102.97 55.1447 99.564 58.5388 99.564 62.7316C99.564 66.9243 102.97 70.3185 107.177 70.3185Z" fill="#0088EC"/>
<path fill-rule="evenodd" clip-rule="evenodd" d="M52.4856 22.8004C55.2903 22.8004 57.494 20.6041 57.494 17.809C57.494 15.0138 55.2903 12.8176 52.4856 12.8176C49.6809 12.8176 47.4773 15.0138 47.4773 17.809C47.4773 20.4045 49.6809 22.8004 52.4856 22.8004ZM52.4856 25.3959C56.6926 25.3959 60.0983 22.0017 60.0983 17.809C60.0983 13.6162 56.6926 10.222 52.4856 10.222C48.2786 10.222 44.8729 13.6162 44.8729 17.809C44.8729 22.0017 48.2786 25.3959 52.4856 25.3959Z" fill="#0088EC"/>
<path d="M41.0194 52.239C41.0194 55.6331 38.2147 58.2287 35.0094 58.2287C31.6037 58.2287 28.9994 55.4335 28.9994 52.239C28.9994 48.8449 31.8041 46.2493 35.0094 46.2493C38.4151 46.0497 41.0194 48.8449 41.0194 52.239Z" fill="url(#paint0_linear)"/>
<path d="M71.8107 34.6503C71.8107 36.6468 70.2081 38.0444 68.4051 38.0444C66.4017 38.0444 64.9994 36.4472 64.9994 34.6503C64.9994 32.8534 66.6021 31.2561 68.4051 31.2561C70.2081 31.0565 71.8107 32.6537 71.8107 34.6503Z" fill="#0088EC"/>
<path d="M125.407 8.43547C125.407 9.63341 124.405 10.6317 123.203 10.6317C122.001 10.6317 120.999 9.63341 120.999 8.43547C120.999 7.23754 122.001 6.23926 123.203 6.23926C124.405 6.43891 125.407 7.23754 125.407 8.43547Z" fill="#0088EC"/>
<path d="M33.4067 4.43547C33.4067 5.63341 32.4051 6.63169 31.2031 6.63169C30.0011 6.63169 28.9994 5.63341 28.9994 4.43547C28.9994 3.23754 30.0011 2.23926 31.2031 2.23926C32.4051 2.23926 33.4067 3.23754 33.4067 4.43547Z" fill="url(#paint1_linear)"/>
<path d="M91.4234 74.4269C91.4234 78.42 88.2181 81.6145 84.2114 81.6145C80.2047 81.6145 76.9994 78.42 76.9994 74.4269C76.9994 70.4337 80.2047 67.2393 84.2114 67.2393C88.2181 67.2393 91.4234 70.4337 91.4234 74.4269Z" fill="#0088EC"/>
<path d="M93.8141 5.63168C93.8141 8.02755 91.8107 10.0241 89.4067 10.0241C87.0027 10.0241 84.9994 8.02755 84.9994 5.63168C84.9994 3.23582 87.0027 1.23926 89.4067 1.23926C91.8107 1.43891 93.8141 3.23582 93.8141 5.63168Z" fill="url(#paint2_linear)"/>
<path d="M97.3603 35.7781C88.5456 24.198 75.3236 17.6094 60.8996 17.6094C59.6976 17.6094 58.4956 17.6094 57.4939 17.809L57.2935 16.4114C58.4956 16.2118 59.6976 16.2118 60.8996 16.2118C75.7243 16.2118 89.5473 23.0001 98.362 34.7798L97.3603 35.7781Z" fill="#0088EC"/>
<path d="M44.4723 107.055C26.0415 100.267 13.8212 82.697 13.8212 63.1307C13.8212 52.1496 17.6275 41.3682 24.8395 32.9827L25.8412 33.7813C19.0298 41.9672 15.2235 52.3493 15.2235 63.1307C15.2235 82.098 27.2435 99.2684 44.8729 105.857L44.4723 107.055Z" fill="#0088EC"/>
<path d="M74.1217 108.054L73.721 106.656C91.5508 101.465 104.572 85.6921 106.375 67.3237L107.778 67.5234C105.975 86.4907 92.3521 102.862 74.1217 108.054Z" fill="#0088EC"/>
<path fill-rule="evenodd" clip-rule="evenodd" d="M54.2887 84.8933C51.484 84.8933 49.2803 87.0895 49.2803 89.8847C49.2803 92.6799 51.484 94.8761 54.2887 94.8761C57.0933 94.8761 59.297 92.6799 59.297 89.8847C59.297 87.0895 57.0933 84.8933 54.2887 84.8933ZM38.8629 21.2031C16.4256 10.0224 8.61254 10.0224 1.20019 0.239258C1.20019 0.239258 -5.01016 40.5697 42.6693 36.9759C42.6693 36.9759 41.0666 30.1876 33.6543 26.1945C26.2419 22.2014 15.2236 17.6093 10.2152 12.4183C10.2152 12.4183 17.8279 17.0103 30.4489 22.401C55.691 33.1825 51.2837 59.7367 51.2837 82.6971C48.479 83.895 46.4756 86.6902 46.4756 89.8847C46.4756 94.0775 49.8813 97.4716 54.0883 97.4716C58.2953 97.4716 61.701 94.0775 61.701 89.8847C61.701 86.6902 59.6977 83.895 56.893 82.6971C57.0933 62.3322 60.2987 31.9845 38.8629 21.2031Z" fill="url(#paint3_linear)"/>
<path fill-rule="evenodd" clip-rule="evenodd" d="M67.7109 103.461C70.5156 103.461 72.7193 105.658 72.7193 108.453C72.7193 111.248 70.5156 113.444 67.7109 113.444C64.9062 113.444 62.7026 111.248 62.7026 108.453C62.7026 105.658 64.9062 103.461 67.7109 103.461ZM83.1366 39.7712C105.574 28.5905 113.387 28.3908 120.799 18.8074C120.799 18.8074 127.01 59.1378 79.3303 55.544C79.3303 55.544 80.9329 48.7557 88.3453 44.7626C95.7576 40.7695 106.776 36.1774 111.784 30.9864C111.784 30.9864 104.172 35.5785 91.5506 40.9692C66.3086 51.7506 70.7159 78.3048 70.7159 101.265C73.5206 102.463 75.5239 105.258 75.5239 108.453C75.5239 112.646 72.1183 116.04 67.9112 116.04C63.7042 116.04 60.2986 112.646 60.2986 108.453C60.2986 105.258 62.3019 102.463 65.1066 101.265C64.9062 80.9003 61.5006 50.5526 83.1366 39.7712Z" fill="url(#paint4_linear)"/>
<defs>
<linearGradient id="paint0_linear" x1="37.2283" y1="47.1793" x2="32.3673" y2="68.9588" gradientUnits="userSpaceOnUse">
<stop stop-color="#F0F83C"/>
<stop offset="1" stop-color="#2FA02D"/>
</linearGradient>
<linearGradient id="paint1_linear" x1="32.0167" y1="2.58363" x2="30.2371" y2="10.5634" gradientUnits="userSpaceOnUse">
<stop stop-color="#F0F83C"/>
<stop offset="1" stop-color="#2FA02D"/>
</linearGradient>
<linearGradient id="paint2_linear" x1="91.0339" y1="1.92801" x2="87.4749" y2="17.8876" gradientUnits="userSpaceOnUse">
<stop stop-color="#F0F83C"/>
<stop offset="1" stop-color="#2FA02D"/>
</linearGradient>
<linearGradient id="paint3_linear" x1="42.5353" y1="7.86247" x2="-16.3119" y2="172.221" gradientUnits="userSpaceOnUse">
<stop stop-color="#F0F83C"/>
<stop offset="1" stop-color="#2FA02D"/>
</linearGradient>
<linearGradient id="paint4_linear" x1="101.899" y1="26.4306" x2="43.0518" y2="190.789" gradientUnits="userSpaceOnUse">
<stop stop-color="#F0F83C"/>
<stop offset="1" stop-color="#2FA02D"/>
</linearGradient>
</defs>
</svg>
