<svg width="42" height="42" viewBox="0 0 42 42" fill="none" xmlns="http://www.w3.org/2000/svg">
<path d="M7.56012 34.2299L11.5501 37.1699L11.7601 40.1099H30.0301V37.7999L31.5001 36.5399L35.7001 32.7599L36.7501 29.8199L37.1701 26.8799H34.6501L37.5901 13.2299L34.8601 12.5999L30.6601 27.0899L28.1401 26.8799L28.5601 25.1999L28.9801 23.0999L26.0401 23.5199L24.9901 25.1999L24.1501 26.0399L21.8401 24.3599L20.7901 24.7799L19.1101 24.9899L20.1601 18.0599L19.5301 17.0099L17.8501 16.3799L16.3801 14.4899L14.4901 13.6499L12.8101 14.2799L11.1301 16.3799L9.45012 16.7999L8.61012 18.4799L9.66012 23.0999H6.72012L7.14012 24.9899L8.19012 26.8799L4.62012 27.0899L4.83012 29.1899L7.56012 34.2299Z" fill="#86C8EA" fill-opacity="0.25"/>
<path d="M23.9401 14.9099L27.0901 15.9599L26.0401 13.6499L23.1001 10.7099H21.2101L20.5801 12.1799L21.2101 14.4899L23.9401 14.9099Z" fill="#86C8EA" fill-opacity="0.25"/>
<path d="M31.0801 11.5499L30.0301 11.3399L29.6101 9.65989L31.5001 9.23989L32.3401 10.7099L31.0801 11.5499Z" fill="#86C8EA" fill-opacity="0.25"/>
<path d="M23.1001 4.82989L21.8401 6.29989L20.3701 4.61989L21.0001 3.35989L22.0501 3.56989L23.1001 4.82989Z" fill="#86C8EA" fill-opacity="0.25"/>
<path d="M13.2301 5.45989L15.1201 6.92989V9.65989L13.2301 10.7099L10.5001 11.5499L7.56012 10.7099L10.5001 6.29989L13.2301 5.45989Z" fill="#86C8EA" fill-opacity="0.25"/>
<path d="M26.8801 4.82989L25.6201 2.30989L28.1401 1.88989L30.4501 4.19989L30.6601 6.08989H29.4001L26.8801 4.82989Z" fill="#86C8EA" fill-opacity="0.25"/>
<path fill-rule="evenodd" clip-rule="evenodd" d="M30.8438 6.5625H29.5312C28.3133 6.56111 27.1457 6.07668 26.2845 5.21549C25.4233 4.35429 24.9389 3.18666 24.9375 1.96875C24.9375 1.7947 25.0066 1.62778 25.1297 1.50471C25.2528 1.38164 25.4197 1.3125 25.5938 1.3125H26.9062C28.1242 1.31389 29.2918 1.79832 30.153 2.65951C31.0142 3.52071 31.4986 4.68834 31.5 5.90625C31.5 6.0803 31.4309 6.24722 31.3078 6.37029C31.1847 6.49336 31.0178 6.5625 30.8438 6.5625ZM28.9809 3.36557C28.3952 2.88739 27.6624 2.62583 26.9062 2.625H26.3156C26.4678 3.36569 26.8708 4.03124 27.4566 4.50943C28.0423 4.98761 28.7751 5.24917 29.5312 5.25H30.1219C29.9697 4.50931 29.5667 3.84376 28.9809 3.36557ZM7.18264 11.8125C7.35458 11.8217 7.97605 11.8519 8.79767 11.8519C10.4324 11.8519 12.8579 11.7311 14.0877 11.0808C14.9056 10.6022 15.5089 9.82836 15.7736 8.91846C15.933 8.49006 16.0062 8.0344 15.9891 7.57764C15.972 7.12087 15.8649 6.67197 15.6739 6.25671C14.8647 4.72502 12.4156 4.49795 10.8498 5.32614C8.9788 6.31511 6.86764 10.397 6.63336 10.859C6.58368 10.9564 6.55911 11.0646 6.56189 11.1739C6.56467 11.2832 6.59471 11.3901 6.64928 11.4848C6.70385 11.5795 6.78122 11.6591 6.87436 11.7163C6.96751 11.7736 7.07348 11.8066 7.18264 11.8125ZM11.0079 8.18674L9.00767 9.35355C9.31545 8.86727 9.65211 8.37836 9.99205 7.93342L11.0079 8.18674ZM11.8125 9.23608V10.3589C11.0803 10.4532 10.3436 10.5082 9.60552 10.5236L11.8125 9.23608ZM14.5254 8.51421C14.3628 9.09774 13.9884 9.59965 13.4754 9.92186C13.3622 9.97714 13.2453 10.0247 13.1256 10.0643V8.47089L14.6698 7.56986C14.6747 7.88985 14.6259 8.2084 14.5254 8.51224V8.51421ZM14.03 6.42536L12.6308 7.24174L10.9935 6.83224C11.1378 6.70116 11.296 6.58629 11.4653 6.48967C11.8613 6.28954 12.2967 6.17978 12.7402 6.16832C13.1837 6.15686 13.6242 6.24398 14.03 6.42339V6.42536ZM19.8982 12.5921C19.8055 12.1893 19.8446 11.7675 20.0097 11.3886C19.5117 11.0962 19.0988 10.6787 18.8121 10.1775C18.5253 9.67624 18.3746 9.10872 18.375 8.53125H19.6875C19.6992 8.93078 19.8228 9.31901 20.0441 9.65184C20.2655 9.98466 20.5757 10.2487 20.9396 10.414C21.3894 10.1614 21.9082 10.0595 22.4201 10.1233C24.1008 10.3228 25.5629 12.0087 26.1135 12.7247C27.3532 14.3358 28.0882 15.3569 28.0954 15.3674C28.1657 15.4654 28.2077 15.581 28.2166 15.7013C28.2256 15.8217 28.2012 15.9421 28.1461 16.0495C28.091 16.1569 28.0074 16.247 27.9045 16.3099C27.8015 16.3729 27.6832 16.4062 27.5625 16.4062H27.5389C26.1589 16.3186 24.7913 16.0915 23.457 15.7283C21.7107 15.2657 20.181 13.9177 19.8982 12.5921ZM22.2653 11.4273C22.2115 11.4203 22.1574 11.4168 22.1032 11.4168V11.4187C21.8503 11.4168 21.6052 11.5055 21.4121 11.6688C21.311 11.7402 21.2345 11.8412 21.1932 11.9579C21.152 12.0747 21.148 12.2013 21.1818 12.3204C21.3399 13.0627 22.4267 14.0995 23.793 14.4611C24.5692 14.6666 25.3565 14.828 26.1509 14.9448C25.8569 14.5523 25.4947 14.0746 25.074 13.5273C24.1513 12.327 23.0757 11.5231 22.2653 11.4273ZM34.9558 26.25H37.4062C37.5803 26.25 37.7472 26.3191 37.8703 26.4422C37.9934 26.5653 38.0625 26.7322 38.0625 26.9062C38.0625 33.0139 32.3361 36.8812 30.8438 37.7836V40.0312C30.8438 40.2053 30.7746 40.3722 30.6515 40.4953C30.5285 40.6183 30.3615 40.6875 30.1875 40.6875H11.8125C11.6385 40.6875 11.4715 40.6183 11.3485 40.4953C11.2254 40.3722 11.1562 40.2053 11.1562 40.0312V37.7836C9.66394 36.8812 3.9375 33.0139 3.9375 26.9062C3.9375 26.7322 4.00664 26.5653 4.12971 26.4422C4.25278 26.3191 4.4197 26.25 4.59375 26.25H7.23581C6.8015 25.6853 6.56491 24.9936 6.5625 24.2812V22.3125H8.53125C8.68526 22.317 8.83877 22.3323 8.99062 22.3584C7.87894 18.8501 7.875 18.5528 7.875 18.375C7.87517 18.0111 7.95098 17.6512 8.09763 17.3182C8.24428 16.9852 8.45856 16.6863 8.72687 16.4406C8.99518 16.1948 9.31166 16.0075 9.65621 15.8905C10.0008 15.7735 10.3659 15.7295 10.7284 15.7611C10.9953 14.9902 11.4958 14.3217 12.1603 13.8485C12.8249 13.3753 13.6204 13.121 14.4362 13.121C15.252 13.121 16.0475 13.3753 16.712 13.8485C17.3766 14.3217 17.8771 14.9902 18.144 15.7611C18.5067 15.7291 18.8721 15.7729 19.217 15.8896C19.5618 16.0064 19.8786 16.1937 20.1472 16.4395C20.4158 16.6853 20.6304 16.9844 20.7772 17.3176C20.924 17.6508 20.9999 18.0109 21 18.375C21 18.5062 21 18.5778 19.656 24.3239C20.0042 24.0487 20.4052 23.8479 20.8341 23.7339C21.263 23.6199 21.7107 23.5951 22.1496 23.6611C22.5885 23.727 23.0092 23.8823 23.3856 24.1173C23.7621 24.3523 24.0864 24.6621 24.3383 25.0274C24.4714 24.2683 24.8673 23.5802 25.4569 23.0838C26.0464 22.5874 26.7918 22.3143 27.5625 22.3125H29.5312V24.2812C29.5288 24.9936 29.2922 25.6853 28.8579 26.25H30.3424L34.148 12.2968C34.1931 12.1311 34.3014 11.9897 34.4496 11.903C34.5978 11.8162 34.7741 11.7911 34.9407 11.8328L37.5657 12.4891C37.733 12.531 37.8771 12.6372 37.9668 12.7846C38.0564 12.9319 38.0845 13.1087 38.0448 13.2766L34.9558 26.25ZM36.6174 13.604L35.2452 13.2615L31.7034 26.25H33.6066L36.6174 13.604ZM26.1704 24.2016C25.8012 24.5708 25.5938 25.0716 25.5938 25.5937V26.25H26.25C26.7721 26.25 27.2729 26.0426 27.6421 25.6733C28.0113 25.3041 28.2188 24.8034 28.2188 24.2812V23.625H27.5625C27.0404 23.625 26.5396 23.8324 26.1704 24.2016ZM22.7926 25.2994C22.4602 25.0644 22.0633 24.938 21.6562 24.9375C21.2492 24.938 20.8523 25.0644 20.5199 25.2994C20.1875 25.5343 19.9359 25.8664 19.7997 26.25H23.5128C23.3766 25.8664 23.125 25.5343 22.7926 25.2994ZM15.2691 25.298C14.9366 25.5333 14.6853 25.8659 14.5497 26.25H18.2628C18.1272 25.8659 17.8759 25.5333 17.5434 25.298C17.2109 25.0627 16.8136 24.9364 16.4062 24.9364C15.9989 24.9364 15.6016 25.0627 15.2691 25.298ZM9.33009 17.7565C9.23178 17.9476 9.18277 18.1602 9.1875 18.375C9.20128 18.4977 9.37059 19.2583 10.5899 23.0599C10.9698 23.3643 11.2768 23.7498 11.4884 24.1883C11.6999 24.6267 11.8107 25.1069 11.8125 25.5937V26.25H13.1906C13.3429 25.5093 13.7459 24.8439 14.3317 24.3657C14.9174 23.8875 15.6501 23.6259 16.4062 23.625C17.0967 23.6263 17.7688 23.8474 18.3251 24.2563C18.8304 22.0953 19.5996 18.7956 19.6875 18.3304C19.6848 18.1193 19.6304 17.9122 19.529 17.7271C19.4276 17.542 19.2823 17.3846 19.1059 17.2687C18.9294 17.1529 18.7273 17.0821 18.5171 17.0626C18.307 17.0431 18.0952 17.0755 17.9005 17.157C17.8094 17.1918 17.7116 17.2058 17.6144 17.198C17.5171 17.1903 17.4229 17.161 17.3384 17.1122C17.2539 17.0634 17.1813 16.9964 17.126 16.9161C17.0707 16.8357 17.034 16.7441 17.0185 16.6477C16.923 16.0317 16.6103 15.4702 16.137 15.0646C15.6637 14.659 15.0609 14.4361 14.4375 14.4361C13.8141 14.4361 13.2113 14.659 12.738 15.0646C12.2647 15.4702 11.952 16.0317 11.8565 16.6477C11.841 16.7441 11.8043 16.8357 11.749 16.9161C11.6937 16.9964 11.6211 17.0634 11.5366 17.1122C11.4521 17.161 11.3578 17.1903 11.2606 17.198C11.1634 17.2058 11.0656 17.1918 10.9745 17.157C10.7763 17.074 10.5605 17.0419 10.3467 17.0636C10.1329 17.0853 9.92798 17.16 9.75044 17.281C9.5729 17.402 9.4284 17.5655 9.33009 17.7565ZM7.875 23.625V24.2812C7.875 24.8034 8.08242 25.3041 8.45163 25.6733C8.82085 26.0426 9.3216 26.25 9.84375 26.25H10.5V25.5937C10.5 25.0716 10.2926 24.5708 9.92337 24.2016C9.55415 23.8324 9.05339 23.625 8.53125 23.625H7.875ZM26.9062 36.75H30.0103C30.7492 36.3129 34.5037 33.9353 36.0636 30.1875H22.3125V28.875H36.4973C36.6083 28.4444 36.6838 28.0054 36.7231 27.5625H5.27691C5.31621 28.0054 5.39171 28.4444 5.50266 28.875H13.125V30.1875H5.93644C7.49634 33.9353 11.2508 36.3129 11.9897 36.75H21V38.0625H12.4688V39.375H29.5312V38.0625H26.9062V36.75ZM11.8125 19.6875H13.125V21H11.8125V19.6875ZM15.0938 21V22.3125H16.4062V21H15.0938ZM21.6563 6.5625C22.0456 6.5625 22.4263 6.44704 22.75 6.23071C23.0738 6.01438 23.3261 5.7069 23.4751 5.34716C23.6241 4.98742 23.6631 4.59157 23.5872 4.20967C23.5112 3.82777 23.3237 3.47697 23.0484 3.20163C22.773 2.9263 22.4222 2.73879 22.0403 2.66283C21.6584 2.58687 21.2626 2.62585 20.9028 2.77486C20.5431 2.92387 20.2356 3.17621 20.0193 3.49997C19.803 3.82373 19.6875 4.20437 19.6875 4.59375C19.6875 5.1159 19.8949 5.61666 20.2641 5.98587C20.6333 6.35508 21.1341 6.5625 21.6563 6.5625ZM21.6563 3.9375C21.786 3.9375 21.9129 3.97599 22.0208 4.0481C22.1288 4.12021 22.2129 4.2227 22.2625 4.34261C22.3122 4.46253 22.3252 4.59448 22.2999 4.72178C22.2746 4.84908 22.2121 4.96601 22.1203 5.05779C22.0285 5.14957 21.9116 5.21207 21.7843 5.23739C21.657 5.26271 21.525 5.24972 21.4051 5.20005C21.2852 5.15038 21.1827 5.06626 21.1106 4.95834C21.0385 4.85042 21 4.72354 21 4.59375C21 4.4197 21.0691 4.25278 21.1922 4.12971C21.3153 4.00664 21.4822 3.9375 21.6563 3.9375ZM29.2068 11.5938C28.9905 11.27 28.875 10.8894 28.875 10.5C28.875 9.97785 29.0824 9.47709 29.4516 9.10788C29.8208 8.73867 30.3216 8.53125 30.8438 8.53125C31.2331 8.53125 31.6138 8.64672 31.9375 8.86304C32.2613 9.07937 32.5136 9.38685 32.6626 9.74659C32.8116 10.1063 32.8506 10.5022 32.7747 10.8841C32.6987 11.266 32.5112 11.6168 32.2359 11.8921C31.9605 12.1674 31.6097 12.355 31.2278 12.4309C30.8459 12.5069 30.4501 12.4679 30.0903 12.3189C29.7306 12.1699 29.4231 11.9175 29.2068 11.5938ZM31.3894 10.8646C31.4615 10.7567 31.5 10.6298 31.5 10.5C31.5 10.326 31.4309 10.159 31.3078 10.036C31.1847 9.91289 31.0178 9.84375 30.8438 9.84375C30.714 9.84375 30.5871 9.88224 30.4792 9.95435C30.3712 10.0265 30.2871 10.1289 30.2375 10.2489C30.1878 10.3688 30.1748 10.5007 30.2001 10.628C30.2254 10.7553 30.2879 10.8723 30.3797 10.964C30.4715 11.0558 30.5884 11.1183 30.7157 11.1436C30.843 11.169 30.975 11.156 31.0949 11.1063C31.2148 11.0566 31.3173 10.9725 31.3894 10.8646ZM15.75 1.96875H17.0625V3.28125H15.75V1.96875ZM30.8438 16.4062H29.5312V17.7188H30.8438V16.4062ZM24.2812 19.0312H25.5938V20.3438H24.2812V19.0312ZM27.5625 7.875H26.25V9.1875H27.5625V7.875Z" fill="#86C8EA"/>
</svg>
