<svg width="90" height="104" viewBox="0 0 90 104" fill="none" xmlns="http://www.w3.org/2000/svg">
<path d="M39.2341 50.2429C40.1517 50.4616 41.218 50.6676 42.2716 50.726C42.4203 50.7132 43.3125 50.6366 43.4739 50.7715C43.4739 50.7715 40.3224 48.9595 37.3162 45.3501C34.3227 41.8883 33.6545 35.8471 33.6545 35.8471C33.6545 35.8471 37.0028 43.4433 42.4896 48.0298C43.6193 48.9741 45.4071 50.6057 45.4071 50.6057C45.4071 50.6057 47.0295 43.3266 44.02 37.9325C39.0833 29.2826 29.7841 27.4032 29.7841 27.4032C28.4204 27.2227 30.3096 30.0355 29.1646 34.1499C28.1177 37.6609 27.3935 41.4417 31.3933 46.1558C33.2191 48.2303 37.0888 49.6832 39.2341 50.2429Z" fill="url(#paint0_linear)"/>
<path d="M46.6655 54.8112C46.5041 54.6763 45.9946 53.9763 46.1306 53.8159C46.1306 53.8159 46.1373 57.3852 44.4102 61.6983C42.8318 65.9986 37.9058 69.6938 37.9058 69.6938C37.9058 69.6938 42.8758 63.02 44.0647 55.9269C44.3842 54.412 44.7889 52.1461 44.7889 52.1461C44.7889 52.1461 37.6417 54.3956 34.5035 59.7222C29.2394 68.2062 32.2556 77.1697 32.2556 77.1697C32.667 78.4731 34.3468 75.354 38.6087 74.3933C42.2756 73.4837 45.7686 72.2915 47.9638 66.4507C48.9381 63.8385 48.2986 59.8772 47.6624 57.7006C47.4123 56.5321 47.0389 55.6716 46.6655 54.8112Z" fill="url(#paint1_linear)"/>
<path d="M68.8605 46.362C66.2278 43.613 63.4717 41.1721 57.2767 42.2986C54.4766 42.8364 51.3951 45.332 49.7373 46.9617C49.0571 47.7638 48.3643 48.4183 47.8455 49.3553C47.7094 49.5157 47.4754 50.2795 47.1906 50.4527C47.1906 50.4527 50.3355 48.6954 54.9074 47.8568C59.4793 47.0183 65.0862 49.5121 65.0862 49.5121C65.0862 49.5121 56.7679 48.5896 50.0921 51.0962C48.643 51.6668 46.4504 52.3012 46.4504 52.3012C46.4504 52.3012 51.9753 57.3307 58.123 57.3981C68.175 57.5768 74.4581 50.4928 74.4581 50.4928C75.2616 49.3826 71.8287 49.5285 68.8605 46.362Z" fill="url(#paint2_linear)"/>
<path d="M81.0446 54.3328C80.4476 53.4436 79.7013 52.7026 78.955 51.8134C79.7013 50.9241 80.4476 50.1831 81.0446 49.2939C86.7162 42.1803 89.9998 35.2148 89.9998 29.5831C89.9998 27.2119 89.4028 25.1371 88.2088 23.3587C87.0147 21.4321 85.0744 20.0983 82.6864 19.209C80.2983 18.3198 77.6118 17.8752 74.4774 17.8752C70.8953 17.8752 66.7162 18.468 62.3879 19.6536C61.9401 18.3198 61.3431 16.986 60.8953 15.6522C58.955 11.058 56.567 7.20473 53.8804 4.5371C51.1938 1.72127 48.2088 0.239258 44.9252 0.239258C41.7909 0.239258 38.8058 1.72127 36.1192 4.3889C34.9252 5.57451 33.7312 7.05652 32.6864 8.68674C32.6864 6.76012 32.2386 4.8335 31.3431 3.05509C30.7461 2.01768 30.1491 1.57307 30.1491 1.57307C30.1491 1.57307 29.4028 5.57451 25.6715 8.24214C21.9401 10.9098 27.761 15.504 27.761 15.504C27.761 15.504 27.4625 12.8364 27.9103 9.87235C28.358 6.90832 29.4028 5.72271 29.4028 5.72271C29.4028 5.72271 28.0595 8.24214 28.5073 14.6148C28.5073 15.0594 28.5073 16.0968 28.5073 17.1342C28.2088 17.8752 27.9103 18.7644 27.6118 19.5054C23.2834 18.3198 19.1043 17.727 15.5222 17.727C12.3879 17.727 9.55206 18.1716 7.31325 19.0608C4.92519 19.95 3.13415 21.2839 1.79086 23.2105C0.596832 24.9889 -0.000183105 27.2119 -0.000183105 29.5831C-0.000183105 35.2148 3.2834 42.1803 8.95504 49.2939C9.55206 50.1831 10.2983 50.9241 11.0446 51.8134C10.2983 52.7026 9.55206 53.4436 8.95504 54.3328C3.2834 61.4465 -0.000183105 68.4119 -0.000183105 74.0436C-0.000183105 76.4148 0.596832 78.4896 1.79086 80.268C2.98489 82.1947 4.92519 83.5285 7.31325 84.4177C9.70131 85.3069 12.3879 85.7515 15.5222 85.7515C19.1043 85.7515 23.2834 85.1587 27.6118 83.9731C28.0595 85.3069 28.6565 86.6407 29.1043 87.9745C31.0446 92.5688 33.4327 96.422 36.1192 99.0896C38.8058 101.757 41.7909 103.239 44.9252 103.239C48.0595 103.239 51.0446 101.757 53.7312 99.0896C57.164 95.681 59.9998 90.4939 62.3879 83.9731C66.7162 85.1587 70.8953 85.7515 74.4774 85.7515C77.6118 85.7515 80.4476 85.3069 82.6864 84.4177C85.0744 83.5285 86.8655 82.1947 88.2088 80.268C89.4028 78.4896 89.9998 76.4148 89.9998 74.0436C89.9998 68.2637 86.7162 61.4465 81.0446 54.3328ZM74.4774 18.7644C77.4625 18.7644 80.1491 19.209 82.3879 20.0983C84.6267 20.9875 86.2685 22.1731 87.4625 23.9515C88.5073 25.5817 89.1043 27.5083 89.1043 29.7313C89.1043 35.0666 85.97 41.8839 80.2983 48.8493C79.7013 49.5903 78.955 50.4795 78.358 51.2206C75.0744 47.5155 71.1938 43.9587 66.8655 40.4018C66.567 37.2896 66.1192 34.3256 65.5222 31.3616C66.1192 31.0652 66.567 30.4724 66.567 29.8795C66.567 28.9903 65.8207 28.2493 64.9252 28.2493C64.3282 25.5817 63.5819 23.0623 62.8356 20.6911C67.0147 19.209 71.0446 18.7644 74.4774 18.7644ZM66.1192 59.3716C65.97 60.5572 65.97 61.7429 65.8207 62.9285C62.9849 65.1515 59.9998 67.3745 56.8655 69.4493C52.9849 72.117 48.955 74.34 45.0744 76.2666C43.5819 75.5256 42.0894 74.6364 40.4476 73.8954C39.9998 74.0436 39.7013 74.1918 39.2535 74.34C40.7461 75.2292 42.3879 76.1184 43.8804 76.8594C38.358 79.527 33.1341 81.6018 28.0595 82.9357C27.761 82.0465 27.4625 81.1572 27.164 80.268C26.4177 77.8968 25.8207 75.3774 25.373 72.7098C25.97 72.4134 26.2685 71.8206 26.2685 71.2278C26.2685 70.3385 25.6715 69.7457 24.7759 69.5975C24.4774 67.8191 24.3282 66.1889 24.0297 64.4105C25.2237 65.4479 26.567 66.3371 27.9103 67.3745C28.0595 67.0781 28.0595 66.6335 28.2088 66.3371C26.7162 65.2997 25.2237 64.1141 23.8804 63.0767C23.5819 59.5198 23.2834 55.8148 23.2834 51.9616C23.2834 48.1083 23.4327 44.4033 23.8804 40.8465C25.2237 39.809 26.567 38.7716 27.9103 37.7342C27.9103 37.2896 27.9103 36.9932 27.9103 36.5486C26.567 37.4378 25.373 38.4752 24.0297 39.5126C24.7759 32.5472 26.1192 26.3227 27.9103 20.8393C32.8356 22.1731 38.2088 24.2479 43.7312 26.9155C42.3879 27.5083 41.1939 28.2493 39.8506 28.9903C40.1491 29.1385 40.2983 29.4349 40.5968 29.7313C42.0894 28.9903 43.4327 28.2493 44.7759 27.5083C48.6565 29.4349 52.6864 31.8062 56.567 34.3256C59.7013 36.4004 62.8356 38.6234 65.5222 40.8465C65.6715 41.8839 65.6715 42.7731 65.8207 43.8105C66.1192 43.9587 66.567 44.2551 66.8655 44.4033C66.8655 43.5141 66.7162 42.6249 66.7162 41.5875C70.7461 44.9961 74.3282 48.4047 77.4625 51.8134C74.3282 55.222 70.7461 58.7788 66.7162 62.0393C66.8655 61.0019 66.8655 59.8162 67.0147 58.6306C66.8655 58.927 66.4177 59.0752 66.1192 59.3716ZM65.6715 64.2623C64.9252 71.2278 63.5819 77.4522 61.7909 82.9357C56.8655 81.6018 51.4924 79.527 46.1192 76.8594C49.8506 74.9328 53.5819 72.7098 57.4625 70.3385C60.2983 68.2637 63.1341 66.3371 65.6715 64.2623ZM23.1341 62.0393C19.1043 58.6306 15.5222 55.222 12.3879 51.8134C15.373 48.4047 19.1043 44.8479 23.1341 41.5875C22.8356 44.8479 22.6864 48.2565 22.6864 51.8134C22.6864 55.222 22.8356 58.6306 23.1341 62.0393ZM62.6864 23.3587C63.1341 24.8407 63.5819 26.4709 63.8804 28.2493C63.4327 28.5457 63.1341 29.1385 63.1341 29.7313C63.1341 30.6206 63.7312 31.2134 64.6267 31.3616C65.0744 33.881 65.5222 36.5486 65.8207 39.3644C63.1341 37.2896 60.4476 35.2148 57.4625 33.2882C53.7312 30.7688 49.8506 28.5457 46.1192 26.7673C51.6416 24.0997 56.8655 22.0249 61.7909 20.6911C62.0894 21.5803 62.3879 22.4695 62.6864 23.3587ZM29.2535 17.4306C29.5521 17.2824 29.7013 17.2824 29.8506 17.2824C32.8356 16.3932 33.8804 15.3558 33.8804 15.3558C33.8804 15.3558 33.5819 16.0968 32.2386 16.6896C30.8953 17.4306 29.5521 17.727 29.5521 17.727C29.5521 17.727 32.0894 19.3572 33.4327 17.4306C34.7759 15.3558 35.8207 14.1702 35.8207 14.1702C35.8207 14.1702 35.5222 14.022 34.9252 13.8738C33.4327 13.7256 32.0894 14.022 30.8953 14.763C31.6416 13.5774 32.2386 12.2436 32.5371 10.9098C33.8804 8.53854 35.373 6.61192 36.8655 5.12991C39.4028 2.61048 42.2386 1.27667 45.0744 1.27667C47.9103 1.27667 50.7461 2.61048 53.2834 5.12991C56.567 8.39034 59.4028 13.4292 61.6416 19.8018C56.4177 21.2839 50.8953 23.3587 45.0744 26.1745C39.4028 23.3587 33.7312 21.1357 28.5073 19.8018C28.8058 18.9126 29.1043 18.1716 29.2535 17.4306ZM9.70131 48.7011C4.02967 41.5875 0.895339 34.9184 0.895339 29.5831C0.895339 27.3601 1.49235 25.4335 2.53713 23.8033C3.73116 22.1731 5.37295 20.8393 7.61176 19.9501C9.85056 19.0608 12.3879 18.6162 15.5222 18.6162C18.955 18.6162 22.9849 19.209 27.3132 20.2465C27.0147 21.1357 26.7162 22.0249 26.4177 22.9141C24.9252 28.1011 23.8804 33.7328 23.2834 39.9572C18.955 43.5141 15.0744 47.2191 11.7909 50.7759C11.0446 50.1831 10.2983 49.4421 9.70131 48.7011ZM15.373 84.8623C12.3879 84.8623 9.70131 84.4177 7.4625 83.5285C5.2237 82.6393 3.58191 81.4536 2.38788 79.6752C1.64161 78.6378 1.19385 77.4522 1.04459 76.2666C1.64161 75.5256 2.08937 74.7846 2.38788 74.4882C5.82071 70.3385 6.26847 67.9673 6.26847 67.9673C6.26847 67.9673 6.41773 69.3011 5.2237 71.5241C4.02967 73.7472 2.53713 75.5256 2.53713 75.5256C2.53713 75.5256 7.76101 75.3774 7.61176 71.5241C7.4625 67.2263 7.91027 64.5587 7.91027 64.5587C7.91027 64.5587 7.164 64.5587 6.26847 65.0033C3.88041 66.1889 2.23862 68.1155 1.3431 70.3385C2.38788 65.7443 5.2237 60.409 9.55206 55.0738C10.1491 54.3328 10.8953 53.4436 11.4924 52.7026C14.7759 56.4076 18.6565 59.9644 22.9849 63.5213C23.1341 65.5961 23.4327 67.6709 23.7312 69.7457C23.1341 70.0421 22.6864 70.6349 22.6864 71.2278C22.6864 72.117 23.4327 72.858 24.1789 72.858C24.9252 76.563 25.8207 79.9716 26.8655 83.2321C22.9849 84.2695 18.955 84.8623 15.373 84.8623ZM59.9998 87.6781C58.0595 92.2724 55.6715 95.9774 53.1341 98.4968C50.5968 101.016 47.761 102.35 44.9252 102.35C42.0894 102.35 39.2536 101.016 36.7162 98.4968C33.4327 95.2364 30.5968 90.1975 28.358 83.8249C33.5819 82.3429 39.1043 80.268 44.9252 77.4522C50.5968 80.268 56.2685 82.4911 61.4924 83.8249C61.0446 85.1587 60.5968 86.4925 59.9998 87.6781ZM87.4625 79.6752C86.2685 81.3054 84.6267 82.6393 82.3879 83.5285C80.1491 84.4177 77.6118 84.8623 74.4774 84.8623C71.0446 84.8623 67.0147 84.2695 62.6864 83.2321C62.9849 82.3429 63.2834 81.4537 63.5819 80.5644C65.0744 75.5256 66.1192 69.7457 66.7162 63.5213C71.0446 59.9644 74.9252 56.2594 78.2088 52.5544C78.955 53.2954 79.5521 54.1846 80.1491 54.9256C84.3282 60.1126 87.0147 65.1515 88.2088 69.5975C87.0147 67.3745 85.0744 65.4479 82.3879 64.7069C81.4924 64.4105 80.7461 64.5587 80.7461 64.5587C80.7461 64.5587 82.6864 67.3745 81.9401 71.2278C81.1939 74.9328 87.4625 74.34 87.4625 74.34C87.4625 74.34 85.6715 72.858 84.3282 70.9313C82.8356 68.8565 82.8356 67.6709 82.8356 67.6709C82.8356 67.6709 83.5819 69.8939 87.4625 73.4508C87.761 73.7472 88.358 74.34 88.8058 74.7846C88.955 76.563 88.358 78.1932 87.4625 79.6752Z" fill="#0088EC"/>
<path d="M16.2685 24.3515C16.2685 22.7213 14.9252 21.2393 13.1341 21.2393C11.3431 21.2393 9.99982 22.5731 9.99982 24.3515C9.99982 25.9817 11.3431 27.4637 13.1341 27.4637C14.9252 27.4637 16.2685 25.9817 16.2685 24.3515Z" fill="url(#paint3_linear)"/>
<path d="M13.4924 39.2393C12.7461 39.2393 11.9998 39.8321 11.9998 40.7213C11.9998 41.4623 12.5968 42.2033 13.4924 42.2033C14.2386 42.2033 14.9849 41.6105 14.9849 40.7213C14.9849 39.8321 14.2386 39.2393 13.4924 39.2393Z" fill="url(#paint4_linear)"/>
<path d="M79.2685 68.3515C79.2685 66.7213 77.9252 65.2393 76.1342 65.2393C74.4924 65.2393 72.9998 66.5731 72.9998 68.3515C72.9998 70.1299 74.3431 71.4637 76.1342 71.4637C77.7759 71.3155 79.2685 69.9817 79.2685 68.3515Z" fill="url(#paint5_linear)"/>
<path d="M69.4924 75.2393C68.7461 75.2393 67.9998 75.8321 67.9998 76.7213C67.9998 77.6105 68.5968 78.2033 69.4924 78.2033C70.2386 78.2033 70.9849 77.6105 70.9849 76.7213C70.9849 75.8321 70.2386 75.2393 69.4924 75.2393Z" fill="url(#paint6_linear)"/>
<defs>
<linearGradient id="paint0_linear" x1="39.0646" y1="28.5121" x2="29.066" y2="71.7814" gradientUnits="userSpaceOnUse">
<stop stop-color="#F0F83C"/>
<stop offset="1" stop-color="#2FA02D"/>
</linearGradient>
<linearGradient id="paint1_linear" x1="42.1225" y1="54.2793" x2="32.9411" y2="97.4743" gradientUnits="userSpaceOnUse">
<stop stop-color="#F0F83C"/>
<stop offset="1" stop-color="#2FA02D"/>
</linearGradient>
<linearGradient id="paint2_linear" x1="65.0114" y1="42.7563" x2="63.9889" y2="71.7253" gradientUnits="userSpaceOnUse">
<stop stop-color="#F0F83C"/>
<stop offset="1" stop-color="#2FA02D"/>
</linearGradient>
<linearGradient id="paint3_linear" x1="14.2913" y1="21.7273" x2="11.778" y2="33.0393" gradientUnits="userSpaceOnUse">
<stop stop-color="#F0F83C"/>
<stop offset="1" stop-color="#2FA02D"/>
</linearGradient>
<linearGradient id="paint4_linear" x1="14.0434" y1="39.4716" x2="12.8466" y2="44.8583" gradientUnits="userSpaceOnUse">
<stop stop-color="#F0F83C"/>
<stop offset="1" stop-color="#2FA02D"/>
</linearGradient>
<linearGradient id="paint5_linear" x1="77.2913" y1="65.7273" x2="74.778" y2="77.0393" gradientUnits="userSpaceOnUse">
<stop stop-color="#F0F83C"/>
<stop offset="1" stop-color="#2FA02D"/>
</linearGradient>
<linearGradient id="paint6_linear" x1="70.0434" y1="75.4716" x2="68.8466" y2="80.8583" gradientUnits="userSpaceOnUse">
<stop stop-color="#F0F83C"/>
<stop offset="1" stop-color="#2FA02D"/>
</linearGradient>
</defs>
</svg>
