<svg width="42" height="42" viewBox="0 0 42 42" fill="none" xmlns="http://www.w3.org/2000/svg">
<path d="M3.5 24L3 37L4.5 39.5L10.5 40L14 39.5L27 40.5H37L38 37.5L39.5 37L39 35H36.5L38 31.5L37.5 29.5L36 28H27.5V14.5L26.5 12.5L23.5 11V9.5L23 8L22.5 2.5L16 3L15.5 4.5H19V7.5L18.5 8.5L18 11L15.5 12.5L14.5 14.5V22.5H12.5L11 21L11.5 20V17H7L6.5 18.5L7 20L6.5 22.5H4.5L3.5 24Z" fill="#E0F1F9"/>
<path d="M30.1875 31.5H32.5407C32.9213 31.501 33.2983 31.4266 33.6499 31.2809C34.0015 31.1353 34.3207 30.9214 34.589 30.6516C34.7121 30.5285 34.7813 30.3616 34.7813 30.1875C34.7813 30.0135 34.7121 29.8465 34.589 29.7235C34.466 29.6004 34.2991 29.5313 34.125 29.5312C33.9509 29.5312 33.784 29.6004 33.6609 29.7235C33.5142 29.871 33.3396 29.988 33.1473 30.0677C32.955 30.1474 32.7489 30.1881 32.5407 30.1875H30.1875C30.0135 30.1875 29.8465 30.2567 29.7235 30.3797C29.6004 30.5028 29.5312 30.6697 29.5312 30.8438C29.5312 31.0178 29.6004 31.1847 29.7235 31.3078C29.8465 31.4309 30.0135 31.5 30.1875 31.5Z" fill="#86C8EA"/>
<path d="M32.1563 21C31.6371 21 31.1296 21.154 30.6979 21.4424C30.2662 21.7308 29.9297 22.1408 29.7311 22.6205C29.5324 23.1001 29.4804 23.6279 29.5817 24.1371C29.683 24.6463 29.933 25.114 30.3001 25.4812C30.6672 25.8483 31.1349 26.0983 31.6441 26.1996C32.1533 26.3009 32.6811 26.2489 33.1608 26.0502C33.6405 25.8515 34.0504 25.5151 34.3389 25.0834C34.6273 24.6517 34.7813 24.1442 34.7813 23.625C34.7805 22.929 34.5037 22.2618 34.0115 21.7697C33.5194 21.2776 32.8522 21.0008 32.1563 21ZM32.1563 24.9375C31.8967 24.9375 31.6429 24.8605 31.4271 24.7163C31.2112 24.5721 31.043 24.3671 30.9437 24.1273C30.8443 23.8874 30.8183 23.6235 30.869 23.3689C30.9196 23.1143 31.0446 22.8805 31.2282 22.6969C31.4117 22.5134 31.6456 22.3884 31.9002 22.3377C32.1548 22.2871 32.4187 22.3131 32.6585 22.4124C32.8984 22.5117 33.1033 22.68 33.2476 22.8958C33.3918 23.1117 33.4688 23.3654 33.4688 23.625C33.4683 23.973 33.3299 24.3066 33.0839 24.5526C32.8378 24.7987 32.5042 24.9371 32.1563 24.9375Z" fill="#86C8EA"/>
<path d="M38.7188 17.7188C38.3294 17.7188 37.9487 17.8342 37.625 18.0505C37.3012 18.2669 37.0489 18.5744 36.8999 18.9341C36.7509 19.2938 36.7119 19.6897 36.7878 20.0716C36.8638 20.4535 37.0513 20.8043 37.3266 21.0796C37.602 21.355 37.9528 21.5425 38.3347 21.6184C38.7166 21.6944 39.1124 21.6554 39.4722 21.5064C39.8319 21.3574 40.1394 21.105 40.3557 20.7813C40.572 20.4575 40.6875 20.0769 40.6875 19.6875C40.6869 19.1655 40.4793 18.6651 40.1102 18.296C39.7411 17.9269 39.2407 17.7193 38.7188 17.7188ZM38.7188 20.3438C38.589 20.3438 38.4621 20.3053 38.3542 20.2332C38.2462 20.161 38.1621 20.0586 38.1125 19.9386C38.0628 19.8187 38.0498 19.6868 38.0751 19.5595C38.1004 19.4322 38.1629 19.3152 38.2547 19.2235C38.3465 19.1317 38.4634 19.0692 38.5907 19.0439C38.718 19.0185 38.85 19.0315 38.9699 19.0812C39.0898 19.1309 39.1923 19.215 39.2644 19.3229C39.3365 19.4308 39.375 19.5577 39.375 19.6875C39.3748 19.8615 39.3056 20.0283 39.1826 20.1513C39.0595 20.2744 38.8927 20.3436 38.7188 20.3438Z" fill="#86C8EA"/>
<path d="M32.1563 11.8125C31.6371 11.8125 31.1296 11.9665 30.6979 12.2549C30.2662 12.5433 29.9297 12.9533 29.7311 13.433C29.5324 13.9126 29.4804 14.4404 29.5817 14.9496C29.683 15.4588 29.933 15.9265 30.3001 16.2937C30.6672 16.6608 31.1349 16.9108 31.6441 17.0121C32.1533 17.1133 32.6811 17.0614 33.1608 16.8627C33.6405 16.664 34.0504 16.3276 34.3389 15.8959C34.6273 15.4642 34.7813 14.9567 34.7813 14.4375C34.7805 13.7415 34.5037 13.0743 34.0115 12.5822C33.5194 12.0901 32.8522 11.8133 32.1563 11.8125ZM32.1563 15.75C31.8967 15.75 31.6429 15.673 31.4271 15.5288C31.2112 15.3846 31.043 15.1796 30.9437 14.9398C30.8443 14.6999 30.8183 14.436 30.869 14.1814C30.9196 13.9268 31.0446 13.693 31.2282 13.5094C31.4117 13.3259 31.6456 13.2009 31.9002 13.1502C32.1548 13.0996 32.4187 13.1256 32.6585 13.2249C32.8984 13.3242 33.1033 13.4925 33.2476 13.7083C33.3918 13.9242 33.4688 14.1779 33.4688 14.4375C33.4683 14.7855 33.3299 15.1191 33.0839 15.3651C32.8378 15.6112 32.5042 15.7496 32.1563 15.75Z" fill="#86C8EA"/>
<path d="M37.4062 40.6875C37.5526 40.6875 37.6948 40.6386 37.8101 40.5485C37.9255 40.4584 38.0074 40.3324 38.0429 40.1904L38.5749 38.0625H39.375C39.549 38.0625 39.716 37.9934 39.839 37.8703C39.9621 37.7472 40.0312 37.5803 40.0312 37.4062V34.7812C40.0312 34.6072 39.9621 34.4403 39.839 34.3172C39.716 34.1941 39.549 34.125 39.375 34.125H37.713C38.2207 33.559 38.5535 32.8581 38.6713 32.107C38.7891 31.3558 38.6867 30.5866 38.3766 29.8924C38.0664 29.1982 37.5618 28.6088 36.9238 28.1953C36.2857 27.7818 35.5416 27.562 34.7812 27.5625H28.957V28.875H34.7812C35.4774 28.875 36.1451 29.1516 36.6374 29.6438C37.1297 30.1361 37.4062 30.8038 37.4062 31.5C37.4062 32.1962 37.1297 32.8639 36.6374 33.3562C36.1451 33.8484 35.4774 34.125 34.7812 34.125H28.957V35.4375H38.7188V36.75H28.957V38.0625H37.222L36.8939 39.375H28.957V40.6875H37.4062Z" fill="#86C8EA"/>
<path fill-rule="evenodd" clip-rule="evenodd" d="M5.74219 40.6875H12.6328C13.0716 40.6877 13.5055 40.5947 13.9057 40.4147C13.9663 40.4991 14.0462 40.5679 14.1386 40.6153C14.2311 40.6628 14.3336 40.6875 14.4375 40.6875H28.2188V39.375V15.0117C28.2172 13.9151 27.8169 12.8565 27.0924 12.0334C26.3679 11.2102 25.3688 10.6786 24.2812 10.5378V8.53125C24.2812 8.3572 24.2121 8.19028 24.089 8.06721C23.966 7.94414 23.799 7.875 23.625 7.875V2.625C23.625 2.45095 23.5559 2.28403 23.4328 2.16096C23.3097 2.03789 23.1428 1.96875 22.9688 1.96875H16.5703C16.1788 1.96921 15.8035 2.12492 15.5267 2.40173C15.2499 2.67854 15.0942 3.05384 15.0938 3.44531V4.59375C15.0938 4.7678 15.1629 4.93472 15.286 5.05779C15.409 5.18086 15.576 5.25 15.75 5.25H18.375V7.875C18.201 7.875 18.034 7.94414 17.911 8.06721C17.7879 8.19028 17.7188 8.3572 17.7188 8.53125V10.5378C16.6312 10.6786 15.6321 11.2102 14.9076 12.0334C14.1831 12.8565 13.7828 13.9151 13.7812 15.0117V21.8764C13.4159 21.7308 13.0261 21.6561 12.6328 21.6562C12.4153 21.656 12.2068 21.5695 12.053 21.4157C11.8992 21.2619 11.8127 21.0534 11.8125 20.8359V20.3438C11.9865 20.3438 12.1535 20.2746 12.2765 20.1515C12.3996 20.0285 12.4688 19.8615 12.4688 19.6875V17.0625C12.4688 16.8885 12.3996 16.7215 12.2765 16.5985C12.1535 16.4754 11.9865 16.4062 11.8125 16.4062H6.5625C6.38845 16.4062 6.22153 16.4754 6.09846 16.5985C5.97539 16.7215 5.90625 16.8885 5.90625 17.0625V19.6875C5.90625 19.8615 5.97539 20.0285 6.09846 20.1515C6.22153 20.2746 6.38845 20.3438 6.5625 20.3438V20.8359C6.56226 21.0534 6.47576 21.2619 6.32197 21.4157C6.16819 21.5695 5.95967 21.656 5.74219 21.6562C4.91574 21.6572 4.12342 21.9859 3.53903 22.5703C2.95465 23.1547 2.62593 23.947 2.625 24.7734V37.5703C2.62593 38.3968 2.95465 39.1891 3.53903 39.7735C4.12342 40.3578 4.91574 40.6866 5.74219 40.6875ZM15.0938 21V22.8636C15.5195 23.4091 15.7505 24.0814 15.75 24.7734V30.1875H21.6562V21H15.0938ZM22.9688 9.1875H19.0312V10.5H22.9688V9.1875ZM16.4062 3.44531V3.9375H18.375V3.28125H16.5703C16.5268 3.28125 16.4851 3.29853 16.4543 3.3293C16.4235 3.36007 16.4062 3.4018 16.4062 3.44531ZM22.3125 3.28125H19.6875V7.875H22.3125V3.28125ZM23.707 11.8125H18.293C17.4448 11.8135 16.6316 12.1508 16.0318 12.7506C15.4321 13.3503 15.0947 14.1635 15.0938 15.0117V19.6875H22.3125C22.4865 19.6875 22.6535 19.7566 22.7765 19.8797C22.8996 20.0028 22.9688 20.1697 22.9688 20.3438V30.8438C22.9688 31.0178 22.8996 31.1847 22.7765 31.3078C22.6535 31.4309 22.4865 31.5 22.3125 31.5H15.75V37.5703C15.7505 38.2175 15.5484 38.8486 15.172 39.375H26.9062V15.0117C26.9053 14.1635 26.5679 13.3503 25.9682 12.7506C25.3684 12.1508 24.5552 11.8135 23.707 11.8125ZM11.1562 17.7188H7.21875V19.0312H11.1562V17.7188ZM7.24962 22.3434C6.84977 22.7432 6.30765 22.9681 5.74219 22.9688C5.26372 22.9693 4.80501 23.1596 4.46668 23.4979C4.12835 23.8363 3.93804 24.295 3.9375 24.7734V25.5938H9.84375C10.0178 25.5938 10.1847 25.6629 10.3078 25.786C10.4309 25.909 10.5 26.076 10.5 26.25V35.4375C10.5 35.6115 10.4309 35.7785 10.3078 35.9015C10.1847 36.0246 10.0178 36.0938 9.84375 36.0938H3.9375V37.5703C3.93804 38.0488 4.12835 38.5075 4.46668 38.8458C4.80501 39.1841 5.26372 39.3745 5.74219 39.375H12.6328C13.1113 39.3745 13.57 39.1841 13.9083 38.8458C14.2466 38.5075 14.437 38.0488 14.4375 37.5703V24.7734C14.437 24.295 14.2466 23.8363 13.9083 23.4979C13.57 23.1596 13.1113 22.9693 12.6328 22.9688C12.0673 22.9681 11.5252 22.7432 11.1254 22.3434C10.7255 21.9435 10.5006 21.4014 10.5 20.8359V20.3438H7.875V20.8359C7.87437 21.4014 7.64946 21.9435 7.24962 22.3434ZM9.1875 26.9062H3.9375V34.7812H9.1875V26.9062Z" fill="#86C8EA"/>
<path d="M24.9375 32.1562C25.1115 32.1562 25.2785 32.0871 25.4015 31.964C25.5246 31.841 25.5938 31.674 25.5938 31.5V30.8438C25.5938 30.6697 25.5246 30.5028 25.4015 30.3797C25.2785 30.2566 25.1115 30.1875 24.9375 30.1875C24.7635 30.1875 24.5965 30.2566 24.4735 30.3797C24.3504 30.5028 24.2812 30.6697 24.2812 30.8438V31.5C24.2812 31.674 24.3504 31.841 24.4735 31.964C24.5965 32.0871 24.7635 32.1562 24.9375 32.1562Z" fill="#86C8EA"/>
<path d="M24.9375 36.75C25.1115 36.75 25.2785 36.6809 25.4015 36.5578C25.5246 36.4347 25.5938 36.2678 25.5938 36.0938V34.125C25.5938 33.951 25.5246 33.784 25.4015 33.661C25.2785 33.5379 25.1115 33.4688 24.9375 33.4688C24.7635 33.4688 24.5965 33.5379 24.4735 33.661C24.3504 33.784 24.2812 33.951 24.2812 34.125V36.0938C24.2812 36.2678 24.3504 36.4347 24.4735 36.5578C24.5965 36.6809 24.7635 36.75 24.9375 36.75Z" fill="#86C8EA"/>
</svg>
