<svg width="135" height="145" viewBox="0 0 135 145" fill="none" xmlns="http://www.w3.org/2000/svg">
<g filter="url(#filter0_d)">
<path fill-rule="evenodd" clip-rule="evenodd" d="M67.6753 85.0601H98.9495L114.666 57.863L114.851 57.4929L98.9495 29.9258H67.1469L51.6442 56.7529H20.3676L4.65115 83.9501L4.46625 84.3201L20.3676 111.887H52.3551L67.6753 85.0601ZM98.2099 83.765H67.8864L52.7247 57.4929L67.8864 31.2209H98.2099L113.372 57.4929L98.2099 83.765ZM51.4306 110.592H21.1072L5.94544 84.3201L21.1072 58.048H51.4306L66.5923 84.3201L51.4306 110.592Z" fill="#0088EC"/>
<path d="M29.2659 75.7187C29.2659 75.7187 33.6797 74.9988 41.5068 78.6747C49.1565 82.4027 55.0638 87.4147 55.0638 87.4147C55.0638 87.4147 53.0658 66.21 40.9101 70.7503C28.4519 75.5725 17.7967 70.8001 17.7967 70.8001C17.7967 70.8001 17.8911 73.0866 19.5405 76.0727C27.1718 90.2203 43.4833 97.1858 58.686 92.5205C56.2333 90.7349 53.1441 88.7509 51.8917 87.7694C37.301 76.8263 29.2659 75.7187 29.2659 75.7187Z" fill="url(#paint0_linear)"/>
<path d="M98.0559 44.8356C98.0559 44.8356 92.152 45.0698 83.0342 51.6546C73.9163 58.2393 67.6764 66.1411 67.6764 66.1411C67.6764 66.1411 56.3161 33.9002 99.1247 34.2939C106.493 34.3377 111.71 35.6315 111.71 35.6315C111.71 35.6315 112.09 38.6701 110.784 42.72C104.542 62.674 85.0176 75.6223 64.2353 73.196C66.9549 70.1852 70.492 67.0492 71.8206 65.3393C87.9111 47.9787 98.0559 44.8356 98.0559 44.8356Z" fill="url(#paint1_linear)"/>
<path d="M45.6218 101.185C46.9256 99.0656 50.087 97.3642 52.1112 96.383C52.9459 95.9446 54.0102 95.6315 54.9493 95.548C55.1267 95.4958 55.8884 95.4646 56.0658 95.4124C56.0658 95.4124 52.112 99.6613 49.6294 103.67C47.1468 107.679 47.1161 110.195 47.1161 110.195C47.1161 110.195 50.6729 103.942 55.3778 98.3148C56.4106 97.2395 57.9963 95.4231 57.9963 95.4231C57.9963 95.4231 59.3647 101.385 57.2791 107.398C54.745 114.508 47.3265 117.462 47.3265 117.462C47.1491 117.514 39.4049 111.499 45.6218 101.185Z" fill="url(#paint2_linear)"/>
<path d="M57.0934 26.7897C57.0934 29.9349 54.6897 32.3401 51.5464 32.3401C48.4031 32.3401 45.9995 29.9349 45.9995 26.7897C45.9995 23.6444 48.4031 21.2393 51.5464 21.2393C54.5048 21.2393 57.0934 23.8295 57.0934 26.7897Z" fill="url(#paint3_linear)"/>
<path d="M130.286 81.3845C130.286 83.0496 128.807 84.5298 127.143 84.5298C125.479 84.5298 123.999 83.0496 123.999 81.3845C123.999 79.7194 125.479 78.2393 127.143 78.2393C128.807 78.2393 130.286 79.7194 130.286 81.3845Z" fill="#0088EC"/>
<path d="M18.0672 29.2744C18.0672 30.3845 17.1427 31.3096 16.0333 31.3096C14.9239 31.3096 13.9995 30.3845 13.9995 29.2744C13.9995 28.1643 14.9239 27.2393 16.0333 27.2393C17.1427 27.2393 18.0672 28.1643 18.0672 29.2744Z" fill="#0088EC"/>
<path d="M110.067 104.274C110.067 105.385 109.143 106.31 108.033 106.31C106.924 106.31 105.999 105.385 105.999 104.274C105.999 103.164 106.924 102.239 108.033 102.239C109.143 102.424 110.067 103.164 110.067 104.274Z" fill="url(#paint4_linear)"/>
<path d="M81.5464 3.01448C81.5464 4.49459 80.2521 5.78969 78.7729 5.78969C77.2937 5.78969 75.9995 4.49459 75.9995 3.01448C75.9995 1.53436 77.1088 0.239258 78.588 0.239258C80.2521 0.239258 81.5464 1.53436 81.5464 3.01448Z" fill="#0088EC"/>
<path d="M84.5464 103.014C84.5464 104.495 83.2521 105.79 81.7729 105.79C80.2937 105.79 78.9995 104.495 78.9995 103.014C78.9995 101.534 80.2937 100.239 81.7729 100.239C83.2521 100.239 84.5464 101.534 84.5464 103.014Z" fill="url(#paint5_linear)"/>
<path d="M77.3122 129.9C77.3122 133.6 74.3538 136.56 70.6558 136.56C66.9578 136.56 63.9995 133.6 63.9995 129.9C63.9995 126.199 66.9578 123.239 70.6558 123.239C74.3538 123.239 77.3122 126.199 77.3122 129.9Z" fill="#0088EC"/>
</g>
<defs>
<filter id="filter0_d" x="0.466248" y="0.239258" width="133.82" height="144.321" filterUnits="userSpaceOnUse" color-interpolation-filters="sRGB">
<feFlood flood-opacity="0" result="BackgroundImageFix"/>
<feColorMatrix in="SourceAlpha" type="matrix" values="0 0 0 0 0 0 0 0 0 0 0 0 0 0 0 0 0 0 127 0" result="hardAlpha"/>
<feOffset dy="4"/>
<feGaussianBlur stdDeviation="2"/>
<feComposite in2="hardAlpha" operator="out"/>
<feColorMatrix type="matrix" values="0 0 0 0 0 0 0 0 0 0 0 0 0 0 0 0 0 0 0.25 0"/>
<feBlend mode="normal" in2="BackgroundImageFix" result="effect1_dropShadow"/>
<feBlend mode="normal" in="SourceGraphic" in2="effect1_dropShadow" result="shape"/>
</filter>
<linearGradient id="paint0_linear" x1="40.1897" y1="66.8585" x2="44.5217" y2="127.041" gradientUnits="userSpaceOnUse">
<stop stop-color="#F0F83C"/>
<stop offset="1" stop-color="#2FA02D"/>
</linearGradient>
<linearGradient id="paint1_linear" x1="99.9998" y1="36.0002" x2="48.5003" y2="112.501" gradientUnits="userSpaceOnUse">
<stop stop-color="#F0F83C"/>
<stop offset="1" stop-color="#2FA02D"/>
</linearGradient>
<linearGradient id="paint2_linear" x1="52.5873" y1="97.6518" x2="54.6873" y2="132.916" gradientUnits="userSpaceOnUse">
<stop stop-color="#F0F83C"/>
<stop offset="1" stop-color="#2FA02D"/>
</linearGradient>
<linearGradient id="paint3_linear" x1="53.5943" y1="22.1096" x2="49.0806" y2="42.269" gradientUnits="userSpaceOnUse">
<stop stop-color="#F0F83C"/>
<stop offset="1" stop-color="#2FA02D"/>
</linearGradient>
<linearGradient id="paint4_linear" x1="108.784" y1="102.558" x2="107.129" y2="109.95" gradientUnits="userSpaceOnUse">
<stop stop-color="#F0F83C"/>
<stop offset="1" stop-color="#2FA02D"/>
</linearGradient>
<linearGradient id="paint5_linear" x1="82.7969" y1="100.674" x2="80.54" y2="110.754" gradientUnits="userSpaceOnUse">
<stop stop-color="#F0F83C"/>
<stop offset="1" stop-color="#2FA02D"/>
</linearGradient>
</defs>
</svg>
