<svg width="100" height="100" viewBox="0 0 100 100" fill="none" xmlns="http://www.w3.org/2000/svg">
<path d="M15 16.5V2H83.5L86 6.5L83.5 25.5H86L95 20.5L86 37L88.5 45L81 49.5L93 88V98H8V84.5L17.5 54.5L19.5 49.5L11.5 45L13.5 37L4.5 20.5L17.5 27.5L15 16.5Z" fill="#E1F4E1"/>
<path d="M50.0029 61.4474C48.9242 61.4474 48.0498 62.3219 48.0498 63.4006V66.5396C48.0498 67.6184 48.9242 68.4928 50.0029 68.4928C51.0816 68.4928 51.9561 67.6184 51.9561 66.5396V63.4006C51.9559 62.3219 51.0816 61.4474 50.0029 61.4474Z" fill="url(#paint0_linear)"/>
<path fill-rule="evenodd" clip-rule="evenodd" d="M13.5121 58.4666C11.8484 63.0141 10.4545 67.4965 9.3291 71.902C9.3209 71.932 9.31289 71.9621 9.30605 71.9922C7.00117 81.0418 5.83613 89.7643 5.83613 98.0469C5.83613 99.1256 6.71055 100 7.78926 100H92.2101C93.2887 100 94.1633 99.1256 94.1633 98.0469C94.1633 85.6908 91.5807 72.374 86.4875 58.4664C85.9074 56.8814 84.9131 54.5416 84.4998 53L81.2826 55C81.7139 56.586 82.2245 58.1838 82.8195 59.8094C84.2457 63.7035 85.4676 67.5465 86.4857 71.3301C75.548 76.2478 62.9732 78.8426 50.0027 78.8426C37.0295 78.8426 24.4537 76.2482 13.5164 71.3311C14.5342 67.548 15.7555 63.7047 17.1807 59.809C17.8372 58.0148 18.3918 56.2523 18.8513 54.5L15.3273 52.5C14.8544 54.4662 14.2526 56.4432 13.5121 58.4666ZM12.5465 75.1766C10.8488 82.4078 9.91699 89.4012 9.76465 96.0938H90.2346C90.0826 89.3961 89.1516 82.4025 87.4551 75.1756C76.166 80.1357 63.2728 82.7488 50.0025 82.7488C36.7293 82.7488 23.8352 80.1361 12.5465 75.1766Z" fill="url(#paint1_linear)"/>
<path fill-rule="evenodd" clip-rule="evenodd" d="M97.6342 19.3275C97.066 18.6654 96.1273 18.4605 95.3348 18.8256L85.6959 23.266C86.8662 16.7346 87.8361 9.87871 86.8129 1.71035C86.6904 0.733203 85.8596 0 84.8748 0H31.4674V3.90625H83.1219C83.8418 11.8078 82.5945 18.5709 81.3853 25.1256L81.3599 25.2635L75.1541 28.1225L58.0184 23.2279C57.9803 23.217 57.9418 23.2072 57.9031 23.1988C52.8805 22.0898 47.1193 22.0896 42.0965 23.1988C42.0578 23.2072 42.0191 23.2172 41.981 23.2279L24.8506 28.1225L18.6398 25.2619L18.6021 25.0566C17.4008 18.5223 16.1613 11.7799 16.8822 3.90625H31.4674V0L15.1303 0C14.1459 0 13.3154 0.732422 13.1924 1.70918C12.1641 9.87871 13.1371 16.7332 14.3057 23.2658L4.66465 18.8254C3.87246 18.4605 2.93379 18.6652 2.36543 19.3275C1.79727 19.9898 1.73711 20.9484 2.21836 21.6764L11.7613 36.1143L9.30508 42.9898C9.00273 43.8363 9.31699 44.7799 10.0666 45.2758L34.8244 61.6578C35.1535 61.8756 35.5285 61.9822 35.9016 61.9822C36.3963 61.9822 36.8875 61.7947 37.2629 61.4303C37.9213 60.791 38.0457 59.7795 37.5619 58.9996L25.7086 39.8906L26.5062 31.7123L42.9963 27.0008C47.4508 26.0268 52.5492 26.0268 57.0039 27.0008L73.4994 31.7123L74.2971 39.8904L62.4383 58.9992C61.9543 59.7791 62.0787 60.7906 62.7369 61.4301C63.1125 61.7947 63.6037 61.9822 64.0984 61.9822C64.4715 61.9822 64.8467 61.8756 65.1758 61.6578L89.9332 45.276C90.6828 44.7799 90.9969 43.8365 90.6945 42.99L88.2383 36.1145L97.7814 21.6766C98.2625 20.9484 98.2025 19.9896 97.6342 19.3275ZM9.25664 25.2412L15.5582 34.775C15.8973 35.2877 15.975 35.9301 15.7686 36.5092L13.4986 42.8631L19.1285 46.5883C19.1411 46.5957 19.153 46.6039 19.165 46.6121C19.1726 46.6173 19.1802 46.6225 19.1879 46.6275L29.5394 53.4771L22.0406 41.3883C21.8146 41.024 21.7148 40.5957 21.7564 40.1691L22.6125 31.3924L16.0824 28.385L16.0766 28.3822L9.25664 25.2412ZM84.2314 36.509C84.0246 35.9303 84.1023 35.2877 84.4412 34.775L90.742 25.2422L77.3928 31.392L78.2488 40.1689C78.2904 40.5957 78.1904 41.0242 77.9644 41.3885L70.4641 53.4746L86.5012 42.8629L84.2314 36.509Z" fill="url(#paint2_linear)"/>
<defs>
<linearGradient id="paint0_linear" x1="50.0386" y1="60.6911" x2="50.0387" y2="69.8062" gradientUnits="userSpaceOnUse">
<stop stop-color="#F0F83C"/>
<stop offset="1" stop-color="#2FA02D"/>
</linearGradient>
<linearGradient id="paint1_linear" x1="50.8781" y1="-10.735" x2="50.8788" y2="118.642" gradientUnits="userSpaceOnUse">
<stop stop-color="#F0F83C"/>
<stop offset="1" stop-color="#2FA02D"/>
</linearGradient>
<linearGradient id="paint2_linear" x1="50.8781" y1="-10.735" x2="50.8788" y2="118.642" gradientUnits="userSpaceOnUse">
<stop stop-color="#F0F83C"/>
<stop offset="1" stop-color="#2FA02D"/>
</linearGradient>
</defs>
</svg>
