<svg width="78" height="59" viewBox="0 0 78 59" fill="none" xmlns="http://www.w3.org/2000/svg">
<path d="M29.1664 20.7413L4.44385 45.4639H11.8694L34.4079 22.9253V7.20068H13.4418V12.4422H29.1664V20.7413Z" fill="white"/>
<path d="M49.3465 38.9123L76.3404 11.9185H68.9149L44.105 36.7284V52.5403H65.0711V47.2988H49.3465V38.9123Z" fill="white"/>
<path d="M53.6269 11.9185L20.0811 45.4643H27.5066L61.0524 11.9185H53.6269Z" fill="white"/>
<path d="M9.42334 18.5577C4.53125 18.5577 0.600098 14.6265 0.600098 9.82178C0.600098 5.01704 4.53125 0.998535 9.42334 0.998535C14.2281 0.998535 18.2466 4.92968 18.2466 9.82178C18.2466 14.7139 14.2281 18.5577 9.42334 18.5577ZM9.42334 6.24007C7.41409 6.24007 5.84163 7.81253 5.84163 9.82178C5.84163 11.7437 7.41409 13.4035 9.42334 13.4035C11.4326 13.4035 13.0051 11.831 13.0051 9.82178C12.9177 7.81253 11.3452 6.24007 9.42334 6.24007Z" fill="white"/>
<path d="M69.1768 58.3933C64.372 58.3933 60.3535 54.4622 60.3535 49.5701C60.3535 44.678 64.2847 40.7468 69.1768 40.7468C74.0689 40.7468 78 44.678 78 49.5701C78 54.4622 73.9815 58.3933 69.1768 58.3933ZM69.1768 46.0757C67.2549 46.0757 65.595 47.6482 65.595 49.6574C65.595 51.6667 67.1675 53.2391 69.1768 53.2391C71.0987 53.2391 72.7585 51.6667 72.7585 49.6574C72.7585 47.6482 71.0987 46.0757 69.1768 46.0757Z" fill="white"/>
</svg>
