<svg width="100" height="100" viewBox="0 0 100 100" fill="none" xmlns="http://www.w3.org/2000/svg">
<path d="M49.5 97.5H58L65 96.5L73.5 99H87.5L92 92L92.5 73H97.5L98.5 68L96.5 63.5L97.5 57.5L98.5 43L93.5 27.5L83.5 16L72 7L50 1.5L33 5L21 12.5L7.5 25L2 44.5V59C2 59.4 5.66667 68.8333 7.5 73.5L21 89C26.6667 91.3333 38.2 96.1 39 96.5C39.8 96.9 46.3333 97.3333 49.5 97.5Z" fill="#77E14B" fill-opacity="0.15"/>
<path fill-rule="evenodd" clip-rule="evenodd" d="M0 50C0 22.4303 22.4303 0 50 0C77.5697 0 100 22.4303 100 50C100 53.1143 99.7125 56.2285 99.1447 59.2572L95.6357 58.5982C96.1625 55.7875 96.4285 52.8947 96.4285 50C96.4285 24.3982 75.6018 3.57148 50 3.57148C24.3982 3.57148 3.57148 24.3982 3.57148 50C3.57148 75.6018 24.3982 96.4285 50 96.4285C52.8947 96.4285 55.7875 96.1625 58.6 95.6357L59.259 99.1447C56.2285 99.7125 53.1143 100 50 100C22.4303 100 0 77.5697 0 50ZM50.5229 9.45166L53.0479 11.9767L50.7389 14.2856L53.0479 16.5946L50.5229 19.1196L48.2139 16.8106L45.9049 19.1196L43.3799 16.5946L45.6889 14.2856L43.3799 11.9767L45.9049 9.45166L48.2139 11.7606L50.5229 9.45166ZM73.7375 46.9517L76.2625 49.4767L73.9535 51.7856L76.2625 54.0946L73.7375 56.6196L71.4285 54.3107L69.1197 56.6196L66.5947 54.0946L68.9035 51.7856L66.5947 49.4767L69.1197 46.9517L71.4285 49.2606L73.7375 46.9517ZM83.0359 30.3572C81.2859 30.3572 79.7074 31.0839 78.5717 32.2464C77.4359 31.0839 75.8574 30.3572 74.1074 30.3572C70.6609 30.3572 67.8574 33.1607 67.8574 36.6072C67.8574 40.0537 70.6609 42.8572 74.1074 42.8572C75.8574 42.8572 77.4359 42.1304 78.5717 40.9679C79.7074 42.1304 81.2859 42.8572 83.0359 42.8572C86.4824 42.8572 89.2859 40.0537 89.2859 36.6072C89.2859 33.1607 86.4824 30.3572 83.0359 30.3572ZM74.1074 39.2857C72.6307 39.2857 71.4289 38.0839 71.4289 36.6072C71.4289 35.1304 72.6307 33.9287 74.1074 33.9287C75.5842 33.9287 76.7859 35.1304 76.7859 36.6072C76.7859 38.0839 75.5842 39.2857 74.1074 39.2857ZM83.0359 39.2857C81.5592 39.2857 80.3574 38.0839 80.3574 36.6072C80.3574 35.1304 81.5592 33.9287 83.0359 33.9287C84.5127 33.9287 85.7145 35.1304 85.7145 36.6072C85.7145 38.0839 84.5127 39.2857 83.0359 39.2857ZM14.2861 55.3572H17.8576V58.9287H14.2861V55.3572ZM33.9289 55.3572H30.3574V58.9287H33.9289V55.3572ZM75 19.6428H78.5715V23.2143H75V19.6428ZM57.1428 87.5H53.5713V91.0715H57.1428V87.5ZM17.8574 25H21.4289V28.5715H17.8574V25ZM98.2141 62.5H58.9283C57.9408 62.5 57.1426 63.2982 57.1426 64.2857V73.2143C57.1426 74.2018 57.9408 75 58.9283 75H62.4998V91.0715C62.4998 95.9947 66.5051 100 71.4283 100H85.7141C90.6373 100 94.6426 95.9947 94.6426 91.0715V75H98.2141C99.2016 75 99.9998 74.2018 99.9998 73.2143V64.2857C99.9998 63.2982 99.2016 62.5 98.2141 62.5ZM91.0713 91.0715C91.0713 94.025 88.6678 96.4287 85.7141 96.4287H71.4283C69.1033 96.4287 67.1391 94.9305 66.3998 92.8572H78.5713C79.5588 92.8572 80.357 92.059 80.357 91.0715V80.3572C80.357 79.3697 79.5588 78.5715 78.5713 78.5715H66.0713V75H91.0713V91.0715ZM66.0713 89.2857V82.143H76.7855V89.2857H66.0713ZM96.4283 71.4285H92.8568H64.2855H60.7141V66.0713H96.4283V71.4285ZM28.5715 66.0715C24.6322 66.0715 21.4287 69.275 21.4287 73.2143C21.4287 77.1536 24.6322 80.3571 28.5715 80.3571C32.5107 80.3571 35.7143 77.1536 35.7143 73.2143C35.7143 69.275 32.5107 66.0715 28.5715 66.0715ZM28.5715 76.7858C26.6018 76.7858 25 75.184 25 73.2143C25 71.2446 26.6018 69.6428 28.5715 69.6428C30.5412 69.6428 32.143 71.2446 32.143 73.2143C32.1428 75.184 30.541 76.7858 28.5715 76.7858ZM17.8574 42.8572C17.8574 39.9035 20.2611 37.5 23.2146 37.5C26.1682 37.5 28.5719 39.9035 28.5719 42.8572C28.5719 45.8109 26.1682 48.2145 23.2146 48.2145C20.2609 48.2145 17.8574 45.8107 17.8574 42.8572ZM21.4289 42.857C21.4289 43.8428 22.2289 44.6428 23.2146 44.6428C24.2004 44.6428 25.0004 43.8428 25.0004 42.857C25.0004 41.8713 24.2004 41.0713 23.2146 41.0713C22.2289 41.0713 21.4289 41.8713 21.4289 42.857ZM34.8213 23.2144C31.3748 23.2144 28.5713 26.0179 28.5713 29.4644C28.5713 32.9108 31.3748 35.7143 34.8213 35.7143C38.2678 35.7143 41.0713 32.9108 41.0713 29.4644C41.0713 26.0179 38.2676 23.2144 34.8213 23.2144ZM34.8213 32.1429C33.3445 32.1429 32.1428 30.9411 32.1428 29.4644C32.1428 27.9876 33.3445 26.7858 34.8213 26.7858C36.298 26.7858 37.4998 27.9876 37.4998 29.4644C37.4998 30.9411 36.298 32.1429 34.8213 32.1429ZM53.5713 42.8573C53.5713 41.8698 54.3695 41.0715 55.357 41.0715H58.9285V44.643H57.1428V46.4288C57.1428 47.4163 56.3445 48.2145 55.357 48.2145H53.5713V50.0002C53.5713 50.9878 52.7731 51.786 51.7855 51.786H49.9998V53.5717C49.9998 54.5592 49.2016 55.3575 48.2141 55.3575H44.6426V51.786H46.4283V50.0002C46.4283 49.0127 47.2266 48.2145 48.2141 48.2145H49.9998V46.4288C49.9998 45.4413 50.798 44.643 51.7855 44.643H53.5713V42.8573ZM49.9996 71.4285C49.0121 71.4285 48.2139 72.2267 48.2139 73.2142V74.9999H46.4281C45.4406 74.9999 44.6424 75.7982 44.6424 76.7857V78.5714H42.8566C41.8691 78.5714 41.0709 79.3697 41.0709 80.3572V82.1429H39.2852V85.7144H42.8566C43.8441 85.7144 44.6424 84.9162 44.6424 83.9286V82.1429H46.4281C47.4156 82.1429 48.2139 81.3447 48.2139 80.3572V78.5714H49.9996C50.9871 78.5714 51.7853 77.7732 51.7853 76.7857V74.9999H53.5711V71.4285H49.9996ZM62.5 19.6429C62.5 18.6554 63.2982 17.8572 64.2857 17.8572H67.8572V21.4285H66.0715V23.2142C66.0715 24.2017 65.2732 25 64.2857 25H62.5V26.7857C62.5 27.7732 61.7018 28.5714 60.7143 28.5714H58.9285V30.3572C58.9285 31.3447 58.1303 32.1429 57.1428 32.1429H53.5713V28.5714H55.357V26.7857C55.357 25.7982 56.1553 25 57.1428 25H58.9285V23.2144C58.9285 22.2269 59.7268 21.4287 60.7143 21.4287H62.5V19.6429Z" fill="url(#paint0_linear)"/>
<defs>
<linearGradient id="paint0_linear" x1="50.9129" y1="-10.735" x2="50.9135" y2="118.642" gradientUnits="userSpaceOnUse">
<stop stop-color="#F0F83C"/>
<stop offset="1" stop-color="#3BB339"/>
</linearGradient>
</defs>
</svg>
