<svg width="100" height="100" viewBox="0 0 100 100" fill="none" xmlns="http://www.w3.org/2000/svg">
<g clip-path="url(#clip0)">
<path d="M12.5 27V40.5V43L17 50.5L12.5 54.5V89L13.5 95L20 98.5L37.5 98L48 94L46.5 81.5L45.5 54.5L43 50.5L46.5 46L48 30L44.5 22L38.5 18.5L37.5 11.5L33 10V3H25V10L22 11.5L19.5 13.5V18.5L13.5 22L12.5 27Z" fill="#DDF3DF"/>
<path d="M74.5 60.5L68 52L63.5 54.5L58.5 63.5L61 70L67 73L71 71.5L76 66.5L74.5 60.5Z" fill="#DDF3DF"/>
<path d="M76 44L72 40.5L71 33L79 24L88 35.5L86 40.5L81 44H76Z" fill="#DDF3DF"/>
<path fill-rule="evenodd" clip-rule="evenodd" d="M40.6152 17.4228V13.9648C40.6152 11.2349 38.5676 8.97576 35.9277 8.63865V3.81639C36.7201 3.56736 37.2949 2.82733 37.2949 1.95291C37.2949 0.874396 36.4203 -0.000213623 35.3418 -0.000213623H24.0137C22.9352 -0.000213623 22.0605 0.874396 22.0605 1.95291C22.0605 2.82733 22.6354 3.56736 23.4277 3.81639V8.63865C20.7879 8.97576 18.7402 11.2349 18.7402 13.9648V17.4228C14.0574 18.4338 10.5371 22.6058 10.5371 27.5865V42.2703C10.5371 45.3672 11.9434 48.3293 14.3232 50.2951C11.9436 52.2148 10.5371 55.134 10.5371 58.2031V89.8437C10.5371 95.4439 15.0932 100 20.6934 100H38.6621C44.2623 100 48.8184 95.4439 48.8184 89.8437V82.8125V65.2344V58.2031C48.8184 55.134 47.4121 52.215 45.0322 50.2951C47.4121 48.3295 48.8184 45.3674 48.8184 42.2703V27.5865C48.8184 22.6058 45.298 18.4338 40.6152 17.4228ZM44.9121 89.8437V82.8125V65.2344V58.2031C44.9121 56.2099 43.9475 54.3195 42.332 53.1455C41.4289 52.4892 40.8855 51.4324 40.8789 50.318C40.8721 49.1896 41.3875 48.1555 42.2934 47.4805C43.9576 46.2404 44.9121 44.3412 44.9121 42.2701V27.5863C44.9121 24.0062 41.9994 21.0935 38.4193 21.0935H20.9361C17.3561 21.0935 14.4434 24.0062 14.4434 27.5863V42.2701C14.4434 44.3414 15.3977 46.2404 17.0619 47.4805C17.968 48.1555 18.4834 49.1896 18.4766 50.318C18.4699 51.4326 17.9266 52.4894 17.0232 53.1457C15.4078 54.3195 14.4434 56.2101 14.4434 58.2031V89.8437C14.4434 93.29 17.2471 96.0937 20.6934 96.0937H38.6621C42.1084 96.0937 44.9121 93.29 44.9121 89.8437ZM32.0215 8.59373V3.90623H27.334V8.59373H32.0215ZM22.6465 13.9648V17.1875H36.709V13.9648C36.709 13.157 36.052 12.5 35.2441 12.5H24.1113C23.3035 12.5 22.6465 13.157 22.6465 13.9648Z" fill="url(#paint0_linear)"/>
<path d="M68.2269 49.9189C67.8558 49.4754 67.307 49.2188 66.7284 49.2188C66.1499 49.2188 65.6013 49.4752 65.23 49.9189L58.8913 57.4998C55.4743 61.5865 55.738 67.509 59.505 71.276C61.4966 73.2674 64.1126 74.2633 66.7284 74.2633C69.3443 74.2633 71.9603 73.2674 73.9519 71.276C77.7187 67.509 77.9825 61.5865 74.5655 57.4996L68.2269 49.9189ZM71.1898 68.5139C68.73 70.974 64.7269 70.974 62.2671 68.5139C59.9406 66.1875 59.7777 62.5295 61.8882 60.0057L66.7284 54.2168L71.5687 60.0055C73.6792 62.5295 73.5163 66.1875 71.1898 68.5139Z" fill="url(#paint1_linear)"/>
<path d="M87.0656 29.8461L80.7269 22.2654C80.3558 21.8219 79.807 21.5652 79.2285 21.5652C78.6499 21.5652 78.1013 21.8217 77.73 22.2654L71.3913 29.8463C67.9743 33.933 68.238 39.8555 72.005 43.6225C73.9966 45.6139 76.6126 46.6098 79.2285 46.6098C81.8443 46.6098 84.4603 45.6139 86.4519 43.6225C90.2189 39.8555 90.4826 33.9328 87.0656 29.8461ZM83.6898 40.8602C81.23 43.3203 77.2269 43.3203 74.7671 40.8602C72.4406 38.5338 72.2777 34.8758 74.3882 32.3519L79.2285 26.5631L84.0687 32.3518C86.1792 34.8758 86.0163 38.5338 83.6898 40.8602Z" fill="url(#paint2_linear)"/>
</g>
<defs>
<linearGradient id="paint0_linear" x1="30.0272" y1="-10.7352" x2="30.0288" y2="118.642" gradientUnits="userSpaceOnUse">
<stop stop-color="#F0F83C"/>
<stop offset="1" stop-color="#2FA02D"/>
</linearGradient>
<linearGradient id="paint1_linear" x1="66.9153" y1="46.5302" x2="66.9155" y2="78.9322" gradientUnits="userSpaceOnUse">
<stop stop-color="#F0F83C"/>
<stop offset="1" stop-color="#2FA02D"/>
</linearGradient>
<linearGradient id="paint2_linear" x1="79.4153" y1="18.8767" x2="79.4155" y2="51.2786" gradientUnits="userSpaceOnUse">
<stop stop-color="#F0F83C"/>
<stop offset="1" stop-color="#2FA02D"/>
</linearGradient>
<clipPath id="clip0">
<rect width="100" height="100" fill="white"/>
</clipPath>
</defs>
</svg>
