<svg width="42" height="42" viewBox="0 0 42 42" fill="none" xmlns="http://www.w3.org/2000/svg">
<g clip-path="url(#clip0)">
<path d="M16.3799 42.0001L23.0999 41.7901H30.2399L32.1299 40.1101L32.7599 38.0101L33.5999 20.7901L28.7699 20.3701V13.8601L27.7199 11.1301L22.4699 7.98009V6.30009L23.9399 5.46009L23.7299 1.89009L23.0999 0.840088H13.8599L12.5999 1.47009V5.25009L14.2799 6.30009V7.98009L10.7099 10.0801L8.60994 11.9701L8.18994 19.5301L10.0799 22.0501L8.60994 23.9401V25.6201L9.44994 26.8801L8.60994 27.9301V30.2401L9.44994 31.7101L8.18994 32.9701L8.60994 34.6501L9.44994 36.5401L8.60994 38.0101V40.1101L10.0799 41.7901L16.3799 42.0001Z" fill="#86C8EA" fill-opacity="0.25"/>
<path fill-rule="evenodd" clip-rule="evenodd" d="M9.10456 13.2463V14.5595H9.10415V18.7531C9.10415 19.8803 9.7014 20.9065 10.6705 21.4666H14.8379V22.6972H10.5108L10.509 22.6973L10.5082 22.6972C9.73389 22.698 9.10415 23.3281 9.10415 24.1026V24.8868C9.10415 25.6618 9.73463 26.2922 10.5096 26.2922H15.0674V27.5228H10.5096C9.73463 27.5228 9.10415 28.1533 9.10415 28.9283V29.7125C9.10415 30.4875 9.73463 31.118 10.5096 31.118H15.2968V32.3486H10.5096C9.73463 32.3486 9.10415 32.979 9.10415 33.754V34.5382C9.10415 35.3132 9.73463 35.9437 10.5096 35.9437H15.5263V37.1743H10.5096C9.73463 37.1743 9.10415 37.8048 9.10415 38.5797V39.3639C9.10415 40.1389 9.73463 40.7694 10.5096 40.7694H16.4425V42.0001H10.5096C9.05607 42.0001 7.87354 40.8175 7.87354 39.364V38.5798C7.87354 37.7691 8.24165 37.043 8.81922 36.5591C8.24165 36.0751 7.87354 35.349 7.87354 34.5383V33.7541C7.87354 32.9434 8.24165 32.2173 8.81922 31.7333C8.24165 31.2494 7.87354 30.5233 7.87354 29.7126V28.9284C7.87354 28.1176 8.24165 27.3916 8.81922 26.9076C8.24165 26.4237 7.87354 25.6976 7.87354 24.8869V24.1027C7.87354 23.145 8.38695 22.3052 9.15288 21.8435C8.34437 21.0378 7.87354 19.9348 7.87354 18.7531V14.5195H7.87395V13.2463C7.87395 11.6078 8.77771 10.1218 10.2325 9.36815L13.7979 7.52116V6.73087C12.7887 6.61781 12.0014 5.75959 12.0014 4.72062V2.02329C12.0014 0.907616 12.909 0 14.0246 0H22.5715C23.6871 0 24.5947 0.907616 24.5948 2.02329V4.72062C24.5948 5.67697 23.9276 6.4799 23.0344 6.68985V7.52116L26.5999 9.36815C28.0547 10.1219 28.9585 11.6078 28.9585 13.2463V18.0593H27.7279V13.2463C27.7279 12.0695 27.0788 11.0022 26.0339 10.4609L22.1361 8.44182C21.9319 8.33607 21.8038 8.12531 21.8038 7.89543V6.74391H15.0286V7.89543C15.0286 8.12539 14.9004 8.33607 14.6963 8.44182L10.7985 10.4609C9.75366 11.0022 9.10456 12.0695 9.10456 13.2463ZM13.232 4.72062V2.02329C13.232 1.58618 13.5876 1.23061 14.0246 1.23061H22.5715C23.0086 1.23061 23.3641 1.58618 23.3641 2.02329V4.72062C23.3641 5.15774 23.0086 5.5133 22.5715 5.5133H14.0246C13.5876 5.5133 13.232 5.15774 13.232 4.72062ZM33.8283 20.2397C33.6255 20.0271 33.3408 19.9051 33.047 19.9051H17.7143C17.4206 19.9051 17.1359 20.027 16.9332 20.2396C16.7304 20.4521 16.6221 20.7424 16.6361 21.0359L16.7736 23.9266L16.8983 26.5489L17.4773 38.7263C17.5646 40.562 19.0726 42 20.9105 42H29.851C31.6888 42 33.1969 40.562 33.2842 38.7263L34.1254 21.0359C34.1392 20.7425 34.031 20.4522 33.8283 20.2397ZM17.8728 21.1357L18.0028 23.8681L18.1275 26.4904L18.7065 38.6678C18.7626 39.8463 19.7307 40.7694 20.9104 40.7694H29.851C31.0308 40.7694 31.9988 39.8463 32.0549 38.6678L32.8886 21.1357H17.8728ZM29.6162 39.5388H21.1453C20.4918 39.5388 19.9557 39.0275 19.9246 38.3748L19.3808 26.937C19.3728 26.7689 19.4339 26.6049 19.5501 26.4831C19.6663 26.3614 19.8271 26.2924 19.9954 26.2924H30.7662C30.9345 26.2924 31.0954 26.3614 31.2115 26.4831C31.3276 26.6049 31.3888 26.7689 31.3808 26.937L30.8368 38.3748C30.8058 39.0275 30.2697 39.5388 29.6162 39.5388ZM21.1535 38.3082H29.6081L29.8378 33.4767L29.3032 33.6942C28.7308 33.9271 28.1208 34.0422 27.5119 34.0422C26.6786 34.0422 25.8472 33.8267 25.1156 33.4024C24.1799 32.86 23.0654 32.774 22.0577 33.1666L20.9299 33.6059L21.1535 38.3082ZM29.9022 32.1219L30.1209 27.5231V27.523H20.6407L20.8682 32.3091L21.6109 32.0199C22.969 31.4907 24.4715 31.6065 25.7328 32.3378C26.6724 32.8825 27.8337 32.9633 28.8395 32.5542L29.9022 32.1219Z" fill="#86C8EA"/>
</g>
<defs>
<clipPath id="clip0">
<rect width="42" height="42" fill="white"/>
</clipPath>
</defs>
</svg>
