<svg width="100" height="100" viewBox="0 0 100 100" fill="none" xmlns="http://www.w3.org/2000/svg">
<g clip-path="url(#clip0)">
<path d="M20.5 77L18.5 98L80.5 98.5L79.5 79L77 69L71.5 62.5L60 55.5L63.5 52L68 43.5H75L77 39.5L76 34.5L78.5 21.5L76 12.5L72.5 6.5L65.5 4.5L58.5 5.5L53.5 3L45 2L40 4.5L32.5 10.5L25 14.5L20.5 15L21.5 22L25.5 33L23 36.5V40L25.5 42.5L31 43.5L33 48L40 55.5L34 58L24.5 66L20.5 77Z" fill="#77E14B" fill-opacity="0.15"/>
<path fill-rule="evenodd" clip-rule="evenodd" d="M82.0123 82.8979C82.0123 76.8641 80.1775 71.0793 76.7062 66.169C75.8865 65.0846 73.9239 62.64 72.6314 61.5361C69.6152 58.7627 66.0588 56.6719 62.2107 55.3828C65.5445 52.8008 68.0434 49.19 69.2244 45.0299C69.8893 45.2275 70.5822 45.3307 71.2846 45.3307C75.2734 45.3307 78.5186 42.0854 78.5186 38.0965C78.5186 36.5355 78.0199 35.0898 77.176 33.9066C80.7988 24.9133 80.8154 16.1641 77.1941 9.78965C74.966 5.86778 71.5549 3.32989 67.835 2.82735C63.9256 2.29961 60.8713 3.17598 59.2605 3.82461C58.8426 3.33848 58.2441 2.77305 57.407 2.23028C54.9209 0.617971 51.4695 -0.125583 47.1473 0.0173856C43.5633 0.136917 40.1947 1.55098 36.5463 4.46719L32.0893 8.48047L32.0877 8.48197C30.0265 10.4475 27.8954 12.4796 26.0494 12.9775C23.6202 13.6325 20.7485 12.9794 20.6936 12.9669L20.693 12.9668C20.2598 12.8639 19.8025 12.9627 19.4508 13.2365C19.099 13.51 18.8904 13.9285 18.884 14.3742C18.7533 23.2588 22.2596 30.026 23.9029 32.7004C22.418 34.0262 21.4809 35.9531 21.4809 38.0957C21.4809 42.0846 24.726 45.3299 28.7148 45.3299C29.4174 45.3299 30.1102 45.2268 30.775 45.0291C31.9561 49.1889 34.4545 52.7994 37.7879 55.3813C32.6551 57.1049 28.0457 60.2639 24.5738 64.4891C20.3264 69.6578 17.9873 76.1951 17.9873 82.8969V98.5301C17.9873 99.3416 18.6449 99.9992 19.4564 99.9992H40.9179V100H80.5432C81.3545 100 82.0123 99.3426 82.0123 98.5311V82.8979ZM34.9602 97.0619L40.9179 97.0619L41.6494 97.0619L65.0395 97.0619V81.2092C65.0395 80.3977 65.6971 79.7401 66.5086 79.7401C67.3201 79.7401 67.9777 80.3977 67.9777 81.2092V88.132H79.0742V82.8979C79.0742 77.4746 77.4258 72.2764 74.3072 67.8648C73.8145 67.1971 72.3917 65.429 70.643 63.6988C67.6393 60.9369 64.0414 58.9254 60.1508 57.817C59.5451 62.882 55.2252 66.8227 49.9998 66.8227C44.7744 66.8227 40.4547 62.8822 39.8488 57.8176C34.785 59.2635 30.218 62.2494 26.8438 66.3555C23.0271 71 20.9254 76.8748 20.9254 82.8979V88.132H32.0219V81.2092C32.0219 80.3977 32.6795 79.74 33.491 79.74C34.3025 79.74 34.9602 80.3977 34.9602 81.2092V97.0619ZM34.1168 10.6068C31.7895 12.8266 29.3826 15.1217 26.8143 15.8145C25.0428 16.2922 23.1754 16.2506 21.8461 16.115C22.1619 23.4471 25.1314 29.0662 26.4537 31.2262C27.1658 30.9912 27.9254 30.8623 28.715 30.8623C29.1535 30.8623 29.59 30.9039 30.0193 30.9826V30.4631C30.0193 28.3615 31.5145 26.5439 33.5746 26.1414C33.9508 26.068 34.3322 25.985 34.7156 25.8977C34.0891 24.9367 33.7234 23.791 33.7234 22.5607C33.7234 17.7256 38.8195 14.2727 39.0365 14.1281C39.5299 13.7992 40.1727 13.7992 40.6662 14.1281C40.8687 14.2633 45.3238 17.283 45.9137 21.6188C49.4617 19.6451 52.5744 17.2098 55.1889 14.3547C55.7025 13.7938 56.4295 13.5053 57.1869 13.5617C57.9385 13.6186 58.6104 14.0104 59.0305 14.6367C60.5074 16.8379 64.3045 22.292 67.6562 25.384C69.133 26.7461 69.9801 28.699 69.9801 30.7422V30.9826C70.4094 30.9039 70.8461 30.8623 71.2846 30.8623C72.5773 30.8623 73.791 31.2049 74.8426 31.8016C78.9363 20.8479 76.1107 13.8305 74.6395 11.2406C72.8682 8.12285 70.2447 6.11739 67.4412 5.73867C62.7436 5.10332 59.5334 6.92969 59.5014 6.94805C59.1246 7.167 58.6799 7.2418 58.2701 7.09278C57.8664 6.94571 57.557 6.66328 57.4066 6.2625C57.2746 6.01504 55.3367 2.68614 47.2451 2.95391C44.3262 3.05098 41.5096 4.26133 38.3807 6.76211L34.1168 10.6068ZM71.285 33.8006C73.6537 33.8006 75.5809 35.7277 75.5809 38.0965C75.5809 40.4654 73.6537 42.3926 71.285 42.3926C70.7811 42.3926 70.2854 42.3039 69.8178 42.1338C69.925 41.2973 69.9805 40.4447 69.9805 39.5797V34.0039C70.4002 33.8703 70.841 33.8006 71.285 33.8006ZM38.5695 18.4488C39.0215 17.9428 39.4793 17.5207 39.8516 17.2055C40.2238 17.5207 40.6814 17.9428 41.1336 18.4488C42.0039 19.4232 43.0414 20.9275 43.0414 22.5609C43.0414 24.3197 41.6103 25.7508 39.8516 25.7508C38.0928 25.7508 36.6617 24.3197 36.6617 22.5609C36.6617 20.9275 37.6992 19.4232 38.5695 18.4488ZM28.715 42.3926C26.3463 42.3926 24.4191 40.4654 24.4191 38.0965C24.4191 35.7277 26.3463 33.8006 28.715 33.8006C29.159 33.8006 29.5996 33.8703 30.0193 34.0037V39.5795C30.0193 40.4447 30.0748 41.2973 30.182 42.1338C29.7146 42.3039 29.2189 42.3926 28.715 42.3926ZM32.9576 39.5795V30.4633C32.9576 29.7635 33.4541 29.159 34.1381 29.0252C35.2359 28.8107 36.3654 28.5383 37.502 28.2197C38.226 28.5215 39.0195 28.6889 39.8516 28.6889C42.2803 28.6889 44.3836 27.2688 45.3744 25.215C49.8277 23.026 53.7141 20.1959 56.9381 16.7877C58.6645 19.3256 62.3273 24.465 65.6645 27.5436C66.54 28.3512 67.042 29.517 67.042 30.7422V39.5793C67.042 48.9766 59.3969 56.6217 49.9998 56.6217C40.6027 56.6219 32.9576 48.9768 32.9576 39.5795ZM50 59.56C52.4977 59.56 54.8891 59.0979 57.0949 58.2572C56.341 61.4779 53.4473 63.8844 50 63.8844C46.5525 63.8844 43.6588 61.4779 42.9049 58.2572C45.1109 59.098 47.5023 59.56 50 59.56ZM32.0221 97.0619H20.9256V91.0701H32.0221V97.0619ZM79.0742 97.0619H67.9777V91.0701H79.0742V97.0619ZM39.3809 36.509C39.4146 36.4998 39.6943 36.4213 40.1281 36.2506V36.4553C40.1281 37.2668 40.7857 37.9244 41.5973 37.9244C42.4086 37.9244 43.0664 37.2668 43.0664 36.4553V34.5926C43.4195 34.3228 43.775 34.0201 44.1211 33.6801C44.7 33.1115 44.7082 32.1812 44.1396 31.6025C43.5709 31.0234 42.6412 31.0156 42.0621 31.584C40.4984 33.1197 38.6439 33.6639 38.6016 33.6758C37.8223 33.8918 37.3637 34.6975 37.5768 35.4783C37.7551 36.1316 38.3471 36.5609 38.993 36.5609C39.1213 36.5611 39.2514 36.5443 39.3809 36.509ZM44.0172 49.8328H55.9826C56.7941 49.8328 57.4518 49.1752 57.4518 48.3637C57.4518 44.2547 54.1088 40.9117 50 40.9117C45.891 40.9117 42.548 44.2547 42.548 48.3637C42.548 49.1752 43.2057 49.8328 44.0172 49.8328ZM50 43.85C51.9748 43.85 53.6574 45.1248 54.2682 46.8947H45.7316C46.3424 45.1246 48.0252 43.85 50 43.85ZM55.8789 33.6803C55.3 33.1117 55.2918 32.1817 55.8603 31.6027C56.4295 31.024 57.3591 31.0158 57.9379 31.5842C59.5113 33.1301 61.38 33.6711 61.3988 33.6764C62.1769 33.8963 62.6343 34.7049 62.4179 35.4842C62.2371 36.1344 61.649 36.5613 61.0058 36.5613C60.8781 36.5613 60.7482 36.5444 60.6189 36.5092C60.5853 36.5 60.3056 36.4215 59.8716 36.2508V36.4555C59.8716 37.267 59.214 37.9246 58.4025 37.9246C57.591 37.9246 56.9334 37.267 56.9334 36.4555V34.5926C56.5802 34.3229 56.225 34.0203 55.8789 33.6803ZM61.974 28.2352C61.974 29.0467 61.3164 29.7043 60.5049 29.7043C59.6934 29.7043 59.0357 29.0467 59.0357 28.2352V26.8152C59.0357 26.0037 59.6934 25.3461 60.5049 25.3461C61.3164 25.3461 61.974 26.0039 61.974 26.8152V28.2352ZM56.21 25.7176C57.0213 25.7176 57.6791 25.06 57.6791 24.2484V22.8285C57.6791 22.017 57.0215 21.3594 56.21 21.3594C55.3985 21.3594 54.7409 22.017 54.7409 22.8285V24.2484C54.7409 25.06 55.3985 25.7176 56.21 25.7176ZM52.8812 27.5252C52.8812 28.3367 52.2236 28.9943 51.4121 28.9943C50.6005 28.9943 49.9429 28.3367 49.9429 27.5252V26.1053C49.9429 25.2938 50.6007 24.6361 51.4121 24.6361C52.2236 24.6361 52.8812 25.2939 52.8812 26.1053V27.5252Z" fill="url(#paint0_linear)"/>
</g>
<defs>
<linearGradient id="paint0_linear" x1="50.5843" y1="-10.7349" x2="50.5853" y2="118.643" gradientUnits="userSpaceOnUse">
<stop stop-color="#F0F83C"/>
<stop offset="1" stop-color="#3BB339"/>
</linearGradient>
<clipPath id="clip0">
<rect width="100" height="100" fill="white"/>
</clipPath>
</defs>
</svg>
