<svg width="42" height="42" viewBox="0 0 42 42" fill="none" xmlns="http://www.w3.org/2000/svg">
<path d="M11.9698 38.8499L7.76982 40.7399L8.81982 41.1599H19.1098L15.1198 38.6399L14.9098 32.7599L17.6398 31.7099L21.4198 28.3499L23.0998 24.3599L22.4698 19.5299L20.5798 17.0099L6.08982 16.7999L3.56982 22.0499V24.9899L5.45982 28.3499L8.81982 31.2899L12.3898 32.7599L11.9698 38.8499Z" fill="#86C8EA" fill-opacity="0.25"/>
<path d="M25.4098 22.0499C25.4098 19.6979 24.1498 17.2899 23.5198 16.3799L26.0398 10.0799V1.88988L26.8798 0.629883H30.6598L33.8098 0.839883V9.86988L38.4298 22.4699V39.6899L37.7998 41.1599L26.8798 41.3699L22.0498 41.1599L21.4198 38.8499L21.8398 31.7099C24.5698 28.7699 25.4098 24.9899 25.4098 22.0499Z" fill="#86C8EA" fill-opacity="0.25"/>
<path fill-rule="evenodd" clip-rule="evenodd" d="M37.6493 18.1459L34.3948 10.0207V1.65171C34.3948 0.740914 33.6539 0 32.7432 0H27.1803C26.2695 0 25.5286 0.740914 25.5286 1.65171V10.0208L22.9877 16.3647L24.1304 16.8225L25.1318 14.3223H34.7917L36.5066 18.6038C36.9051 19.5986 37.1972 20.622 37.3832 21.6653H25.4224V22.8964H37.553C37.6014 23.3969 37.626 23.9012 37.626 24.4084V31.0898H37.6258V36.3934H22.2975V31.7645H21.0665V39.6942C21.0665 40.9656 22.1009 42 23.3723 42H36.5511C37.8225 42 38.8569 40.9656 38.8569 39.6942V31.3219H38.857V24.4084C38.8569 22.2533 38.4507 20.1463 37.6493 18.1459ZM32.7432 1.23103H27.1803C26.9484 1.23103 26.7596 1.41978 26.7596 1.65171V4.95537H33.1638V1.65171C33.1638 1.41978 32.9751 1.23103 32.7432 1.23103ZM26.7155 10.3684L25.6248 13.0913H34.2987L33.208 10.3684C33.1788 10.2955 33.1638 10.2178 33.1638 10.1395V6.1864H26.7596V10.1395C26.7596 10.2178 26.7446 10.2955 26.7155 10.3684ZM20.539 30.3006C22.4973 28.3661 23.5757 25.7849 23.5757 23.0324C23.5757 20.6897 22.7624 18.4005 21.2857 16.5867C21.0662 16.317 20.7425 16.1622 20.3976 16.1622H10.5255H7.9023H6.32117C5.9764 16.1622 5.65288 16.3167 5.43368 16.5861C3.95653 18.4001 3.14307 20.6895 3.14307 23.0324C3.14307 25.7486 4.18673 28.3014 6.08194 30.2204C7.54686 31.7038 9.3966 32.6824 11.415 33.0659V34.1758L11.4149 36.7994V38.1853L7.36984 40.0927C6.94284 40.2941 6.71657 40.7566 6.81981 41.2173C6.92306 41.678 7.32486 41.9998 7.797 41.9998H19.2212C19.6933 41.9998 20.095 41.678 20.1983 41.2173C20.3015 40.7566 20.0753 40.2941 19.6483 40.0927L15.6033 38.1853V33.0032C17.4542 32.5907 19.1557 31.6672 20.539 30.3006ZM20.3548 17.3932H10.5255H7.9023H6.36392C5.08037 18.9836 4.37401 20.9847 4.37401 23.0324C4.37401 23.364 4.39223 23.6926 4.42711 24.0174L7.29442 24.968C9.43049 25.6762 11.7211 25.7947 13.9187 25.3107C16.3555 24.774 18.8932 24.9114 21.2579 25.708L21.8745 25.9157C22.1837 24.9995 22.3447 24.0288 22.3447 23.0324C22.3447 20.9847 21.6383 18.9835 20.3548 17.3932ZM12.646 33.2238V34.1758L12.6459 36.7994V38.5756C12.6459 38.8138 12.5084 39.0307 12.293 39.1323L8.82228 40.7688H18.1959L14.7253 39.1323C14.5099 39.0307 14.3723 38.8138 14.3723 38.5756V33.1996C14.0382 33.2322 13.7008 33.2488 13.3607 33.2488C13.318 33.2488 13.2752 33.2485 13.2324 33.248C13.0358 33.2456 12.8404 33.237 12.646 33.2238ZM13.2473 32.0171C13.2848 32.0175 13.3227 32.0177 13.3602 32.0177C15.7406 32.0177 17.9787 31.0996 19.6739 29.4248C20.3852 28.722 20.9642 27.922 21.3993 27.0546L20.8648 26.8745C18.7122 26.1493 16.4018 26.0242 14.1835 26.5128C11.7694 27.0445 9.25331 26.9144 6.90697 26.1365L4.68472 25.3997C5.08333 26.8825 5.85699 28.2408 6.95769 29.3554C8.62392 31.0428 10.8576 31.988 13.2473 32.0171ZM36.5511 40.769H23.3723C22.7797 40.769 22.2975 40.2868 22.2975 39.6942V37.6244H37.6258V39.6942C37.6258 40.2868 37.1436 40.769 36.5511 40.769Z" fill="#86C8EA"/>
</svg>
