<svg width="24" height="24" viewBox="0 0 24 24" fill="none" xmlns="http://www.w3.org/2000/svg">
<path fill-rule="evenodd" clip-rule="evenodd" d="M21.8387 5.15941C22.1794 5.51057 22.4213 5.94541 22.5401 6.42C22.8573 8.1787 23.0113 9.96295 23.0001 11.75C23.0064 13.5103 22.8524 15.2676 22.5401 17C22.4213 17.4746 22.1794 17.9094 21.8387 18.2606C21.4981 18.6118 21.0708 18.8668 20.6001 19C18.8801 19.46 12.0001 19.46 12.0001 19.46C12.0001 19.46 5.12008 19.46 3.40008 19C2.9389 18.8738 2.51806 18.6308 2.17823 18.2945C1.83839 17.9581 1.59104 17.5398 1.46008 17.08C1.14285 15.3213 0.988863 13.537 1.00008 11.75C0.991319 9.97631 1.1453 8.20556 1.46008 6.46C1.57887 5.98541 1.8208 5.55057 2.16143 5.19941C2.50206 4.84824 2.92933 4.59318 3.40008 4.46C5.12008 4 12.0001 4 12.0001 4C12.0001 4 18.8801 4 20.6001 4.42C21.0708 4.55318 21.4981 4.80824 21.8387 5.15941ZM15.5 11.75L9.75 15.02V8.47998L15.5 11.75Z" fill="#25A3E5"/>
</svg>
